<?xml version="1.0" encoding="UTF-8" standalone="no"?>
<svg
   width="29"
   height="29"
   x="3.5"
   y="3"
   viewBox="0 0 24 24"
   version="1.1"
   id="svg12"
   sodipodi:docname="air_filter.svg"
   inkscape:version="1.4.3 (0d15f75, 2025-12-25)"
   xmlns:inkscape="http://www.inkscape.org/namespaces/inkscape"
   xmlns:sodipodi="http://sodipodi.sourceforge.net/DTD/sodipodi-0.dtd"
   xmlns="http://www.w3.org/2000/svg"
   xmlns:svg="http://www.w3.org/2000/svg">
  <defs
     id="defs16" />
  <sodipodi:namedview
     id="namedview14"
     pagecolor="#ffffff"
     bordercolor="#666666"
     borderopacity="1.0"
     inkscape:pageshadow="2"
     inkscape:pageopacity="0.0"
     inkscape:pagecheckerboard="0"
     showgrid="false"
     inkscape:zoom="32"
     inkscape:cx="13.609375"
     inkscape:cy="19.4375"
     inkscape:window-width="2560"
     inkscape:window-height="1387"
     inkscape:window-x="1352"
     inkscape:window-y="25"
     inkscape:window-maximized="1"
     inkscape:current-layer="svg12"
     inkscape:showpageshadow="2"
     inkscape:deskcolor="#d1d1d1" />
  <path
     d="M 13.99,6.49 V 1.9 C 13.93667,0.83466631 13.056667,-0.00133413 11.99,0 l -6,1 C 4.9270001,0.998391 4.0484638,1.8286079 3.99,2.89 v 2.21 7.8 3.2 c 0.053333,1.065334 0.933333,1.901334 2,1.9 l 6,-0.95 c 1.063,0.0016 1.941536,-0.828608 2,-1.89 v -1.11 z m -1.89,7.18 v 1.54 L 5.7,16.2 V 2.76 l 6.4,-1 V 6 Z"
     id="line"
     style="display:inline"
     transform="matrix(0.92041415,0,0,0.92041415,3.7241379,3.7162725)"
     inkscape:label="line"
     sodipodi:nodetypes="cccccccccccccccccccc" />
  <path
     id="wind"
     style="display:inline;stroke-width:0.827586"
     d="m 16.544045,15.228805 c -0.323646,-0.02521 -0.962865,-0.17131 -1.636478,-0.468314 l -0.05288,-0.0154 -0.136579,-0.06295 C 14.130096,14.305585 13.44496,14.047746 12.753405,13.951287 11.75291,13.715761 11.559947,15.302343 12.58773,15.3135 c 0.512082,0.0866 1.000847,0.277723 1.435846,0.561453 0.270521,0.157667 0.50172,0.273187 0.789086,0.397528 l 0.09655,0.02168 c 0.386404,0.120626 1.042647,0.318922 1.701362,0.353922 l 0.161491,0.0065 c 1.223705,-0.05149 2.229715,-0.489003 3.19738,-1.239821 0.287421,-0.245201 0.324338,-0.675899 0.08284,-0.966435 -0.222024,-0.27922 -0.618594,-0.346637 -0.920414,-0.156471 -0.741605,0.562404 -1.544191,0.896603 -2.474205,0.933345 z m -0.03858,-2.765722 c -0.451864,-0.03549 -0.531175,-0.06394 -1.55279,-0.410355 -0.08658,-0.04676 -0.17147,-0.09651 -0.257205,-0.144771 -0.588784,-0.375004 -1.250942,-0.619783 -1.942074,-0.717923 -0.992949,-0.232552 -1.19437,1.336411 -0.174879,1.362213 0.512876,0.08372 1.002219,0.275064 1.435846,0.561452 0.274694,0.155782 0.571285,0.255633 0.860726,0.38192 l 0.06379,0.02022 c 0.414089,0.149604 0.427914,0.241554 1.565051,0.357482 l 0.118169,0.01352 c 1.22263,-0.05685 2.340217,-0.487326 3.310525,-1.233355 0.306461,-0.225889 0.375998,-0.655386 0.156471,-0.966435 -0.219671,-0.283176 -0.619509,-0.351148 -0.920414,-0.15647 -0.743294,0.559281 -1.635389,0.896351 -2.564723,0.936578 z m 0.114654,-1.356873 c 1.220043,-0.05577 2.373802,-0.467061 3.340115,-1.2139584 0.809204,-0.5229696 -0.04269,-1.717581 -0.80076,-1.1229053 -0.740735,0.5575379 -1.548542,0.871885 -2.4747,0.9139487 L 16.518282,9.6550226 C 16.05624,9.5890158 15.22638,9.4120988 14.951407,9.2633687 l -0.08702,-0.037542 -0.178111,-0.07911 C 14.095966,8.7798833 13.433599,8.544445 12.744197,8.4564055 11.743701,8.22088 11.550739,9.8074615 12.578522,9.8186184 c 0.512082,0.086604 1.000847,0.2777226 1.435846,0.5614526 0.274694,0.155782 0.495918,0.255078 0.785359,0.381365 l 0.108365,0.03931 c 0.857447,0.229051 0.942094,0.271824 1.60549,0.304284 z"
     sodipodi:nodetypes="cccccccccccccccccccccccccccccccccccccccccccccc"
     inkscape:label="wind" />
  <path
     id="dust"
     style="display:inline"
     inkscape:label="dust"
     transform="matrix(0.92041415,0,0,0.92041415,3.7241379,3.7162725)"
     d="m 3.99,5.1 c -1.1999995,0 -1.1999995,1.8 0,1.8 v 1.2 c -1.1999995,0 -1.1999995,1.8 0,1.8 v 1.2 c -1.1999995,0 -1.1999995,1.8 0,1.8 z M 1.8,13.000001 A 0.89999999,0.89999999 0 0 1 0.89999996,13.9 0.89999999,0.89999999 0 0 1 0,13.000001 0.89999999,0.89999999 0 0 1 0.89999996,12.1 0.89999999,0.89999999 0 0 1 1.8,13.000001 Z M 1.8,10 A 0.89999999,0.89999999 0 0 1 0.89999996,10.9 0.89999999,0.89999999 0 0 1 0,10 0.89999999,0.89999999 0 0 1 0.89999996,9.0999997 0.89999999,0.89999999 0 0 1 1.8,10 Z m 0,-2.9999995 A 0.89999999,0.89999999 0 0 1 0.89999996,7.8999997 0.89999999,0.89999999 0 0 1 0,7.0000005 0.89999999,0.89999999 0 0 1 0.89999996,6.1000001 0.89999999,0.89999999 0 0 1 1.8,7.0000005 Z" />
</svg>
