<?xml version="1.0" encoding="UTF-8" standalone="no"?>
<svg
   width="32"
   height="32"
   fill="#000000"
   viewBox="0 0 256 256"
   version="1.1"
   id="svg8"
   sodipodi:docname="error_icon.svg"
   inkscape:version="1.4.3 (0d15f75, 2025-12-25)"
   xmlns:inkscape="http://www.inkscape.org/namespaces/inkscape"
   xmlns:sodipodi="http://sodipodi.sourceforge.net/DTD/sodipodi-0.dtd"
   xmlns="http://www.w3.org/2000/svg"
   xmlns:svg="http://www.w3.org/2000/svg">
  <defs
     id="defs12" />
  <sodipodi:namedview
     id="namedview10"
     pagecolor="#ffffff"
     bordercolor="#999999"
     borderopacity="1"
     inkscape:showpageshadow="0"
     inkscape:pageopacity="0"
     inkscape:pagecheckerboard="0"
     inkscape:deskcolor="#d1d1d1"
     showgrid="false"
     inkscape:zoom="26.71875"
     inkscape:cx="15.962573"
     inkscape:cy="16"
     inkscape:window-width="1024"
     inkscape:window-height="1186"
     inkscape:window-x="2240"
     inkscape:window-y="25"
     inkscape:window-maximized="0"
     inkscape:current-layer="svg8" />
  <path
     style="stroke-width:0.78"
     d="M 128,46.88 A 81.12,81.12 0 1 0 209.12,128 81.2058,81.2058 0 0 0 128,46.88 Z m 0,149.76 A 68.64,68.64 0 1 1 196.64,128 68.718,68.718 0 0 1 128,196.64 Z"
     id="error" />
  <path
     id="error-text"
     style="stroke-width:0.78"
     d="M 121.76,134.24 V 90.56 a 6.24,6.24 0 0 1 12.48,0 v 43.68 a 6.24,6.24 0 0 1 -12.48,0 z m 15.6,28.08 a 9.36,9.36 0 1 1 -9.36,-9.36 9.36,9.36 0 0 1 9.36,9.36 z" />
</svg>
