<?xml version="1.0" encoding="UTF-8" standalone="no"?>
<!-- Created with Inkscape (http://www.inkscape.org/) -->

<svg
   width="512"
   height="512"
   viewBox="0 0 135.46667 135.46667"
   version="1.1"
   id="svg5"
   inkscape:version="1.4.3 (0d15f75, 2025-12-25)"
   sodipodi:docname="house_thermometer.svg"
   xmlns:inkscape="http://www.inkscape.org/namespaces/inkscape"
   xmlns:sodipodi="http://sodipodi.sourceforge.net/DTD/sodipodi-0.dtd"
   xmlns="http://www.w3.org/2000/svg"
   xmlns:svg="http://www.w3.org/2000/svg">
  <sodipodi:namedview
     id="namedview7"
     pagecolor="#ffffff"
     bordercolor="#666666"
     borderopacity="1.0"
     inkscape:pageshadow="2"
     inkscape:pageopacity="0.0"
     inkscape:pagecheckerboard="0"
     inkscape:document-units="px"
     showgrid="false"
     units="px"
     height="1200px"
     inkscape:zoom="1.5055415"
     inkscape:cx="83.358711"
     inkscape:cy="146.12682"
     inkscape:window-width="2560"
     inkscape:window-height="1387"
     inkscape:window-x="1352"
     inkscape:window-y="25"
     inkscape:window-maximized="0"
     inkscape:current-layer="svg5"
     inkscape:showpageshadow="2"
     inkscape:deskcolor="#d1d1d1" />
  <defs
     id="defs2" />
  <g
     inkscape:label="Layer 1"
     inkscape:groupmode="layer"
     id="layer1">
    <path
       style="stroke-width:2.56206"
       d="m 61.200044,88.773264 c 0,1.819079 0.6149,3.381904 1.870309,4.663015 1.25542,1.281026 2.741431,1.921479 4.509259,1.921479 1.767836,0 3.279459,-0.640068 4.586113,-1.921479 1.306665,-1.281111 1.947186,-2.843936 1.947186,-4.637356 0,-1.614142 -0.563674,-3.048839 -1.665358,-4.278632 -1.101687,-1.229793 -2.459594,-1.972798 -4.048076,-2.177802 V 63.485642 c 0,-0.153955 -0.07649,-0.333117 -0.256223,-0.487088 -0.179339,-0.179141 -0.358676,-0.256608 -0.563671,-0.256608 -0.230564,0 -0.409903,0.07749 -0.538015,0.205293 -0.128109,0.153953 -0.204998,0.30794 -0.204998,0.538403 v 18.805629 c -1.562867,0.230461 -2.895144,0.947995 -3.996837,2.177703 -1.101695,1.255451 -1.639737,2.664588 -1.639725,4.30429 z"
       id="thermometer-inner" />
    <g
       id="g23"
       transform="matrix(0.20668555,0,0,0.20668555,14.821834,14.829551)">
      <path
         id="line"
         class="st0"
         d="m 231.9,30.6 c 13.3,-13.3 34.9,-13.3 48.3,0 L 507,257.4 c 6.7,6.7 6.7,17.5 0,24.2 -6.7,6.7 -17.5,6.7 -24.2,0 L 256,54.8 29.2,281.6 c -6.7,6.7 -17.5,6.7 -24.2,0 -6.7,-6.7 -6.7,-17.5 0,-24.2 z M 51.2,440.2 V 259.60479 L 85.3,225.50077 V 440.1 c 0,9.4 7.6,17.1 17.1,17.1 h 307.2 c 9.4,0 17.1,-7.6 17.1,-17.1 V 225.50077 l 34.1,34.10402 V 440.1 c 0,28.3 -22.9,51.2 -51.2,51.2 H 102.4 C 74.1,491.4 51.2,468.4 51.2,440.2 Z M 426.7,64.7 v 112.40551 l -68.3,-68.3 V 64.7 c 0,-9.4 7.6,-17.1 17.1,-17.1 h 34.1 c 9.4,0.1 17.1,7.7 17.1,17.1 z M 192.90431,357.75947 c 0,-10.53639 2.47937,-20.32913 7.31363,-29.50211 4.83447,-9.17348 11.65226,-16.73475 20.45344,-22.80896 V 182.48023 c 0,-9.91697 3.34706,-18.34638 10.16473,-25.16415 6.81781,-6.8178 15.24707,-10.41267 25.16389,-10.41267 10.0408,0 18.47004,3.4717 25.28786,10.289 6.81782,6.94144 10.28869,15.24671 10.28869,25.16367 v 122.96858 c 8.80115,6.0738 15.495,13.75922 20.32946,22.80855 4.83442,9.04924 7.18968,18.96573 7.18968,29.50252 0,11.40435 -2.8509,22.06481 -8.42927,31.73348 -5.57822,9.66921 -13.26377,17.35478 -22.93265,22.93285 -9.6689,5.57819 -20.20547,8.42957 -31.73378,8.42957 -11.40434,0 -21.9409,-2.85322 -31.6098,-8.42957 -9.66888,-5.57807 -17.35444,-13.26364 -23.05657,-22.93285 -5.70219,-9.66867 -8.42931,-20.20546 -8.42931,-31.60974 z m 21.817,0 c 0,11.52842 4.09057,21.44489 12.14806,29.62653 8.05739,8.18113 17.85026,12.27225 29.2546,12.27225 11.52827,0 21.44509,-4.09013 29.75041,-12.39642 8.30535,-8.30527 12.51998,-18.09808 12.51998,-29.37821 0,-7.68543 -1.9832,-14.87525 -5.95009,-21.44515 -3.96688,-6.5699 -9.42095,-11.65232 -16.36273,-15.24719 l -3.47073,-1.7335 c -1.23968,-0.49663 -1.85952,-1.7335 -1.85952,-3.59349 V 182.48356 c 0,-3.96837 -1.36337,-7.31397 -4.21471,-10.0412 -2.8509,-2.60486 -6.32196,-3.96828 -10.53663,-3.96828 -3.96687,0 -7.4376,1.36342 -10.28867,3.96828 -2.8509,2.60495 -4.21473,5.95015 -4.21473,10.0412 v 133.13285 c 0,1.86 -0.61983,3.10161 -1.73537,3.59349 l -3.34704,1.73349 c -6.81776,3.59349 -12.14807,8.67731 -15.99082,15.2472 -3.84274,6.56998 -5.70216,13.63556 -5.70216,21.56888 z" />
    </g>
  </g>
  <style
     type="text/css"
     id="style17">
	.st0{fill-rule:evenodd;clip-rule:evenodd;}
</style>
</svg>
