<?xml version="1.0" encoding="UTF-8" standalone="no"?>
<!-- Generator: Adobe Illustrator 22.0.1, SVG Export Plug-In . SVG Version: 6.00 Build 0)  -->

<svg
   version="1.1"
   id="Layer_1"
   x="0px"
   y="0px"
   viewBox="0 0 30 30"
   style="enable-background:new 0 0 30 30;"
   xml:space="preserve"
   sodipodi:docname="wi-cloudy.svg"
   inkscape:version="1.4.3 (0d15f75, 2025-12-25)"
   xmlns:inkscape="http://www.inkscape.org/namespaces/inkscape"
   xmlns:sodipodi="http://sodipodi.sourceforge.net/DTD/sodipodi-0.dtd"
   xmlns="http://www.w3.org/2000/svg"
   xmlns:svg="http://www.w3.org/2000/svg"><defs
   id="defs1" /><sodipodi:namedview
   id="namedview1"
   pagecolor="#ffffff"
   bordercolor="#000000"
   borderopacity="0.25"
   inkscape:showpageshadow="2"
   inkscape:pageopacity="0.0"
   inkscape:pagecheckerboard="0"
   inkscape:deskcolor="#d1d1d1"
   inkscape:zoom="30.066667"
   inkscape:cx="14.98337"
   inkscape:cy="15"
   inkscape:window-width="2560"
   inkscape:window-height="1387"
   inkscape:window-x="1352"
   inkscape:window-y="25"
   inkscape:window-maximized="0"
   inkscape:current-layer="Layer_1" />
<path
   d="m 14.19,8.88 c -0.1,0.09 -0.08,0.16 0.07,0.21 0.43,0.19 0.79,0.37 1.08,0.55 0.11,0.03 0.19,0.02 0.22,-0.03 0.61,-0.57 1.31,-0.86 2.12,-0.86 0.81,0 1.5,0.27 2.1,0.81 0.59,0.54 0.92,1.21 0.99,2 l 0.09,0.64 h 1.42 c 0.65,0 1.21,0.23 1.68,0.7 0.47,0.47 0.7,1.02 0.7,1.66 0,0.6 -0.21,1.12 -0.62,1.57 -0.41,0.45 -0.92,0.7 -1.53,0.77 -0.1,0 -0.15,0.05 -0.15,0.16 v 1.13 c 0,0.11 0.05,0.16 0.15,0.16 1.01,-0.06 1.86,-0.46 2.55,-1.19 0.69,-0.73 1.04,-1.6 1.04,-2.6 0,-1.06 -0.37,-1.96 -1.12,-2.7 -0.75,-0.75 -1.65,-1.12 -2.7,-1.12 H 22.13 C 21.87,9.74 21.32,8.92 20.48,8.27 19.65,7.62 18.71,7.3 17.68,7.3 16.28,7.29 15.11,7.82 14.19,8.88 Z"
   id="cloud2" /><path
   d="m 3.89,17.6 c 0,-0.99 0.31,-1.88 0.93,-2.65 0.62,-0.77 1.41,-1.27 2.38,-1.49 0.26,-1.17 0.85,-2.14 1.78,-2.88 0.93,-0.75 2,-1.12 3.22,-1.12 1.18,0 2.24,0.36 3.16,1.09 0.93,0.73 1.53,1.66 1.8,2.8 h 0.27 c 1.18,0 2.18,0.41 3.01,1.24 0.83,0.83 1.25,1.83 1.25,3 0,1.18 -0.42,2.18 -1.25,3.01 -0.83,0.83 -1.83,1.25 -3.01,1.25 H 8.16 C 7.58,21.85 7.03,21.74 6.51,21.51 5.99,21.28 5.52,21 5.14,20.62 4.76,20.24 4.46,19.78 4.23,19.26 4,18.74 3.89,18.17 3.89,17.6 Z m 1.45,0 c 0,0.76 0.28,1.42 0.82,1.96 0.54,0.54 1.21,0.82 1.99,0.82 h 9.28 c 0.77,0 1.44,-0.27 1.99,-0.82 0.55,-0.55 0.83,-1.2 0.83,-1.96 0,-0.76 -0.27,-1.42 -0.83,-1.96 -0.55,-0.54 -1.21,-0.82 -1.99,-0.82 h -1.39 c -0.1,0 -0.15,-0.05 -0.15,-0.15 l -0.07,-0.49 c -0.1,-0.94 -0.5,-1.73 -1.19,-2.35 -0.69,-0.62 -1.51,-0.93 -2.45,-0.93 -0.94,0 -1.76,0.31 -2.46,0.94 -0.7,0.62 -1.09,1.41 -1.18,2.34 L 8.47,14.6 c 0,0.1 -0.05,0.15 -0.16,0.15 L 7.86,14.82 C 7.14,14.88 6.54,15.18 6.05,15.71 5.59,16.24 5.34,16.87 5.34,17.6 Z"
   id="cloud" />
</svg>
