<?xml version="1.0" encoding="UTF-8" standalone="no"?>
<!-- Generator: Adobe Illustrator 22.0.1, SVG Export Plug-In . SVG Version: 6.00 Build 0)  -->

<svg
   version="1.1"
   id="Layer_1"
   x="0px"
   y="0px"
   viewBox="0 0 30 30"
   style="enable-background:new 0 0 30 30;"
   xml:space="preserve"
   sodipodi:docname="wi-cloud-up.svg"
   inkscape:version="1.4.3 (0d15f75, 2025-12-25)"
   xmlns:inkscape="http://www.inkscape.org/namespaces/inkscape"
   xmlns:sodipodi="http://sodipodi.sourceforge.net/DTD/sodipodi-0.dtd"
   xmlns="http://www.w3.org/2000/svg"
   xmlns:svg="http://www.w3.org/2000/svg"><defs
   id="defs1" /><sodipodi:namedview
   id="namedview1"
   pagecolor="#ffffff"
   bordercolor="#000000"
   borderopacity="0.25"
   inkscape:showpageshadow="2"
   inkscape:pageopacity="0.0"
   inkscape:pagecheckerboard="0"
   inkscape:deskcolor="#d1d1d1"
   inkscape:zoom="30.066667"
   inkscape:cx="14.98337"
   inkscape:cy="14.98337"
   inkscape:window-width="1024"
   inkscape:window-height="1186"
   inkscape:window-x="2240"
   inkscape:window-y="25"
   inkscape:window-maximized="0"
   inkscape:current-layer="Layer_1" />
<path
   d="m 11.58,17.51 c 0,0.25 0.08,0.46 0.24,0.64 0.15,0.15 0.35,0.23 0.61,0.23 0.24,0 0.45,-0.08 0.62,-0.23 l 1.11,-1.14 v 3.98 c 0,0.24 0.08,0.44 0.23,0.61 0.16,0.17 0.35,0.25 0.59,0.25 0.23,0 0.43,-0.08 0.6,-0.25 0.17,-0.17 0.25,-0.37 0.25,-0.61 v -3.94 l 1.12,1.11 c 0.4,0.31 0.81,0.31 1.22,0 0.16,-0.15 0.24,-0.36 0.24,-0.62 0,-0.24 -0.08,-0.44 -0.24,-0.62 l -2.59,-2.57 c -0.16,-0.16 -0.36,-0.24 -0.6,-0.24 -0.24,0 -0.44,0.08 -0.59,0.24 l -2.58,2.57 c -0.15,0.16 -0.23,0.35 -0.23,0.59 z"
   id="line" /><path
   d="m 4.64,16.88 c 0,1.33 0.46,2.48 1.39,3.43 0.93,0.96 2.06,1.47 3.4,1.53 0.11,0 0.17,-0.06 0.17,-0.17 V 20.34 C 9.6,20.22 9.54,20.15 9.43,20.15 8.57,20.11 7.85,19.77 7.25,19.13 c -0.6,-0.64 -0.9,-1.39 -0.9,-2.25 0,-0.82 0.28,-1.54 0.84,-2.16 0.56,-0.61 1.26,-0.97 2.1,-1.07 h 0.53 c 0.13,0 0.2,-0.06 0.2,-0.18 l 0.06,-0.57 c 0.11,-1.08 0.57,-1.99 1.38,-2.72 0.81,-0.73 1.77,-1.1 2.86,-1.1 1.08,0 2.03,0.37 2.85,1.1 0.82,0.73 1.28,1.64 1.39,2.72 l 0.08,0.57 c 0,0.12 0.06,0.18 0.18,0.18 h 1.61 c 0.89,0 1.66,0.32 2.31,0.96 0.65,0.64 0.98,1.4 0.98,2.26 0,0.86 -0.3,1.61 -0.9,2.25 -0.6,0.64 -1.33,0.98 -2.18,1.02 -0.13,0 -0.2,0.06 -0.2,0.19 v 1.33 c 0,0.11 0.07,0.17 0.2,0.17 0.87,-0.02 1.67,-0.26 2.4,-0.71 0.73,-0.45 1.31,-1.05 1.73,-1.8 0.42,-0.75 0.63,-1.57 0.63,-2.44 0,-0.67 -0.13,-1.31 -0.39,-1.91 -0.26,-0.61 -0.62,-1.13 -1.06,-1.57 -0.44,-0.44 -0.97,-0.79 -1.58,-1.05 -0.61,-0.26 -1.25,-0.39 -1.92,-0.39 H 20.13 C 19.8,10.62 19.1,9.53 18.02,8.67 16.95,7.82 15.72,7.39 14.34,7.39 c -1.41,0 -2.67,0.44 -3.76,1.32 -1.09,0.88 -1.79,2 -2.1,3.36 -1.11,0.26 -2.02,0.83 -2.73,1.73 -0.76,0.91 -1.11,1.93 -1.11,3.08 z"
   id="cloud" />
</svg>
