<?xml version="1.0" encoding="UTF-8" standalone="no"?>
<!-- Generator: Adobe Illustrator 22.0.1, SVG Export Plug-In . SVG Version: 6.00 Build 0)  -->

<svg
   version="1.1"
   id="Layer_1"
   x="0px"
   y="0px"
   viewBox="0 0 30 30"
   style="enable-background:new 0 0 30 30;"
   xml:space="preserve"
   sodipodi:docname="wi-cloud-refresh.svg"
   inkscape:version="1.4.3 (0d15f75, 2025-12-25)"
   xmlns:inkscape="http://www.inkscape.org/namespaces/inkscape"
   xmlns:sodipodi="http://sodipodi.sourceforge.net/DTD/sodipodi-0.dtd"
   xmlns="http://www.w3.org/2000/svg"
   xmlns:svg="http://www.w3.org/2000/svg"><defs
   id="defs1" /><sodipodi:namedview
   id="namedview1"
   pagecolor="#ffffff"
   bordercolor="#000000"
   borderopacity="0.25"
   inkscape:showpageshadow="2"
   inkscape:pageopacity="0.0"
   inkscape:pagecheckerboard="0"
   inkscape:deskcolor="#d1d1d1"
   inkscape:zoom="30.066667"
   inkscape:cx="14.98337"
   inkscape:cy="14.98337"
   inkscape:window-width="1024"
   inkscape:window-height="1186"
   inkscape:window-x="2240"
   inkscape:window-y="25"
   inkscape:window-maximized="0"
   inkscape:current-layer="Layer_1" />
<path
   d="m 10.86,18.18 c 0,0.74 0.19,1.43 0.56,2.07 0.37,0.64 0.88,1.14 1.51,1.51 0.63,0.38 1.32,0.56 2.06,0.56 1.15,0 2.13,-0.41 2.95,-1.22 0.82,-0.82 1.23,-1.79 1.23,-2.92 0,-0.23 -0.08,-0.43 -0.25,-0.6 -0.17,-0.17 -0.37,-0.25 -0.61,-0.25 -0.24,0 -0.44,0.08 -0.61,0.25 -0.17,0.17 -0.26,0.37 -0.26,0.6 0,0.67 -0.24,1.24 -0.72,1.73 -0.48,0.48 -1.05,0.72 -1.73,0.72 -0.66,0 -1.23,-0.24 -1.71,-0.72 -0.48,-0.48 -0.72,-1.06 -0.72,-1.73 0,-0.6 0.18,-1.13 0.53,-1.6 0.36,-0.47 0.79,-0.73 1.31,-0.77 l -0.41,0.39 c -0.15,0.15 -0.23,0.34 -0.23,0.57 0,0.25 0.07,0.47 0.23,0.66 0.14,0.15 0.31,0.23 0.53,0.23 0.22,0.01 0.45,-0.07 0.7,-0.23 l 1.82,-1.87 c 0.17,-0.17 0.25,-0.36 0.25,-0.58 0,-0.25 -0.08,-0.45 -0.25,-0.61 l -1.82,-1.83 c -0.19,-0.18 -0.39,-0.26 -0.62,-0.26 -0.23,0 -0.43,0.08 -0.59,0.25 -0.16,0.17 -0.24,0.37 -0.24,0.61 0,0.24 0.07,0.43 0.23,0.58 l 0.35,0.36 c -1,0.17 -1.83,0.63 -2.49,1.4 -0.67,0.76 -1,1.66 -1,2.7 z"
   id="line" /><path
   d="m 4.63,16.91 c 0,0.66 0.12,1.28 0.38,1.88 0.25,0.6 0.59,1.11 1.02,1.55 0.43,0.43 0.94,0.79 1.53,1.05 0.59,0.27 1.21,0.42 1.87,0.45 0.11,0 0.17,-0.06 0.17,-0.17 V 20.34 C 9.6,20.22 9.54,20.15 9.43,20.15 8.56,20.09 7.83,19.74 7.24,19.12 6.65,18.5 6.35,17.76 6.35,16.91 6.35,16.07 6.63,15.34 7.2,14.72 7.77,14.1 8.46,13.75 9.3,13.68 l 0.52,-0.07 c 0.13,0 0.2,-0.06 0.2,-0.17 l 0.07,-0.52 c 0.07,-0.71 0.3,-1.36 0.69,-1.95 0.39,-0.58 0.9,-1.04 1.52,-1.37 0.62,-0.33 1.29,-0.49 2.01,-0.49 1.09,0 2.05,0.36 2.86,1.08 0.82,0.72 1.28,1.62 1.39,2.7 l 0.06,0.57 c 0,0.12 0.06,0.18 0.19,0.18 h 1.61 c 0.9,0 1.67,0.32 2.32,0.97 0.64,0.64 0.97,1.41 0.97,2.3 0,0.85 -0.3,1.59 -0.89,2.21 -0.59,0.62 -1.32,0.97 -2.19,1.03 -0.13,0 -0.2,0.06 -0.2,0.19 v 1.33 c 0,0.11 0.07,0.17 0.2,0.17 1.34,-0.06 2.47,-0.57 3.39,-1.51 0.92,-0.94 1.38,-2.09 1.38,-3.42 0,-0.89 -0.22,-1.72 -0.67,-2.48 -0.45,-0.76 -1.05,-1.36 -1.81,-1.8 -0.76,-0.44 -1.59,-0.67 -2.48,-0.67 H 20.12 C 19.79,10.63 19.08,9.54 18.01,8.68 16.9,7.82 15.67,7.4 14.3,7.4 c -1.41,0 -2.66,0.44 -3.75,1.33 -1.09,0.89 -1.8,2.01 -2.11,3.38 -1.11,0.26 -2.02,0.84 -2.73,1.74 -0.72,0.89 -1.08,1.91 -1.08,3.06 z"
   id="cloud" />
</svg>
