<?xml version="1.0" encoding="UTF-8" standalone="no"?>
<!-- Generator: Adobe Illustrator 22.0.1, SVG Export Plug-In . SVG Version: 6.00 Build 0)  -->

<svg
   version="1.1"
   id="Layer_1"
   x="0px"
   y="0px"
   viewBox="0 0 30 30"
   style="enable-background:new 0 0 30 30;"
   xml:space="preserve"
   sodipodi:docname="wi-cloud-down.svg"
   inkscape:version="1.4.3 (0d15f75, 2025-12-25)"
   xmlns:inkscape="http://www.inkscape.org/namespaces/inkscape"
   xmlns:sodipodi="http://sodipodi.sourceforge.net/DTD/sodipodi-0.dtd"
   xmlns="http://www.w3.org/2000/svg"
   xmlns:svg="http://www.w3.org/2000/svg"><defs
   id="defs1" /><sodipodi:namedview
   id="namedview1"
   pagecolor="#ffffff"
   bordercolor="#000000"
   borderopacity="0.25"
   inkscape:showpageshadow="2"
   inkscape:pageopacity="0.0"
   inkscape:pagecheckerboard="0"
   inkscape:deskcolor="#d1d1d1"
   inkscape:zoom="30.066667"
   inkscape:cx="14.98337"
   inkscape:cy="14.98337"
   inkscape:window-width="1024"
   inkscape:window-height="1186"
   inkscape:window-x="2240"
   inkscape:window-y="25"
   inkscape:window-maximized="0"
   inkscape:current-layer="Layer_1" />
<path
   d="m 11.58,18.4 c 0,0.24 0.08,0.44 0.24,0.6 l 2.59,2.61 c 0.12,0.16 0.32,0.23 0.57,0.23 0.28,0 0.48,-0.08 0.61,-0.23 L 18.19,19 c 0.16,-0.17 0.24,-0.38 0.24,-0.6 0,-0.23 -0.08,-0.43 -0.24,-0.58 -0.16,-0.15 -0.36,-0.23 -0.6,-0.23 -0.24,0 -0.44,0.08 -0.62,0.23 l -1.12,1.11 v -3.98 c 0,-0.24 -0.08,-0.43 -0.25,-0.59 -0.17,-0.16 -0.37,-0.23 -0.61,-0.23 -0.24,0 -0.43,0.08 -0.59,0.23 -0.16,0.16 -0.23,0.35 -0.23,0.59 v 3.98 l -1.1,-1.11 c -0.18,-0.16 -0.38,-0.23 -0.63,-0.23 -0.25,0 -0.45,0.08 -0.61,0.23 -0.17,0.15 -0.25,0.35 -0.25,0.58 z"
   id="line" /><path
   d="m 4.61,16.88 c 0,1.34 0.47,2.48 1.4,3.44 0.93,0.96 2.07,1.47 3.4,1.53 0.11,0 0.17,-0.06 0.17,-0.17 V 20.34 C 9.58,20.22 9.52,20.16 9.41,20.16 8.55,20.12 7.82,19.78 7.22,19.14 6.62,18.5 6.32,17.75 6.32,16.88 c 0,-0.83 0.28,-1.55 0.85,-2.17 0.57,-0.62 1.27,-0.97 2.1,-1.07 L 9.8,13.6 c 0.13,0 0.2,-0.06 0.2,-0.17 l 0.08,-0.55 c 0.1,-1.08 0.55,-1.99 1.36,-2.71 0.81,-0.73 1.76,-1.09 2.86,-1.09 1.09,0 2.04,0.36 2.86,1.09 0.82,0.73 1.28,1.63 1.4,2.71 l 0.07,0.58 c 0,0.11 0.06,0.17 0.17,0.17 h 1.62 c 0.89,0 1.66,0.32 2.31,0.97 0.65,0.64 0.98,1.4 0.98,2.28 0,0.87 -0.3,1.62 -0.91,2.26 -0.61,0.64 -1.34,0.98 -2.19,1.02 -0.13,0 -0.19,0.06 -0.19,0.18 v 1.34 c 0,0.11 0.06,0.17 0.19,0.17 0.88,-0.02 1.68,-0.26 2.41,-0.72 0.73,-0.45 1.31,-1.05 1.73,-1.8 0.42,-0.75 0.63,-1.57 0.63,-2.45 0,-0.9 -0.22,-1.73 -0.67,-2.48 -0.44,-0.76 -1.05,-1.35 -1.81,-1.79 -0.76,-0.44 -1.59,-0.65 -2.49,-0.65 H 20.08 C 19.75,10.62 19.05,9.53 17.98,8.67 16.91,7.81 15.67,7.39 14.29,7.39 c -1.41,0 -2.67,0.44 -3.76,1.31 -1.09,0.87 -1.8,2 -2.11,3.37 -1.1,0.26 -2.01,0.84 -2.73,1.74 -0.72,0.9 -1.08,1.92 -1.08,3.07 z"
   id="cloud" />
</svg>
