<?xml version="1.0" encoding="UTF-8" standalone="no"?>
<!-- Generator: Adobe Illustrator 22.0.1, SVG Export Plug-In . SVG Version: 6.00 Build 0)  -->

<svg
   version="1.1"
   id="Layer_1"
   x="0px"
   y="0px"
   viewBox="0 0 30 30"
   style="enable-background:new 0 0 30 30;"
   xml:space="preserve"
   sodipodi:docname="wi-cloudy-gusts.svg"
   inkscape:version="1.4.3 (0d15f75, 2025-12-25)"
   xmlns:inkscape="http://www.inkscape.org/namespaces/inkscape"
   xmlns:sodipodi="http://sodipodi.sourceforge.net/DTD/sodipodi-0.dtd"
   xmlns="http://www.w3.org/2000/svg"
   xmlns:svg="http://www.w3.org/2000/svg"><defs
   id="defs1" /><sodipodi:namedview
   id="namedview1"
   pagecolor="#ffffff"
   bordercolor="#000000"
   borderopacity="0.25"
   inkscape:showpageshadow="2"
   inkscape:pageopacity="0.0"
   inkscape:pagecheckerboard="0"
   inkscape:deskcolor="#d1d1d1"
   inkscape:zoom="30.066667"
   inkscape:cx="15"
   inkscape:cy="15"
   inkscape:window-width="2560"
   inkscape:window-height="1387"
   inkscape:window-x="1352"
   inkscape:window-y="25"
   inkscape:window-maximized="1"
   inkscape:current-layer="Layer_1" />
<path
   d="m 5.77,15.61 c 0,0.08 0.05,0.12 0.16,0.12 h 1.44 c 0.08,0 0.15,-0.05 0.22,-0.15 0.22,-0.54 0.58,-0.99 1.05,-1.35 0.48,-0.36 1.01,-0.56 1.59,-0.6 l 0.53,-0.08 c 0.13,0 0.2,-0.06 0.2,-0.17 l 0.07,-0.52 c 0.11,-1.08 0.56,-1.99 1.37,-2.72 0.81,-0.73 1.76,-1.1 2.86,-1.1 1.11,0 2.07,0.36 2.88,1.09 0.81,0.73 1.27,1.64 1.39,2.73 l 0.07,0.59 c 0,0.11 0.06,0.17 0.17,0.17 h 1.62 c 0.91,0 1.68,0.32 2.33,0.96 0.65,0.64 0.97,1.4 0.97,2.3 0,0.89 -0.32,1.66 -0.97,2.3 -0.65,0.64 -1.42,0.96 -2.33,0.96 h -6.91 c -0.12,0 -0.19,0.06 -0.19,0.17 v 1.39 c 0,0.11 0.06,0.17 0.19,0.17 h 6.91 c 0.91,0 1.74,-0.22 2.51,-0.67 0.77,-0.44 1.37,-1.05 1.82,-1.81 0.45,-0.77 0.67,-1.6 0.67,-2.5 0,-0.91 -0.22,-1.74 -0.67,-2.5 -0.45,-0.76 -1.05,-1.37 -1.82,-1.81 -0.77,-0.44 -1.6,-0.67 -2.51,-0.67 H 21.08 C 20.77,10.58 20.07,9.49 18.98,8.64 17.9,7.79 16.65,7.37 15.25,7.37 c -1.41,0 -2.66,0.44 -3.75,1.32 -1.09,0.88 -1.78,2 -2.07,3.37 -0.86,0.2 -1.62,0.61 -2.28,1.23 -0.66,0.62 -1.12,1.36 -1.38,2.21 v 0.04 c 0,0.02 0,0.04 0,0.07 z"
   id="cloud" /><path
   id="wind"
   d="m 3.62,21.01 c 0,-0.25 0.08,-0.46 0.25,-0.63 0.17,-0.16 0.37,-0.24 0.6,-0.24 h 5.42 c 0.74,0 1.37,0.26 1.89,0.79 0.52,0.53 0.78,1.16 0.78,1.9 0,0.74 -0.26,1.38 -0.78,1.9 -0.52,0.52 -1.15,0.78 -1.89,0.78 -0.74,0 -1.38,-0.26 -1.9,-0.79 -0.16,-0.16 -0.23,-0.36 -0.23,-0.6 0,-0.24 0.08,-0.45 0.23,-0.6 0.15,-0.16 0.35,-0.24 0.6,-0.24 0.23,0 0.43,0.08 0.61,0.24 0.2,0.19 0.43,0.29 0.69,0.29 0.26,0 0.49,-0.1 0.68,-0.29 0.19,-0.19 0.29,-0.42 0.29,-0.7 0,-0.26 -0.1,-0.49 -0.29,-0.68 -0.19,-0.19 -0.42,-0.29 -0.68,-0.29 H 4.47 C 4.24,21.85 4.04,21.77 3.87,21.6 3.7,21.43 3.62,21.25 3.62,21.01 Z m 0,-3.04 c 0,-0.24 0.08,-0.45 0.25,-0.62 0.17,-0.16 0.37,-0.24 0.6,-0.24 h 10.55 c 0.26,0 0.49,-0.1 0.68,-0.29 0.19,-0.19 0.29,-0.43 0.29,-0.69 0,-0.26 -0.1,-0.5 -0.29,-0.69 -0.19,-0.19 -0.42,-0.29 -0.68,-0.29 -0.28,0 -0.5,0.09 -0.68,0.28 -0.18,0.15 -0.39,0.23 -0.64,0.23 -0.24,0 -0.44,-0.08 -0.6,-0.23 -0.15,-0.15 -0.23,-0.35 -0.23,-0.6 0,-0.25 0.07,-0.45 0.23,-0.61 0.51,-0.51 1.15,-0.76 1.92,-0.76 0.74,0 1.38,0.26 1.9,0.78 0.52,0.52 0.78,1.15 0.78,1.88 0,0.73 -0.26,1.37 -0.78,1.89 -0.52,0.52 -1.15,0.78 -1.9,0.78 H 4.47 C 4.23,18.79 4.03,18.71 3.87,18.55 3.7,18.4 3.62,18.2 3.62,17.97 Z" />
</svg>
