<?xml version="1.0" encoding="UTF-8" standalone="no"?>
<!-- Generator: Adobe Illustrator 22.0.1, SVG Export Plug-In . SVG Version: 6.00 Build 0)  -->

<svg
   version="1.1"
   id="Layer_1"
   x="0px"
   y="0px"
   viewBox="0 0 30 30"
   style="enable-background:new 0 0 30 30;"
   xml:space="preserve"
   sodipodi:docname="wi-cloudy-windy.svg"
   inkscape:version="1.4.3 (0d15f75, 2025-12-25)"
   xmlns:inkscape="http://www.inkscape.org/namespaces/inkscape"
   xmlns:sodipodi="http://sodipodi.sourceforge.net/DTD/sodipodi-0.dtd"
   xmlns="http://www.w3.org/2000/svg"
   xmlns:svg="http://www.w3.org/2000/svg"><defs
   id="defs1" /><sodipodi:namedview
   id="namedview1"
   pagecolor="#ffffff"
   bordercolor="#000000"
   borderopacity="0.25"
   inkscape:showpageshadow="2"
   inkscape:pageopacity="0.0"
   inkscape:pagecheckerboard="0"
   inkscape:deskcolor="#d1d1d1"
   inkscape:zoom="30.066667"
   inkscape:cx="14.98337"
   inkscape:cy="15"
   inkscape:window-width="2560"
   inkscape:window-height="1387"
   inkscape:window-x="1352"
   inkscape:window-y="25"
   inkscape:window-maximized="0"
   inkscape:current-layer="Layer_1" />
<path
   d="m 6.35,15.65 c 0,0.09 0.06,0.14 0.17,0.14 h 1.43 c 0.09,0 0.17,-0.05 0.23,-0.14 0.23,-0.54 0.57,-0.99 1.04,-1.35 0.47,-0.36 0.99,-0.56 1.58,-0.6 l 0.54,-0.07 c 0.11,0 0.17,-0.06 0.17,-0.18 l 0.07,-0.52 c 0.11,-1.09 0.58,-1.99 1.39,-2.72 0.82,-0.73 1.77,-1.09 2.87,-1.09 1.09,0 2.03,0.36 2.83,1.07 0.8,0.72 1.27,1.62 1.41,2.7 l 0.07,0.59 c 0,0.11 0.06,0.16 0.18,0.16 h 1.6 c 0.91,0 1.68,0.32 2.32,0.96 0.64,0.64 0.96,1.41 0.96,2.32 0,0.88 -0.33,1.64 -0.97,2.28 -0.65,0.65 -1.42,0.97 -2.31,0.97 h -6.89 c -0.12,0 -0.18,0.06 -0.18,0.17 v 1.34 c 0,0.12 0.06,0.18 0.18,0.18 h 6.89 c 0.68,0 1.32,-0.13 1.94,-0.39 0.62,-0.26 1.14,-0.61 1.58,-1.05 0.44,-0.44 0.79,-0.97 1.05,-1.58 0.26,-0.61 0.39,-1.25 0.39,-1.92 0,-0.9 -0.22,-1.73 -0.66,-2.49 -0.44,-0.76 -1.04,-1.36 -1.8,-1.8 -0.76,-0.44 -1.6,-0.66 -2.5,-0.66 H 21.62 C 21.29,10.63 20.59,9.53 19.52,8.67 18.44,7.82 17.22,7.39 15.84,7.39 14.42,7.39 13.17,7.83 12.08,8.72 10.99,9.6 10.3,10.73 10,12.11 9.14,12.3 8.38,12.71 7.73,13.32 7.08,13.93 6.63,14.67 6.37,15.54 v 0.02 C 6.36,15.6 6.35,15.62 6.35,15.65 Z"
   id="cloud" /><path
   id="wind"
   d="m 3.1,21.04 c 0,-0.24 0.08,-0.45 0.25,-0.61 0.17,-0.16 0.38,-0.24 0.63,-0.24 h 8.97 c 0.24,0 0.43,0.08 0.59,0.24 0.16,0.16 0.23,0.36 0.23,0.61 0,0.24 -0.08,0.44 -0.24,0.6 -0.16,0.16 -0.35,0.24 -0.59,0.24 H 3.98 C 3.73,21.88 3.52,21.8 3.35,21.64 3.18,21.48 3.1,21.27 3.1,21.04 Z m 2.63,-3.06 c 0,-0.24 0.09,-0.44 0.27,-0.6 0.14,-0.15 0.34,-0.23 0.59,-0.23 h 9 c 0.23,0 0.42,0.08 0.58,0.23 0.16,0.15 0.23,0.35 0.23,0.59 0,0.24 -0.08,0.44 -0.23,0.61 -0.15,0.17 -0.35,0.25 -0.58,0.25 h -9 C 6.36,18.83 6.16,18.74 5.99,18.57 5.82,18.4 5.73,18.21 5.73,17.98 Z m 1.77,6.15 c 0,-0.24 0.09,-0.44 0.26,-0.6 0.15,-0.16 0.35,-0.23 0.59,-0.23 h 8.99 c 0.24,0 0.45,0.08 0.61,0.24 0.17,0.16 0.25,0.36 0.25,0.6 0,0.24 -0.08,0.44 -0.25,0.61 C 17.78,24.92 17.58,25 17.34,25 H 8.35 C 8.12,25 7.92,24.92 7.75,24.75 7.58,24.57 7.5,24.37 7.5,24.13 Z" />
</svg>
