<?xml version="1.0" encoding="UTF-8" standalone="no"?>
<!-- Generator: Adobe Illustrator 22.0.1, SVG Export Plug-In . SVG Version: 6.00 Build 0)  -->

<svg
   version="1.1"
   id="Layer_1"
   x="0px"
   y="0px"
   viewBox="0 0 30 30"
   style="enable-background:new 0 0 30 30;"
   xml:space="preserve"
   sodipodi:docname="wi-day-showers.svg"
   inkscape:version="1.4.3 (0d15f75, 2025-12-25)"
   xmlns:inkscape="http://www.inkscape.org/namespaces/inkscape"
   xmlns:sodipodi="http://sodipodi.sourceforge.net/DTD/sodipodi-0.dtd"
   xmlns="http://www.w3.org/2000/svg"
   xmlns:svg="http://www.w3.org/2000/svg"><defs
   id="defs1" /><sodipodi:namedview
   id="namedview1"
   pagecolor="#ffffff"
   bordercolor="#000000"
   borderopacity="0.25"
   inkscape:showpageshadow="2"
   inkscape:pageopacity="0.0"
   inkscape:pagecheckerboard="0"
   inkscape:deskcolor="#d1d1d1"
   inkscape:zoom="30.066667"
   inkscape:cx="9.4124169"
   inkscape:cy="16.496674"
   inkscape:window-width="2560"
   inkscape:window-height="1387"
   inkscape:window-x="1352"
   inkscape:window-y="25"
   inkscape:window-maximized="0"
   inkscape:current-layer="Layer_1" />
<path
   id="rain"
   d="m 6.97,23.58 c 0,0.18 0.05,0.36 0.16,0.53 0.11,0.18 0.26,0.29 0.45,0.36 0.19,0.07 0.4,0.05 0.61,-0.06 0.22,-0.11 0.36,-0.29 0.44,-0.55 L 8.88,22.81 C 8.95,22.6 8.93,22.4 8.81,22.19 8.69,21.98 8.52,21.84 8.3,21.77 8.05,21.71 7.83,21.74 7.63,21.85 c -0.2,0.11 -0.32,0.3 -0.37,0.53 l -0.28,0.99 c 0,0.05 -0.01,0.12 -0.01,0.21 z m 1.31,-4.72 c 0,0.38 0.21,0.64 0.64,0.79 0.22,0.08 0.43,0.06 0.64,-0.05 0.21,-0.11 0.34,-0.29 0.41,-0.53 l 0.24,-1.03 C 10.28,17.83 10.26,17.63 10.14,17.42 10.03,17.21 9.86,17.07 9.63,17 9.39,16.94 9.16,16.96 8.96,17.08 8.76,17.2 8.64,17.37 8.59,17.6 l -0.3,1.02 c 0,0.08 -0.01,0.16 -0.01,0.24 z m 1.22,7.89 c 0,0.16 0.06,0.33 0.17,0.5 0.11,0.17 0.28,0.29 0.49,0.36 0.01,0 0.04,0 0.1,0.01 0.06,0.01 0.11,0.01 0.15,0.01 0.14,0 0.26,-0.02 0.37,-0.07 0.19,-0.08 0.33,-0.27 0.41,-0.58 l 0.27,-0.99 c 0.07,-0.23 0.05,-0.45 -0.07,-0.65 -0.12,-0.2 -0.29,-0.34 -0.51,-0.4 -0.23,-0.07 -0.45,-0.05 -0.65,0.07 -0.2,0.12 -0.34,0.29 -0.4,0.51 L 9.55,26.54 C 9.51,26.63 9.5,26.7 9.5,26.75 Z m 1.35,-4.79 c 0,0.17 0.05,0.34 0.16,0.51 0.11,0.17 0.26,0.28 0.47,0.35 0.23,0.07 0.44,0.05 0.64,-0.05 0.19,-0.1 0.33,-0.29 0.4,-0.56 l 0.24,-1.01 c 0.07,-0.23 0.05,-0.45 -0.06,-0.65 -0.11,-0.2 -0.28,-0.34 -0.5,-0.41 -0.25,-0.07 -0.48,-0.04 -0.68,0.08 -0.2,0.12 -0.33,0.3 -0.37,0.53 l -0.28,1.03 c -0.02,0.03 -0.02,0.09 -0.02,0.18 z m 2.78,1.72 c 0.02,0.38 0.23,0.65 0.63,0.83 l 0.25,0.04 c 0.16,0 0.32,-0.05 0.47,-0.16 0.15,-0.11 0.26,-0.27 0.32,-0.5 l 0.29,-1.01 c 0.06,-0.24 0.03,-0.46 -0.09,-0.66 -0.12,-0.2 -0.3,-0.33 -0.53,-0.37 -0.21,-0.07 -0.41,-0.05 -0.62,0.07 -0.21,0.12 -0.34,0.29 -0.41,0.51 l -0.27,1.02 c -0.01,0.02 -0.01,0.05 -0.02,0.08 -0.01,0.03 -0.01,0.06 -0.02,0.08 -0.01,0.02 0,0.05 0,0.07 z m 1.4,-4.76 c 0,0.16 0.05,0.32 0.15,0.48 0.1,0.16 0.25,0.27 0.45,0.32 l 0.25,0.03 c 0.19,0 0.37,-0.06 0.52,-0.18 0.15,-0.12 0.24,-0.28 0.28,-0.47 l 0.27,-0.99 C 17.02,17.87 17,17.66 16.88,17.46 16.77,17.26 16.6,17.13 16.37,17.07 16.14,17 15.92,17.02 15.73,17.13 c -0.2,0.11 -0.33,0.28 -0.39,0.5 l -0.3,1.06 c 0,0.08 -0.01,0.16 -0.01,0.23 z"
   inkscape:label="rain" /><path
   d="M 20.84,13.41 C 19.88,12.45 18.73,11.98 17.37,11.98 H 17.03 C 16.77,10.84 16.21,9.87 15.36,9.06 14.725374,8.5183383 14.958284,8.5922441 13.95,8.07 13.16,7.64 12.25,7.43 11.22,7.43 9.81,7.43 8.56,7.87 7.47,8.74 6.38,9.61 5.7,10.73 5.4,12.09 4.28,12.35 3.35,12.92 2.63,13.81 1.92,14.7 1.56,15.73 1.56,16.88 c 0,1.33 0.46,2.47 1.39,3.43 0.93,0.96 2.06,1.46 3.4,1.53 0.11,0 0.17,-0.06 0.17,-0.17 V 20.33 C 6.52,20.21 6.46,20.15 6.35,20.15 5.5,20.11 4.78,19.77 4.18,19.13 3.58,18.49 3.29,17.74 3.29,16.88 c 0,-0.84 0.28,-1.56 0.84,-2.17 0.56,-0.61 1.26,-0.96 2.1,-1.06 l 0.5,-0.04 c 0.13,0 0.2,-0.06 0.2,-0.18 L 6.99,12.9 C 7.1,11.82 7.55,10.91 8.36,10.19 9.17,9.46 10.12,9.1 11.22,9.1 c 1.09,0 2.05,0.36 2.86,1.09 0.81,0.73 1.27,1.63 1.37,2.71 l 0.07,0.57 c 0,0.12 0.06,0.18 0.18,0.18 h 1.67 c 0.88,0 1.63,0.32 2.27,0.96 0.64,0.64 0.96,1.39 0.96,2.27 0,0.85 -0.3,1.59 -0.9,2.22 -0.6,0.63 -1.32,0.98 -2.16,1.05 -0.11,0 -0.17,0.06 -0.17,0.18 v 1.34 c 0,0.11 0.06,0.17 0.17,0.17 0.88,-0.02 1.67,-0.26 2.4,-0.72 0.73,-0.46 1.3,-1.05 1.71,-1.8 0.42,-0.75 0.62,-1.56 0.62,-2.44 0,-0.71 -0.14,-1.37 -0.41,-1.96 -0.292903,-0.562061 -0.357446,-0.651857 -1.02,-1.51 z"
   id="cloud"
   style="display:inline"
   inkscape:label="cloud"
   sodipodi:nodetypes="cscccssccsscsscssscccccssccssssscsscscscc" />
<path
   id="sun"
   style="display:inline"
   inkscape:label="sun"
   d="m 21.86,14.92 c 0.76,-0.94 1.13,-2.03 1.13,-3.28 0,-0.71 -0.14,-1.39 -0.41,-2.04 C 22.31,8.95 21.93,8.4 21.46,7.93 21,7.46 20.44,7.09 19.8,6.82 19.15,6.54 18.47,6.41 17.76,6.41 c -1.51,0 -2.78,0.55 -3.81,1.66 l 1.41,0.99 c 0.66,-0.64 1.46,-0.96 2.4,-0.96 0.98,0 1.82,0.35 2.51,1.04 0.69,0.69 1.04,1.53 1.04,2.51 0,0.56 -0.16,1.15 -0.47,1.76 z M 9.96,4.68 c 0,0.25 0.08,0.46 0.25,0.62 l 0.66,0.65 c 0.34,0.34 0.73,0.34 1.17,0 0.16,-0.17 0.24,-0.38 0.24,-0.61 0,-0.23 -0.08,-0.43 -0.24,-0.61 L 11.41,4.07 c -0.16,-0.16 -0.36,-0.24 -0.6,-0.24 -0.23,0 -0.43,0.08 -0.6,0.25 -0.17,0.16 -0.25,0.36 -0.25,0.6 z M 16.9,3.83 c 0,0.25 0.08,0.45 0.24,0.61 C 17.3,4.6 17.5,4.68 17.75,4.68 18,4.68 18.2,4.6 18.36,4.44 18.52,4.28 18.6,4.08 18.6,3.83 V 1.81 C 18.6,1.56 18.52,1.35 18.36,1.19 18.2,1.03 18,0.95 17.75,0.95 17.5,0.95 17.3,1.03 17.14,1.19 16.98,1.35 16.9,1.56 16.9,1.81 Z m 5.55,2.29 c 0,0.25 0.08,0.45 0.23,0.61 0.21,0.17 0.41,0.25 0.62,0.25 0.19,0 0.38,-0.08 0.59,-0.25 L 25.32,5.3 C 25.48,5.12 25.56,4.91 25.56,4.67 25.56,4.43 25.48,4.23 25.32,4.07 25.16,3.91 24.96,3.83 24.73,3.83 24.5,3.83 24.3,3.91 24.12,4.07 L 22.68,5.5 c -0.15,0.18 -0.23,0.38 -0.23,0.62 z m 0.79,11.83 c 0,0.23 0.09,0.44 0.26,0.63 l 0.62,0.64 c 0.21,0.21 0.41,0.31 0.62,0.31 0.19,0 0.39,-0.1 0.58,-0.31 0.18,-0.18 0.27,-0.39 0.26,-0.61 -0.01,-0.23 -0.09,-0.43 -0.26,-0.6 l -0.65,-0.66 c -0.16,-0.16 -0.35,-0.24 -0.57,-0.24 -0.24,0 -0.44,0.08 -0.61,0.25 -0.16,0.16 -0.25,0.36 -0.25,0.59 z m 1.47,-6.31 c 0,0.22 0.08,0.42 0.24,0.58 0.16,0.16 0.36,0.24 0.58,0.24 h 2.04 c 0.26,0 0.47,-0.08 0.63,-0.23 0.16,-0.16 0.24,-0.35 0.24,-0.59 0,-0.25 -0.08,-0.46 -0.25,-0.62 -0.17,-0.16 -0.37,-0.24 -0.62,-0.24 h -2.04 c -0.23,0 -0.43,0.08 -0.59,0.25 -0.15,0.17 -0.23,0.38 -0.23,0.61 z" /></svg>
