<?xml version="1.0" encoding="UTF-8" standalone="no"?>
<!-- Generator: Adobe Illustrator 22.0.1, SVG Export Plug-In . SVG Version: 6.00 Build 0)  -->

<svg
   version="1.1"
   id="Layer_1"
   x="0px"
   y="0px"
   viewBox="0 0 30 30"
   style="enable-background:new 0 0 30 30;"
   xml:space="preserve"
   sodipodi:docname="wi-day-hail.svg"
   inkscape:version="1.4.3 (0d15f75, 2025-12-25)"
   xmlns:inkscape="http://www.inkscape.org/namespaces/inkscape"
   xmlns:sodipodi="http://sodipodi.sourceforge.net/DTD/sodipodi-0.dtd"
   xmlns="http://www.w3.org/2000/svg"
   xmlns:svg="http://www.w3.org/2000/svg"><defs
   id="defs1" /><sodipodi:namedview
   id="namedview1"
   pagecolor="#ffffff"
   bordercolor="#000000"
   borderopacity="0.25"
   inkscape:showpageshadow="2"
   inkscape:pageopacity="0.0"
   inkscape:pagecheckerboard="0"
   inkscape:deskcolor="#d1d1d1"
   inkscape:zoom="42.520688"
   inkscape:cx="19.825644"
   inkscape:cy="15.098533"
   inkscape:window-width="2560"
   inkscape:window-height="1387"
   inkscape:window-x="1352"
   inkscape:window-y="25"
   inkscape:window-maximized="0"
   inkscape:current-layer="Layer_1" />
<path
   id="rain"
   d="m 7.46,21.1 c 0,0.14 0.03,0.27 0.09,0.38 0.19,0.31 0.49,0.46 0.89,0.46 0.32,0 0.55,-0.22 0.69,-0.65 l 1.04,-3.22 C 10.25,17.83 10.23,17.6 10.1,17.4 9.97,17.2 9.79,17.07 9.55,17.03 9.34,16.98 9.13,17 8.93,17.1 8.73,17.21 8.59,17.38 8.52,17.6 l -1.03,3.22 c -0.02,0.1 -0.03,0.2 -0.03,0.28 z m 2.6,2.93 c 0,0.16 0.05,0.32 0.16,0.48 0.11,0.16 0.27,0.27 0.48,0.33 0.11,0.02 0.19,0.04 0.24,0.04 0.15,0 0.28,-0.03 0.38,-0.08 0.2,-0.08 0.34,-0.27 0.43,-0.57 l 1.8,-6.14 c 0.07,-0.24 0.05,-0.45 -0.06,-0.65 -0.11,-0.2 -0.27,-0.33 -0.5,-0.39 -0.24,-0.07 -0.46,-0.05 -0.66,0.06 -0.2,0.11 -0.34,0.27 -0.41,0.51 l -1.84,6.19 c -0.01,0.11 -0.02,0.19 -0.02,0.22 z m 4.17,-2.95 c 0,0.16 0.05,0.31 0.15,0.45 0.1,0.15 0.26,0.25 0.46,0.31 0.09,0.02 0.17,0.03 0.25,0.03 0.39,0 0.65,-0.2 0.79,-0.61 l 1.03,-3.18 c 0.08,-0.23 0.05,-0.45 -0.07,-0.65 -0.12,-0.2 -0.29,-0.33 -0.52,-0.39 -0.24,-0.07 -0.45,-0.05 -0.64,0.06 -0.19,0.11 -0.32,0.27 -0.4,0.51 l -1.02,3.2 c -0.01,0.13 -0.03,0.22 -0.03,0.27 z"
   inkscape:label="rain"
   style="display:inline" /><path
   id="hail"
   d="m 6.82,23.94 c 0.1,0.22 0.25,0.37 0.46,0.45 0.2,0.1 0.41,0.11 0.63,0.02 0.22,-0.08 0.37,-0.23 0.45,-0.45 0.1,-0.22 0.11,-0.43 0.02,-0.65 C 8.3,23.1 8.15,22.95 7.93,22.87 7.73,22.76 7.52,22.75 7.31,22.84 7.09,22.93 6.94,23.08 6.84,23.31 6.74,23.49 6.73,23.7 6.82,23.94 Z m 2.51,2.78 c 0,0.13 0.02,0.23 0.05,0.29 0.09,0.22 0.24,0.37 0.45,0.45 0.09,0.05 0.21,0.07 0.35,0.07 0.06,0 0.16,-0.02 0.3,-0.06 0.22,-0.08 0.38,-0.23 0.47,-0.45 0.09,-0.22 0.1,-0.44 0,-0.66 -0.1,-0.22 -0.25,-0.37 -0.45,-0.45 -0.2,-0.08 -0.41,-0.08 -0.62,0 -0.19,0.07 -0.33,0.19 -0.42,0.35 -0.09,0.16 -0.13,0.32 -0.13,0.46 z m 4.18,-3.08 c 0,0.13 0.02,0.23 0.07,0.31 0.09,0.21 0.24,0.35 0.45,0.44 0.11,0.05 0.22,0.08 0.35,0.08 0.06,0 0.16,-0.02 0.3,-0.06 0.23,-0.09 0.38,-0.23 0.46,-0.44 0.08,-0.22 0.08,-0.43 0,-0.63 -0.08,-0.2 -0.22,-0.35 -0.42,-0.45 -0.23,-0.11 -0.44,-0.12 -0.66,-0.03 -0.21,0.09 -0.37,0.24 -0.48,0.47 -0.05,0.08 -0.07,0.18 -0.07,0.31 z"
   inkscape:label="hail"
   style="display:inline" />
<path
   id="sun"
   style="display:inline"
   inkscape:label="sun"
   d="M 21.86,14.87 C 22.65,13.91 23.04,12.8 23.04,11.54 23.04,10.6 22.8,9.72 22.33,8.91 21.85,8.1 21.21,7.46 20.4,6.98 19.59,6.51 18.71,6.27 17.77,6.27 c -1.56,0 -2.86,0.58 -3.9,1.75 L 15.3,9 c 0.67,-0.64 1.5,-0.97 2.48,-0.97 0.98,0 1.81,0.34 2.5,1.03 0.69,0.68 1.04,1.51 1.04,2.49 0,0.62 -0.17,1.24 -0.52,1.85 M 9.94,4.57 c 0,0.25 0.08,0.45 0.24,0.6 l 0.65,0.65 c 0.16,0.16 0.34,0.25 0.54,0.27 0.21,0.03 0.41,-0.05 0.61,-0.23 0.2,-0.18 0.3,-0.4 0.3,-0.64 0,-0.24 -0.08,-0.44 -0.24,-0.6 L 11.4,3.98 C 11.21,3.81 11.01,3.73 10.78,3.73 c -0.24,0 -0.45,0.08 -0.61,0.24 -0.15,0.17 -0.23,0.37 -0.23,0.6 z m 6.98,-0.84 c 0,0.24 0.08,0.44 0.25,0.61 0.17,0.17 0.37,0.25 0.61,0.25 0.23,0 0.43,-0.08 0.59,-0.25 0.16,-0.17 0.24,-0.37 0.24,-0.61 V 1.67 C 18.61,1.43 18.53,1.23 18.37,1.06 18.21,0.89 18.02,0.81 17.78,0.81 17.54,0.81 17.34,0.89 17.17,1.06 17,1.23 16.92,1.43 16.92,1.67 Z m 5.55,2.29 c 0,0.24 0.08,0.44 0.25,0.6 0.15,0.17 0.34,0.26 0.58,0.26 0.23,0 0.44,-0.09 0.6,-0.26 l 1.44,-1.44 c 0.18,-0.15 0.27,-0.35 0.27,-0.6 0,-0.24 -0.09,-0.44 -0.26,-0.61 -0.17,-0.17 -0.38,-0.25 -0.61,-0.25 -0.22,0 -0.41,0.09 -0.57,0.27 l -1.45,1.43 c -0.16,0.15 -0.25,0.36 -0.25,0.6 z m 0.81,11.9 c 0,0.23 0.08,0.43 0.24,0.6 l 0.66,0.63 c 0.14,0.18 0.34,0.27 0.6,0.27 0.24,0 0.43,-0.09 0.57,-0.27 0.18,-0.16 0.27,-0.36 0.27,-0.6 0,-0.24 -0.09,-0.44 -0.27,-0.61 L 24.7,17.32 c -0.16,-0.18 -0.35,-0.26 -0.58,-0.26 -0.23,0 -0.43,0.08 -0.6,0.25 -0.16,0.17 -0.24,0.38 -0.24,0.61 z m 1.46,-6.37 c 0,0.24 0.09,0.44 0.26,0.6 0.18,0.18 0.38,0.26 0.62,0.26 h 2.03 c 0.24,0 0.44,-0.08 0.61,-0.25 0.17,-0.17 0.26,-0.37 0.26,-0.61 0,-0.23 -0.08,-0.43 -0.25,-0.59 -0.17,-0.16 -0.38,-0.24 -0.62,-0.24 h -2.03 c -0.25,0 -0.46,0.08 -0.63,0.24 -0.16,0.16 -0.25,0.36 -0.25,0.59 z" /><path
   d="M 20.8,13.4 C 19.84,12.44 18.68,11.96 17.29,11.96 H 17 C 16.7,10.8 16.14,9.81 15.3,9 14.547458,8.3493382 14.434859,8.3349077 13.87,8.02 13.07,7.58 12.17,7.36 11.16,7.36 9.75,7.36 8.49,7.8 7.4,8.67 c -1.09,0.87 -1.8,2 -2.11,3.37 -1.11,0.26 -2.02,0.84 -2.74,1.74 -0.71,0.92 -1.07,1.95 -1.07,3.1 0,1.34 0.47,2.49 1.4,3.45 0.93,0.96 2.07,1.47 3.4,1.53 0.12,0 0.18,-0.06 0.18,-0.17 V 20.35 C 6.46,20.23 6.4,20.17 6.28,20.17 5.42,20.13 4.69,19.78 4.09,19.14 c -0.6,-0.64 -0.9,-1.4 -0.9,-2.26 0,-0.83 0.28,-1.55 0.85,-2.17 0.57,-0.62 1.27,-0.97 2.1,-1.07 L 6.67,13.6 c 0.13,0 0.2,-0.06 0.2,-0.18 l 0.07,-0.55 c 0.11,-1.08 0.56,-1.99 1.37,-2.71 0.81,-0.73 1.76,-1.09 2.86,-1.09 1.09,0 2.04,0.36 2.86,1.09 0.82,0.73 1.29,1.63 1.4,2.71 l 0.07,0.58 c 0,0.12 0.06,0.19 0.17,0.19 h 1.62 c 0.89,0 1.67,0.32 2.32,0.96 0.65,0.64 0.98,1.4 0.98,2.27 0,0.87 -0.3,1.62 -0.91,2.26 -0.61,0.64 -1.34,0.98 -2.19,1.03 -0.13,0 -0.2,0.06 -0.2,0.18 v 1.34 c 0,0.11 0.07,0.17 0.2,0.17 1.34,-0.04 2.47,-0.55 3.39,-1.51 0.93,-0.97 1.39,-2.12 1.39,-3.46 0,-0.74 -0.14,-1.41 -0.41,-2.01 -0.347454,-0.578192 -0.34971,-0.72785 -1.06,-1.47 z"
   id="cloud"
   inkscape:label="clouds"
   sodipodi:nodetypes="cscccssccsscsscssscccccssccssssscssccscc"
   style="display:inline" /></svg>
