<?xml version="1.0" encoding="UTF-8" standalone="no"?>
<!-- Generator: Adobe Illustrator 22.0.1, SVG Export Plug-In . SVG Version: 6.00 Build 0)  -->

<svg
   version="1.1"
   id="Layer_1"
   x="0px"
   y="0px"
   viewBox="0 0 30 30"
   style="enable-background:new 0 0 30 30;"
   xml:space="preserve"
   sodipodi:docname="wi-direction-up-left.svg"
   inkscape:version="1.4.3 (0d15f75, 2025-12-25)"
   xmlns:inkscape="http://www.inkscape.org/namespaces/inkscape"
   xmlns:sodipodi="http://sodipodi.sourceforge.net/DTD/sodipodi-0.dtd"
   xmlns="http://www.w3.org/2000/svg"
   xmlns:svg="http://www.w3.org/2000/svg"><defs
   id="defs1" /><sodipodi:namedview
   id="namedview1"
   pagecolor="#ffffff"
   bordercolor="#000000"
   borderopacity="0.25"
   inkscape:showpageshadow="2"
   inkscape:pageopacity="0.0"
   inkscape:pagecheckerboard="0"
   inkscape:deskcolor="#d1d1d1"
   inkscape:zoom="23.133333"
   inkscape:cx="15.021614"
   inkscape:cy="15"
   inkscape:window-width="1024"
   inkscape:window-height="821"
   inkscape:window-x="0"
   inkscape:window-y="123"
   inkscape:window-maximized="0"
   inkscape:current-layer="Layer_1" />
<path
   d="M10.03,14.31V9.84c0-0.3,0.1-0.55,0.3-0.75s0.45-0.3,0.74-0.3h4.48c0.29,0,0.54,0.1,0.74,0.3s0.3,0.45,0.3,0.75  c0,0.29-0.1,0.53-0.3,0.73s-0.45,0.29-0.74,0.29h-1.95l6.06,6.06c0.18,0.21,0.26,0.46,0.26,0.78c0,0.29-0.09,0.53-0.26,0.72  c-0.2,0.19-0.46,0.28-0.79,0.28c-0.3,0-0.55-0.09-0.73-0.28l-6.02-6.05v1.95c0,0.3-0.1,0.55-0.3,0.75c-0.2,0.2-0.45,0.3-0.75,0.3  c-0.29,0-0.54-0.1-0.74-0.31S10.03,14.6,10.03,14.31z"
   id="line" />
</svg>
