<?xml version="1.0" encoding="UTF-8" standalone="no"?>
<!-- Generator: Adobe Illustrator 22.0.1, SVG Export Plug-In . SVG Version: 6.00 Build 0)  -->

<svg
   version="1.1"
   id="Layer_1"
   x="0px"
   y="0px"
   viewBox="0 0 30 30"
   style="enable-background:new 0 0 30 30;"
   xml:space="preserve"
   sodipodi:docname="wi-day-snow-wind.svg"
   inkscape:version="1.4.3 (0d15f75, 2025-12-25)"
   xmlns:inkscape="http://www.inkscape.org/namespaces/inkscape"
   xmlns:sodipodi="http://sodipodi.sourceforge.net/DTD/sodipodi-0.dtd"
   xmlns="http://www.w3.org/2000/svg"
   xmlns:svg="http://www.w3.org/2000/svg"><defs
   id="defs1" /><sodipodi:namedview
   id="namedview1"
   pagecolor="#ffffff"
   bordercolor="#000000"
   borderopacity="0.25"
   inkscape:showpageshadow="2"
   inkscape:pageopacity="0.0"
   inkscape:pagecheckerboard="0"
   inkscape:deskcolor="#d1d1d1"
   inkscape:zoom="46.266667"
   inkscape:cx="19.257925"
   inkscape:cy="14.43804"
   inkscape:window-width="2560"
   inkscape:window-height="1387"
   inkscape:window-x="1352"
   inkscape:window-y="25"
   inkscape:window-maximized="0"
   inkscape:current-layer="Layer_1" />
<path
   id="snow"
   d="m 7.06,24.61 c 0,0.21 0.08,0.4 0.24,0.57 0.18,0.16 0.37,0.24 0.58,0.24 0.24,0 0.43,-0.08 0.59,-0.23 C 8.63,25.03 8.7,24.84 8.7,24.61 8.7,24.37 8.62,24.18 8.46,24.02 8.3,23.86 8.11,23.79 7.87,23.79 c -0.24,0 -0.43,0.08 -0.59,0.23 -0.14,0.15 -0.22,0.35 -0.22,0.59 z m 0.86,-3.63 c 0,0.24 0.08,0.44 0.24,0.61 0.16,0.17 0.35,0.25 0.59,0.25 0.23,0 0.43,-0.08 0.59,-0.25 C 9.5,21.42 9.58,21.22 9.58,20.98 9.58,20.75 9.5,20.56 9.34,20.4 9.18,20.24 8.99,20.16 8.75,20.16 8.52,20.16 8.32,20.24 8.16,20.4 8,20.56 7.92,20.76 7.92,20.98 Z m 1.9,5.58 c 0,0.22 0.08,0.41 0.24,0.57 0.17,0.17 0.36,0.25 0.58,0.25 0.24,0 0.44,-0.08 0.6,-0.23 0.17,-0.16 0.25,-0.35 0.25,-0.59 0,-0.24 -0.08,-0.44 -0.25,-0.6 -0.17,-0.17 -0.37,-0.25 -0.6,-0.25 -0.22,0 -0.41,0.08 -0.58,0.25 -0.16,0.17 -0.24,0.37 -0.24,0.6 z m 0.85,-3.66 c 0,0.22 0.08,0.42 0.25,0.6 0.16,0.16 0.35,0.24 0.57,0.24 0.24,0 0.44,-0.08 0.61,-0.24 0.17,-0.16 0.25,-0.36 0.25,-0.6 0,-0.23 -0.08,-0.43 -0.25,-0.6 -0.17,-0.17 -0.37,-0.25 -0.61,-0.25 -0.22,0 -0.42,0.08 -0.58,0.25 -0.16,0.17 -0.24,0.37 -0.24,0.6 z m 0.43,-3.6 c 0,0.23 0.08,0.42 0.24,0.58 0.16,0.16 0.36,0.24 0.58,0.24 0.24,0 0.44,-0.08 0.6,-0.24 0.17,-0.16 0.25,-0.35 0.25,-0.59 0,-0.23 -0.08,-0.43 -0.25,-0.59 -0.17,-0.16 -0.37,-0.24 -0.6,-0.24 -0.23,0 -0.42,0.08 -0.58,0.24 -0.16,0.16 -0.24,0.37 -0.24,0.6 z m 2.37,5.31 c 0,0.21 0.08,0.4 0.23,0.57 0.17,0.16 0.38,0.24 0.6,0.24 0.24,0 0.43,-0.08 0.59,-0.23 0.16,-0.16 0.23,-0.35 0.23,-0.58 0,-0.24 -0.08,-0.43 -0.23,-0.59 -0.16,-0.16 -0.35,-0.23 -0.59,-0.23 -0.24,0 -0.44,0.08 -0.6,0.24 -0.16,0.16 -0.23,0.35 -0.23,0.58 z m 0.85,-3.63 c 0,0.24 0.08,0.44 0.24,0.61 0.16,0.17 0.36,0.25 0.59,0.25 0.23,0 0.43,-0.08 0.59,-0.25 0.16,-0.17 0.24,-0.37 0.24,-0.61 0,-0.23 -0.08,-0.42 -0.24,-0.58 -0.16,-0.16 -0.35,-0.24 -0.59,-0.24 -0.24,0 -0.43,0.08 -0.59,0.24 -0.16,0.16 -0.24,0.36 -0.24,0.58 z"
   inkscape:label="snow" /><path
   d="M 20.77,13.44 C 19.82,12.48 18.66,12 17.3,12 H 16.98 C 16.68,10.83 16.12,9.85 15.3,9.06 14.790106,8.6352642 14.798133,8.55071 13.9,8.11 13.09,7.67 12.19,7.45 11.21,7.45 9.8,7.45 8.56,7.89 7.47,8.76 6.38,9.63 5.69,10.75 5.38,12.1 c -1.12,0.28 -2.03,0.86 -2.74,1.75 -0.71,0.9 -1.06,1.92 -1.06,3.08 0,0.86 0.21,1.67 0.64,2.41 0.42,0.74 1,1.34 1.74,1.79 0.73,0.45 1.54,0.69 2.4,0.71 0.11,0 0.17,-0.06 0.17,-0.17 v -1.33 c 0,-0.12 -0.06,-0.19 -0.17,-0.19 -0.85,-0.04 -1.58,-0.38 -2.18,-1.02 -0.6,-0.64 -0.9,-1.37 -0.9,-2.21 0,-0.82 0.28,-1.54 0.85,-2.16 0.57,-0.61 1.26,-0.97 2.1,-1.07 l 0.53,-0.06 c 0.12,0 0.18,-0.06 0.18,-0.19 l 0.08,-0.51 c 0.11,-1.09 0.56,-2 1.36,-2.73 0.8,-0.73 1.75,-1.09 2.85,-1.09 1.09,0 2.04,0.36 2.85,1.09 0.82,0.73 1.28,1.63 1.38,2.7 l 0.07,0.58 c 0,0.11 0.06,0.17 0.17,0.17 h 1.61 c 0.9,0 1.67,0.32 2.31,0.96 0.64,0.64 0.96,1.4 0.96,2.29 0,0.84 -0.3,1.57 -0.9,2.21 -0.6,0.63 -1.33,0.97 -2.17,1.02 -0.12,0 -0.19,0.06 -0.19,0.19 v 1.33 c 0,0.11 0.06,0.17 0.19,0.17 1.33,-0.04 2.45,-0.54 3.38,-1.5 0.93,-0.96 1.39,-2.09 1.39,-3.41 0,-0.76 -0.14,-1.43 -0.43,-2.03 -0.446455,-0.728559 -0.269737,-0.620401 -1.08,-1.44 z"
   id="cloud"
   inkscape:label="cloud"
   style="display:inline"
   sodipodi:nodetypes="cscccssccscccsscsscccccsscccssssccsscsscc" />
<path
   id="sun"
   style="display:inline"
   inkscape:label="sun"
   d="M 21.85,14.88 C 22.6,13.95 23,12.85 23,11.6 23,10.66 22.77,9.79 22.3,8.99 21.83,8.19 21.19,7.55 20.39,7.08 c -0.8,-0.47 -1.68,-0.7 -2.62,-0.7 -1.54,0 -2.83,0.58 -3.87,1.73 l 1.4,0.95 c 0.69,-0.66 1.51,-0.99 2.47,-0.99 0.97,0 1.8,0.35 2.48,1.04 0.69,0.69 1.03,1.53 1.03,2.49 0,0.62 -0.17,1.24 -0.51,1.84 z M 9.97,4.68 c 0,0.24 0.08,0.44 0.24,0.59 l 0.66,0.66 c 0.16,0.16 0.34,0.25 0.53,0.25 0.21,0.03 0.41,-0.04 0.61,-0.22 0.2,-0.18 0.3,-0.39 0.3,-0.63 0,-0.24 -0.08,-0.46 -0.24,-0.64 L 11.43,4.08 C 11.28,3.91 11.09,3.83 10.85,3.83 10.6,3.83 10.39,3.91 10.22,4.08 10.05,4.24 9.97,4.44 9.97,4.68 Z M 16.9,3.84 c 0,0.23 0.08,0.43 0.25,0.58 0.17,0.15 0.37,0.23 0.61,0.23 0.24,0 0.43,-0.08 0.59,-0.23 0.16,-0.16 0.23,-0.35 0.23,-0.58 V 1.8 C 18.58,1.56 18.5,1.36 18.34,1.19 18.18,1.02 18,0.94 17.77,0.94 17.54,0.94 17.34,1.03 17.17,1.2 17,1.37 16.91,1.57 16.91,1.8 v 2.04 z m 5.52,2.27 c 0,0.23 0.08,0.43 0.25,0.59 0.15,0.16 0.34,0.24 0.56,0.26 0.22,0.02 0.43,-0.07 0.62,-0.26 L 25.28,5.27 C 25.46,5.09 25.54,4.89 25.54,4.66 25.54,4.42 25.45,4.22 25.28,4.05 25.11,3.88 24.91,3.8 24.68,3.8 24.46,3.8 24.27,3.88 24.1,4.05 l -1.43,1.46 c -0.17,0.16 -0.25,0.36 -0.25,0.6 z m 0.8,11.8 c 0,0.25 0.08,0.46 0.24,0.62 l 0.64,0.63 c 0.24,0.16 0.46,0.24 0.64,0.24 0.21,0 0.39,-0.09 0.56,-0.26 0.17,-0.17 0.25,-0.38 0.25,-0.61 0,-0.23 -0.09,-0.42 -0.26,-0.58 L 24.67,17.3 c -0.18,-0.16 -0.38,-0.24 -0.61,-0.24 -0.23,0 -0.43,0.08 -0.59,0.25 -0.17,0.16 -0.25,0.36 -0.25,0.6 z m 1.45,-6.31 c 0,0.24 0.09,0.43 0.26,0.59 0.17,0.18 0.38,0.27 0.62,0.27 h 2.02 c 0.23,0 0.43,-0.08 0.6,-0.25 0.17,-0.17 0.25,-0.37 0.25,-0.61 0,-0.24 -0.08,-0.44 -0.25,-0.6 C 28,10.84 27.8,10.75 27.57,10.75 h -2.02 c -0.24,0 -0.44,0.08 -0.62,0.25 -0.18,0.17 -0.26,0.37 -0.26,0.6 z" /></svg>
