<?xml version="1.0" encoding="UTF-8" standalone="no"?>
<!-- Generator: Adobe Illustrator 22.0.1, SVG Export Plug-In . SVG Version: 6.00 Build 0)  -->

<svg
   version="1.1"
   id="Layer_1"
   x="0px"
   y="0px"
   viewBox="0 0 30 30"
   style="enable-background:new 0 0 30 30;"
   xml:space="preserve"
   sodipodi:docname="wi-day-light-wind.svg"
   inkscape:version="1.4.3 (0d15f75, 2025-12-25)"
   xmlns:inkscape="http://www.inkscape.org/namespaces/inkscape"
   xmlns:sodipodi="http://sodipodi.sourceforge.net/DTD/sodipodi-0.dtd"
   xmlns="http://www.w3.org/2000/svg"
   xmlns:svg="http://www.w3.org/2000/svg"><defs
   id="defs1" /><sodipodi:namedview
   id="namedview1"
   pagecolor="#ffffff"
   bordercolor="#000000"
   borderopacity="0.25"
   inkscape:showpageshadow="2"
   inkscape:pageopacity="0.0"
   inkscape:pagecheckerboard="0"
   inkscape:deskcolor="#d1d1d1"
   inkscape:zoom="30.066667"
   inkscape:cx="14.98337"
   inkscape:cy="15"
   inkscape:window-width="2560"
   inkscape:window-height="1387"
   inkscape:window-x="1352"
   inkscape:window-y="25"
   inkscape:window-maximized="0"
   inkscape:current-layer="Layer_1" />
<path
   id="sun"
   d="m 6.45,11.55 c 0,-0.24 0.09,-0.44 0.26,-0.62 0.17,-0.16 0.38,-0.24 0.6,-0.24 h 2.03 c 0.23,0 0.42,0.08 0.58,0.25 0.16,0.17 0.23,0.37 0.23,0.61 0,0.24 -0.08,0.44 -0.23,0.6 C 9.76,12.32 9.57,12.4 9.34,12.4 H 7.31 C 7.07,12.4 6.87,12.32 6.7,12.15 6.53,11.98 6.45,11.78 6.45,11.55 Z M 9.31,4.63 c 0,-0.22 0.08,-0.43 0.24,-0.61 0.19,-0.16 0.4,-0.24 0.63,-0.24 0.22,0 0.42,0.08 0.59,0.24 l 1.42,1.47 c 0.16,0.15 0.24,0.35 0.24,0.59 0,0.24 -0.08,0.44 -0.24,0.6 -0.16,0.16 -0.36,0.24 -0.6,0.24 C 11.35,6.92 11.15,6.84 11,6.68 L 9.55,5.25 C 9.39,5.07 9.31,4.87 9.31,4.63 Z m 2.55,6.8 V 11.36 C 11.88,10.45 12.13,9.61 12.6,8.83 13.07,8.06 13.71,7.45 14.5,7 c 0.79,-0.45 1.65,-0.67 2.57,-0.67 0.7,0 1.37,0.14 2.02,0.42 0.64,0.28 1.2,0.65 1.66,1.12 0.47,0.47 0.84,1.02 1.11,1.66 0.27,0.64 0.41,1.32 0.41,2.02 0,0.94 -0.23,1.8 -0.69,2.6 -0.46,0.8 -1.09,1.43 -1.88,1.89 -0.79,0.47 -1.66,0.7 -2.6,0.71 h -0.2 c -0.07,0 -0.13,-0.02 -0.18,-0.07 -0.05,-0.05 -0.08,-0.11 -0.08,-0.18 v -1.22 c 0,-0.13 0.07,-0.2 0.22,-0.2 h 0.24 c 0.96,-0.01 1.79,-0.35 2.47,-1.05 0.68,-0.69 1.03,-1.52 1.03,-2.49 0,-0.96 -0.35,-1.78 -1.04,-2.47 -0.69,-0.68 -1.52,-1.02 -2.5,-1.02 -0.94,0 -1.76,0.32 -2.44,0.98 -0.68,0.65 -1.04,1.44 -1.08,2.37 0,0.06 -0.02,0.11 -0.07,0.17 -0.05,0.06 -0.13,0.09 -0.25,0.09 h -1.14 c -0.15,0.01 -0.22,-0.07 -0.22,-0.23 z m 4.37,9.88 v -1.99 c 0,-0.24 0.08,-0.44 0.24,-0.6 0.16,-0.16 0.36,-0.24 0.6,-0.24 0.24,0 0.45,0.08 0.61,0.24 0.16,0.16 0.24,0.36 0.24,0.6 v 1.99 c 0,0.24 -0.08,0.45 -0.25,0.62 -0.17,0.17 -0.37,0.25 -0.6,0.25 -0.24,0 -0.44,-0.08 -0.6,-0.25 -0.16,-0.17 -0.24,-0.37 -0.24,-0.62 z m 0,-17.48 V 1.78 c 0,-0.24 0.08,-0.44 0.25,-0.6 0.17,-0.16 0.36,-0.25 0.6,-0.25 0.23,0 0.43,0.08 0.6,0.25 0.17,0.17 0.25,0.37 0.25,0.6 v 2.04 c 0,0.23 -0.08,0.42 -0.25,0.58 -0.17,0.15 -0.37,0.23 -0.6,0.23 -0.24,0 -0.44,-0.08 -0.6,-0.23 C 16.31,4.25 16.23,4.06 16.23,3.83 Z m 5.51,13.18 c 0,-0.23 0.07,-0.42 0.23,-0.56 0.15,-0.16 0.34,-0.23 0.57,-0.23 0.24,0 0.44,0.08 0.6,0.23 l 1.45,1.42 c 0.16,0.17 0.24,0.38 0.24,0.61 0,0.23 -0.08,0.43 -0.24,0.59 -0.4,0.31 -0.8,0.31 -1.2,0 l -1.42,-1.43 c -0.15,-0.16 -0.23,-0.38 -0.23,-0.63 z m 0,-10.93 c 0,-0.25 0.07,-0.45 0.23,-0.59 l 1.42,-1.47 c 0.18,-0.16 0.37,-0.24 0.59,-0.24 0.24,0 0.44,0.08 0.6,0.25 0.17,0.17 0.25,0.37 0.25,0.6 0,0.25 -0.08,0.46 -0.24,0.62 L 23.14,6.68 C 22.96,6.84 22.76,6.92 22.54,6.92 22.31,6.92 22.13,6.84 21.97,6.68 21.81,6.52 21.74,6.32 21.74,6.08 Z M 24,11.55 c 0,-0.23 0.08,-0.44 0.25,-0.62 0.16,-0.16 0.35,-0.24 0.56,-0.24 h 2.03 c 0.23,0 0.43,0.09 0.61,0.26 0.17,0.17 0.26,0.37 0.26,0.6 0,0.23 -0.09,0.43 -0.26,0.6 -0.18,0.17 -0.38,0.25 -0.61,0.25 h -2.03 c -0.23,0 -0.42,-0.08 -0.58,-0.25 C 24.08,11.99 24,11.79 24,11.55 Z" /><path
   id="wind"
   d="m 2.32,14.85 c 0,0.24 0.09,0.44 0.26,0.6 0.16,0.17 0.36,0.25 0.6,0.25 h 9.42 c 0.23,0 0.43,-0.08 0.59,-0.25 0.16,-0.17 0.24,-0.37 0.24,-0.6 0,-0.23 -0.08,-0.43 -0.23,-0.59 -0.16,-0.16 -0.35,-0.24 -0.59,-0.24 H 3.18 c -0.24,0 -0.44,0.08 -0.61,0.24 -0.17,0.16 -0.25,0.36 -0.25,0.59 z M 2.65,21 c 0,0.24 0.08,0.44 0.25,0.6 0.16,0.17 0.36,0.25 0.6,0.25 h 9.43 c 0.24,0 0.44,-0.08 0.61,-0.25 0.17,-0.17 0.25,-0.37 0.25,-0.6 0,-0.23 -0.08,-0.43 -0.25,-0.59 -0.17,-0.16 -0.37,-0.24 -0.61,-0.24 H 3.51 c -0.24,0 -0.44,0.08 -0.6,0.24 C 2.74,20.57 2.65,20.77 2.65,21 Z m 1.37,-3.1 c 0,0.24 0.08,0.43 0.25,0.59 0.17,0.16 0.38,0.23 0.63,0.23 h 9.4 c 0.24,0 0.43,-0.08 0.59,-0.23 0.16,-0.16 0.23,-0.35 0.23,-0.59 0,-0.25 -0.08,-0.45 -0.23,-0.61 -0.16,-0.16 -0.35,-0.24 -0.59,-0.24 H 4.9 c -0.25,0 -0.46,0.08 -0.63,0.24 -0.16,0.16 -0.25,0.36 -0.25,0.61 z" />
</svg>
