<?xml version="1.0" encoding="UTF-8" standalone="no"?>
<!-- Generator: Adobe Illustrator 22.0.1, SVG Export Plug-In . SVG Version: 6.00 Build 0)  -->

<svg
   version="1.1"
   id="Layer_1"
   x="0px"
   y="0px"
   viewBox="0 0 30 30"
   style="enable-background:new 0 0 30 30;"
   xml:space="preserve"
   sodipodi:docname="wi-day-sleet.svg"
   inkscape:version="1.4.3 (0d15f75, 2025-12-25)"
   xmlns:inkscape="http://www.inkscape.org/namespaces/inkscape"
   xmlns:sodipodi="http://sodipodi.sourceforge.net/DTD/sodipodi-0.dtd"
   xmlns="http://www.w3.org/2000/svg"
   xmlns:svg="http://www.w3.org/2000/svg"><defs
   id="defs1" /><sodipodi:namedview
   id="namedview1"
   pagecolor="#ffffff"
   bordercolor="#000000"
   borderopacity="0.25"
   inkscape:showpageshadow="2"
   inkscape:pageopacity="0.0"
   inkscape:pagecheckerboard="0"
   inkscape:deskcolor="#d1d1d1"
   inkscape:zoom="21.260344"
   inkscape:cx="12.041198"
   inkscape:cy="14.816317"
   inkscape:window-width="2560"
   inkscape:window-height="1387"
   inkscape:window-x="1352"
   inkscape:window-y="25"
   inkscape:window-maximized="0"
   inkscape:current-layer="Layer_1" />
<path
   id="rain"
   d="m 6.99,24.09 c 0,-0.03 0.01,-0.07 0.02,-0.13 0.01,-0.05 0.02,-0.09 0.02,-0.12 l 0.09,-0.59 c 0.07,-0.24 0.2,-0.41 0.41,-0.53 0.2,-0.12 0.43,-0.14 0.68,-0.08 0.23,0.07 0.39,0.2 0.51,0.41 0.11,0.2 0.13,0.41 0.07,0.62 l -0.14,0.6 c -0.1,0.44 -0.35,0.66 -0.76,0.66 -0.03,0 -0.08,0 -0.15,-0.01 C 7.67,24.91 7.63,24.91 7.61,24.91 7.4,24.85 7.25,24.74 7.15,24.58 7.04,24.43 6.99,24.26 6.99,24.09 Z m 0.74,-2.94 c 0,-0.24 0.08,-0.43 0.23,-0.59 0.16,-0.16 0.35,-0.23 0.59,-0.23 0.24,0 0.43,0.08 0.59,0.23 0.16,0.16 0.23,0.35 0.23,0.59 0,0.23 -0.08,0.42 -0.23,0.58 -0.15,0.16 -0.35,0.23 -0.59,0.23 -0.23,0 -0.42,-0.08 -0.57,-0.24 C 7.81,21.56 7.73,21.37 7.73,21.15 Z m 1.64,5.98 c 0,-0.04 0.01,-0.11 0.04,-0.23 l 0.13,-0.58 c 0.07,-0.23 0.21,-0.4 0.41,-0.51 0.21,-0.12 0.42,-0.14 0.63,-0.07 0.23,0.04 0.41,0.17 0.53,0.37 0.12,0.2 0.15,0.43 0.08,0.68 l -0.13,0.59 c -0.1,0.41 -0.37,0.61 -0.8,0.61 -0.05,0 -0.13,-0.01 -0.24,-0.04 C 9.8,27.89 9.64,27.78 9.53,27.62 9.42,27.46 9.37,27.3 9.37,27.13 Z m 0.79,-2.9 c 0,-0.23 0.08,-0.43 0.23,-0.58 0.16,-0.16 0.35,-0.23 0.59,-0.23 0.24,0 0.43,0.08 0.59,0.23 0.16,0.16 0.23,0.35 0.23,0.58 0,0.24 -0.08,0.43 -0.23,0.59 -0.16,0.16 -0.35,0.23 -0.59,0.23 -0.22,0 -0.41,-0.08 -0.58,-0.25 -0.16,-0.16 -0.24,-0.35 -0.24,-0.57 z m 0.62,-2.27 c 0,-0.09 0.01,-0.18 0.03,-0.26 l 0.23,-0.9 c 0.07,-0.23 0.21,-0.41 0.41,-0.53 0.21,-0.12 0.42,-0.15 0.64,-0.08 0.24,0.07 0.41,0.2 0.53,0.4 0.12,0.2 0.14,0.4 0.07,0.62 l -0.26,0.9 c -0.08,0.27 -0.22,0.46 -0.41,0.57 -0.19,0.11 -0.41,0.12 -0.64,0.06 -0.2,-0.04 -0.35,-0.14 -0.45,-0.3 -0.12,-0.18 -0.17,-0.33 -0.15,-0.48 z m 2.76,2.14 c 0,-0.03 0,-0.07 0.01,-0.13 0.01,-0.06 0.01,-0.09 0.01,-0.11 l 0.09,-0.59 c 0.07,-0.24 0.2,-0.41 0.41,-0.53 0.2,-0.12 0.43,-0.14 0.68,-0.08 0.23,0.07 0.4,0.21 0.51,0.41 0.12,0.21 0.14,0.42 0.07,0.63 l -0.14,0.6 c -0.1,0.43 -0.35,0.65 -0.76,0.65 -0.03,0 -0.08,0 -0.15,-0.01 -0.07,-0.01 -0.11,-0.01 -0.13,-0.01 -0.2,-0.06 -0.35,-0.17 -0.45,-0.33 -0.1,-0.17 -0.15,-0.33 -0.15,-0.5 z m 0.74,-2.94 c 0,-0.24 0.08,-0.43 0.23,-0.59 0.16,-0.16 0.35,-0.23 0.59,-0.23 0.24,0 0.43,0.08 0.59,0.23 0.16,0.16 0.23,0.35 0.23,0.59 0,0.23 -0.08,0.43 -0.23,0.58 -0.16,0.16 -0.35,0.23 -0.59,0.23 -0.23,0 -0.43,-0.08 -0.58,-0.25 -0.16,-0.15 -0.24,-0.34 -0.24,-0.56 z"
   inkscape:label="rain"
   style="display:inline" /><path
   d="m 21.88,14.91 c 0.29,0.61 0.43,1.28 0.43,2.02 0,0.88 -0.21,1.7 -0.64,2.45 -0.42,0.75 -1,1.36 -1.74,1.81 -0.73,0.46 -1.54,0.7 -2.42,0.72 -0.13,0 -0.2,-0.06 -0.2,-0.18 v -1.34 c 0,-0.12 0.07,-0.18 0.2,-0.18 0.86,-0.04 1.58,-0.39 2.18,-1.03 0.6,-0.64 0.9,-1.4 0.9,-2.26 0,-0.89 -0.32,-1.65 -0.97,-2.29 -0.65,-0.64 -1.41,-0.96 -2.31,-0.96 H 15.7 c -0.12,0 -0.18,-0.06 -0.18,-0.17 l -0.08,-0.59 c -0.11,-1.08 -0.58,-1.99 -1.4,-2.72 -0.82,-0.73 -1.78,-1.1 -2.86,-1.1 -1.1,0 -2.05,0.37 -2.86,1.1 -0.81,0.73 -1.27,1.64 -1.37,2.72 L 6.88,13.5 C 6.85,13.59 6.77,13.63 6.66,13.63 L 6.15,13.67 C 5.31,13.77 4.6,14.12 4.04,14.73 3.48,15.34 3.2,16.07 3.2,16.91 v 0.05 h 0.03 c 0.01,0.98 0.38,1.78 1.11,2.43 0.22,0.19 0.47,0.36 0.74,0.49 v 0.02 c 0.41,0.19 0.82,0.29 1.21,0.31 0.11,0 0.17,0.06 0.17,0.17 v 1.34 c 0,0.11 -0.06,0.17 -0.17,0.17 -0.52,-0.03 -1.01,-0.13 -1.48,-0.3 v 0.02 C 3.98,21.32 3.27,20.84 2.7,20.18 2.13,19.52 1.75,18.74 1.59,17.87 V 17.83 C 1.58,17.82 1.58,17.81 1.58,17.8 1.51,17.54 1.49,17.25 1.49,16.92 v 0 c 0,-1.17 0.36,-2.19 1.08,-3.09 0.72,-0.9 1.64,-1.48 2.74,-1.74 0.31,-1.37 1.01,-2.49 2.1,-3.38 1.1,-0.88 2.35,-1.32 3.77,-1.32 0.99,0 1.9,0.22 2.72,0.66 1.082228,0.6233361 0.787258,0.4668229 1.41,1 0.84,0.76 1.4,1.74 1.7,2.93 h 0.31 c 1.38,0 2.55,0.48 3.52,1.45 0.499533,0.469815 0.607831,0.562318 1.04,1.48 z"
   id="cloud"
   inkscape:label="cloud"
   style="display:inline"
   sodipodi:nodetypes="cscccsscsssssccsssccccssccccccsscccscccsssccscccscc" />
<path
   id="sun"
   style="display:inline"
   inkscape:label="sun"
   d="m 20.84,13.43 c 0.31,-0.55 0.47,-1.16 0.47,-1.82 0,-0.98 -0.35,-1.81 -1.04,-2.5 -0.69,-0.68 -1.53,-1.03 -2.51,-1.03 -0.96,0 -1.78,0.32 -2.45,0.97 l -1.41,-1 c 0.5,-0.53 1.09,-0.95 1.76,-1.25 0.67,-0.3 1.37,-0.45 2.09,-0.45 0.95,0 1.83,0.24 2.64,0.71 0.81,0.47 1.45,1.11 1.92,1.92 0.47,0.81 0.71,1.69 0.71,2.64 0,1.23 -0.38,2.33 -1.14,3.29 z M 9.9,4.62 c 0,-0.24 0.08,-0.44 0.25,-0.6 0.17,-0.16 0.38,-0.24 0.63,-0.24 0.24,0 0.44,0.08 0.6,0.24 l 0.63,0.66 c 0.17,0.17 0.25,0.37 0.25,0.6 0,0.24 -0.1,0.46 -0.3,0.64 -0.2,0.18 -0.4,0.26 -0.61,0.23 C 11.14,6.13 10.96,6.04 10.8,5.88 L 10.15,5.22 C 9.99,5.05 9.9,4.85 9.9,4.62 Z M 16.91,3.78 V 1.73 c 0,-0.24 0.08,-0.44 0.25,-0.61 0.17,-0.17 0.37,-0.26 0.6,-0.26 0.24,0 0.44,0.08 0.6,0.25 0.16,0.17 0.24,0.38 0.24,0.62 V 3.78 C 18.6,4.02 18.52,4.23 18.36,4.4 18.2,4.57 18,4.65 17.76,4.65 17.53,4.65 17.33,4.56 17.16,4.39 16.99,4.22 16.91,4.02 16.91,3.78 Z m 5.58,2.29 c 0,-0.24 0.08,-0.44 0.23,-0.6 l 1.44,-1.45 c 0.15,-0.17 0.34,-0.25 0.58,-0.25 0.24,0 0.44,0.08 0.6,0.25 0.18,0.16 0.26,0.36 0.26,0.6 0,0.24 -0.09,0.44 -0.26,0.6 L 23.9,6.68 C 23.71,6.87 23.5,6.95 23.27,6.94 23.04,6.92 22.86,6.84 22.72,6.68 22.56,6.52 22.49,6.32 22.49,6.07 Z m 0.77,11.91 c 0,-0.24 0.08,-0.44 0.25,-0.61 0.17,-0.17 0.37,-0.25 0.6,-0.25 0.23,0 0.43,0.09 0.61,0.26 l 0.62,0.63 c 0.18,0.17 0.26,0.38 0.26,0.61 0,0.24 -0.09,0.44 -0.26,0.6 -0.14,0.17 -0.32,0.26 -0.54,0.26 l -0.02,-0.02 c -0.24,0 -0.44,-0.08 -0.62,-0.24 l -0.65,-0.64 c -0.16,-0.17 -0.25,-0.37 -0.25,-0.6 z m 1.47,-6.37 c 0,-0.24 0.08,-0.44 0.25,-0.6 0.17,-0.16 0.37,-0.24 0.61,-0.24 h 2.06 c 0.24,0 0.45,0.08 0.61,0.24 0.16,0.16 0.25,0.36 0.25,0.6 0,0.24 -0.08,0.44 -0.25,0.61 -0.17,0.17 -0.37,0.25 -0.61,0.25 h -2.06 c -0.24,0 -0.44,-0.09 -0.6,-0.27 -0.18,-0.15 -0.26,-0.35 -0.26,-0.59 z" /></svg>
