<?xml version="1.0" encoding="UTF-8" standalone="no"?>
<!-- Generator: Adobe Illustrator 22.0.1, SVG Export Plug-In . SVG Version: 6.00 Build 0)  -->

<svg
   version="1.1"
   id="Layer_1"
   x="0px"
   y="0px"
   viewBox="0 0 30 30"
   style="enable-background:new 0 0 30 30;"
   xml:space="preserve"
   sodipodi:docname="wi-day-cloudy-gusts.svg"
   inkscape:version="1.4.3 (0d15f75, 2025-12-25)"
   xmlns:inkscape="http://www.inkscape.org/namespaces/inkscape"
   xmlns:sodipodi="http://sodipodi.sourceforge.net/DTD/sodipodi-0.dtd"
   xmlns="http://www.w3.org/2000/svg"
   xmlns:svg="http://www.w3.org/2000/svg"><defs
   id="defs1" /><sodipodi:namedview
   id="namedview1"
   pagecolor="#ffffff"
   bordercolor="#000000"
   borderopacity="0.25"
   inkscape:showpageshadow="2"
   inkscape:pageopacity="0.0"
   inkscape:pagecheckerboard="0"
   inkscape:deskcolor="#d1d1d1"
   inkscape:zoom="41.483598"
   inkscape:cx="15.885797"
   inkscape:cy="14.101959"
   inkscape:window-width="2560"
   inkscape:window-height="1387"
   inkscape:window-x="1352"
   inkscape:window-y="25"
   inkscape:window-maximized="1"
   inkscape:current-layer="Layer_1" />
<path
   id="wind"
   inkscape:label="wind"
   d="m 0.35,21.01 c 0,0.24 0.09,0.44 0.27,0.6 0.17,0.17 0.37,0.25 0.61,0.25 h 5.88 c 0.26,0 0.48,0.09 0.68,0.28 0.2,0.19 0.3,0.42 0.3,0.68 0,0.26 -0.1,0.5 -0.3,0.69 C 7.59,23.7 7.37,23.8 7.11,23.8 6.85,23.8 6.63,23.7 6.43,23.5 6.25,23.34 6.05,23.26 5.82,23.26 c -0.24,0 -0.44,0.08 -0.6,0.24 -0.16,0.16 -0.24,0.36 -0.24,0.6 0,0.24 0.08,0.44 0.24,0.6 0.53,0.53 1.16,0.8 1.89,0.8 0.74,0 1.37,-0.26 1.88,-0.78 C 9.51,24.2 9.77,23.57 9.77,22.83 9.77,22.09 9.51,21.46 8.99,20.94 8.47,20.41 7.84,20.15 7.11,20.15 H 1.23 c -0.24,0 -0.44,0.09 -0.62,0.26 -0.18,0.17 -0.26,0.37 -0.26,0.6 z m 0,-3.01 c 0,0.22 0.09,0.41 0.27,0.57 0.17,0.17 0.37,0.25 0.61,0.25 H 12.2 c 0.74,0 1.37,-0.26 1.89,-0.78 0.52,-0.52 0.78,-1.15 0.78,-1.89 0,-0.74 -0.26,-1.36 -0.78,-1.88 -0.52,-0.51 -1.15,-0.77 -1.89,-0.77 -0.76,0 -1.38,0.25 -1.88,0.76 -0.16,0.16 -0.23,0.37 -0.23,0.61 0,0.24 0.08,0.44 0.23,0.6 0.15,0.15 0.35,0.23 0.6,0.23 0.24,0 0.44,-0.08 0.62,-0.23 0.19,-0.19 0.41,-0.28 0.67,-0.28 0.26,0 0.49,0.09 0.68,0.28 0.19,0.19 0.29,0.42 0.29,0.68 0,0.27 -0.1,0.5 -0.29,0.69 -0.19,0.19 -0.42,0.29 -0.68,0.29 H 1.23 c -0.24,0 -0.44,0.09 -0.62,0.26 C 0.43,17.57 0.35,17.77 0.35,18 Z" />
<path
   id="sun"
   style="display:inline"
   inkscape:label="sun"
   d="m 16.5,9.0292969 c 0.72,-0.68 1.540469,-1.0195313 2.480469,-1.0195313 0.97,0 1.799765,0.3507813 2.509765,1.0507813 0.7,0.7 1.048828,1.5397651 1.048828,2.5097661 0,0.65 -0.169531,1.260078 -0.519531,1.830078 l 1.080075,1.449221 c 0.760001,-0.99 1.13086,-2.100546 1.13086,-3.310546 0,-0.94 -0.240938,-1.8091411 -0.710938,-2.6191411 C 23.049531,8.1099219 22.409609,7.47 21.599609,7 c -0.81,-0.47 -1.67914,-0.7109375 -2.61914,-0.7109375 -1.54,0 -2.831328,0.5804688 -3.861328,1.7304688 M 11.18,4.62 c 0,0.23 0.09,0.43 0.27,0.6 l 0.61,0.65 c 0.16,0.16 0.37,0.24 0.61,0.24 0.25,0 0.45,-0.08 0.61,-0.23 0.16,-0.15 0.24,-0.35 0.24,-0.6 0,-0.24 -0.07,-0.44 -0.23,-0.6 L 12.63,4.03 C 12.47,3.86 12.28,3.77 12.04,3.77 c -0.24,0 -0.44,0.08 -0.61,0.25 -0.17,0.17 -0.25,0.37 -0.25,0.6 z m 6.94,-0.83 c 0,0.23 0.08,0.43 0.25,0.59 0.17,0.16 0.37,0.24 0.6,0.24 0.24,0 0.44,-0.08 0.61,-0.24 0.17,-0.16 0.25,-0.35 0.25,-0.59 V 1.74 C 19.83,1.5 19.75,1.3 19.58,1.13 19.41,0.96 19.21,0.88 18.97,0.88 c -0.24,0 -0.44,0.08 -0.6,0.25 -0.16,0.17 -0.25,0.37 -0.25,0.61 z m 5.55,2.27 c 0,0.24 0.08,0.44 0.23,0.6 0.17,0.17 0.37,0.25 0.61,0.26 0.24,0.01 0.43,-0.08 0.57,-0.26 L 26.54,5.23 C 26.71,5.06 26.79,4.86 26.79,4.62 26.79,4.39 26.71,4.19 26.54,4.02 26.37,3.85 26.17,3.77 25.93,3.77 25.69,3.77 25.49,3.84 25.33,4 L 23.9,5.47 c -0.15,0.16 -0.23,0.35 -0.23,0.59 z m 0.77,11.83 c 0,0.23 0.08,0.43 0.25,0.6 l 0.64,0.65 c 0.2,0.16 0.41,0.24 0.62,0.24 0.19,0 0.39,-0.08 0.59,-0.24 0.17,-0.17 0.25,-0.37 0.25,-0.6 0,-0.22 -0.08,-0.42 -0.25,-0.61 L 25.9,17.28 c -0.16,-0.16 -0.36,-0.24 -0.58,-0.24 -0.25,0 -0.46,0.08 -0.63,0.25 -0.17,0.16 -0.25,0.36 -0.25,0.6 z m 1.51,-6.32 c 0,0.24 0.08,0.43 0.25,0.59 0.15,0.18 0.34,0.26 0.57,0.26 h 2.02 c 0.24,0 0.44,-0.08 0.61,-0.25 0.17,-0.17 0.25,-0.37 0.25,-0.6 0,-0.23 -0.09,-0.43 -0.26,-0.6 -0.17,-0.17 -0.37,-0.26 -0.6,-0.26 h -2.02 c -0.24,0 -0.43,0.08 -0.59,0.25 -0.15,0.17 -0.23,0.37 -0.23,0.61 z" /><path
   d="m 15.119141,8.0195313 c -0.8,-0.41 -1.689922,-0.6093751 -2.669922,-0.6093751 -1.41,0 -2.6485159,0.4405469 -3.7285159,1.3105469 -1.08,0.87 -1.7705468,1.9898439 -2.0605469,3.3398439 -0.85,0.2 -1.5999999,0.608515 -2.25,1.228516 -0.65,0.62 -1.1093749,1.351406 -1.3593749,2.191406 v 0.03906 C 3.0107813,15.589531 3,15.620391 3,15.650391 c 0,0.08 0.059922,0.11914 0.1699219,0.11914 h 1.4296875 c 0.07,0 0.1311719,-0.04867 0.2011718,-0.138672 0.22,-0.54 0.5688282,-0.991562 1.0488282,-1.351562 0.47,-0.35 0.9996094,-0.549609 1.5996093,-0.599609 l 0.53125,-0.07031 c 0.1200001,0 0.1894532,-0.05992 0.1894532,-0.169922 l 0.070312,-0.519531 c 0.11,-1.08 0.5591406,-1.978984 1.3691406,-2.708984 0.8100005,-0.7300005 1.7615615,-1.0917974 2.8515635,-1.0917974 1.1,0 2.049375,0.3600782 2.859375,1.0800784 0.809999,0.72 1.268905,1.630937 1.378905,2.710937 l 0.07031,0.580078 c 0,0.12 0.05969,0.179688 0.179688,0.179688 h 1.630859 c 0.9,0 1.670781,0.309453 2.300781,0.939453 0.63,0.63 0.949219,1.391484 0.949219,2.271484 0,0.89 -0.319219,1.659063 -0.949219,2.289063 -0.63,0.63 -1.40078,0.949219 -2.300781,0.949219 h -6.900389 c -0.130001,0 -0.189454,0.06164 -0.189454,0.18164 v 1.369141 c 0,0.11 0.05945,0.169922 0.189454,0.169922 h 6.900389 c 0.89,0 1.720469,-0.219922 2.480469,-0.669922 0.76,-0.44 1.358828,-1.050547 1.798828,-1.810547 0.44,-0.76 0.660156,-1.588516 0.660156,-2.478516 0,-0.74 -0.139921,-1.41125 -0.419922,-2.03125 l -1.080075,-1.449221 c -0.96,-0.96 -2.108984,-1.429688 -3.458984,-1.429688 H 18.220703 C 17.990703,10.880703 17.41,9.8992969 16.5,9.0292969 Z"
   id="cloud"
   sodipodi:nodetypes="csscsccsssccccccsssccssssssssssscssccsccc"
   style="display:inline"
   inkscape:label="cloud" /></svg>
