<?xml version="1.0" encoding="UTF-8" standalone="no"?>
<!-- Generator: Adobe Illustrator 22.0.1, SVG Export Plug-In . SVG Version: 6.00 Build 0)  -->

<svg
   version="1.1"
   id="Layer_1"
   x="0px"
   y="0px"
   viewBox="0 0 30 30"
   style="enable-background:new 0 0 30 30;"
   xml:space="preserve"
   sodipodi:docname="wi-day-rain.svg"
   inkscape:version="1.4.3 (0d15f75, 2025-12-25)"
   xmlns:inkscape="http://www.inkscape.org/namespaces/inkscape"
   xmlns:sodipodi="http://sodipodi.sourceforge.net/DTD/sodipodi-0.dtd"
   xmlns="http://www.w3.org/2000/svg"
   xmlns:svg="http://www.w3.org/2000/svg"><defs
   id="defs1" /><sodipodi:namedview
   id="namedview1"
   pagecolor="#ffffff"
   bordercolor="#000000"
   borderopacity="0.25"
   inkscape:showpageshadow="2"
   inkscape:pageopacity="0.0"
   inkscape:pagecheckerboard="0"
   inkscape:deskcolor="#d1d1d1"
   inkscape:zoom="30.066667"
   inkscape:cx="11.175166"
   inkscape:cy="7.9822616"
   inkscape:window-width="2560"
   inkscape:window-height="1387"
   inkscape:window-x="1352"
   inkscape:window-y="25"
   inkscape:window-maximized="0"
   inkscape:current-layer="Layer_1" />
<path
   id="rain"
   d="m 6.91,23.75 c 0,0.17 0.05,0.33 0.16,0.49 0.11,0.16 0.27,0.27 0.49,0.33 0.11,0.02 0.2,0.04 0.27,0.04 0.39,0 0.65,-0.21 0.77,-0.64 l 1.58,-5.88 C 10.25,17.85 10.22,17.63 10.1,17.42 9.98,17.21 9.8,17.09 9.57,17.04 9.35,16.97 9.14,16.99 8.94,17.11 8.74,17.22 8.6,17.39 8.53,17.62 l -1.58,5.91 c -0.02,0.13 -0.04,0.2 -0.04,0.22 z m 2.61,3.08 c 0,0.19 0.05,0.36 0.15,0.52 0.1,0.16 0.27,0.26 0.52,0.3 0.11,0.02 0.2,0.04 0.26,0.04 0.16,0 0.31,-0.06 0.45,-0.17 0.14,-0.12 0.23,-0.28 0.27,-0.48 l 2.4,-8.93 c 0.06,-0.23 0.04,-0.45 -0.07,-0.64 -0.11,-0.19 -0.28,-0.33 -0.5,-0.4 -0.23,-0.07 -0.45,-0.05 -0.65,0.07 -0.2,0.11 -0.34,0.28 -0.4,0.51 l -2.4,8.93 c -0.02,0.15 -0.03,0.24 -0.03,0.25 z m 4.15,-3.06 c 0,0.16 0.05,0.32 0.15,0.47 0.1,0.15 0.26,0.26 0.46,0.32 0.11,0.02 0.2,0.04 0.25,0.04 0.17,0 0.34,-0.05 0.49,-0.15 0.15,-0.1 0.25,-0.26 0.3,-0.49 l 1.58,-5.88 c 0.06,-0.23 0.04,-0.45 -0.07,-0.64 -0.11,-0.2 -0.28,-0.33 -0.5,-0.4 -0.24,-0.07 -0.45,-0.05 -0.65,0.07 -0.2,0.11 -0.33,0.28 -0.39,0.51 l -1.58,5.91 c -0.02,0.15 -0.04,0.23 -0.04,0.24 z"
   inkscape:label="rain"
   style="display:inline" />
<path
   d="M 20.79,13.44 C 19.82,12.47 18.66,11.99 17.3,11.99 H 16.97 C 16.7,10.81 16.14,9.83 15.3,9.03 14.777208,8.6409472 14.634591,8.4863813 13.9,8.06 13.08,7.62 12.18,7.4 11.19,7.4 9.78,7.4 8.52,7.84 7.43,8.72 c -1.09,0.88 -1.79,2 -2.1,3.36 -1.11,0.26 -2.02,0.84 -2.74,1.74 -0.72,0.9 -1.08,1.92 -1.08,3.07 0,1.33 0.46,2.48 1.39,3.44 0.93,0.96 2.06,1.47 3.41,1.53 0.11,0 0.17,-0.06 0.17,-0.17 v -1.34 c 0,-0.11 -0.06,-0.17 -0.17,-0.17 -0.86,-0.04 -1.59,-0.39 -2.19,-1.03 -0.6,-0.64 -0.9,-1.4 -0.9,-2.26 0,-0.82 0.28,-1.54 0.85,-2.16 0.57,-0.62 1.27,-0.97 2.1,-1.07 L 6.7,13.61 c 0.13,0 0.2,-0.06 0.2,-0.17 L 6.97,12.9 c 0.11,-1.08 0.56,-1.99 1.37,-2.72 0.81,-0.73 1.76,-1.1 2.85,-1.1 1.09,0 2.04,0.37 2.86,1.1 0.82,0.73 1.28,1.64 1.4,2.72 l 0.07,0.57 c 0,0.12 0.06,0.19 0.17,0.19 h 1.62 c 0.89,0 1.65,0.32 2.3,0.96 0.65,0.64 0.97,1.39 0.97,2.27 0,0.87 -0.3,1.62 -0.9,2.26 -0.6,0.64 -1.33,0.98 -2.18,1.03 -0.12,0 -0.19,0.06 -0.19,0.17 v 1.34 c 0,0.11 0.06,0.17 0.19,0.17 1.33,-0.04 2.46,-0.55 3.39,-1.51 0.93,-0.97 1.39,-2.12 1.39,-3.45 0,-0.72 -0.14,-1.39 -0.42,-2.01 -0.359843,-0.734301 -0.428706,-0.897298 -1.07,-1.45 z"
   id="cloud"
   inkscape:label="cloud"
   style="display:inline"
   sodipodi:nodetypes="cscccsscssscsscsssccccsssccssssscssccscc" /><path
   id="sun"
   style="display:inline"
   inkscape:label="sun"
   d="m 21.86,14.89 c 0.78,-0.97 1.17,-2.07 1.17,-3.31 0,-0.95 -0.24,-1.83 -0.71,-2.64 C 21.85,8.13 21.21,7.49 20.4,7.02 19.59,6.55 18.72,6.32 17.78,6.32 16.22,6.32 14.93,6.9 13.9,8.06 l 1.4,0.97 c 0.71,-0.67 1.53,-1 2.48,-1 0.98,0 1.82,0.35 2.5,1.04 0.69,0.69 1.03,1.53 1.03,2.52 0,0.62 -0.17,1.24 -0.52,1.85 z M 9.94,4.6 c 0,0.24 0.08,0.44 0.25,0.61 l 0.65,0.66 c 0.19,0.15 0.4,0.22 0.62,0.22 0.21,0 0.41,-0.08 0.58,-0.23 C 12.21,5.7 12.3,5.51 12.3,5.27 12.3,5.03 12.22,4.81 12.06,4.63 L 11.42,3.98 C 11.24,3.81 11.04,3.73 10.82,3.73 10.58,3.73 10.37,3.82 10.2,3.99 10.03,4.16 9.94,4.37 9.94,4.6 Z m 6.98,-0.82 c 0,0.23 0.08,0.43 0.25,0.59 0.17,0.16 0.37,0.24 0.61,0.24 0.23,0 0.43,-0.08 0.59,-0.23 0.16,-0.16 0.24,-0.35 0.24,-0.59 V 1.73 C 18.61,1.47 18.53,1.26 18.38,1.1 18.22,0.94 18.03,0.86 17.79,0.86 c -0.25,0 -0.46,0.08 -0.62,0.25 -0.16,0.17 -0.24,0.37 -0.24,0.62 v 2.05 z m 5.53,2.28 c 0,0.24 0.09,0.44 0.27,0.59 0.14,0.16 0.32,0.24 0.55,0.26 0.23,0.02 0.44,-0.07 0.62,-0.26 l 1.44,-1.43 c 0.18,-0.17 0.26,-0.38 0.26,-0.63 0,-0.24 -0.08,-0.45 -0.25,-0.61 -0.17,-0.16 -0.37,-0.24 -0.61,-0.24 -0.21,0 -0.4,0.08 -0.58,0.25 L 22.72,5.43 C 22.54,5.6 22.45,5.81 22.45,6.06 Z m 0.81,11.85 c 0,0.24 0.08,0.45 0.24,0.63 l 0.65,0.63 c 0.18,0.14 0.38,0.21 0.6,0.21 l 0.02,0.02 c 0.23,0 0.42,-0.08 0.58,-0.24 0.16,-0.16 0.24,-0.37 0.24,-0.61 0,-0.24 -0.09,-0.43 -0.26,-0.58 l -0.62,-0.66 c -0.18,-0.16 -0.39,-0.24 -0.62,-0.24 -0.23,0 -0.43,0.08 -0.59,0.25 -0.16,0.17 -0.24,0.35 -0.24,0.59 z m 1.46,-6.33 c 0,0.24 0.09,0.43 0.26,0.59 0.18,0.18 0.38,0.26 0.62,0.26 h 2.03 c 0.24,0 0.44,-0.08 0.61,-0.25 0.17,-0.17 0.25,-0.37 0.25,-0.6 0,-0.24 -0.08,-0.44 -0.25,-0.61 -0.17,-0.17 -0.37,-0.26 -0.61,-0.26 H 25.6 c -0.24,0 -0.44,0.09 -0.62,0.26 -0.18,0.17 -0.26,0.37 -0.26,0.61 z" /></svg>
