<?xml version="1.0" encoding="UTF-8" standalone="no"?>
<!-- Generator: Adobe Illustrator 22.0.1, SVG Export Plug-In . SVG Version: 6.00 Build 0)  -->

<svg
   version="1.1"
   id="Layer_1"
   x="0px"
   y="0px"
   viewBox="0 0 30 30"
   style="enable-background:new 0 0 30 30;"
   xml:space="preserve"
   sodipodi:docname="wi-day-haze.svg"
   inkscape:version="1.4.3 (0d15f75, 2025-12-25)"
   xmlns:inkscape="http://www.inkscape.org/namespaces/inkscape"
   xmlns:sodipodi="http://sodipodi.sourceforge.net/DTD/sodipodi-0.dtd"
   xmlns="http://www.w3.org/2000/svg"
   xmlns:svg="http://www.w3.org/2000/svg"><defs
   id="defs1" /><sodipodi:namedview
   id="namedview1"
   pagecolor="#ffffff"
   bordercolor="#000000"
   borderopacity="0.25"
   inkscape:showpageshadow="2"
   inkscape:pageopacity="0.0"
   inkscape:pagecheckerboard="0"
   inkscape:deskcolor="#d1d1d1"
   inkscape:zoom="30.066667"
   inkscape:cx="14.98337"
   inkscape:cy="15"
   inkscape:window-width="2560"
   inkscape:window-height="1387"
   inkscape:window-x="1352"
   inkscape:window-y="25"
   inkscape:window-maximized="0"
   inkscape:current-layer="Layer_1" />
<path
   id="haze"
   d="m 7.39,18.02 c 0,-0.22 0.08,-0.41 0.23,-0.55 0.16,-0.14 0.37,-0.22 0.64,-0.22 h 5.71 c 0.27,0 0.48,0.07 0.64,0.22 0.16,0.14 0.24,0.33 0.24,0.55 0,0.27 -0.08,0.48 -0.23,0.64 -0.16,0.16 -0.37,0.24 -0.65,0.24 H 8.26 C 7.99,18.9 7.78,18.82 7.62,18.67 7.46,18.52 7.39,18.29 7.39,18.02 Z m 0.99,2.95 c 0,-0.22 0.09,-0.42 0.28,-0.6 0.18,-0.18 0.39,-0.27 0.6,-0.27 0.26,0 0.47,0.09 0.63,0.26 0.16,0.18 0.24,0.38 0.24,0.61 0,0.28 -0.08,0.49 -0.23,0.65 -0.15,0.16 -0.37,0.23 -0.64,0.23 -0.23,0 -0.44,-0.08 -0.61,-0.24 C 8.47,21.45 8.38,21.23 8.38,20.97 Z m 2.42,0 c 0,-0.23 0.08,-0.43 0.24,-0.61 0.16,-0.17 0.37,-0.26 0.63,-0.26 h 3.83 c 0.22,0 0.42,0.09 0.6,0.27 0.18,0.18 0.28,0.38 0.28,0.6 0,0.26 -0.09,0.48 -0.27,0.64 -0.18,0.16 -0.38,0.24 -0.61,0.24 h -3.83 c -0.27,0 -0.48,-0.08 -0.64,-0.23 -0.16,-0.16 -0.23,-0.37 -0.23,-0.65 z m 4.7,-2.95 c 0,-0.21 0.09,-0.39 0.27,-0.54 0.18,-0.15 0.38,-0.23 0.61,-0.23 0.23,0 0.43,0.08 0.61,0.23 0.18,0.15 0.27,0.33 0.27,0.54 0,0.26 -0.09,0.48 -0.27,0.64 -0.18,0.16 -0.38,0.24 -0.61,0.24 -0.23,0 -0.44,-0.08 -0.61,-0.24 -0.18,-0.17 -0.27,-0.38 -0.27,-0.64 z m 1.54,2.95 c 0,-0.23 0.08,-0.43 0.24,-0.61 0.16,-0.17 0.38,-0.26 0.64,-0.26 h 1.86 c 0.26,0 0.47,0.09 0.63,0.26 0.16,0.18 0.24,0.38 0.24,0.61 0,0.28 -0.08,0.49 -0.23,0.65 -0.15,0.16 -0.37,0.23 -0.64,0.23 h -1.86 c -0.27,0 -0.48,-0.08 -0.64,-0.23 -0.16,-0.16 -0.24,-0.37 -0.24,-0.65 z m 0.88,-2.95 c 0,-0.21 0.09,-0.39 0.27,-0.54 0.18,-0.15 0.38,-0.23 0.6,-0.23 h 3.07 c 0.22,0 0.4,0.07 0.54,0.22 0.14,0.15 0.22,0.33 0.22,0.55 0,0.27 -0.07,0.48 -0.21,0.64 -0.14,0.16 -0.32,0.24 -0.55,0.24 h -3.07 c -0.23,0 -0.43,-0.08 -0.61,-0.24 -0.17,-0.17 -0.26,-0.38 -0.26,-0.64 z" /><path
   id="sun"
   d="m 4.37,15.62 c 0,-0.24 0.08,-0.44 0.25,-0.61 C 4.8,14.84 5,14.76 5.22,14.76 h 2.04 c 0.23,0 0.42,0.08 0.58,0.25 0.15,0.17 0.23,0.37 0.23,0.61 0,0.24 -0.08,0.44 -0.23,0.6 -0.15,0.17 -0.35,0.25 -0.58,0.25 H 5.23 C 5,16.47 4.8,16.39 4.63,16.22 4.46,16.05 4.37,15.85 4.37,15.62 Z M 7.23,8.71 C 7.23,8.48 7.31,8.28 7.46,8.1 7.66,7.93 7.87,7.85 8.1,7.85 c 0.21,0 0.41,0.08 0.59,0.25 l 1.43,1.46 c 0.16,0.15 0.24,0.35 0.24,0.59 0,0.24 -0.08,0.44 -0.24,0.6 -0.16,0.16 -0.36,0.24 -0.6,0.24 -0.24,0 -0.44,-0.08 -0.59,-0.24 L 7.47,9.32 C 7.31,9.15 7.23,8.95 7.23,8.71 Z m 2.56,7.2 v -0.07 c 0.03,-1.26 0.47,-2.35 1.31,-3.28 0.84,-0.93 1.87,-1.49 3.1,-1.69 h 0.05 c 0.19,-0.04 0.45,-0.06 0.76,-0.06 0.31,0 0.57,0.02 0.76,0.06 h 0.04 c 1.22,0.19 2.26,0.76 3.1,1.69 0.84,0.93 1.28,2.02 1.31,3.28 v 0.07 c 0,0.16 -0.08,0.24 -0.23,0.24 h -1.13 c -0.12,0 -0.2,-0.03 -0.25,-0.09 -0.05,-0.06 -0.07,-0.12 -0.07,-0.18 -0.04,-0.93 -0.4,-1.72 -1.08,-2.37 -0.68,-0.65 -1.49,-0.97 -2.44,-0.97 -0.95,0 -1.76,0.32 -2.44,0.97 -0.68,0.65 -1.04,1.44 -1.08,2.37 0,0.06 -0.03,0.12 -0.08,0.18 -0.05,0.06 -0.14,0.09 -0.26,0.09 h -1.13 c -0.16,0 -0.24,-0.08 -0.24,-0.24 z M 14.14,7.89 V 5.86 c 0,-0.24 0.08,-0.44 0.25,-0.61 C 14.56,5.08 14.76,5 15,5 c 0.24,0 0.43,0.08 0.6,0.25 0.17,0.17 0.25,0.37 0.25,0.61 v 2.03 c 0,0.23 -0.08,0.43 -0.25,0.58 C 15.43,8.62 15.23,8.71 15,8.71 14.77,8.71 14.56,8.63 14.4,8.48 14.24,8.33 14.14,8.12 14.14,7.89 Z m 5.52,2.26 c 0,-0.25 0.08,-0.45 0.23,-0.59 L 21.31,8.1 c 0.18,-0.17 0.38,-0.25 0.59,-0.25 0.23,0 0.43,0.08 0.6,0.25 0.17,0.17 0.25,0.37 0.25,0.61 0,0.24 -0.08,0.45 -0.24,0.61 l -1.46,1.42 c -0.18,0.16 -0.38,0.24 -0.6,0.24 -0.23,0 -0.41,-0.08 -0.56,-0.24 -0.15,-0.15 -0.23,-0.35 -0.23,-0.59 z m 2.26,5.47 c 0,-0.23 0.08,-0.43 0.24,-0.61 0.17,-0.17 0.36,-0.25 0.57,-0.25 h 2.02 c 0.23,0 0.43,0.09 0.6,0.26 0.17,0.17 0.26,0.37 0.26,0.6 0,0.23 -0.09,0.43 -0.26,0.6 -0.17,0.17 -0.37,0.25 -0.6,0.25 h -2.02 c -0.23,0 -0.43,-0.08 -0.58,-0.25 -0.15,-0.17 -0.23,-0.36 -0.23,-0.6 z" />
</svg>
