<?xml version="1.0" encoding="UTF-8" standalone="no"?>
<!-- Generator: Adobe Illustrator 22.0.1, SVG Export Plug-In . SVG Version: 6.00 Build 0)  -->

<svg
   version="1.1"
   id="Layer_1"
   x="0px"
   y="0px"
   viewBox="0 0 30 30"
   style="enable-background:new 0 0 30 30;"
   xml:space="preserve"
   sodipodi:docname="wi-day-snow-thunderstorm.svg"
   inkscape:version="1.4.3 (0d15f75, 2025-12-25)"
   xmlns:inkscape="http://www.inkscape.org/namespaces/inkscape"
   xmlns:sodipodi="http://sodipodi.sourceforge.net/DTD/sodipodi-0.dtd"
   xmlns="http://www.w3.org/2000/svg"
   xmlns:svg="http://www.w3.org/2000/svg"><defs
   id="defs1" /><sodipodi:namedview
   id="namedview1"
   pagecolor="#ffffff"
   bordercolor="#000000"
   borderopacity="0.25"
   inkscape:showpageshadow="2"
   inkscape:pageopacity="0.0"
   inkscape:pagecheckerboard="0"
   inkscape:deskcolor="#d1d1d1"
   inkscape:zoom="30.066667"
   inkscape:cx="13.104213"
   inkscape:cy="19.02439"
   inkscape:window-width="2560"
   inkscape:window-height="1387"
   inkscape:window-x="1352"
   inkscape:window-y="25"
   inkscape:window-maximized="0"
   inkscape:current-layer="Layer_1" />
<path
   id="snow"
   d="m 11.08,22.96 c 0,0.24 0.08,0.44 0.24,0.59 0.16,0.16 0.36,0.24 0.58,0.24 0.24,0 0.44,-0.08 0.61,-0.24 0.17,-0.16 0.25,-0.36 0.25,-0.59 0,-0.24 -0.08,-0.44 -0.25,-0.61 -0.17,-0.17 -0.37,-0.26 -0.61,-0.26 -0.22,0 -0.41,0.09 -0.58,0.26 -0.17,0.17 -0.24,0.37 -0.24,0.61 z m 0,-3.64 c 0,0.24 0.08,0.43 0.24,0.58 0.16,0.16 0.36,0.24 0.58,0.24 0.24,0 0.45,-0.08 0.61,-0.23 0.16,-0.15 0.25,-0.35 0.25,-0.59 0,-0.23 -0.08,-0.43 -0.25,-0.6 -0.17,-0.17 -0.37,-0.25 -0.61,-0.25 -0.23,0 -0.42,0.08 -0.58,0.25 -0.16,0.17 -0.24,0.37 -0.24,0.6 z m 0,7.31 c 0,0.22 0.08,0.41 0.24,0.57 0.17,0.17 0.36,0.25 0.58,0.25 0.24,0 0.44,-0.08 0.61,-0.24 0.17,-0.16 0.25,-0.35 0.25,-0.59 0,-0.24 -0.08,-0.44 -0.25,-0.61 -0.17,-0.17 -0.37,-0.26 -0.61,-0.26 -0.22,0 -0.41,0.09 -0.58,0.26 -0.16,0.18 -0.24,0.39 -0.24,0.62 z m 3.23,-5.61 c 0,0.24 0.08,0.44 0.25,0.6 0.17,0.16 0.36,0.25 0.6,0.25 0.23,0 0.43,-0.08 0.59,-0.25 0.16,-0.17 0.24,-0.37 0.24,-0.6 0,-0.22 -0.08,-0.42 -0.24,-0.58 -0.16,-0.16 -0.35,-0.24 -0.59,-0.24 -0.23,0 -0.43,0.08 -0.6,0.24 -0.17,0.16 -0.25,0.35 -0.25,0.58 z m 0,3.64 c 0,0.23 0.08,0.42 0.24,0.58 0.16,0.16 0.36,0.24 0.6,0.24 0.24,0 0.43,-0.08 0.59,-0.24 0.16,-0.16 0.23,-0.35 0.23,-0.59 0,-0.24 -0.08,-0.43 -0.23,-0.59 -0.16,-0.16 -0.35,-0.23 -0.59,-0.23 -0.24,0 -0.44,0.08 -0.6,0.23 -0.16,0.16 -0.24,0.36 -0.24,0.6 z"
   inkscape:label="snow"
   style="display:inline" /><path
   d="m 5.07,21.64 -0.66,1.7 c -0.05,0.14 0,0.22 0.14,0.22 H 6.68 L 5.25,27.77 H 5.54 L 9.9,22.11 C 9.94,22.07 9.94,22.02 9.92,21.97 9.9,21.92 9.85,21.9 9.78,21.9 H 7.59 l 2.49,-4.65 c 0.07,-0.14 0.03,-0.22 -0.14,-0.22 H 6.98 c -0.09,0 -0.17,0.05 -0.23,0.15 l -1.07,2.88 z"
   id="lightning"
   inkscape:label="lightning"
   style="display:inline"
   sodipodi:nodetypes="ccsccccssccssccc" />
<path
   d="M 20.84,13.39 C 19.88,12.43 18.71,11.95 17.32,11.95 H 17.01 C 16.72,10.76 16.15,9.78 15.31,9.02 14.770148,8.563592 14.65788,8.4584841 13.89,8 13.08,7.57 12.18,7.35 11.17,7.35 9.75,7.35 8.49,7.79 7.4,8.67 c -1.09,0.88 -1.8,2 -2.1,3.37 -1.11,0.26 -2.02,0.84 -2.74,1.74 -0.71,0.92 -1.07,1.95 -1.07,3.1 0,1.12 0.33,2.12 1,3 0.67,0.88 1.53,1.47 2.58,1.76 L 5.68,20.06 C 4.96,19.88 4.36,19.5 3.9,18.9 3.43,18.31 3.2,17.64 3.2,16.88 3.2,16.04 3.48,15.31 4.04,14.7 4.6,14.09 5.31,13.73 6.15,13.63 L 6.66,13.6 c 0.12,0 0.19,-0.05 0.22,-0.14 l 0.07,-0.59 c 0.11,-1.08 0.56,-1.99 1.37,-2.72 0.81,-0.73 1.76,-1.1 2.86,-1.1 1.09,0 2.04,0.37 2.86,1.1 0.82,0.73 1.29,1.64 1.4,2.72 l 0.08,0.59 c 0,0.11 0.06,0.17 0.18,0.17 h 1.61 c 0.89,0 1.66,0.32 2.31,0.96 0.65,0.64 0.97,1.4 0.97,2.29 0,0.87 -0.3,1.62 -0.9,2.26 -0.6,0.64 -1.32,0.98 -2.18,1.03 -0.13,0 -0.2,0.06 -0.2,0.18 v 1.34 c 0,0.11 0.07,0.17 0.2,0.17 0.88,-0.02 1.69,-0.26 2.42,-0.72 0.73,-0.45 1.31,-1.06 1.74,-1.81 0.43,-0.75 0.64,-1.57 0.64,-2.45 0,-0.73 -0.14,-1.4 -0.43,-2.02 -0.305621,-0.595261 -0.453952,-0.814274 -1.04,-1.47 z"
   id="cloud"
   inkscape:label="cloud"
   style="display:inline"
   sodipodi:nodetypes="cscccssccsscccssccccsssccssssscssccsscc" /><path
   id="sun"
   style="display:inline"
   inkscape:label="sun"
   d="m 21.88,14.86 c 0.76,-0.96 1.14,-2.06 1.14,-3.29 0,-0.95 -0.24,-1.83 -0.71,-2.64 C 21.84,8.12 21.2,7.48 20.39,7.01 19.58,6.54 18.7,6.3 17.75,6.3 17.03,6.3 16.33,6.45 15.65,6.75 14.97,7.05 14.39,7.47 13.89,8 l 1.42,1.02 c 0.67,-0.64 1.48,-0.97 2.45,-0.97 0.98,0 1.82,0.34 2.51,1.03 0.69,0.68 1.04,1.52 1.04,2.5 0,0.66 -0.16,1.26 -0.47,1.81 z M 9.9,4.59 c 0,0.23 0.08,0.43 0.25,0.6 l 0.65,0.66 c 0.16,0.16 0.34,0.24 0.55,0.26 0.21,0.03 0.41,-0.04 0.61,-0.23 0.2,-0.18 0.3,-0.39 0.3,-0.64 0,-0.23 -0.08,-0.43 -0.25,-0.6 L 11.38,3.98 C 11.22,3.82 11.02,3.74 10.78,3.74 10.53,3.74 10.32,3.82 10.15,3.98 9.99,4.16 9.9,4.36 9.9,4.59 Z m 7.01,-0.84 c 0,0.24 0.08,0.44 0.25,0.61 0.17,0.17 0.37,0.25 0.6,0.25 0.24,0 0.44,-0.08 0.6,-0.25 C 18.52,4.19 18.6,3.99 18.6,3.75 V 1.69 C 18.6,1.45 18.52,1.24 18.36,1.08 18.2,0.91 18,0.82 17.76,0.82 17.52,0.82 17.32,0.9 17.16,1.07 17,1.24 16.91,1.44 16.91,1.68 Z m 5.58,2.29 c 0,0.24 0.08,0.44 0.23,0.6 0.14,0.16 0.32,0.24 0.55,0.26 0.23,0.02 0.44,-0.07 0.63,-0.26 L 25.34,5.2 C 25.52,5.04 25.6,4.84 25.6,4.6 25.6,4.36 25.51,4.16 25.34,4 25.18,3.82 24.98,3.74 24.74,3.74 24.51,3.74 24.32,3.83 24.16,4 l -1.44,1.44 c -0.16,0.15 -0.23,0.35 -0.23,0.6 z m 0.77,11.91 c 0,0.23 0.08,0.43 0.25,0.6 l 0.65,0.63 c 0.18,0.17 0.39,0.25 0.62,0.25 l 0.02,0.02 c 0.22,0 0.4,-0.09 0.54,-0.27 0.18,-0.16 0.26,-0.36 0.26,-0.6 0,-0.23 -0.09,-0.43 -0.26,-0.61 l -0.62,-0.62 c -0.18,-0.18 -0.38,-0.27 -0.61,-0.27 -0.24,0 -0.44,0.09 -0.6,0.26 -0.16,0.17 -0.25,0.38 -0.25,0.61 z m 1.47,-6.37 c 0,0.24 0.09,0.44 0.26,0.59 0.16,0.18 0.36,0.26 0.6,0.26 h 2.06 c 0.24,0 0.44,-0.08 0.61,-0.25 0.17,-0.17 0.25,-0.37 0.25,-0.6 0,-0.23 -0.08,-0.44 -0.25,-0.6 -0.17,-0.16 -0.37,-0.24 -0.61,-0.24 h -2.06 c -0.24,0 -0.45,0.08 -0.61,0.24 -0.17,0.16 -0.25,0.36 -0.25,0.6 z" /></svg>
