<?xml version="1.0" encoding="UTF-8" standalone="no"?>
<!-- Generator: Adobe Illustrator 22.0.1, SVG Export Plug-In . SVG Version: 6.00 Build 0)  -->

<svg
   version="1.1"
   id="Layer_1"
   x="0px"
   y="0px"
   viewBox="0 0 30 30"
   style="enable-background:new 0 0 30 30;"
   xml:space="preserve"
   sodipodi:docname="wi-day-rain-mix.svg"
   inkscape:version="1.4.3 (0d15f75, 2025-12-25)"
   xmlns:inkscape="http://www.inkscape.org/namespaces/inkscape"
   xmlns:sodipodi="http://sodipodi.sourceforge.net/DTD/sodipodi-0.dtd"
   xmlns="http://www.w3.org/2000/svg"
   xmlns:svg="http://www.w3.org/2000/svg"><defs
   id="defs1" /><sodipodi:namedview
   id="namedview1"
   pagecolor="#ffffff"
   bordercolor="#000000"
   borderopacity="0.25"
   inkscape:showpageshadow="2"
   inkscape:pageopacity="0.0"
   inkscape:pagecheckerboard="0"
   inkscape:deskcolor="#d1d1d1"
   inkscape:zoom="30.066667"
   inkscape:cx="17.145233"
   inkscape:cy="15.498891"
   inkscape:window-width="2560"
   inkscape:window-height="1387"
   inkscape:window-x="1352"
   inkscape:window-y="25"
   inkscape:window-maximized="0"
   inkscape:current-layer="Layer_1" />
<path
   id="rain"
   style="display:inline"
   inkscape:label="rain"
   d="m 6.83,23.98 c 0,0.17 0.05,0.34 0.16,0.51 0.11,0.17 0.27,0.28 0.47,0.35 0.23,0.07 0.45,0.06 0.64,-0.04 0.2,-0.09 0.33,-0.28 0.4,-0.56 L 8.64,23.63 C 8.69,23.4 8.66,23.19 8.54,23 8.42,22.8 8.25,22.67 8.02,22.6 7.79,22.53 7.58,22.56 7.38,22.68 7.18,22.8 7.06,22.97 7,23.2 l -0.14,0.59 c -0.02,0.06 -0.03,0.12 -0.03,0.19 z m 1.38,-5.17 c -0.01,0.16 0.03,0.31 0.13,0.45 0.1,0.15 0.26,0.25 0.48,0.32 0.21,0.06 0.41,0.04 0.62,-0.07 C 9.65,19.4 9.79,19.23 9.86,19 l 0.27,-0.9 C 10.2,17.86 10.18,17.64 10.06,17.45 9.94,17.26 9.76,17.13 9.52,17.06 9.3,16.99 9.09,17.01 8.89,17.13 8.69,17.24 8.55,17.41 8.48,17.63 L 8.24,18.55 C 8.22,18.71 8.21,18.8 8.21,18.81 Z m 1.15,8.29 c 0,0.17 0.05,0.33 0.16,0.49 0.11,0.16 0.27,0.27 0.49,0.33 0.09,0.02 0.17,0.03 0.24,0.03 0.43,0 0.7,-0.2 0.8,-0.61 l 0.13,-0.59 c 0.06,-0.26 0.03,-0.48 -0.08,-0.68 -0.11,-0.2 -0.29,-0.32 -0.52,-0.37 -0.21,-0.07 -0.42,-0.05 -0.63,0.07 -0.21,0.12 -0.34,0.29 -0.41,0.51 L 9.4,26.88 C 9.37,26.99 9.36,27.07 9.36,27.1 Z m 1.41,-5.17 c -0.01,0.15 0.03,0.31 0.14,0.47 0.1,0.16 0.25,0.26 0.45,0.3 0.23,0.06 0.44,0.04 0.64,-0.06 0.2,-0.1 0.33,-0.29 0.41,-0.56 l 0.26,-0.9 c 0.07,-0.22 0.05,-0.43 -0.07,-0.63 -0.12,-0.2 -0.29,-0.33 -0.53,-0.4 -0.22,-0.07 -0.43,-0.04 -0.64,0.08 -0.21,0.12 -0.34,0.3 -0.41,0.53 l -0.22,0.9 c -0.02,0.08 -0.03,0.17 -0.03,0.27 z m 2.76,2.15 c 0,0.17 0.05,0.33 0.15,0.48 0.1,0.15 0.25,0.26 0.46,0.32 0.03,0 0.08,0.01 0.14,0.02 0.06,0.01 0.11,0.02 0.14,0.02 0.41,0 0.66,-0.22 0.76,-0.66 l 0.14,-0.6 c 0.07,-0.21 0.05,-0.42 -0.07,-0.63 -0.12,-0.21 -0.29,-0.34 -0.51,-0.41 -0.25,-0.06 -0.48,-0.04 -0.68,0.08 -0.2,0.12 -0.34,0.29 -0.41,0.53 l -0.09,0.59 c 0,0.01 0,0.05 -0.01,0.11 -0.01,0.07 -0.02,0.11 -0.02,0.15 z m 1.35,-5.27 c 0,0.17 0.05,0.33 0.16,0.48 0.11,0.15 0.27,0.26 0.49,0.32 0.02,0 0.06,0.01 0.12,0.02 0.06,0.01 0.11,0.02 0.14,0.02 0.11,0 0.23,-0.03 0.37,-0.09 0.21,-0.11 0.34,-0.28 0.4,-0.52 l 0.24,-0.9 c 0.06,-0.23 0.04,-0.44 -0.07,-0.63 -0.11,-0.19 -0.28,-0.33 -0.5,-0.4 -0.23,-0.07 -0.45,-0.05 -0.64,0.06 -0.2,0.11 -0.33,0.27 -0.4,0.51 l -0.28,0.91 c 0,0.02 0,0.05 -0.01,0.11 -0.01,0.03 -0.02,0.07 -0.02,0.11 z M 7.6,21.08 c 0,0.22 0.08,0.41 0.24,0.57 0.16,0.18 0.35,0.26 0.56,0.26 0.24,0 0.44,-0.08 0.6,-0.24 C 9.17,21.51 9.25,21.32 9.25,21.08 9.25,20.85 9.17,20.65 9,20.49 8.83,20.33 8.63,20.25 8.4,20.25 c -0.23,0 -0.42,0.08 -0.58,0.23 -0.16,0.15 -0.22,0.37 -0.22,0.6 z m 2.55,3.12 c 0,0.23 0.08,0.42 0.24,0.58 0.16,0.16 0.36,0.24 0.58,0.24 0.24,0 0.43,-0.08 0.59,-0.23 0.16,-0.16 0.23,-0.35 0.23,-0.59 0,-0.23 -0.08,-0.42 -0.23,-0.58 -0.16,-0.16 -0.35,-0.23 -0.59,-0.23 -0.24,0 -0.43,0.08 -0.59,0.23 -0.16,0.15 -0.23,0.35 -0.23,0.58 z m 4.12,-3.08 c 0,0.23 0.08,0.42 0.24,0.57 0.15,0.16 0.34,0.24 0.58,0.24 0.24,0 0.43,-0.08 0.59,-0.23 0.16,-0.16 0.23,-0.35 0.23,-0.58 0,-0.24 -0.08,-0.43 -0.23,-0.59 -0.16,-0.16 -0.35,-0.23 -0.59,-0.23 -0.24,0 -0.43,0.08 -0.59,0.23 -0.16,0.15 -0.23,0.35 -0.23,0.59 z" />
<path
   d="M 20.73,13.48 C 19.75,12.5 18.58,12.01 17.23,12.01 H 16.92 C 16.64,10.91 16.07,9.94 15.23,9.09 14.678551,8.5937096 14.66671,8.629954 13.85,8.1 12.96,7.66 12.04,7.44 11.11,7.44 9.7,7.44 8.45,7.88 7.37,8.75 c -1.08,0.87 -1.77,2 -2.08,3.38 -1.12,0.26 -2.04,0.83 -2.75,1.73 -0.71,0.9 -1.06,1.93 -1.06,3.09 0,1.32 0.46,2.46 1.37,3.4 0.91,0.94 2.04,1.45 3.38,1.51 0.12,0 0.18,-0.06 0.18,-0.17 V 20.36 C 6.41,20.24 6.35,20.18 6.23,20.18 5.37,20.14 4.65,19.8 4.06,19.18 3.47,18.56 3.18,17.81 3.18,16.94 c 0,-0.84 0.28,-1.58 0.84,-2.19 0.56,-0.62 1.26,-0.96 2.1,-1.03 l 0.53,-0.08 c 0.11,0 0.16,-0.05 0.16,-0.14 l 0.08,-0.55 c 0.12,-1.09 0.59,-2 1.38,-2.72 C 9.06,9.51 10,9.16 11.1,9.16 c 1.1,0 2.05,0.36 2.86,1.08 0.82,0.72 1.28,1.62 1.38,2.69 l 0.07,0.58 c 0.02,0.11 0.1,0.17 0.22,0.17 h 1.6 c 0.89,0 1.65,0.32 2.29,0.96 0.64,0.64 0.96,1.41 0.96,2.31 0,0.87 -0.29,1.61 -0.88,2.24 -0.59,0.63 -1.31,0.95 -2.17,1 -0.13,0 -0.2,0.06 -0.2,0.18 v 1.33 c 0,0.11 0.07,0.17 0.2,0.17 1.33,-0.04 2.45,-0.54 3.37,-1.49 0.91,-0.95 1.37,-2.09 1.37,-3.42 0,-0.68 -0.13,-1.34 -0.38,-2.01 -0.345018,-0.589778 -0.426676,-0.859168 -1.06,-1.47 z"
   id="cloud"
   inkscape:label="cloud"
   style="display:inline"
   sodipodi:nodetypes="cscccsscssscsscsscccccsscccssssscssccscc" /><path
   id="sun"
   style="display:inline"
   inkscape:label="sun"
   d="m 21.79,14.95 c 0.78,-0.96 1.16,-2.08 1.16,-3.35 0,-0.71 -0.14,-1.38 -0.41,-2.03 C 22.27,8.92 21.89,8.37 21.42,7.9 20.95,7.43 20.39,7.06 19.75,6.78 19.11,6.5 18.42,6.36 17.71,6.36 c -1.54,0 -2.83,0.58 -3.86,1.74 l 1.38,0.99 C 15.89,8.43 16.71,8.1 17.7,8.1 c 0.99,0 1.83,0.34 2.52,1.02 0.69,0.68 1.04,1.5 1.04,2.48 0,0.66 -0.18,1.29 -0.53,1.88 M 9.92,4.66 c 0,0.24 0.08,0.44 0.24,0.6 l 0.66,0.64 c 0.14,0.16 0.32,0.24 0.54,0.26 0.22,0.02 0.43,-0.07 0.62,-0.26 0.16,-0.16 0.24,-0.36 0.24,-0.59 0,-0.24 -0.08,-0.44 -0.24,-0.6 L 11.35,4.06 C 11.2,3.9 11,3.82 10.77,3.8 10.54,3.8 10.34,3.88 10.17,4.05 10.01,4.22 9.92,4.42 9.92,4.66 Z m 6.96,-0.83 c 0,0.23 0.08,0.42 0.23,0.58 0.15,0.15 0.35,0.23 0.59,0.23 0.24,0 0.45,-0.08 0.62,-0.23 0.17,-0.15 0.25,-0.35 0.25,-0.58 V 1.76 c 0,-0.23 -0.09,-0.43 -0.26,-0.6 -0.17,-0.17 -0.38,-0.25 -0.61,-0.25 -0.23,0 -0.43,0.08 -0.58,0.25 -0.16,0.17 -0.23,0.37 -0.23,0.6 v 2.07 z m 5.52,2.26 c 0,0.25 0.08,0.45 0.23,0.6 0.36,0.36 0.76,0.36 1.21,0 l 1.43,-1.43 c 0.17,-0.17 0.25,-0.38 0.25,-0.63 0,-0.24 -0.08,-0.44 -0.25,-0.6 -0.17,-0.17 -0.37,-0.25 -0.6,-0.25 -0.23,0 -0.43,0.08 -0.61,0.24 L 22.63,5.5 C 22.48,5.65 22.4,5.84 22.4,6.09 Z m 0.78,11.85 c 0,0.23 0.09,0.43 0.27,0.59 l 0.61,0.63 c 0.2,0.16 0.4,0.24 0.61,0.24 0.2,0 0.4,-0.08 0.6,-0.24 0.17,-0.16 0.25,-0.35 0.25,-0.59 0,-0.23 -0.08,-0.43 -0.25,-0.62 l -0.65,-0.61 c -0.15,-0.17 -0.34,-0.25 -0.57,-0.25 -0.23,0 -0.43,0.08 -0.6,0.25 -0.18,0.17 -0.27,0.37 -0.27,0.6 z m 1.48,-6.34 c 0,0.24 0.09,0.43 0.26,0.59 0.18,0.18 0.39,0.27 0.62,0.27 h 2.03 c 0.23,0 0.43,-0.08 0.59,-0.25 0.16,-0.17 0.24,-0.37 0.24,-0.61 0,-0.24 -0.08,-0.44 -0.24,-0.6 C 28,10.83 27.81,10.75 27.57,10.75 h -2.03 c -0.24,0 -0.44,0.08 -0.62,0.25 -0.18,0.17 -0.26,0.37 -0.26,0.6 z" /></svg>
