<?xml version="1.0" encoding="UTF-8" standalone="no"?>
<!-- Generator: Adobe Illustrator 22.0.1, SVG Export Plug-In . SVG Version: 6.00 Build 0)  -->

<svg
   version="1.1"
   id="Layer_1"
   x="0px"
   y="0px"
   viewBox="0 0 30 30"
   style="enable-background:new 0 0 30 30;"
   xml:space="preserve"
   sodipodi:docname="wi-direction-down-left.svg"
   inkscape:version="1.4.3 (0d15f75, 2025-12-25)"
   xmlns:inkscape="http://www.inkscape.org/namespaces/inkscape"
   xmlns:sodipodi="http://sodipodi.sourceforge.net/DTD/sodipodi-0.dtd"
   xmlns="http://www.w3.org/2000/svg"
   xmlns:svg="http://www.w3.org/2000/svg"><defs
   id="defs1" /><sodipodi:namedview
   id="namedview1"
   pagecolor="#ffffff"
   bordercolor="#000000"
   borderopacity="0.25"
   inkscape:showpageshadow="2"
   inkscape:pageopacity="0.0"
   inkscape:pagecheckerboard="0"
   inkscape:deskcolor="#d1d1d1"
   inkscape:zoom="23.133333"
   inkscape:cx="15.021614"
   inkscape:cy="15"
   inkscape:window-width="1024"
   inkscape:window-height="821"
   inkscape:window-x="0"
   inkscape:window-y="123"
   inkscape:window-maximized="0"
   inkscape:current-layer="Layer_1" />
<path
   d="M11.83,16.77c0,0.19,0.06,0.35,0.19,0.48c0.13,0.13,0.29,0.19,0.47,0.19h2.87c0.19,0,0.35-0.06,0.47-0.19  c0.13-0.13,0.19-0.29,0.19-0.48c0-0.19-0.06-0.34-0.19-0.46c-0.13-0.12-0.29-0.18-0.47-0.18h-1.24L18,12.24  c0.12-0.14,0.18-0.3,0.18-0.5c0-0.18-0.06-0.33-0.18-0.46c-0.12-0.12-0.29-0.18-0.5-0.18c-0.2,0-0.36,0.06-0.48,0.18l-3.86,3.87  v-1.25c0-0.19-0.06-0.35-0.19-0.48c-0.13-0.13-0.29-0.19-0.48-0.19c-0.19,0-0.35,0.07-0.47,0.2c-0.13,0.13-0.19,0.29-0.19,0.48  V16.77z"
   id="line" />
</svg>
