<?xml version="1.0" encoding="UTF-8" standalone="no"?>
<!-- Generator: Adobe Illustrator 22.0.1, SVG Export Plug-In . SVG Version: 6.00 Build 0)  -->

<svg
   version="1.1"
   id="Layer_1"
   x="0px"
   y="0px"
   viewBox="0 0 30 30"
   style="enable-background:new 0 0 30 30;"
   xml:space="preserve"
   sodipodi:docname="wi-degrees.svg"
   inkscape:version="1.4.3 (0d15f75, 2025-12-25)"
   xmlns:inkscape="http://www.inkscape.org/namespaces/inkscape"
   xmlns:sodipodi="http://sodipodi.sourceforge.net/DTD/sodipodi-0.dtd"
   xmlns="http://www.w3.org/2000/svg"
   xmlns:svg="http://www.w3.org/2000/svg"><defs
   id="defs1" /><sodipodi:namedview
   id="namedview1"
   pagecolor="#ffffff"
   bordercolor="#000000"
   borderopacity="0.25"
   inkscape:showpageshadow="2"
   inkscape:pageopacity="0.0"
   inkscape:pagecheckerboard="0"
   inkscape:deskcolor="#d1d1d1"
   inkscape:zoom="23.133333"
   inkscape:cx="14.978386"
   inkscape:cy="15"
   inkscape:window-width="2560"
   inkscape:window-height="1387"
   inkscape:window-x="1352"
   inkscape:window-y="25"
   inkscape:window-maximized="0"
   inkscape:current-layer="Layer_1" />
<path
   d="M13.19,9.21c0-0.5,0.18-0.93,0.53-1.28c0.36-0.36,0.78-0.53,1.28-0.53c0.49,0,0.92,0.18,1.27,0.53  c0.35,0.36,0.53,0.78,0.53,1.28s-0.18,0.93-0.53,1.29c-0.35,0.36-0.78,0.54-1.27,0.54c-0.49,0-0.92-0.18-1.28-0.54  S13.19,9.71,13.19,9.21z M14.07,9.21c0,0.26,0.09,0.48,0.27,0.67c0.19,0.19,0.41,0.28,0.67,0.28c0.26,0,0.48-0.09,0.67-0.28  s0.28-0.41,0.28-0.67c0-0.26-0.09-0.48-0.28-0.66c-0.19-0.18-0.41-0.28-0.67-0.28c-0.26,0-0.48,0.09-0.67,0.27  C14.16,8.72,14.07,8.94,14.07,9.21z"
   id="text" />
</svg>
