<?xml version="1.0" encoding="UTF-8" standalone="no"?>
<!-- Generator: Adobe Illustrator 22.0.1, SVG Export Plug-In . SVG Version: 6.00 Build 0)  -->

<svg
   version="1.1"
   id="Layer_1"
   x="0px"
   y="0px"
   viewBox="0 0 30 30"
   style="enable-background:new 0 0 30 30;"
   xml:space="preserve"
   sodipodi:docname="wi-day-windy.svg"
   inkscape:version="1.4.3 (0d15f75, 2025-12-25)"
   xmlns:inkscape="http://www.inkscape.org/namespaces/inkscape"
   xmlns:sodipodi="http://sodipodi.sourceforge.net/DTD/sodipodi-0.dtd"
   xmlns="http://www.w3.org/2000/svg"
   xmlns:svg="http://www.w3.org/2000/svg"><defs
   id="defs1" /><sodipodi:namedview
   id="namedview1"
   pagecolor="#ffffff"
   bordercolor="#000000"
   borderopacity="0.25"
   inkscape:showpageshadow="2"
   inkscape:pageopacity="0.0"
   inkscape:pagecheckerboard="0"
   inkscape:deskcolor="#d1d1d1"
   inkscape:zoom="23.133333"
   inkscape:cx="15"
   inkscape:cy="15"
   inkscape:window-width="2560"
   inkscape:window-height="1387"
   inkscape:window-x="1352"
   inkscape:window-y="25"
   inkscape:window-maximized="0"
   inkscape:current-layer="Layer_1" />
<path
   id="sun"
   d="m 7.27,11.55 c 0,-0.24 0.09,-0.44 0.26,-0.62 0.18,-0.16 0.38,-0.24 0.6,-0.24 h 2.03 c 0.23,0 0.42,0.08 0.58,0.25 0.16,0.17 0.23,0.37 0.23,0.61 0,0.24 -0.08,0.44 -0.23,0.6 -0.16,0.17 -0.35,0.25 -0.58,0.25 H 8.13 C 7.89,12.4 7.69,12.32 7.52,12.15 7.35,11.98 7.27,11.78 7.27,11.55 Z m 2.85,-6.92 c 0,-0.23 0.08,-0.43 0.23,-0.61 0.19,-0.16 0.41,-0.24 0.64,-0.24 0.22,0 0.42,0.08 0.59,0.24 l 1.43,1.47 c 0.16,0.15 0.24,0.35 0.24,0.59 0,0.24 -0.08,0.44 -0.24,0.6 -0.16,0.16 -0.36,0.24 -0.59,0.24 -0.24,0 -0.44,-0.08 -0.59,-0.24 L 10.36,5.25 C 10.2,5.08 10.12,4.88 10.12,4.63 Z m 2.56,6.8 V 11.36 C 12.7,10.45 12.95,9.61 13.42,8.83 13.9,8.06 14.53,7.45 15.32,7 c 0.79,-0.45 1.65,-0.67 2.57,-0.67 0.7,0 1.37,0.14 2.02,0.42 0.64,0.28 1.2,0.65 1.66,1.12 0.47,0.47 0.84,1.02 1.11,1.66 0.27,0.64 0.41,1.32 0.41,2.02 0,0.94 -0.23,1.8 -0.69,2.6 -0.46,0.8 -1.09,1.43 -1.88,1.89 -0.79,0.47 -1.66,0.7 -2.6,0.71 h -0.21 c -0.07,0 -0.13,-0.02 -0.17,-0.07 -0.05,-0.05 -0.07,-0.11 -0.07,-0.18 v -1.22 c 0,-0.13 0.07,-0.2 0.22,-0.2 h 0.24 c 0.96,-0.01 1.79,-0.35 2.47,-1.05 0.68,-0.69 1.03,-1.52 1.03,-2.49 0,-0.96 -0.35,-1.78 -1.04,-2.47 -0.69,-0.68 -1.52,-1.02 -2.5,-1.02 -0.94,0 -1.76,0.32 -2.44,0.98 -0.68,0.65 -1.04,1.44 -1.08,2.37 0,0.06 -0.03,0.11 -0.08,0.17 -0.05,0.06 -0.14,0.09 -0.26,0.09 H 12.9 c -0.15,0.01 -0.22,-0.07 -0.22,-0.23 z m 4.35,9.88 v -1.99 c 0,-0.24 0.08,-0.44 0.25,-0.6 0.17,-0.16 0.37,-0.24 0.6,-0.24 0.25,0 0.45,0.08 0.61,0.24 0.16,0.16 0.24,0.36 0.24,0.6 v 1.99 c 0,0.24 -0.08,0.45 -0.25,0.62 -0.17,0.17 -0.37,0.25 -0.6,0.25 -0.24,0 -0.44,-0.08 -0.6,-0.25 -0.16,-0.17 -0.25,-0.38 -0.25,-0.62 z m 0,-17.48 V 1.78 c 0,-0.23 0.08,-0.43 0.25,-0.6 0.17,-0.17 0.37,-0.25 0.6,-0.25 0.24,0 0.44,0.08 0.6,0.25 0.16,0.17 0.25,0.37 0.25,0.6 v 2.04 c 0,0.23 -0.08,0.42 -0.25,0.58 -0.17,0.15 -0.37,0.23 -0.6,0.23 -0.24,0 -0.44,-0.08 -0.6,-0.23 C 17.12,4.25 17.03,4.06 17.03,3.83 Z m 5.53,13.18 c 0,-0.23 0.08,-0.42 0.23,-0.56 0.15,-0.16 0.34,-0.23 0.57,-0.23 0.24,0 0.44,0.08 0.6,0.23 l 1.45,1.42 c 0.16,0.17 0.24,0.38 0.24,0.61 0,0.23 -0.08,0.43 -0.24,0.59 -0.4,0.31 -0.8,0.31 -1.2,0 l -1.42,-1.43 c -0.16,-0.16 -0.23,-0.38 -0.23,-0.63 z m 0,-10.93 c 0,-0.25 0.08,-0.45 0.23,-0.59 l 1.42,-1.47 c 0.18,-0.16 0.37,-0.24 0.59,-0.24 0.23,0 0.43,0.08 0.6,0.25 0.17,0.17 0.25,0.37 0.25,0.6 0,0.25 -0.08,0.46 -0.24,0.62 l -1.45,1.43 c -0.18,0.16 -0.38,0.24 -0.6,0.24 -0.23,0 -0.41,-0.08 -0.57,-0.24 -0.16,-0.16 -0.23,-0.36 -0.23,-0.6 z m 2.26,5.47 c 0,-0.24 0.08,-0.44 0.24,-0.62 0.16,-0.16 0.35,-0.24 0.57,-0.24 h 2.02 c 0.23,0 0.43,0.09 0.61,0.26 0.18,0.17 0.26,0.37 0.26,0.6 0,0.23 -0.09,0.43 -0.26,0.6 -0.18,0.17 -0.38,0.25 -0.61,0.25 h -2.02 c -0.23,0 -0.42,-0.08 -0.58,-0.25 -0.16,-0.16 -0.23,-0.36 -0.23,-0.6 z" /><path
   id="wind"
   d="m 1.48,21.1 c 0,0.24 0.09,0.44 0.27,0.6 0.17,0.17 0.37,0.25 0.61,0.25 h 5.88 c 0.26,0 0.48,0.09 0.68,0.28 0.2,0.19 0.3,0.42 0.3,0.68 0,0.26 -0.1,0.5 -0.3,0.69 -0.2,0.19 -0.42,0.29 -0.68,0.29 -0.26,0 -0.48,-0.1 -0.68,-0.3 -0.18,-0.16 -0.38,-0.24 -0.61,-0.24 -0.24,0 -0.44,0.08 -0.6,0.24 -0.16,0.16 -0.24,0.36 -0.24,0.6 0,0.24 0.08,0.44 0.24,0.6 0.53,0.53 1.16,0.8 1.89,0.8 0.74,0 1.37,-0.26 1.88,-0.78 0.51,-0.52 0.78,-1.15 0.78,-1.89 0,-0.74 -0.26,-1.37 -0.78,-1.89 C 9.6,20.51 8.97,20.25 8.24,20.25 H 2.36 c -0.24,0 -0.44,0.08 -0.62,0.25 -0.17,0.17 -0.26,0.37 -0.26,0.6 z m 0,-3.01 c 0,0.23 0.09,0.42 0.27,0.58 0.16,0.16 0.37,0.24 0.61,0.24 h 10.97 c 0.74,0 1.37,-0.26 1.89,-0.78 0.52,-0.52 0.78,-1.15 0.78,-1.89 0,-0.74 -0.26,-1.36 -0.78,-1.88 -0.52,-0.51 -1.15,-0.77 -1.89,-0.77 -0.76,0 -1.38,0.25 -1.88,0.76 -0.16,0.16 -0.23,0.37 -0.23,0.61 0,0.24 0.08,0.44 0.23,0.6 0.15,0.15 0.35,0.23 0.6,0.23 0.24,0 0.44,-0.08 0.62,-0.23 0.19,-0.19 0.41,-0.28 0.68,-0.28 0.27,0 0.49,0.09 0.68,0.28 0.19,0.19 0.29,0.42 0.29,0.68 0,0.27 -0.1,0.5 -0.29,0.69 -0.19,0.19 -0.42,0.29 -0.68,0.29 H 2.36 c -0.24,0 -0.44,0.09 -0.62,0.26 -0.17,0.18 -0.26,0.38 -0.26,0.61 z" />
</svg>
