<?xml version="1.0" encoding="UTF-8" standalone="no"?>
<!-- Generator: Adobe Illustrator 22.0.1, SVG Export Plug-In . SVG Version: 6.00 Build 0)  -->

<svg
   version="1.1"
   id="Layer_1"
   x="0px"
   y="0px"
   viewBox="0 0 30 30"
   style="enable-background:new 0 0 30 30;"
   xml:space="preserve"
   sodipodi:docname="wi-day-cloudy-windy.svg"
   inkscape:version="1.4.3 (0d15f75, 2025-12-25)"
   xmlns:inkscape="http://www.inkscape.org/namespaces/inkscape"
   xmlns:sodipodi="http://sodipodi.sourceforge.net/DTD/sodipodi-0.dtd"
   xmlns="http://www.w3.org/2000/svg"
   xmlns:svg="http://www.w3.org/2000/svg"><defs
   id="defs1" /><sodipodi:namedview
   id="namedview1"
   pagecolor="#ffffff"
   bordercolor="#000000"
   borderopacity="0.25"
   inkscape:showpageshadow="2"
   inkscape:pageopacity="0.0"
   inkscape:pagecheckerboard="0"
   inkscape:deskcolor="#d1d1d1"
   inkscape:zoom="22.627417"
   inkscape:cx="0.79549513"
   inkscape:cy="13.081475"
   inkscape:window-width="2560"
   inkscape:window-height="1387"
   inkscape:window-x="1352"
   inkscape:window-y="25"
   inkscape:window-maximized="0"
   inkscape:current-layer="Layer_1" />
<path
   id="wind"
   d="m 0.45,20.97 c 0,0.24 0.08,0.45 0.24,0.61 0.44,0.18 0.73,0.27 0.88,0.27 h 7.88 c 0.24,0 0.44,-0.09 0.6,-0.26 0.17,-0.17 0.25,-0.38 0.25,-0.61 0,-0.23 -0.08,-0.43 -0.25,-0.59 C 9.88,20.23 9.68,20.15 9.45,20.15 H 1.57 c -0.26,0 -0.52,0.08 -0.76,0.24 -0.24,0.16 -0.36,0.36 -0.36,0.58 z m 1.39,-3 c 0,0.24 0.08,0.43 0.25,0.59 0.15,0.17 0.34,0.26 0.58,0.26 h 9.4 c 0.24,0 0.44,-0.08 0.61,-0.25 0.17,-0.17 0.25,-0.37 0.25,-0.6 0,-0.24 -0.08,-0.44 -0.25,-0.61 -0.17,-0.17 -0.37,-0.25 -0.61,-0.25 h -9.4 c -0.23,0 -0.43,0.08 -0.59,0.25 -0.16,0.17 -0.24,0.37 -0.24,0.61 z m 1.76,6.19 c 0,0.24 0.09,0.43 0.26,0.59 C 4.02,24.92 4.22,25 4.45,25 h 9.42 c 0.23,0 0.43,-0.08 0.59,-0.25 0.16,-0.17 0.24,-0.36 0.24,-0.6 0,-0.25 -0.08,-0.46 -0.24,-0.62 -0.16,-0.16 -0.36,-0.25 -0.6,-0.25 H 4.45 c -0.24,0 -0.44,0.08 -0.6,0.25 C 3.69,23.7 3.6,23.91 3.6,24.16 Z"
   style="display:inline"
   inkscape:label="wind" />
<path
   id="sun"
   style="display:inline"
   d="m 22.97,14.88 c 0.78,-0.96 1.16,-2.06 1.16,-3.28 0,-0.94 -0.24,-1.81 -0.71,-2.62 C 22.95,8.17 22.31,7.53 21.5,7.06 20.69,6.59 19.81,6.35 18.87,6.35 18.14,6.35 17.44,6.5 16.77,6.8 16.1,7.1 15.52,7.51 15.03,8.05 l 1.42,0.98 c 0.66,-0.63 1.48,-0.95 2.45,-0.95 0.97,0 1.8,0.34 2.49,1.03 0.68,0.68 1.03,1.51 1.03,2.49 0,0.67 -0.15,1.27 -0.46,1.81 M 11.09,4.65 c 0,0.25 0.08,0.45 0.24,0.6 l 0.64,0.66 c 0.16,0.16 0.36,0.24 0.6,0.24 0.26,0 0.46,-0.08 0.62,-0.24 0.16,-0.16 0.24,-0.36 0.24,-0.61 0,-0.23 -0.08,-0.43 -0.24,-0.59 L 12.54,4.06 C 12.37,3.89 12.18,3.81 11.97,3.81 c -0.25,0 -0.46,0.08 -0.63,0.25 -0.17,0.17 -0.25,0.36 -0.25,0.59 z m 6.96,-0.84 c 0,0.24 0.08,0.43 0.25,0.59 0.17,0.16 0.36,0.23 0.6,0.23 0.25,0 0.45,-0.08 0.6,-0.23 0.15,-0.15 0.23,-0.35 0.23,-0.6 V 1.76 C 19.73,1.52 19.65,1.31 19.5,1.15 19.34,0.98 19.14,0.9 18.9,0.9 c -0.23,0 -0.43,0.08 -0.6,0.25 -0.17,0.17 -0.25,0.37 -0.25,0.61 z m 5.52,2.28 c 0,0.24 0.08,0.44 0.25,0.6 0.12,0.16 0.33,0.24 0.6,0.24 0.27,0 0.47,-0.08 0.59,-0.24 L 26.47,5.25 C 26.63,5.1 26.71,4.89 26.71,4.63 26.71,4.4 26.63,4.2 26.46,4.03 26.29,3.86 26.09,3.78 25.86,3.78 c -0.23,0 -0.44,0.08 -0.61,0.23 L 23.83,5.5 c -0.17,0.17 -0.26,0.36 -0.26,0.59 z m 0.8,11.86 c 0,0.24 0.08,0.44 0.23,0.6 l 0.66,0.63 c 0.24,0.18 0.45,0.27 0.61,0.27 0.16,0 0.37,-0.09 0.61,-0.27 0.16,-0.16 0.24,-0.36 0.24,-0.6 0,-0.23 -0.08,-0.43 -0.24,-0.61 l -0.64,-0.61 c -0.19,-0.17 -0.4,-0.26 -0.65,-0.26 -0.24,0 -0.43,0.08 -0.59,0.24 -0.15,0.17 -0.23,0.37 -0.23,0.61 z m 1.44,-6.32 c 0,0.24 0.09,0.45 0.27,0.61 0.18,0.17 0.38,0.25 0.6,0.25 h 2.03 c 0.23,0 0.42,-0.08 0.59,-0.25 0.17,-0.17 0.25,-0.37 0.25,-0.61 0,-0.22 -0.08,-0.41 -0.24,-0.57 -0.16,-0.15 -0.36,-0.23 -0.59,-0.23 h -2.03 c -0.24,0 -0.45,0.08 -0.62,0.23 -0.17,0.16 -0.26,0.35 -0.26,0.57 z" /><path
   d="m 21.96,13.41 c -0.94,-0.95 -2.11,-1.43 -3.5,-1.43 h -0.3 C 17.87,10.83 17.3,9.85 16.45,9.03 15.792955,8.4994313 15.585646,8.3766667 15.03,8.05 14.2,7.62 13.3,7.4 12.33,7.4 10.92,7.4 9.66,7.84 8.57,8.71 7.48,9.58 6.78,10.7 6.48,12.07 c -0.85,0.21 -1.6,0.63 -2.25,1.25 -0.65,0.62 -1.1,1.36 -1.35,2.21 0.02,0.02 0.01,0.04 0.01,0.07 0,0.09 0.06,0.13 0.17,0.13 h 1.39 c 0.12,0 0.19,-0.04 0.22,-0.13 0.26,-0.53 0.62,-0.97 1.09,-1.32 0.47,-0.35 1,-0.55 1.58,-0.62 h 0.54 c 0.11,0 0.16,-0.06 0.16,-0.19 l 0.07,-0.56 c 0.07,-0.71 0.3,-1.36 0.69,-1.95 0.39,-0.58 0.9,-1.04 1.53,-1.37 0.63,-0.33 1.3,-0.5 2.02,-0.5 1.09,0 2.04,0.37 2.85,1.1 0.81,0.73 1.27,1.64 1.39,2.72 l 0.07,0.56 c 0,0.12 0.06,0.19 0.18,0.19 h 1.6 c 0.89,0 1.65,0.32 2.3,0.96 0.65,0.64 0.97,1.39 0.97,2.27 0,0.9 -0.32,1.67 -0.97,2.31 -0.64,0.64 -1.41,0.96 -2.31,0.96 h -6.89 c -0.11,0 -0.17,0.06 -0.17,0.19 v 1.33 c 0,0.12 0.06,0.18 0.17,0.18 h 6.89 c 0.9,0 1.73,-0.22 2.49,-0.67 0.76,-0.44 1.37,-1.05 1.81,-1.81 0.44,-0.76 0.67,-1.59 0.67,-2.49 0,-0.73 -0.14,-1.39 -0.43,-2.01 z"
   id="cloud"
   sodipodi:nodetypes="cscccsscscssscscscccsssccsssscsssssscsscc"
   style="display:inline"
   inkscape:label="cloud" /></svg>
