<?xml version="1.0" encoding="UTF-8" standalone="no"?>
<!-- Generator: Adobe Illustrator 22.0.1, SVG Export Plug-In . SVG Version: 6.00 Build 0)  -->

<svg
   version="1.1"
   id="Layer_1"
   x="0px"
   y="0px"
   viewBox="0 0 30 30"
   style="enable-background:new 0 0 30 30;"
   xml:space="preserve"
   sodipodi:docname="wi-day-fog.svg"
   inkscape:version="1.4.3 (0d15f75, 2025-12-25)"
   xmlns:inkscape="http://www.inkscape.org/namespaces/inkscape"
   xmlns:sodipodi="http://sodipodi.sourceforge.net/DTD/sodipodi-0.dtd"
   xmlns="http://www.w3.org/2000/svg"
   xmlns:svg="http://www.w3.org/2000/svg"><defs
   id="defs1" /><sodipodi:namedview
   id="namedview1"
   pagecolor="#ffffff"
   bordercolor="#000000"
   borderopacity="0.25"
   inkscape:showpageshadow="2"
   inkscape:pageopacity="0.0"
   inkscape:pagecheckerboard="0"
   inkscape:deskcolor="#d1d1d1"
   inkscape:zoom="21.260344"
   inkscape:cx="-1.5286677"
   inkscape:cy="16.697754"
   inkscape:window-width="2560"
   inkscape:window-height="1387"
   inkscape:window-x="1352"
   inkscape:window-y="25"
   inkscape:window-maximized="0"
   inkscape:current-layer="Layer_1" />
<path
   id="fog"
   d="m 0.32,21.06 c 0,0.23 0.08,0.43 0.25,0.59 0.17,0.16 0.38,0.24 0.63,0.24 h 18.71 c 0.24,0 0.44,-0.08 0.61,-0.24 0.17,-0.16 0.25,-0.35 0.25,-0.59 0,-0.24 -0.08,-0.44 -0.25,-0.6 -0.17,-0.17 -0.37,-0.25 -0.61,-0.25 H 1.2 c -0.25,0 -0.46,0.08 -0.63,0.25 -0.17,0.17 -0.25,0.36 -0.25,0.6 z m 2.62,-3.14 c 0,0.23 0.08,0.43 0.25,0.58 0.17,0.18 0.37,0.27 0.6,0.27 h 18.72 c 0.23,0 0.43,-0.08 0.59,-0.25 0.16,-0.17 0.24,-0.37 0.24,-0.6 0,-0.23 -0.08,-0.43 -0.23,-0.59 -0.16,-0.16 -0.35,-0.24 -0.59,-0.24 H 3.8 c -0.24,0 -0.44,0.08 -0.6,0.24 -0.17,0.17 -0.26,0.36 -0.26,0.59 z m 1.75,6.21 c 0,0.24 0.09,0.44 0.27,0.6 0.16,0.17 0.35,0.26 0.59,0.26 h 18.74 c 0.23,0 0.43,-0.08 0.6,-0.25 0.17,-0.17 0.25,-0.37 0.25,-0.61 0,-0.23 -0.08,-0.42 -0.25,-0.58 -0.17,-0.15 -0.37,-0.23 -0.6,-0.23 H 5.55 c -0.24,0 -0.44,0.08 -0.61,0.23 -0.17,0.16 -0.25,0.35 -0.25,0.58 z"
   style="display:inline" />
<path
   d="M 22.07,13.37 C 21.12,12.42 19.96,11.95 18.6,11.95 H 18.26 C 17.97,10.77 17.41,9.8 16.58,9.04 16.089815,8.615141 15.858246,8.4371932 15.18,8.03 14.33,7.61 13.44,7.4 12.5,7.4 c -1.4,0 -2.65,0.44 -3.74,1.32 -1.09,0.88 -1.79,2 -2.1,3.37 -1.78,0.47 -2.98,1.58 -3.58,3.35 -0.01,0.01 -0.01,0.04 -0.01,0.08 0,0.09 0.05,0.13 0.16,0.13 h 1.43 c 0.07,0 0.14,-0.05 0.21,-0.16 0.24,-0.52 0.59,-0.94 1.06,-1.27 0.47,-0.33 0.99,-0.52 1.56,-0.56 l 0.54,-0.07 c 0.11,0 0.17,-0.06 0.17,-0.18 L 8.27,12.9 C 8.38,11.82 8.83,10.92 9.64,10.19 10.45,9.47 11.4,9.1 12.5,9.1 c 1.08,0 2.03,0.36 2.84,1.08 0.81,0.72 1.27,1.61 1.38,2.68 l 0.07,0.58 c 0,0.11 0.06,0.17 0.19,0.17 h 1.61 c 0.64,0 1.23,0.17 1.76,0.52 0.53,0.34 0.92,0.8 1.18,1.37 0.07,0.11 0.13,0.16 0.2,0.16 h 1.44 c 0.13,0 0.18,-0.07 0.13,-0.23 l -0.2,-0.55 c -0.337454,-0.579767 -0.273088,-0.570948 -1.03,-1.51 z"
   id="cloud"
   inkscape:label="cloud"
   style="display:inline"
   sodipodi:nodetypes="cscccssccssscscccccssccssccssccc" /><path
   id="sun"
   style="display:inline"
   inkscape:label="sun"
   d="m 23.1,14.88 c 0.76,-0.94 1.13,-2.04 1.13,-3.31 0,-0.71 -0.14,-1.38 -0.41,-2.03 C 23.55,8.89 23.18,8.34 22.71,7.87 22.25,7.4 21.69,7.03 21.04,6.75 20.39,6.47 19.72,6.35 19,6.35 c -1.54,0 -2.82,0.56 -3.82,1.68 l 1.4,1.01 c 0.67,-0.68 1.48,-1.01 2.43,-1.01 0.98,0 1.82,0.35 2.51,1.04 0.69,0.69 1.04,1.53 1.04,2.5 0,0.65 -0.16,1.25 -0.49,1.8 M 11.26,4.66 c 0,0.24 0.08,0.43 0.23,0.59 l 0.65,0.64 c 0.17,0.18 0.36,0.27 0.58,0.27 0.22,0 0.42,-0.08 0.6,-0.25 0.17,-0.17 0.26,-0.37 0.26,-0.61 0,-0.24 -0.08,-0.45 -0.25,-0.63 L 12.69,4.06 C 12.53,3.89 12.33,3.8 12.09,3.8 c -0.24,0 -0.44,0.08 -0.6,0.25 -0.15,0.16 -0.23,0.37 -0.23,0.61 z m 6.92,-0.85 c 0,0.23 0.08,0.43 0.24,0.59 0.16,0.16 0.35,0.24 0.59,0.24 0.25,0 0.46,-0.08 0.63,-0.24 0.17,-0.16 0.25,-0.35 0.25,-0.59 V 1.76 C 19.89,1.53 19.8,1.33 19.63,1.16 19.45,0.99 19.24,0.91 19,0.91 c -0.23,0 -0.43,0.08 -0.59,0.25 -0.16,0.17 -0.24,0.37 -0.24,0.6 v 2.05 z m 5.49,2.27 c 0,0.22 0.08,0.43 0.24,0.6 0.37,0.36 0.78,0.36 1.23,0 l 1.43,-1.43 c 0.16,-0.18 0.24,-0.39 0.24,-0.64 0,-0.23 -0.08,-0.43 -0.24,-0.59 -0.16,-0.16 -0.36,-0.24 -0.59,-0.24 -0.24,0 -0.44,0.08 -0.6,0.24 l -1.46,1.47 c -0.17,0.18 -0.25,0.38 -0.25,0.59 z m 0.81,11.8 c 0,0.24 0.09,0.44 0.26,0.6 l 0.64,0.65 c 0.16,0.16 0.36,0.24 0.58,0.24 0.21,0 0.41,-0.08 0.61,-0.24 0.16,-0.17 0.24,-0.39 0.24,-0.64 0,-0.22 -0.08,-0.41 -0.24,-0.56 l -0.65,-0.66 c -0.18,-0.16 -0.38,-0.24 -0.6,-0.24 -0.24,0 -0.44,0.08 -0.6,0.25 -0.16,0.16 -0.24,0.36 -0.24,0.6 z m 1.48,-6.31 c 0,0.24 0.09,0.44 0.26,0.6 0.15,0.17 0.35,0.25 0.59,0.25 h 2.05 c 0.23,0 0.43,-0.08 0.59,-0.25 0.16,-0.17 0.24,-0.37 0.24,-0.6 0,-0.24 -0.08,-0.44 -0.24,-0.6 -0.16,-0.16 -0.35,-0.24 -0.59,-0.24 h -2.05 c -0.24,0 -0.44,0.08 -0.6,0.25 -0.17,0.16 -0.25,0.36 -0.25,0.59 z" /></svg>
