<?xml version="1.0" encoding="UTF-8" standalone="no"?>
<!-- Generator: Adobe Illustrator 22.0.1, SVG Export Plug-In . SVG Version: 6.00 Build 0)  -->

<svg
   version="1.1"
   id="Layer_1"
   x="0px"
   y="0px"
   viewBox="0 0 30 30"
   style="enable-background:new 0 0 30 30;"
   xml:space="preserve"
   sodipodi:docname="wi-day-cloudy.svg"
   inkscape:version="1.4.3 (0d15f75, 2025-12-25)"
   xmlns:inkscape="http://www.inkscape.org/namespaces/inkscape"
   xmlns:sodipodi="http://sodipodi.sourceforge.net/DTD/sodipodi-0.dtd"
   xmlns="http://www.w3.org/2000/svg"
   xmlns:svg="http://www.w3.org/2000/svg"><defs
   id="defs1" /><sodipodi:namedview
   id="namedview1"
   pagecolor="#ffffff"
   bordercolor="#000000"
   borderopacity="0.25"
   inkscape:showpageshadow="2"
   inkscape:pageopacity="0.0"
   inkscape:pagecheckerboard="0"
   inkscape:deskcolor="#d1d1d1"
   inkscape:zoom="15.033333"
   inkscape:cx="-15.498891"
   inkscape:cy="9.9113082"
   inkscape:window-width="2560"
   inkscape:window-height="1387"
   inkscape:window-x="1352"
   inkscape:window-y="25"
   inkscape:window-maximized="0"
   inkscape:current-layer="Layer_1" />

<path
   d="m 3.27,16.9 c 0,-0.84 0.28,-1.56 0.84,-2.17 0.56,-0.61 1.26,-0.96 2.1,-1.06 l 0.5,-0.03 c 0.12,0 0.19,-0.06 0.19,-0.18 l 0.07,-0.54 c 0.14,-1.08 0.61,-1.99 1.41,-2.71 0.8,-0.73 1.74,-1.09 2.81,-1.09 1.1,0 2.06,0.37 2.87,1.1 0.82,0.73 1.27,1.63 1.37,2.71 l 0.07,0.58 c 0.02,0.11 0.09,0.17 0.21,0.17 h 1.61 c 0.88,0 1.64,0.32 2.28,0.96 0.64,0.64 0.96,1.39 0.96,2.27 0,0.91 -0.32,1.68 -0.95,2.32 -0.63,0.64 -1.4,0.96 -2.28,0.96 H 6.49 C 5.61,20.19 4.86,19.87 4.22,19.22 3.59,18.57 3.27,17.8 3.27,16.9 Z M 20.81,13.44 C 19.84,12.48 18.68,12 17.32,12 H 17 C 16.75,10.91 16.19,9.93 15.31,9.06 14.775129,8.623592 14.846955,8.6082951 13.88,8.1 13.11,7.66 12.21,7.44 11.18,7.44 9.77,7.44 8.53,7.88 7.45,8.75 6.37,9.62 5.67,10.74 5.37,12.1 c -1.12,0.26 -2.03,0.83 -2.74,1.73 -0.71,0.9 -1.07,1.92 -1.07,3.07 0,0.9 0.22,1.73 0.66,2.49 0.44,0.76 1.04,1.36 1.8,1.8 0.76,0.44 1.58,0.66 2.47,0.66 h 10.83 c 0.89,0 1.72,-0.22 2.48,-0.66 0.76,-0.44 1.37,-1.04 1.81,-1.8 0.44,-0.76 0.67,-1.59 0.67,-2.49 0,-0.66 -0.14,-1.33 -0.42,-2 -0.291796,-0.536556 -0.50892,-0.818061 -1.05,-1.46 z"
   id="cloud"
   inkscape:label="cloud"
   sodipodi:nodetypes="sscccscscccssssssscscscccsscssssssssscc"
   style="display:inline" /><path
   id="sun"
   style="display:inline"
   inkscape:label="sun"
   d="M 21.86,14.9 C 22.62,13.98 23,12.87 23,11.6 23,10.89 22.86,10.21 22.59,9.56 22.32,8.91 21.94,8.36 21.47,7.89 21,7.42 20.45,7.04 19.8,6.77 19.15,6.49 18.47,6.36 17.76,6.36 c -1.48,0 -2.77,0.58 -3.88,1.74 l 1.43,0.96 c 0.69,-0.67 1.51,-1 2.45,-1 0.99,0 1.83,0.34 2.52,1.03 0.69,0.69 1.04,1.52 1.04,2.51 0,0.62 -0.17,1.24 -0.51,1.84 M 9.97,4.63 c 0,0.24 0.08,0.45 0.24,0.63 l 0.66,0.64 c 0.25,0.19 0.46,0.27 0.64,0.25 0.21,0 0.39,-0.09 0.55,-0.26 C 12.22,5.72 12.3,5.51 12.3,5.27 12.3,5.03 12.21,4.83 12.04,4.68 L 11.45,4.02 C 11.27,3.86 11.07,3.78 10.84,3.78 10.6,3.78 10.39,3.86 10.22,4.03 10.05,4.19 9.97,4.39 9.97,4.63 Z m 6.97,-0.85 c 0,0.26 0.08,0.46 0.23,0.62 0.15,0.16 0.35,0.23 0.59,0.23 0.26,0 0.46,-0.08 0.62,-0.23 0.16,-0.16 0.23,-0.36 0.23,-0.62 V 1.73 C 18.61,1.49 18.53,1.3 18.37,1.14 18.21,0.98 18.01,0.91 17.76,0.91 c -0.24,0 -0.43,0.08 -0.59,0.23 -0.16,0.15 -0.23,0.35 -0.23,0.59 z m 5.52,2.29 c 0,0.26 0.07,0.46 0.22,0.62 0.21,0.16 0.42,0.24 0.62,0.24 0.18,0 0.38,-0.08 0.59,-0.24 l 1.43,-1.43 c 0.16,-0.18 0.24,-0.39 0.24,-0.64 0,-0.24 -0.08,-0.44 -0.24,-0.6 -0.16,-0.16 -0.36,-0.24 -0.59,-0.24 -0.24,0 -0.43,0.08 -0.58,0.24 l -1.47,1.43 c -0.15,0.19 -0.22,0.39 -0.22,0.62 z m 0.79,11.84 c 0,0.24 0.08,0.45 0.25,0.63 l 0.65,0.63 c 0.15,0.16 0.34,0.24 0.58,0.24 0.24,0 0.44,-0.08 0.6,-0.25 0.16,-0.17 0.24,-0.37 0.24,-0.62 0,-0.22 -0.08,-0.42 -0.24,-0.58 l -0.65,-0.65 c -0.16,-0.16 -0.35,-0.24 -0.57,-0.24 -0.24,0 -0.44,0.08 -0.6,0.24 -0.17,0.16 -0.26,0.36 -0.26,0.6 z m 1.47,-6.31 c 0,0.23 0.09,0.42 0.26,0.58 0.16,0.16 0.37,0.24 0.61,0.24 h 2.04 c 0.23,0 0.42,-0.08 0.58,-0.23 0.16,-0.15 0.23,-0.35 0.23,-0.59 0,-0.24 -0.08,-0.44 -0.23,-0.6 -0.15,-0.16 -0.35,-0.25 -0.58,-0.25 h -2.04 c -0.24,0 -0.44,0.08 -0.61,0.25 -0.18,0.17 -0.26,0.37 -0.26,0.6 z" /></svg>
