<?xml version="1.0" encoding="UTF-8" standalone="no"?>
<!-- Generator: Adobe Illustrator 22.0.1, SVG Export Plug-In . SVG Version: 6.00 Build 0)  -->

<svg
   version="1.1"
   id="Layer_1"
   x="0px"
   y="0px"
   viewBox="0 0 30 30"
   style="enable-background:new 0 0 30 30;"
   xml:space="preserve"
   sodipodi:docname="wi-direction-right.svg"
   inkscape:version="1.4.3 (0d15f75, 2025-12-25)"
   xmlns:inkscape="http://www.inkscape.org/namespaces/inkscape"
   xmlns:sodipodi="http://sodipodi.sourceforge.net/DTD/sodipodi-0.dtd"
   xmlns="http://www.w3.org/2000/svg"
   xmlns:svg="http://www.w3.org/2000/svg"><defs
   id="defs1" /><sodipodi:namedview
   id="namedview1"
   pagecolor="#ffffff"
   bordercolor="#000000"
   borderopacity="0.25"
   inkscape:showpageshadow="2"
   inkscape:pageopacity="0.0"
   inkscape:pagecheckerboard="0"
   inkscape:deskcolor="#d1d1d1"
   inkscape:zoom="23.133333"
   inkscape:cx="15.021614"
   inkscape:cy="15"
   inkscape:window-width="1024"
   inkscape:window-height="821"
   inkscape:window-x="0"
   inkscape:window-y="123"
   inkscape:window-maximized="0"
   inkscape:current-layer="Layer_1" />
<path
   d="M9.94,14.36c0,0.22,0.08,0.42,0.23,0.57s0.34,0.22,0.56,0.2h6.58l-1.03,1.08c-0.16,0.16-0.24,0.35-0.24,0.55  c0,0.22,0.08,0.42,0.24,0.57c0.16,0.16,0.35,0.23,0.58,0.23c0.21-0.01,0.39-0.1,0.53-0.27l2.45-2.41c0.16-0.16,0.23-0.35,0.23-0.58  c-0.01-0.24-0.09-0.43-0.24-0.58l-2.47-2.39c-0.15-0.16-0.33-0.24-0.54-0.23c-0.23,0-0.42,0.07-0.57,0.22  c-0.16,0.15-0.23,0.34-0.23,0.56c0,0.23,0.08,0.42,0.23,0.57l1.06,1.08h-6.59c-0.23,0.01-0.41,0.09-0.56,0.25  C10.01,13.95,9.94,14.14,9.94,14.36z"
   id="line" />
</svg>
