<?xml version="1.0" encoding="UTF-8" standalone="no"?>
<!-- Generator: Adobe Illustrator 22.0.1, SVG Export Plug-In . SVG Version: 6.00 Build 0)  -->

<svg
   version="1.1"
   id="Layer_1"
   x="0px"
   y="0px"
   viewBox="0 0 30 30"
   style="enable-background:new 0 0 30 30;"
   xml:space="preserve"
   sodipodi:docname="wi-day-cloudy-high.svg"
   inkscape:version="1.4.3 (0d15f75, 2025-12-25)"
   xmlns:inkscape="http://www.inkscape.org/namespaces/inkscape"
   xmlns:sodipodi="http://sodipodi.sourceforge.net/DTD/sodipodi-0.dtd"
   xmlns="http://www.w3.org/2000/svg"
   xmlns:svg="http://www.w3.org/2000/svg"><defs
   id="defs1" /><sodipodi:namedview
   id="namedview1"
   pagecolor="#ffffff"
   bordercolor="#000000"
   borderopacity="0.25"
   inkscape:showpageshadow="2"
   inkscape:pageopacity="0.0"
   inkscape:pagecheckerboard="0"
   inkscape:deskcolor="#d1d1d1"
   inkscape:zoom="60.133333"
   inkscape:cx="16.114191"
   inkscape:cy="14.268293"
   inkscape:window-width="2560"
   inkscape:window-height="1387"
   inkscape:window-x="1352"
   inkscape:window-y="25"
   inkscape:window-maximized="0"
   inkscape:current-layer="Layer_1" />

<path
   id="sun"
   style="display:inline"
   d="m 14.9,17.04 c 0.21,0.54 0.56,0.97 1.04,1.3 0.48,0.33 1.01,0.5 1.6,0.5 0.77,0 1.43,-0.28 1.97,-0.83 0.54,-0.56 0.81,-1.23 0.81,-2.02 0,-0.39 -0.06,-0.74 -0.19,-1.05 l 0.47,-1.78 c 0.75,0.8 1.12,1.75 1.12,2.85 0,0.76 -0.19,1.46 -0.57,2.1 -0.38,0.65 -0.89,1.16 -1.53,1.53 -0.64,0.38 -1.34,0.56 -2.09,0.56 -0.96,0 -1.82,-0.3 -2.56,-0.89 -0.74,-0.59 -1.24,-1.35 -1.48,-2.26 m -1.98,5.01 c -0.25,-0.33 -0.25,-0.65 0,-0.98 l 1.13,-1.15 c 0.14,-0.12 0.31,-0.18 0.52,-0.18 0.19,0 0.34,0.06 0.46,0.18 0.12,0.12 0.18,0.28 0.18,0.47 0,0.2 -0.06,0.36 -0.18,0.48 l -1.14,1.18 c -0.12,0.12 -0.29,0.19 -0.49,0.19 -0.2,0 -0.36,-0.07 -0.48,-0.19 z m 5.34,0.17 c 0,-0.19 0.07,-0.34 0.2,-0.47 0.13,-0.12 0.3,-0.19 0.48,-0.19 0.18,0 0.35,0.07 0.5,0.21 0.12,0.12 0.19,0.27 0.19,0.45 v 1.64 c 0,0.19 -0.07,0.35 -0.2,0.49 -0.13,0.14 -0.3,0.21 -0.48,0.21 -0.18,0 -0.35,-0.07 -0.48,-0.21 -0.13,-0.14 -0.2,-0.3 -0.2,-0.49 v -1.64 z m 4.41,-1.83 c 0,-0.18 0.06,-0.33 0.19,-0.46 0.13,-0.12 0.29,-0.19 0.47,-0.19 0.19,0 0.35,0.06 0.47,0.18 l 1.18,1.15 c 0.13,0.14 0.2,0.3 0.2,0.48 0,0.19 -0.07,0.35 -0.2,0.48 -0.13,0.13 -0.3,0.2 -0.49,0.2 -0.21,0 -0.37,-0.06 -0.5,-0.19 l -1.13,-1.18 c -0.13,-0.14 -0.19,-0.3 -0.19,-0.47 z m 0,-8.81 c 0,-0.19 0.06,-0.35 0.19,-0.47 l 1.13,-1.18 c 0.14,-0.12 0.3,-0.19 0.5,-0.19 0.19,0 0.35,0.06 0.5,0.19 0.13,0.15 0.2,0.32 0.2,0.51 0,0.18 -0.07,0.33 -0.2,0.48 l -1.18,1.15 c -0.12,0.12 -0.28,0.19 -0.47,0.19 -0.19,0 -0.35,-0.06 -0.47,-0.19 -0.14,-0.14 -0.2,-0.3 -0.2,-0.49 z m 1.82,4.4 c 0,-0.19 0.06,-0.35 0.19,-0.48 0.12,-0.13 0.28,-0.2 0.47,-0.2 h 1.62 c 0.19,0 0.36,0.07 0.5,0.2 0.14,0.13 0.21,0.29 0.21,0.48 0,0.19 -0.07,0.36 -0.21,0.49 -0.14,0.13 -0.3,0.2 -0.5,0.2 h -1.62 c -0.19,0 -0.34,-0.07 -0.47,-0.2 -0.13,-0.13 -0.19,-0.29 -0.19,-0.49 z" /><path
   d="M 13.49,17.05 H 7.79 C 6.72,17 5.81,16.59 5.07,15.82 4.33,15.05 3.95,14.12 3.95,13.05 3.95,12.12 4.24,11.3 4.82,10.57 5.4,9.84 6.13,9.37 7.01,9.17 7.27,8.07 7.83,7.17 8.71,6.46 9.59,5.75 10.59,5.4 11.72,5.4 c 1.1,0 2.08,0.35 2.95,1.04 0.87,0.69 1.43,1.57 1.68,2.65 h 0.26 c 1.1,0 2.04,0.39 2.82,1.16 0.78,0.77 1.17,1.71 1.17,2.81 -0.09015,0.643296 0.0035,0.513571 -0.47,1.88 -0.33,0.61 -0.8,1.11 -1.39,1.49 -0.6,0.38 -1.25,0.58 -1.96,0.61 H 14.9 M 5.31,13.05 c 0,0.7 0.24,1.31 0.73,1.82 0.49,0.51 1.07,0.79 1.75,0.82 h 8.99 c 0.68,-0.03 1.27,-0.3 1.75,-0.82 0.49,-0.52 0.73,-1.12 0.73,-1.82 0,-0.71 -0.26,-1.32 -0.79,-1.83 -0.53,-0.52 -1.14,-0.77 -1.86,-0.77 h -1.29 c -0.09,0 -0.14,-0.05 -0.14,-0.14 L 15.11,9.84 C 15.02,8.97 14.65,8.24 13.99,7.65 13.33,7.06 12.57,6.76 11.71,6.76 10.82,6.76 10.05,7.05 9.4,7.64 8.75,8.23 8.4,8.96 8.31,9.83 L 8.25,10.3 c 0,0.09 -0.05,0.14 -0.16,0.14 H 7.69 C 7.02,10.52 6.45,10.8 6,11.3 5.54,11.79 5.31,12.38 5.31,13.05 Z"
   id="cloud"
   sodipodi:nodetypes="ccssscssscsscccccsscccscssccsssccsccs"
   style="display:inline" /></svg>
