<?xml version="1.0" encoding="UTF-8" standalone="no"?>
<!-- Generator: Adobe Illustrator 22.0.1, SVG Export Plug-In . SVG Version: 6.00 Build 0)  -->

<svg
   version="1.1"
   id="Layer_1"
   x="0px"
   y="0px"
   viewBox="0 0 30 30"
   style="enable-background:new 0 0 30 30;"
   xml:space="preserve"
   sodipodi:docname="wi-direction-up.svg"
   inkscape:version="1.4.3 (0d15f75, 2025-12-25)"
   xmlns:inkscape="http://www.inkscape.org/namespaces/inkscape"
   xmlns:sodipodi="http://sodipodi.sourceforge.net/DTD/sodipodi-0.dtd"
   xmlns="http://www.w3.org/2000/svg"
   xmlns:svg="http://www.w3.org/2000/svg"><defs
   id="defs1" /><sodipodi:namedview
   id="namedview1"
   pagecolor="#ffffff"
   bordercolor="#000000"
   borderopacity="0.25"
   inkscape:showpageshadow="2"
   inkscape:pageopacity="0.0"
   inkscape:pagecheckerboard="0"
   inkscape:deskcolor="#d1d1d1"
   inkscape:zoom="23.133333"
   inkscape:cx="15.021614"
   inkscape:cy="15"
   inkscape:window-width="1024"
   inkscape:window-height="821"
   inkscape:window-x="0"
   inkscape:window-y="123"
   inkscape:window-maximized="0"
   inkscape:current-layer="Layer_1" />
<path
   d="M9.95,10.87c-0.01,0.35,0.1,0.65,0.34,0.9s0.53,0.37,0.89,0.36c0.34,0.02,0.63-0.1,0.88-0.37l1.66-1.64v10.3  c-0.01,0.35,0.11,0.64,0.36,0.88s0.55,0.35,0.92,0.34c0.34,0.02,0.64-0.09,0.89-0.32s0.39-0.53,0.4-0.88v-10.3l1.64,1.64  c0.23,0.24,0.53,0.37,0.88,0.37c0.36,0,0.66-0.12,0.9-0.36s0.36-0.53,0.36-0.89c-0.02-0.36-0.15-0.64-0.4-0.85l-3.74-3.84  c-0.24-0.23-0.55-0.37-0.92-0.4c-0.37,0.02-0.68,0.16-0.92,0.41l-3.75,3.81C10.08,10.25,9.95,10.53,9.95,10.87z"
   id="line" />
</svg>
