<?xml version="1.0" encoding="UTF-8" standalone="no"?>
<!-- Generator: Adobe Illustrator 22.0.1, SVG Export Plug-In . SVG Version: 6.00 Build 0)  -->

<svg
   version="1.1"
   id="Layer_1"
   x="0px"
   y="0px"
   viewBox="0 0 30 30"
   style="enable-background:new 0 0 30 30;"
   xml:space="preserve"
   sodipodi:docname="wi-day-rain-wind.svg"
   inkscape:version="1.4.3 (0d15f75, 2025-12-25)"
   xmlns:inkscape="http://www.inkscape.org/namespaces/inkscape"
   xmlns:sodipodi="http://sodipodi.sourceforge.net/DTD/sodipodi-0.dtd"
   xmlns="http://www.w3.org/2000/svg"
   xmlns:svg="http://www.w3.org/2000/svg"><defs
   id="defs1" /><sodipodi:namedview
   id="namedview1"
   pagecolor="#ffffff"
   bordercolor="#000000"
   borderopacity="0.25"
   inkscape:showpageshadow="2"
   inkscape:pageopacity="0.0"
   inkscape:pagecheckerboard="0"
   inkscape:deskcolor="#d1d1d1"
   inkscape:zoom="30.066667"
   inkscape:cx="-1.9456763"
   inkscape:cy="13.83592"
   inkscape:window-width="2560"
   inkscape:window-height="1387"
   inkscape:window-x="1352"
   inkscape:window-y="25"
   inkscape:window-maximized="0"
   inkscape:current-layer="Layer_1" />
<path
   id="rain"
   style="display:inline"
   inkscape:label="rain"
   d="m 5.38,25.15 c 0.07,0.22 0.23,0.38 0.46,0.48 0.22,0.1 0.44,0.1 0.67,0.01 0.23,-0.09 0.38,-0.25 0.46,-0.47 0.09,-0.21 0.1,-0.41 0,-0.62 C 6.88,24.34 6.73,24.19 6.52,24.09 6.3,23.99 6.08,23.98 5.86,24.07 5.64,24.16 5.49,24.31 5.41,24.53 5.32,24.78 5.31,24.99 5.38,25.15 Z m 2.32,2.12 c 0,0.06 0.02,0.16 0.06,0.3 0.09,0.22 0.24,0.37 0.46,0.46 0.11,0.04 0.23,0.07 0.36,0.07 0.09,0 0.2,-0.02 0.31,-0.05 C 9.1,27.97 9.25,27.82 9.33,27.61 9.43,27.39 9.44,27.17 9.35,26.94 9.27,26.71 9.12,26.56 8.9,26.48 8.68,26.38 8.46,26.38 8.23,26.47 8,26.56 7.85,26.71 7.78,26.92 7.73,27.03 7.7,27.15 7.7,27.27 Z m 5.2,-1.23 c 0,0.12 0.02,0.22 0.07,0.31 0.09,0.22 0.24,0.37 0.45,0.46 0.11,0.05 0.22,0.08 0.35,0.08 0.06,0 0.16,-0.02 0.3,-0.06 0.22,-0.09 0.38,-0.24 0.46,-0.46 0.1,-0.22 0.11,-0.44 0.02,-0.66 -0.08,-0.22 -0.23,-0.37 -0.45,-0.45 -0.22,-0.1 -0.44,-0.11 -0.67,-0.02 -0.23,0.09 -0.38,0.24 -0.46,0.45 -0.05,0.11 -0.07,0.23 -0.07,0.35 z M 7.19,22.41 v 0.11 c 0.02,0.22 0.12,0.4 0.3,0.55 0.18,0.15 0.38,0.22 0.63,0.2 0.24,-0.02 0.43,-0.12 0.57,-0.29 l 2.18,-2.82 c 0.14,-0.18 0.21,-0.39 0.19,-0.63 C 11.04,19.29 10.94,19.1 10.77,18.96 10.59,18.81 10.38,18.75 10.14,18.77 9.9,18.79 9.7,18.9 9.54,19.08 l -2.15,2.8 c -0.14,0.16 -0.2,0.34 -0.2,0.53 z M 9.37,24.9 V 25 c 0.02,0.23 0.13,0.42 0.33,0.58 0.15,0.16 0.35,0.23 0.6,0.2 0.25,-0.03 0.45,-0.14 0.6,-0.34 l 4.14,-5.23 c 0.14,-0.2 0.19,-0.41 0.17,-0.64 -0.02,-0.23 -0.13,-0.42 -0.31,-0.59 -0.18,-0.14 -0.39,-0.2 -0.62,-0.17 -0.23,0.03 -0.42,0.13 -0.56,0.31 L 9.56,24.38 C 9.43,24.53 9.37,24.71 9.37,24.9 Z" />
<path
   d="M 20.84,13.44 C 19.87,12.47 18.71,11.99 17.36,11.99 H 17.02 C 16.75,10.83 16.18,9.85 15.3,9.03 14.810074,8.5885735 14.709276,8.4787671 13.93,8.03 13.14,7.59 12.23,7.37 11.21,7.37 9.8,7.37 8.55,7.81 7.46,8.69 c -1.09,0.88 -1.78,2 -2.07,3.37 -1.13,0.26 -2.06,0.83 -2.79,1.73 -0.73,0.9 -1.12,1.97 -1.12,3.12 0,1.12 0.33,2.13 1,3.01 0.67,0.88 1.53,1.47 2.58,1.77 0.09,0.01 0.17,-0.01 0.24,-0.08 L 6.47,20.2 C 5.58,20.2 4.81,19.88 4.17,19.23 3.53,18.58 3.21,17.81 3.21,16.9 c 0,-0.83 0.28,-1.55 0.85,-2.17 0.57,-0.61 1.27,-0.97 2.11,-1.07 l 0.49,-0.03 c 0.13,0 0.2,-0.06 0.2,-0.19 L 6.93,12.9 c 0.11,-1.08 0.57,-1.99 1.38,-2.72 0.81,-0.73 1.77,-1.1 2.86,-1.1 1.1,0 2.06,0.37 2.88,1.1 0.82,0.73 1.28,1.64 1.39,2.72 l 0.07,0.59 c 0.04,0.11 0.12,0.17 0.22,0.17 h 1.64 c 0.88,0 1.64,0.32 2.28,0.95 0.64,0.63 0.96,1.4 0.96,2.28 0,0.84 -0.28,1.58 -0.85,2.21 -0.57,0.63 -1.25,0.98 -2.07,1.05 -0.49,0.06 -0.79,0.15 -0.9,0.28 l -2.19,2.82 c -0.14,0.19 -0.19,0.4 -0.16,0.63 0.03,0.23 0.13,0.42 0.31,0.56 0.15,0.17 0.35,0.24 0.6,0.21 0.25,-0.03 0.45,-0.15 0.6,-0.36 l 1.92,-2.46 c 0.82,-0.08 1.57,-0.35 2.25,-0.82 0.68,-0.46 1.21,-1.06 1.61,-1.79 0.39,-0.73 0.59,-1.51 0.59,-2.34 0,-0.72 -0.14,-1.39 -0.42,-2.01 -0.361648,-0.642964 -0.31651,-0.646782 -1.06,-1.43 z"
   id="cloud"
   inkscape:label="cloud"
   style="display:inline"
   sodipodi:nodetypes="cscccsscssscccsscccccsssccssssscccscsccccscc" /><path
   id="sun"
   style="display:inline"
   inkscape:label="sun"
   d="m 21.9,14.87 c 0.79,-0.96 1.18,-2.07 1.18,-3.33 0,-0.71 -0.14,-1.38 -0.42,-2.03 C 22.38,8.86 22,8.3 21.53,7.83 21.06,7.36 20.5,6.99 19.85,6.71 19.2,6.43 18.52,6.29 17.81,6.29 c -1.5,0 -2.79,0.58 -3.88,1.74 l 1.37,1 c 0.71,-0.64 1.53,-0.97 2.48,-0.97 0.99,0 1.83,0.34 2.53,1.03 0.7,0.69 1.05,1.51 1.05,2.49 0,0.66 -0.17,1.28 -0.52,1.86 z M 9.95,4.61 c 0,0.24 0.09,0.44 0.27,0.59 l 0.61,0.66 c 0.16,0.16 0.34,0.24 0.54,0.26 0.21,0.03 0.41,-0.04 0.61,-0.22 0.2,-0.18 0.3,-0.39 0.3,-0.64 0,-0.22 -0.08,-0.43 -0.24,-0.6 L 11.4,4.01 C 11.25,3.85 11.06,3.77 10.82,3.77 10.58,3.77 10.37,3.85 10.2,4.01 10.04,4.18 9.95,4.38 9.95,4.61 Z m 6.98,-0.84 c 0,0.23 0.08,0.43 0.25,0.59 0.17,0.16 0.37,0.24 0.6,0.24 0.24,0 0.45,-0.08 0.62,-0.24 C 18.57,4.2 18.65,4 18.65,3.77 V 1.7 c 0,-0.23 -0.09,-0.43 -0.26,-0.6 -0.17,-0.17 -0.38,-0.25 -0.61,-0.25 -0.23,0 -0.43,0.08 -0.6,0.25 -0.17,0.17 -0.25,0.37 -0.25,0.6 z m 5.57,2.28 c 0,0.24 0.07,0.44 0.22,0.6 0.18,0.17 0.38,0.25 0.61,0.26 0.23,0 0.42,-0.08 0.57,-0.26 L 25.4,5.2 c 0.16,-0.16 0.24,-0.37 0.24,-0.61 0,-0.24 -0.09,-0.44 -0.26,-0.61 -0.17,-0.17 -0.37,-0.26 -0.6,-0.26 -0.22,0 -0.42,0.08 -0.6,0.25 L 22.73,5.44 C 22.58,5.61 22.5,5.81 22.5,6.05 Z m 0.78,11.9 c 0,0.24 0.08,0.44 0.24,0.6 l 0.66,0.63 c 0.16,0.16 0.34,0.25 0.54,0.27 h 0.06 c 0.18,0 0.38,-0.09 0.62,-0.27 0.16,-0.16 0.24,-0.36 0.24,-0.58 0,-0.24 -0.08,-0.45 -0.24,-0.63 l -0.66,-0.62 c -0.16,-0.17 -0.36,-0.25 -0.59,-0.25 -0.24,0 -0.45,0.08 -0.62,0.25 -0.16,0.16 -0.25,0.37 -0.25,0.6 z m 1.5,-6.37 c 0,0.24 0.08,0.44 0.24,0.6 0.16,0.18 0.36,0.27 0.6,0.27 h 2.04 c 0.24,0 0.44,-0.09 0.61,-0.26 0.17,-0.17 0.25,-0.38 0.25,-0.61 0,-0.23 -0.08,-0.43 -0.25,-0.59 -0.17,-0.16 -0.37,-0.24 -0.61,-0.24 h -2.04 c -0.24,0 -0.44,0.08 -0.6,0.24 -0.16,0.16 -0.24,0.36 -0.24,0.59 z" /></svg>
