<?xml version="1.0" encoding="UTF-8" standalone="no"?>
<!-- Generator: Adobe Illustrator 22.0.1, SVG Export Plug-In . SVG Version: 6.00 Build 0)  -->

<svg
   version="1.1"
   id="Layer_1"
   x="0px"
   y="0px"
   viewBox="0 0 30 30"
   style="enable-background:new 0 0 30 30;"
   xml:space="preserve"
   sodipodi:docname="wi-direction-up-right.svg"
   inkscape:version="1.4.3 (0d15f75, 2025-12-25)"
   xmlns:inkscape="http://www.inkscape.org/namespaces/inkscape"
   xmlns:sodipodi="http://sodipodi.sourceforge.net/DTD/sodipodi-0.dtd"
   xmlns="http://www.w3.org/2000/svg"
   xmlns:svg="http://www.w3.org/2000/svg"><defs
   id="defs1" /><sodipodi:namedview
   id="namedview1"
   pagecolor="#ffffff"
   bordercolor="#000000"
   borderopacity="0.25"
   inkscape:showpageshadow="2"
   inkscape:pageopacity="0.0"
   inkscape:pagecheckerboard="0"
   inkscape:deskcolor="#d1d1d1"
   inkscape:zoom="23.133333"
   inkscape:cx="15.021614"
   inkscape:cy="15"
   inkscape:window-width="1024"
   inkscape:window-height="821"
   inkscape:window-x="0"
   inkscape:window-y="123"
   inkscape:window-maximized="0"
   inkscape:current-layer="Layer_1" />
<path
   d="M10.05,17.55c0,0.3,0.09,0.55,0.26,0.73c0.2,0.19,0.46,0.28,0.79,0.28c0.3,0,0.55-0.09,0.73-0.28l6.04-6.05v1.95  c0,0.3,0.1,0.55,0.3,0.75c0.2,0.2,0.45,0.3,0.75,0.3c0.29,0,0.54-0.1,0.74-0.31s0.3-0.45,0.3-0.75V9.7c0-0.3-0.1-0.55-0.3-0.75  s-0.45-0.3-0.74-0.3h-4.5c-0.29,0-0.54,0.1-0.73,0.3S13.4,9.39,13.4,9.7c0,0.29,0.1,0.54,0.29,0.73s0.44,0.29,0.73,0.29h1.95  l-6.06,6.06C10.14,16.99,10.05,17.25,10.05,17.55z"
   id="line" />
</svg>
