<?xml version="1.0" encoding="UTF-8" standalone="no"?>
<!-- Generator: Adobe Illustrator 22.0.1, SVG Export Plug-In . SVG Version: 6.00 Build 0)  -->

<svg
   version="1.1"
   id="Layer_1"
   x="0px"
   y="0px"
   viewBox="0 0 30 30"
   style="enable-background:new 0 0 30 30;"
   xml:space="preserve"
   sodipodi:docname="wi-fog.svg"
   inkscape:version="1.4.3 (0d15f75, 2025-12-25)"
   xmlns:inkscape="http://www.inkscape.org/namespaces/inkscape"
   xmlns:sodipodi="http://sodipodi.sourceforge.net/DTD/sodipodi-0.dtd"
   xmlns="http://www.w3.org/2000/svg"
   xmlns:svg="http://www.w3.org/2000/svg"><defs
   id="defs1" /><sodipodi:namedview
   id="namedview1"
   pagecolor="#ffffff"
   bordercolor="#000000"
   borderopacity="0.25"
   inkscape:showpageshadow="2"
   inkscape:pageopacity="0.0"
   inkscape:pagecheckerboard="0"
   inkscape:deskcolor="#d1d1d1"
   inkscape:zoom="23.133333"
   inkscape:cx="14.978386"
   inkscape:cy="15"
   inkscape:window-width="2560"
   inkscape:window-height="1387"
   inkscape:window-x="1352"
   inkscape:window-y="25"
   inkscape:window-maximized="0"
   inkscape:current-layer="Layer_1" />
<path
   d="m 5.37,15.52 c 0,0.09 0.05,0.13 0.15,0.13 h 1.43 c 0.06,0 0.13,-0.05 0.2,-0.16 0.24,-0.52 0.59,-0.94 1.06,-1.27 0.47,-0.33 0.99,-0.52 1.55,-0.56 l 0.55,-0.07 c 0.11,0 0.17,-0.06 0.17,-0.18 l 0.07,-0.5 c 0.11,-1.08 0.56,-1.98 1.37,-2.7 0.81,-0.72 1.76,-1.08 2.85,-1.08 1.08,0 2.02,0.36 2.83,1.07 0.8,0.71 1.26,1.61 1.37,2.68 l 0.08,0.57 c 0,0.11 0.07,0.17 0.2,0.17 h 1.59 c 0.64,0 1.23,0.17 1.76,0.52 0.53,0.35 0.92,0.8 1.18,1.37 0.07,0.11 0.14,0.16 0.21,0.16 h 1.43 c 0.12,0 0.17,-0.07 0.14,-0.23 -0.29,-1.02 -0.88,-1.86 -1.74,-2.51 -0.87,-0.65 -1.86,-0.97 -2.97,-0.97 H 20.53 C 20.2,10.63 19.5,9.54 18.43,8.69 17.36,7.84 16.15,7.42 14.78,7.42 c -1.4,0 -2.64,0.44 -3.73,1.32 -1.09,0.88 -1.78,2 -2.09,3.36 -0.85,0.2 -1.6,0.6 -2.24,1.21 -0.64,0.61 -1.09,1.33 -1.34,2.18 v -0.04 c -0.01,0 -0.01,0.03 -0.01,0.07 z"
   id="cloud" /><path
   id="fog"
   d="M 2.62,21.05 C 2.62,20.81 2.7,20.6 2.87,20.44 3.04,20.28 3.25,20.2 3.5,20.2 h 18.67 c 0.25,0 0.45,0.08 0.61,0.24 0.16,0.16 0.24,0.36 0.24,0.61 0,0.23 -0.08,0.43 -0.25,0.58 -0.17,0.16 -0.37,0.23 -0.6,0.23 H 3.5 C 3.25,21.86 3.04,21.78 2.87,21.63 2.7,21.47 2.62,21.28 2.62,21.05 Z m 2.62,-3.14 c 0,-0.24 0.09,-0.44 0.26,-0.6 0.15,-0.15 0.35,-0.23 0.59,-0.23 h 18.67 c 0.23,0 0.42,0.08 0.58,0.24 0.16,0.16 0.23,0.35 0.23,0.59 0,0.24 -0.08,0.44 -0.23,0.6 -0.16,0.17 -0.35,0.25 -0.58,0.25 H 6.09 c -0.24,0 -0.44,-0.08 -0.6,-0.25 -0.17,-0.17 -0.25,-0.37 -0.25,-0.6 z m 1.74,6.2 c 0,-0.24 0.09,-0.43 0.26,-0.59 0.15,-0.15 0.35,-0.23 0.6,-0.23 h 18.68 c 0.24,0 0.44,0.08 0.6,0.23 0.17,0.16 0.25,0.35 0.25,0.58 0,0.24 -0.08,0.44 -0.25,0.61 -0.17,0.17 -0.37,0.25 -0.6,0.25 H 7.84 C 7.61,24.96 7.41,24.87 7.24,24.7 7.07,24.55 6.98,24.34 6.98,24.11 Z" />
</svg>
