<?xml version="1.0" encoding="UTF-8" standalone="no"?>
<!-- Generator: Adobe Illustrator 22.0.1, SVG Export Plug-In . SVG Version: 6.00 Build 0)  -->

<svg
   version="1.1"
   id="Layer_1"
   x="0px"
   y="0px"
   viewBox="0 0 30 30"
   style="enable-background:new 0 0 30 30;"
   xml:space="preserve"
   sodipodi:docname="wi-flood.svg"
   inkscape:version="1.4.3 (0d15f75, 2025-12-25)"
   xmlns:inkscape="http://www.inkscape.org/namespaces/inkscape"
   xmlns:sodipodi="http://sodipodi.sourceforge.net/DTD/sodipodi-0.dtd"
   xmlns="http://www.w3.org/2000/svg"
   xmlns:svg="http://www.w3.org/2000/svg"><defs
   id="defs1" /><sodipodi:namedview
   id="namedview1"
   pagecolor="#ffffff"
   bordercolor="#000000"
   borderopacity="0.25"
   inkscape:showpageshadow="2"
   inkscape:pageopacity="0.0"
   inkscape:pagecheckerboard="0"
   inkscape:deskcolor="#d1d1d1"
   inkscape:zoom="23.133333"
   inkscape:cx="14.978386"
   inkscape:cy="15"
   inkscape:window-width="2560"
   inkscape:window-height="1387"
   inkscape:window-x="1352"
   inkscape:window-y="25"
   inkscape:window-maximized="0"
   inkscape:current-layer="Layer_1" />
<path
   d="m 12.23,9.67 c 0,-0.16 0.06,-0.3 0.17,-0.42 l 2.21,-2.22 0.03,-0.02 c 0.01,0 0.01,0 0.01,-0.01 0.01,0 0.01,0 0.01,-0.01 0.01,0 0.01,0 0.01,-0.01 h 0.01 c 0.01,0 0.01,0 0.01,-0.01 0,-0.01 0,-0.01 0.01,-0.02 h 0.02 l 0.01,-0.01 h 0.01 l 0.01,-0.01 h 0.01 l 0.01,-0.01 h 0.01 C 14.79,6.91 14.79,6.91 14.8,6.91 h 0.01 c 0,-0.01 0.01,-0.01 0.02,-0.01 0.01,-0.01 0.01,-0.01 0.02,-0.01 l 0.04,-0.02 h 0.01 c 0.01,0 0.01,0 0.01,-0.01 h 0.07 l 0.01,-0.01 h 0.12 c 0.01,0 0.01,0 0.02,0.01 h 0.06 c 0,0.01 0,0.01 0.01,0.01 h 0.02 c 0.01,0.01 0.02,0.02 0.03,0.02 l 0.02,0.01 h 0.02 l 0.01,0.01 h 0.01 l 0.01,0.01 c 0.01,0 0.01,0 0.01,0.01 h 0.02 c 0.01,0 0.01,0 0.01,0 0,0 0,0 0.01,0 0.01,0.01 0.01,0.01 0.02,0.01 0,0.01 0,0.02 0.01,0.02 l 0.01,0.01 h 0.02 l 0.01,0.01 -0.03,0.02 0.01,0.01 0.02,0.02 2.22,2.22 c 0.12,0.12 0.18,0.26 0.18,0.42 0,0.16 -0.06,0.3 -0.18,0.41 -0.11,0.12 -0.25,0.18 -0.41,0.18 -0.16,0 -0.3,-0.06 -0.41,-0.18 L 15.61,8.86 v 6.9 c 0,0.16 -0.06,0.29 -0.17,0.4 -0.11,0.11 -0.25,0.17 -0.41,0.17 -0.16,0 -0.3,-0.06 -0.42,-0.17 -0.12,-0.11 -0.17,-0.25 -0.17,-0.4 v -6.9 l -1.22,1.22 c -0.12,0.12 -0.26,0.18 -0.42,0.18 -0.16,0 -0.3,-0.06 -0.41,-0.18 -0.1,-0.11 -0.16,-0.25 -0.16,-0.41 z"
   id="line" /><path
   d="m 6.72,20.76 c 0,-0.05 0.01,-0.12 0.02,-0.21 v -4.76 c 0.28,0.49 0.66,0.89 1.15,1.19 0.49,0.3 1.03,0.45 1.61,0.45 0.59,0 1.13,-0.15 1.62,-0.45 0.49,-0.3 0.87,-0.69 1.15,-1.19 0.27,0.49 0.66,0.89 1.15,1.19 0.49,0.3 1.03,0.45 1.62,0.45 0.58,0 1.12,-0.15 1.61,-0.45 0.49,-0.3 0.87,-0.69 1.15,-1.19 0.28,0.49 0.67,0.89 1.15,1.19 0.49,0.3 1.02,0.45 1.6,0.45 0.58,0 1.12,-0.15 1.61,-0.45 0.49,-0.3 0.88,-0.69 1.15,-1.19 v 4.81 c 0,0.02 0,0.05 0,0.08 0,0.03 0,0.06 0,0.08 0,0.01 0,0.04 0,0.07 0,0.03 0,0.06 0,0.08 -0.03,0.23 -0.13,0.43 -0.3,0.6 -0.17,0.17 -0.37,0.27 -0.6,0.3 -0.02,0 -0.05,0 -0.08,0.01 -0.03,0.01 -0.06,0.01 -0.08,0.01 -0.01,0 -0.04,0 -0.07,-0.01 -0.03,-0.01 -0.06,-0.01 -0.08,-0.01 H 7.94 c -0.02,0 -0.04,0 -0.08,0.01 -0.03,0.01 -0.06,0.01 -0.07,0.01 -0.02,0 -0.05,0 -0.08,-0.01 C 7.68,21.81 7.65,21.81 7.64,21.81 7.42,21.78 7.22,21.69 7.06,21.53 6.9,21.37 6.79,21.19 6.74,20.97 6.73,20.88 6.72,20.81 6.72,20.76 Z"
   id="water" />
</svg>
