<?xml version="1.0" encoding="UTF-8" standalone="no"?>
<!-- Generator: Adobe Illustrator 22.0.1, SVG Export Plug-In . SVG Version: 6.00 Build 0)  -->

<svg
   version="1.1"
   id="Layer_1"
   x="0px"
   y="0px"
   viewBox="0 0 30 30"
   style="enable-background:new 0 0 30 30;"
   xml:space="preserve"
   sodipodi:docname="wi-fire.svg"
   inkscape:version="1.4.3 (0d15f75, 2025-12-25)"
   xmlns:inkscape="http://www.inkscape.org/namespaces/inkscape"
   xmlns:sodipodi="http://sodipodi.sourceforge.net/DTD/sodipodi-0.dtd"
   xmlns="http://www.w3.org/2000/svg"
   xmlns:svg="http://www.w3.org/2000/svg"><defs
   id="defs1" /><sodipodi:namedview
   id="namedview1"
   pagecolor="#ffffff"
   bordercolor="#000000"
   borderopacity="0.25"
   inkscape:showpageshadow="2"
   inkscape:pageopacity="0.0"
   inkscape:pagecheckerboard="0"
   inkscape:deskcolor="#d1d1d1"
   inkscape:zoom="23.133333"
   inkscape:cx="14.978386"
   inkscape:cy="15"
   inkscape:window-width="2560"
   inkscape:window-height="1387"
   inkscape:window-x="1352"
   inkscape:window-y="25"
   inkscape:window-maximized="0"
   inkscape:current-layer="Layer_1" />
<path
   d="m 8.2,16.37 c -0.01,-0.43 0.04,-0.93 0.16,-1.52 0.06,-0.3 0.2,-0.76 0.44,-1.37 0.02,-0.05 0.07,-0.14 0.13,-0.28 0.01,0.02 0.03,0.03 0.04,0.05 0.01,0.02 0.02,0.02 0.02,0.03 0.11,0.44 0.27,0.84 0.49,1.2 0.21,0.32 0.48,0.56 0.82,0.69 0.26,0.11 0.63,0.17 1.1,0.18 0.02,0 0.05,0 0.08,0 0.03,0 0.06,0 0.08,0 -0.33,-0.33 -0.59,-0.67 -0.79,-1 C 10.47,13.83 10.28,13.23 10.2,12.54 10.14,12 10.17,11.35 10.29,10.58 10.31,10.43 10.41,10.09 10.58,9.57 10.73,9.1 10.94,8.67 11.22,8.29 11.54,7.8 12,7.3 12.61,6.78 12.98,6.47 13.5,6.11 14.17,5.71 14.24,5.67 14.35,5.6 14.52,5.52 c 0,0.02 0,0.04 0,0.05 0,0.01 0,0.03 0,0.04 v 0.02 c -0.24,0.57 -0.41,1.15 -0.49,1.73 -0.06,0.53 0.02,1.02 0.24,1.48 0.17,0.36 0.48,0.75 0.92,1.15 0.09,0.09 0.29,0.29 0.6,0.58 0.3,0.29 0.54,0.52 0.7,0.68 l 0.25,0.25 c 0.26,-0.38 0.41,-0.83 0.44,-1.35 0.04,-0.55 0,-1.15 -0.14,-1.8 0,-0.01 0,-0.04 0.01,-0.11 0.02,0.02 0.13,0.1 0.3,0.24 0.56,0.5 0.98,0.95 1.28,1.34 0.48,0.62 0.83,1.21 1.06,1.74 0.19,0.46 0.31,0.92 0.38,1.4 0.06,0.42 0.08,0.77 0.07,1.05 -0.01,0.78 -0.1,1.43 -0.25,1.96 -0.07,0.21 -0.13,0.38 -0.19,0.52 0.25,-0.07 0.47,-0.16 0.65,-0.26 0.25,-0.16 0.45,-0.37 0.6,-0.66 0.16,-0.29 0.29,-0.62 0.38,-0.98 0,-0.01 0.01,-0.03 0.03,-0.05 0.01,0.02 0.02,0.05 0.05,0.09 0.02,0.04 0.04,0.07 0.05,0.1 0.13,0.31 0.22,0.63 0.27,0.97 0.08,0.38 0.1,0.75 0.08,1.13 -0.02,0.29 -0.07,0.56 -0.16,0.81 -0.08,0.24 -0.16,0.43 -0.22,0.58 -0.19,0.38 -0.39,0.71 -0.62,0.98 -0.06,0.07 -0.11,0.13 -0.14,0.16 h -11 C 9.66,19.35 9.64,19.33 9.6,19.3 9.56,19.27 9.54,19.25 9.52,19.23 9.26,18.98 8.98,18.6 8.7,18.1 8.62,17.95 8.52,17.72 8.41,17.41 8.29,17.1 8.22,16.75 8.2,16.37 Z"
   id="fire" /><path
   d="m 7.38,21.83 c 0,-0.3 0.1,-0.55 0.29,-0.76 0.19,-0.21 0.43,-0.31 0.7,-0.31 v -0.02 l 13.16,0.04 c 0.06,-0.01 0.1,-0.02 0.1,-0.02 0.27,0.01 0.51,0.12 0.7,0.33 0.19,0.21 0.29,0.47 0.28,0.77 0,0.3 -0.1,0.55 -0.29,0.76 -0.19,0.21 -0.43,0.31 -0.7,0.31 v 0.01 L 8.59,22.9 C 8.49,22.91 8.42,22.92 8.37,22.92 8.09,22.91 7.86,22.81 7.67,22.6 7.47,22.39 7.37,22.13 7.38,21.83 Z"
   id="fire2" />
</svg>
