<?xml version="1.0" encoding="UTF-8" standalone="no"?>
<!-- Generator: Adobe Illustrator 22.0.1, SVG Export Plug-In . SVG Version: 6.00 Build 0)  -->

<svg
   version="1.1"
   id="Layer_1"
   x="0px"
   y="0px"
   viewBox="0 0 30 30"
   style="enable-background:new 0 0 30 30;"
   xml:space="preserve"
   sodipodi:docname="wi-hot.svg"
   inkscape:version="1.4.3 (0d15f75, 2025-12-25)"
   xmlns:inkscape="http://www.inkscape.org/namespaces/inkscape"
   xmlns:sodipodi="http://sodipodi.sourceforge.net/DTD/sodipodi-0.dtd"
   xmlns="http://www.w3.org/2000/svg"
   xmlns:svg="http://www.w3.org/2000/svg"><defs
   id="defs1" /><sodipodi:namedview
   id="namedview1"
   pagecolor="#ffffff"
   bordercolor="#000000"
   borderopacity="0.25"
   inkscape:showpageshadow="2"
   inkscape:pageopacity="0.0"
   inkscape:pagecheckerboard="0"
   inkscape:deskcolor="#d1d1d1"
   inkscape:zoom="23.133333"
   inkscape:cx="14.978386"
   inkscape:cy="15"
   inkscape:window-width="2560"
   inkscape:window-height="1387"
   inkscape:window-x="1352"
   inkscape:window-y="25"
   inkscape:window-maximized="0"
   inkscape:current-layer="Layer_1" />
<path
   id="heat"
   d="m 9.7,18.41 v -0.15 c -0.01,-0.09 0,-0.2 0.02,-0.33 0.05,-0.36 0.19,-0.7 0.42,-1.02 0.13,-0.16 0.22,-0.27 0.27,-0.31 0.01,-0.02 0.02,-0.04 0.04,-0.06 l 0.04,-0.04 c 0.03,-0.01 0.07,-0.05 0.12,-0.1 0.02,-0.02 0.05,-0.05 0.08,-0.08 0.03,-0.03 0.06,-0.04 0.07,-0.06 0.05,-0.05 0.1,-0.08 0.14,-0.1 l 0.17,-0.11 c 0.14,-0.09 0.31,-0.14 0.5,-0.14 h 0.03 c 0.1,0 0.19,0.01 0.26,0.03 0.03,0.01 0.07,0.03 0.13,0.07 v 0.01 c 0.14,0.06 0.26,0.16 0.34,0.29 0.08,0.13 0.13,0.27 0.13,0.42 0,0.17 -0.05,0.31 -0.14,0.42 -0.06,0.09 -0.14,0.17 -0.22,0.23 -0.02,0.01 -0.04,0.02 -0.06,0.03 C 12.02,17.42 12,17.43 12,17.43 l -0.06,0.04 c -0.04,0.03 -0.07,0.06 -0.1,0.08 -0.03,0.02 -0.06,0.06 -0.11,0.11 -0.04,0.05 -0.08,0.09 -0.11,0.14 -0.03,0.04 -0.06,0.1 -0.09,0.15 -0.03,0.06 -0.05,0.12 -0.05,0.17 v 0.15 c 0.04,0.15 0.08,0.27 0.11,0.36 0.07,0.14 0.18,0.28 0.34,0.44 0.01,0.02 0.09,0.1 0.24,0.25 0.86,0.78 1.27,1.62 1.21,2.5 -0.02,0.3 -0.09,0.59 -0.21,0.87 -0.12,0.28 -0.26,0.51 -0.43,0.7 -0.16,0.19 -0.29,0.33 -0.39,0.43 -0.1,0.09 -0.18,0.16 -0.25,0.21 -0.01,0.01 -0.03,0.02 -0.06,0.04 -0.03,0.02 -0.06,0.04 -0.07,0.04 -0.08,0.04 -0.15,0.06 -0.22,0.07 -0.09,0.01 -0.15,0.02 -0.2,0.02 -0.3,0 -0.54,-0.1 -0.71,-0.3 -0.14,-0.17 -0.2,-0.37 -0.18,-0.59 0.02,-0.22 0.13,-0.4 0.33,-0.53 L 11,22.75 c 0.01,-0.01 0.03,-0.03 0.05,-0.04 0.02,-0.02 0.04,-0.04 0.07,-0.06 0.03,-0.02 0.06,-0.05 0.08,-0.08 0.03,-0.03 0.06,-0.07 0.08,-0.1 0.03,-0.04 0.06,-0.08 0.08,-0.12 0.03,-0.04 0.06,-0.09 0.08,-0.14 0.03,-0.05 0.05,-0.1 0.07,-0.15 0.02,-0.05 0.03,-0.1 0.05,-0.16 0.01,-0.06 0.02,-0.12 0.02,-0.17 0.02,-0.2 -0.03,-0.4 -0.15,-0.6 C 11.38,21.02 11.31,20.91 11.21,20.8 11.14,20.72 11.09,20.67 11.06,20.64 10.97,20.53 10.92,20.47 10.91,20.46 10.89,20.45 10.87,20.43 10.84,20.4 10.81,20.37 10.79,20.36 10.78,20.35 10.63,20.21 10.52,20.09 10.44,19.99 10.32,19.83 10.23,19.73 10.2,19.67 10.01,19.41 9.88,19.15 9.81,18.89 9.77,18.75 9.74,18.64 9.73,18.57 9.73,18.55 9.72,18.52 9.71,18.49 9.7,18.46 9.7,18.44 9.7,18.41 Z m 3.88,-0.33 c 0,-0.06 0,-0.1 0.01,-0.14 0.02,-0.22 0.09,-0.43 0.2,-0.64 0.11,-0.21 0.22,-0.39 0.35,-0.53 0.13,-0.14 0.25,-0.27 0.38,-0.38 0.13,-0.11 0.23,-0.19 0.31,-0.25 l 0.12,-0.07 c 0.15,-0.09 0.32,-0.14 0.5,-0.14 0.11,0 0.21,0.01 0.3,0.03 0.01,0 0.02,0.01 0.05,0.02 0.03,0.02 0.05,0.03 0.06,0.04 0.01,0 0.02,0 0.03,0.01 0.01,0 0.03,0.02 0.07,0.05 0.2,0.12 0.32,0.3 0.38,0.54 0,0.02 0,0.04 0,0.07 0,0.02 0,0.04 0,0.05 0,0.03 -0.01,0.07 -0.02,0.12 -0.01,0.05 -0.02,0.08 -0.02,0.09 -0.07,0.23 -0.21,0.39 -0.42,0.5 -0.33,0.22 -0.51,0.45 -0.53,0.69 -0.01,0.08 -0.01,0.15 0,0.22 0.02,0.12 0.08,0.25 0.17,0.39 0.11,0.16 0.19,0.27 0.24,0.32 0.16,0.16 0.25,0.25 0.28,0.27 0.12,0.11 0.28,0.28 0.47,0.51 0.54,0.65 0.79,1.32 0.74,2 -0.02,0.3 -0.09,0.59 -0.21,0.87 -0.12,0.28 -0.26,0.51 -0.43,0.7 -0.16,0.18 -0.3,0.33 -0.4,0.43 -0.11,0.1 -0.19,0.17 -0.25,0.21 l -0.12,0.08 c -0.11,0.04 -0.17,0.06 -0.21,0.07 -0.11,0.01 -0.18,0.02 -0.2,0.02 H 15.4 c -0.08,0 -0.14,-0.01 -0.19,-0.02 -0.02,0 -0.05,0 -0.08,-0.01 -0.03,-0.01 -0.06,-0.01 -0.07,-0.01 -0.01,0 -0.02,0 -0.03,-0.01 -0.01,-0.01 -0.02,-0.01 -0.04,-0.02 -0.01,-0.01 -0.02,-0.01 -0.03,-0.01 -0.15,-0.11 -0.24,-0.17 -0.26,-0.21 -0.16,-0.18 -0.22,-0.38 -0.19,-0.6 0.03,-0.22 0.14,-0.39 0.34,-0.53 l 0.03,-0.04 c 0.02,-0.02 0.05,-0.05 0.09,-0.08 l 0.12,-0.12 0.13,-0.16 0.12,-0.19 0.09,-0.22 0.04,-0.24 c 0.01,-0.4 -0.22,-0.82 -0.69,-1.27 -0.19,-0.17 -0.33,-0.31 -0.44,-0.43 -0.55,-0.69 -0.8,-1.34 -0.76,-1.98 z m 3.9,-0.15 c 0.02,-0.22 0.09,-0.43 0.2,-0.64 0.11,-0.21 0.22,-0.39 0.35,-0.53 0.13,-0.14 0.25,-0.27 0.38,-0.38 0.12,-0.11 0.22,-0.19 0.3,-0.25 l 0.13,-0.07 c 0.02,-0.02 0.06,-0.04 0.1,-0.08 0.11,-0.04 0.24,-0.07 0.38,-0.07 0.34,0 0.59,0.13 0.77,0.38 0.05,0.07 0.08,0.14 0.1,0.23 0.01,0.02 0.02,0.05 0.02,0.08 v 0.11 c 0,0.31 -0.15,0.55 -0.45,0.7 -0.32,0.21 -0.49,0.44 -0.52,0.69 -0.04,0.34 0.19,0.74 0.68,1.2 0.88,0.77 1.28,1.61 1.23,2.5 -0.02,0.3 -0.09,0.59 -0.21,0.87 -0.12,0.28 -0.27,0.51 -0.43,0.7 -0.17,0.19 -0.3,0.33 -0.39,0.43 -0.09,0.1 -0.18,0.16 -0.25,0.21 -0.16,0.1 -0.3,0.15 -0.41,0.16 -0.03,0.01 -0.08,0.01 -0.15,0.01 -0.3,0 -0.53,-0.1 -0.69,-0.3 -0.15,-0.17 -0.21,-0.37 -0.19,-0.59 0.02,-0.22 0.13,-0.4 0.32,-0.53 0.03,-0.01 0.09,-0.06 0.18,-0.14 0.09,-0.08 0.18,-0.21 0.29,-0.38 0.1,-0.18 0.16,-0.35 0.17,-0.53 0.02,-0.4 -0.22,-0.82 -0.7,-1.27 -0.41,-0.36 -0.73,-0.75 -0.94,-1.16 -0.24,-0.42 -0.33,-0.88 -0.27,-1.35 z" /><path
   id="sun"
   d="m 4.14,14.76 c 0,-0.24 0.09,-0.44 0.27,-0.61 0.17,-0.17 0.38,-0.25 0.62,-0.25 h 2.06 c 0.24,0 0.44,0.08 0.6,0.25 0.17,0.17 0.25,0.37 0.25,0.61 0,0.25 -0.08,0.46 -0.25,0.63 -0.17,0.17 -0.37,0.25 -0.6,0.25 H 5.03 C 4.78,15.64 4.57,15.56 4.4,15.39 4.22,15.22 4.14,15.01 4.14,14.76 Z M 7.06,7.74 C 7.06,7.51 7.14,7.3 7.3,7.12 7.5,6.96 7.71,6.87 7.96,6.87 c 0.21,0 0.41,0.08 0.59,0.25 L 10,8.6 c 0.17,0.16 0.25,0.36 0.25,0.6 0,0.24 -0.08,0.44 -0.25,0.6 C 9.83,9.97 9.64,10.05 9.4,10.05 9.14,10.05 8.94,9.97 8.79,9.8 L 7.29,8.36 C 7.15,8.19 7.06,7.98 7.06,7.74 Z m 2.61,7.02 c 0,-0.71 0.14,-1.39 0.43,-2.04 0.28,-0.65 0.67,-1.22 1.14,-1.69 0.48,-0.47 1.05,-0.85 1.7,-1.13 0.65,-0.28 1.34,-0.43 2.06,-0.43 0.96,0 1.84,0.24 2.66,0.72 0.82,0.48 1.47,1.12 1.94,1.94 0.47,0.81 0.71,1.69 0.71,2.63 0,0.15 -0.01,0.29 -0.03,0.42 -0.28,-0.17 -0.6,-0.25 -0.97,-0.25 -0.24,0 -0.48,0.05 -0.72,0.15 0.01,-0.07 0.01,-0.18 0.01,-0.32 0,-0.98 -0.35,-1.81 -1.06,-2.5 -0.71,-0.69 -1.56,-1.04 -2.55,-1.04 -0.99,0 -1.83,0.35 -2.54,1.04 -0.71,0.69 -1.05,1.52 -1.05,2.5 v 0.18 c -0.29,0.02 -0.57,0.1 -0.84,0.25 -0.01,0.01 -0.04,0.03 -0.1,0.07 -0.06,0.04 -0.12,0.09 -0.19,0.14 -0.07,0.05 -0.14,0.11 -0.23,0.19 C 9.95,15.67 9.86,15.75 9.78,15.83 9.7,15.51 9.67,15.15 9.67,14.76 Z M 14.12,6.92 V 4.85 c 0,-0.24 0.09,-0.45 0.26,-0.62 0.17,-0.17 0.38,-0.25 0.61,-0.25 0.24,0 0.45,0.08 0.62,0.25 0.17,0.17 0.25,0.38 0.25,0.62 v 2.07 c 0,0.24 -0.08,0.43 -0.25,0.59 C 15.44,7.67 15.24,7.74 15,7.74 14.76,7.74 14.56,7.66 14.39,7.51 14.21,7.35 14.12,7.16 14.12,6.92 Z m 5.65,2.29 c 0,-0.25 0.08,-0.45 0.23,-0.6 l 1.46,-1.48 c 0.18,-0.17 0.38,-0.25 0.61,-0.25 0.24,0 0.44,0.09 0.61,0.26 0.17,0.17 0.26,0.38 0.26,0.61 0,0.25 -0.09,0.46 -0.26,0.62 L 21.2,9.81 c -0.18,0.17 -0.38,0.25 -0.61,0.25 -0.23,0 -0.43,-0.08 -0.58,-0.25 -0.16,-0.16 -0.24,-0.37 -0.24,-0.6 z m 2.3,5.55 c 0,-0.22 0.09,-0.42 0.26,-0.61 0.16,-0.17 0.35,-0.25 0.58,-0.25 h 2.06 c 0.24,0 0.45,0.09 0.62,0.26 0.17,0.17 0.27,0.37 0.27,0.6 0,0.24 -0.09,0.45 -0.26,0.62 -0.18,0.17 -0.38,0.26 -0.63,0.26 h -2.06 c -0.24,0 -0.45,-0.08 -0.6,-0.25 -0.16,-0.17 -0.24,-0.38 -0.24,-0.63 z" />
</svg>
