<?xml version="1.0" encoding="UTF-8" standalone="no"?>
<!-- Generator: Adobe Illustrator 22.0.1, SVG Export Plug-In . SVG Version: 6.00 Build 0)  -->

<svg
   version="1.1"
   id="Layer_1"
   x="0px"
   y="0px"
   viewBox="0 0 30 30"
   style="enable-background:new 0 0 30 30;"
   xml:space="preserve"
   sodipodi:docname="wi-hail.svg"
   inkscape:version="1.4.3 (0d15f75, 2025-12-25)"
   xmlns:inkscape="http://www.inkscape.org/namespaces/inkscape"
   xmlns:sodipodi="http://sodipodi.sourceforge.net/DTD/sodipodi-0.dtd"
   xmlns="http://www.w3.org/2000/svg"
   xmlns:svg="http://www.w3.org/2000/svg"><defs
   id="defs1" /><sodipodi:namedview
   id="namedview1"
   pagecolor="#ffffff"
   bordercolor="#000000"
   borderopacity="0.25"
   inkscape:showpageshadow="2"
   inkscape:pageopacity="0.0"
   inkscape:pagecheckerboard="0"
   inkscape:deskcolor="#d1d1d1"
   inkscape:zoom="23.133333"
   inkscape:cx="15"
   inkscape:cy="15"
   inkscape:window-width="2560"
   inkscape:window-height="1387"
   inkscape:window-x="1352"
   inkscape:window-y="25"
   inkscape:window-maximized="0"
   inkscape:current-layer="Layer_1" />
<path
   id="rain"
   d="m 10.72,21.28 c 0,0.16 0.05,0.31 0.15,0.45 0.1,0.15 0.26,0.25 0.46,0.32 0.19,0.11 0.4,0.12 0.62,0.01 0.22,-0.1 0.37,-0.3 0.44,-0.6 l 0.9,-3.38 c 0.06,-0.25 0.04,-0.47 -0.08,-0.67 -0.12,-0.2 -0.29,-0.32 -0.53,-0.36 -0.08,-0.02 -0.16,-0.03 -0.24,-0.03 -0.16,0 -0.32,0.05 -0.47,0.15 -0.15,0.1 -0.26,0.25 -0.32,0.44 L 10.77,21 c -0.04,0.16 -0.05,0.25 -0.05,0.28 z m 2.59,2.98 c 0,0.37 0.21,0.61 0.63,0.73 0.11,0.03 0.19,0.04 0.24,0.04 0.15,0 0.28,-0.03 0.38,-0.08 0.21,-0.08 0.35,-0.27 0.42,-0.57 l 1.67,-6.29 c 0.06,-0.24 0.04,-0.45 -0.06,-0.65 -0.1,-0.19 -0.27,-0.32 -0.49,-0.38 -0.08,-0.02 -0.17,-0.03 -0.27,-0.03 -0.16,0 -0.32,0.05 -0.48,0.15 -0.16,0.1 -0.26,0.25 -0.3,0.44 l -1.71,6.34 c -0.02,0.14 -0.03,0.24 -0.03,0.3 z m 4.16,-3.03 c 0,0.14 0.05,0.29 0.16,0.45 0.11,0.16 0.26,0.27 0.45,0.33 0.16,0.03 0.25,0.05 0.27,0.05 0.09,0 0.22,-0.03 0.37,-0.1 0.2,-0.09 0.33,-0.27 0.4,-0.52 l 0.9,-3.34 c 0.02,-0.17 0.03,-0.26 0.03,-0.26 0,-0.16 -0.05,-0.31 -0.15,-0.46 -0.1,-0.15 -0.25,-0.25 -0.45,-0.31 -0.09,-0.02 -0.18,-0.03 -0.26,-0.03 -0.16,0 -0.32,0.05 -0.47,0.15 -0.15,0.1 -0.25,0.25 -0.31,0.45 L 17.51,21 Z" /><path
   id="hail"
   d="m 10.09,24.1 c 0.09,0.21 0.25,0.37 0.46,0.46 0.2,0.1 0.41,0.11 0.62,0.02 0.22,-0.09 0.36,-0.24 0.45,-0.45 0.1,-0.22 0.11,-0.43 0.02,-0.64 -0.08,-0.21 -0.24,-0.35 -0.45,-0.44 -0.2,-0.11 -0.4,-0.12 -0.61,-0.03 -0.21,0.09 -0.36,0.24 -0.46,0.47 -0.11,0.17 -0.11,0.37 -0.03,0.61 z m 2.49,2.77 c 0,0.12 0.02,0.22 0.06,0.29 0.09,0.22 0.24,0.37 0.45,0.45 0.09,0.05 0.2,0.08 0.33,0.08 0.06,0 0.16,-0.02 0.3,-0.06 0.22,-0.08 0.38,-0.23 0.47,-0.45 0.1,-0.22 0.1,-0.44 0,-0.66 -0.1,-0.22 -0.25,-0.37 -0.45,-0.46 -0.2,-0.09 -0.4,-0.09 -0.62,0 -0.19,0.08 -0.32,0.2 -0.41,0.36 -0.09,0.16 -0.13,0.31 -0.13,0.45 z m 4.16,-3.07 c 0,0.12 0.02,0.23 0.08,0.32 0.08,0.19 0.23,0.34 0.44,0.44 0.11,0.04 0.23,0.07 0.35,0.07 0.06,0 0.16,-0.02 0.3,-0.06 0.21,-0.08 0.37,-0.23 0.46,-0.44 0.07,-0.22 0.07,-0.43 -0.01,-0.63 -0.08,-0.2 -0.22,-0.35 -0.42,-0.45 -0.23,-0.11 -0.44,-0.12 -0.65,-0.03 -0.21,0.09 -0.36,0.24 -0.46,0.47 -0.06,0.1 -0.09,0.2 -0.09,0.31 z" /><path
   d="m 4.64,16.9 c 0,1.33 0.46,2.47 1.39,3.43 0.93,0.96 2.06,1.47 3.4,1.53 0.11,0 0.17,-0.06 0.17,-0.17 V 20.35 C 9.6,20.24 9.54,20.18 9.43,20.18 8.57,20.14 7.85,19.8 7.25,19.16 6.65,18.52 6.35,17.77 6.35,16.9 c 0,-0.83 0.28,-1.54 0.84,-2.16 0.56,-0.61 1.26,-0.97 2.09,-1.07 l 0.53,-0.03 c 0.13,0 0.2,-0.06 0.2,-0.19 l 0.06,-0.53 c 0.11,-1.08 0.56,-1.99 1.37,-2.71 0.81,-0.73 1.76,-1.09 2.85,-1.09 1.09,0 2.04,0.36 2.85,1.09 0.81,0.73 1.27,1.63 1.39,2.71 l 0.08,0.58 c 0,0.11 0.06,0.17 0.18,0.17 h 1.61 c 0.89,0 1.66,0.32 2.31,0.96 0.65,0.64 0.98,1.39 0.98,2.27 0,0.87 -0.3,1.62 -0.9,2.26 -0.6,0.64 -1.33,0.98 -2.18,1.02 -0.13,0 -0.2,0.06 -0.2,0.17 v 1.34 c 0,0.11 0.07,0.17 0.2,0.17 0.87,-0.02 1.67,-0.26 2.4,-0.71 0.73,-0.45 1.31,-1.05 1.73,-1.8 0.42,-0.75 0.63,-1.57 0.63,-2.44 0,-0.89 -0.22,-1.72 -0.67,-2.47 C 24.26,13.69 23.65,13.09 22.89,12.66 22.13,12.23 21.29,12 20.4,12 H 20.08 C 19.76,10.66 19.05,9.57 17.98,8.72 16.91,7.87 15.68,7.44 14.3,7.44 c -1.41,0 -2.66,0.44 -3.75,1.31 -1.09,0.87 -1.79,1.99 -2.1,3.35 -1.11,0.26 -2.02,0.83 -2.73,1.73 -0.71,0.9 -1.08,1.92 -1.08,3.07 z"
   id="cloud" />
</svg>
