<?xml version="1.0" encoding="UTF-8" standalone="no"?>
<!-- Generator: Adobe Illustrator 22.0.1, SVG Export Plug-In . SVG Version: 6.00 Build 0)  -->

<svg
   version="1.1"
   id="Layer_1"
   x="0px"
   y="0px"
   viewBox="0 0 30 30"
   style="enable-background:new 0 0 30 30;"
   xml:space="preserve"
   sodipodi:docname="wi-horizon.svg"
   inkscape:version="1.4.3 (0d15f75, 2025-12-25)"
   xmlns:inkscape="http://www.inkscape.org/namespaces/inkscape"
   xmlns:sodipodi="http://sodipodi.sourceforge.net/DTD/sodipodi-0.dtd"
   xmlns="http://www.w3.org/2000/svg"
   xmlns:svg="http://www.w3.org/2000/svg"><defs
   id="defs1" /><sodipodi:namedview
   id="namedview1"
   pagecolor="#ffffff"
   bordercolor="#000000"
   borderopacity="0.25"
   inkscape:showpageshadow="2"
   inkscape:pageopacity="0.0"
   inkscape:pagecheckerboard="0"
   inkscape:deskcolor="#d1d1d1"
   inkscape:zoom="23.133333"
   inkscape:cx="14.978386"
   inkscape:cy="15"
   inkscape:window-width="2560"
   inkscape:window-height="1387"
   inkscape:window-x="1352"
   inkscape:window-y="25"
   inkscape:window-maximized="0"
   inkscape:current-layer="Layer_1" />
<path
   id="sun"
   d="m 6.9,12.68 c 0,-0.26 0.08,-0.47 0.23,-0.63 0.17,-0.18 0.38,-0.26 0.65,-0.26 0.23,0 0.43,0.09 0.6,0.26 l 1.5,1.5 c 0.18,0.18 0.27,0.39 0.27,0.63 0,0.23 -0.09,0.44 -0.27,0.62 -0.15,0.18 -0.35,0.27 -0.6,0.27 -0.25,0 -0.47,-0.09 -0.64,-0.27 L 7.14,13.3 C 6.98,13.15 6.9,12.95 6.9,12.68 Z m 2.93,5.59 c -0.04,0.16 0.01,0.23 0.15,0.23 h 1.49 c 0.07,0 0.14,-0.06 0.22,-0.17 0.3,-0.64 0.74,-1.14 1.33,-1.52 0.59,-0.38 1.24,-0.56 1.96,-0.56 0.73,0 1.39,0.19 1.99,0.56 0.6,0.37 1.05,0.88 1.35,1.52 0.08,0.11 0.16,0.17 0.23,0.17 h 1.48 c 0.13,0 0.18,-0.08 0.15,-0.23 -0.34,-1.13 -0.99,-2.05 -1.95,-2.76 -0.96,-0.71 -2.04,-1.06 -3.25,-1.06 -1.2,0 -2.28,0.35 -3.23,1.06 -0.93,0.71 -1.58,1.63 -1.92,2.76 z m 4.31,-6.46 V 9.68 c 0,-0.25 0.08,-0.46 0.24,-0.64 0.16,-0.18 0.37,-0.26 0.61,-0.26 0.25,0 0.46,0.09 0.63,0.26 0.17,0.17 0.25,0.39 0.25,0.64 v 2.14 c 0,0.26 -0.08,0.47 -0.25,0.64 -0.17,0.17 -0.38,0.25 -0.63,0.25 -0.24,0 -0.45,-0.09 -0.61,-0.26 -0.16,-0.17 -0.24,-0.39 -0.24,-0.64 z m 5.72,2.37 c 0,-0.24 0.08,-0.45 0.25,-0.63 l 1.54,-1.5 c 0.16,-0.18 0.36,-0.26 0.62,-0.26 0.24,0 0.44,0.08 0.6,0.25 0.16,0.17 0.23,0.38 0.23,0.64 0,0.26 -0.08,0.47 -0.23,0.62 l -1.48,1.5 c -0.17,0.17 -0.36,0.26 -0.56,0.28 -0.23,0.02 -0.44,-0.06 -0.65,-0.24 -0.21,-0.18 -0.32,-0.41 -0.32,-0.66 z" /><path
   d="m 4.93,20.97 c 0,-0.26 0.09,-0.47 0.28,-0.62 0.14,-0.16 0.35,-0.23 0.63,-0.23 h 18.34 c 0.25,0 0.46,0.08 0.64,0.24 0.18,0.16 0.26,0.37 0.26,0.61 0,0.24 -0.09,0.45 -0.27,0.62 -0.18,0.17 -0.39,0.27 -0.63,0.27 H 5.84 C 5.59,21.86 5.38,21.77 5.2,21.59 5.02,21.42 4.93,21.21 4.93,20.97 Z"
   id="horizon" />
</svg>
