<?xml version="1.0" encoding="UTF-8" standalone="no"?>
<!-- Generator: Adobe Illustrator 22.0.1, SVG Export Plug-In . SVG Version: 6.00 Build 0)  -->

<svg
   version="1.1"
   id="Layer_1"
   x="0px"
   y="0px"
   viewBox="0 0 30 30"
   style="enable-background:new 0 0 30 30;"
   xml:space="preserve"
   sodipodi:docname="wi-horizon-alt.svg"
   inkscape:version="1.4.3 (0d15f75, 2025-12-25)"
   xmlns:inkscape="http://www.inkscape.org/namespaces/inkscape"
   xmlns:sodipodi="http://sodipodi.sourceforge.net/DTD/sodipodi-0.dtd"
   xmlns="http://www.w3.org/2000/svg"
   xmlns:svg="http://www.w3.org/2000/svg"><defs
   id="defs1" /><sodipodi:namedview
   id="namedview1"
   pagecolor="#ffffff"
   bordercolor="#000000"
   borderopacity="0.25"
   inkscape:showpageshadow="2"
   inkscape:pageopacity="0.0"
   inkscape:pagecheckerboard="0"
   inkscape:deskcolor="#d1d1d1"
   inkscape:zoom="23.133333"
   inkscape:cx="14.978386"
   inkscape:cy="15"
   inkscape:window-width="2560"
   inkscape:window-height="1387"
   inkscape:window-x="1352"
   inkscape:window-y="25"
   inkscape:window-maximized="0"
   inkscape:current-layer="Layer_1" />
<path
   d="m 5.03,20.98 c 0,-0.23 0.09,-0.43 0.26,-0.61 0.16,-0.16 0.37,-0.23 0.61,-0.23 h 18.21 c 0.24,0 0.45,0.08 0.62,0.24 0.17,0.16 0.25,0.36 0.25,0.6 0,0.24 -0.09,0.44 -0.26,0.61 -0.17,0.17 -0.38,0.26 -0.61,0.26 H 5.91 C 5.67,21.85 5.47,21.76 5.3,21.59 5.13,21.42 5.03,21.22 5.03,20.98 Z"
   id="horizon" /><path
   id="sun"
   d="M 4.11,15.9 C 4.11,15.64 4.2,15.43 4.38,15.28 4.52,15.13 4.73,15.05 5,15.05 h 2.08 c 0.24,0 0.45,0.08 0.6,0.24 0.16,0.16 0.24,0.36 0.24,0.6 0,0.24 -0.08,0.44 -0.24,0.61 -0.16,0.17 -0.36,0.25 -0.6,0.25 H 5 C 4.76,16.75 4.55,16.67 4.37,16.5 4.19,16.34 4.11,16.14 4.11,15.9 Z M 7.08,8.81 C 7.08,8.55 7.16,8.36 7.31,8.22 7.48,8.04 7.69,7.95 7.93,7.95 c 0.24,0 0.44,0.09 0.61,0.27 l 1.44,1.46 c 0.18,0.16 0.26,0.36 0.26,0.6 0,0.25 -0.08,0.45 -0.24,0.61 -0.16,0.16 -0.36,0.24 -0.6,0.24 -0.22,0 -0.42,-0.08 -0.6,-0.24 L 7.31,9.42 C 7.16,9.28 7.08,9.08 7.08,8.81 Z m 2.6,7.09 c 0,0.87 0.18,1.65 0.53,2.33 0.03,0.09 0.11,0.14 0.24,0.14 h 1.67 c 0.07,0 0.12,-0.02 0.14,-0.06 0.02,-0.04 -0.01,-0.1 -0.07,-0.16 -0.53,-0.65 -0.8,-1.4 -0.8,-2.25 0,-0.99 0.36,-1.84 1.07,-2.54 0.71,-0.7 1.56,-1.05 2.55,-1.05 0.99,0 1.84,0.35 2.55,1.05 0.71,0.7 1.05,1.55 1.05,2.54 0,0.86 -0.27,1.61 -0.8,2.25 -0.04,0.06 -0.06,0.1 -0.06,0.12 -0.01,0.03 0,0.06 0.03,0.07 0.02,0.02 0.06,0.03 0.1,0.03 h 1.7 c 0.09,0 0.16,-0.05 0.21,-0.14 0.38,-0.71 0.56,-1.48 0.56,-2.33 0,-0.96 -0.24,-1.85 -0.72,-2.67 -0.48,-0.82 -1.13,-1.47 -1.95,-1.95 -0.82,-0.48 -1.71,-0.72 -2.67,-0.72 -0.96,0 -1.85,0.24 -2.67,0.72 -0.82,0.48 -1.47,1.13 -1.95,1.95 -0.48,0.82 -0.71,1.71 -0.71,2.67 z M 14.15,7.97 V 5.88 C 14.15,5.64 14.23,5.44 14.4,5.26 14.57,5.08 14.77,5 15.01,5 c 0.24,0 0.44,0.09 0.62,0.26 0.17,0.17 0.26,0.38 0.26,0.62 v 2.09 c 0,0.24 -0.09,0.44 -0.26,0.62 C 15.45,8.77 15.25,8.85 15.01,8.85 14.77,8.85 14.57,8.76 14.4,8.59 14.23,8.41 14.15,8.21 14.15,7.97 Z m 5.62,2.31 c 0,-0.24 0.08,-0.44 0.24,-0.6 l 1.44,-1.46 c 0.17,-0.18 0.38,-0.27 0.62,-0.27 0.25,0 0.46,0.08 0.62,0.25 0.17,0.17 0.25,0.37 0.25,0.61 0,0.26 -0.08,0.46 -0.23,0.61 l -1.51,1.47 c -0.16,0.15 -0.36,0.22 -0.59,0.22 -0.25,0.01 -0.45,-0.07 -0.61,-0.22 -0.15,-0.15 -0.23,-0.36 -0.23,-0.61 z m 2.33,5.62 c 0,-0.27 0.08,-0.47 0.24,-0.62 0.14,-0.15 0.34,-0.23 0.59,-0.23 h 2.09 c 0.24,0 0.45,0.08 0.62,0.24 0.17,0.16 0.26,0.36 0.26,0.6 0,0.24 -0.09,0.44 -0.26,0.61 -0.18,0.17 -0.38,0.25 -0.62,0.25 H 22.93 C 22.7,16.75 22.5,16.67 22.34,16.5 22.18,16.34 22.1,16.14 22.1,15.9 Z" />
</svg>
