<?xml version="1.0" encoding="UTF-8" standalone="no"?>
<!-- Generator: Adobe Illustrator 22.0.1, SVG Export Plug-In . SVG Version: 6.00 Build 0)  -->

<svg
   version="1.1"
   id="Layer_1"
   x="0px"
   y="0px"
   viewBox="0 0 30 30"
   style="enable-background:new 0 0 30 30;"
   xml:space="preserve"
   sodipodi:docname="wi-lunar-eclipse.svg"
   inkscape:version="1.4.3 (0d15f75, 2025-12-25)"
   xmlns:inkscape="http://www.inkscape.org/namespaces/inkscape"
   xmlns:sodipodi="http://sodipodi.sourceforge.net/DTD/sodipodi-0.dtd"
   xmlns="http://www.w3.org/2000/svg"
   xmlns:svg="http://www.w3.org/2000/svg"><defs
   id="defs1" /><sodipodi:namedview
   id="namedview1"
   pagecolor="#ffffff"
   bordercolor="#000000"
   borderopacity="0.25"
   inkscape:showpageshadow="2"
   inkscape:pageopacity="0.0"
   inkscape:pagecheckerboard="0"
   inkscape:deskcolor="#d1d1d1"
   inkscape:zoom="23.133333"
   inkscape:cx="15"
   inkscape:cy="15"
   inkscape:window-width="2560"
   inkscape:window-height="1387"
   inkscape:window-x="1352"
   inkscape:window-y="25"
   inkscape:window-maximized="0"
   inkscape:current-layer="Layer_1" />
<path
   d="M9.8,14.62c0-0.93,0.23-1.8,0.7-2.6s1.1-1.44,1.9-1.91s1.67-0.7,2.6-0.7c0.94,0,1.81,0.23,2.61,0.7  c0.8,0.47,1.43,1.1,1.9,1.9c0.47,0.8,0.7,1.67,0.7,2.61s-0.23,1.81-0.7,2.61c-0.47,0.8-1.1,1.43-1.9,1.9  c-0.8,0.47-1.67,0.7-2.61,0.7s-1.8-0.23-2.6-0.7c-0.8-0.47-1.43-1.1-1.9-1.9C10.03,16.43,9.8,15.56,9.8,14.62z M14.25,11.22  c0.87,0.11,1.6,0.49,2.19,1.15c0.59,0.66,0.89,1.44,0.89,2.33c0,0.83-0.26,1.56-0.78,2.2s-1.18,1.04-1.98,1.21  c0.2,0.02,0.34,0.04,0.43,0.04c0.98,0,1.81-0.35,2.5-1.04c0.69-0.69,1.04-1.52,1.04-2.5c0-0.96-0.35-1.78-1.04-2.47  c-0.69-0.68-1.53-1.02-2.5-1.02C14.74,11.14,14.49,11.17,14.25,11.22z"
   id="line" />
</svg>
