<?xml version="1.0" encoding="UTF-8" standalone="no"?>
<!-- Generator: Adobe Illustrator 22.0.1, SVG Export Plug-In . SVG Version: 6.00 Build 0)  -->

<svg
   version="1.1"
   id="Layer_1"
   x="0px"
   y="0px"
   viewBox="0 0 30 30"
   style="enable-background:new 0 0 30 30;"
   xml:space="preserve"
   sodipodi:docname="wi-lightning.svg"
   inkscape:version="1.4.3 (0d15f75, 2025-12-25)"
   xmlns:inkscape="http://www.inkscape.org/namespaces/inkscape"
   xmlns:sodipodi="http://sodipodi.sourceforge.net/DTD/sodipodi-0.dtd"
   xmlns="http://www.w3.org/2000/svg"
   xmlns:svg="http://www.w3.org/2000/svg"><defs
   id="defs1" /><sodipodi:namedview
   id="namedview1"
   pagecolor="#ffffff"
   bordercolor="#000000"
   borderopacity="0.25"
   inkscape:showpageshadow="2"
   inkscape:pageopacity="0.0"
   inkscape:pagecheckerboard="0"
   inkscape:deskcolor="#d1d1d1"
   inkscape:zoom="23.133333"
   inkscape:cx="14.978386"
   inkscape:cy="15"
   inkscape:window-width="2560"
   inkscape:window-height="1387"
   inkscape:window-x="1352"
   inkscape:window-y="25"
   inkscape:window-maximized="0"
   inkscape:current-layer="Layer_1" />
<path
   d="m 16.46,18.18 h 0.27 l 5.22,-7.67 c 0.05,-0.08 0.06,-0.15 0.04,-0.2 -0.02,-0.05 -0.08,-0.07 -0.17,-0.07 h -2.1 L 21.9,6.21 c 0.12,-0.2 0.06,-0.3 -0.18,-0.3 h -2.74 c -0.13,0 -0.23,0.06 -0.3,0.19 l -2.08,5.48 c -0.03,0.09 -0.03,0.16 0.01,0.21 0.04,0.05 0.1,0.07 0.19,0.07 h 2.04 z"
   id="lightning2" /><path
   d="m 7.96,24.51 h 0.39 l 6.88,-10.18 c 0.09,-0.18 0.04,-0.27 -0.15,-0.27 h -2.84 l 2.99,-5.45 c 0.09,-0.18 0.02,-0.27 -0.2,-0.27 h -3.81 c -0.11,0 -0.2,0.06 -0.29,0.18 l -2.78,7.4 c -0.02,0.18 0.04,0.27 0.19,0.27 h 2.75 z"
   id="lightning" />
</svg>
