<?xml version="1.0" encoding="UTF-8" standalone="no"?>
<!-- Generator: Adobe Illustrator 22.0.1, SVG Export Plug-In . SVG Version: 6.00 Build 0)  -->

<svg
   version="1.1"
   id="Layer_1"
   x="0px"
   y="0px"
   viewBox="0 0 30 30"
   style="enable-background:new 0 0 30 30;"
   xml:space="preserve"
   sodipodi:docname="wi-moon-waxing-gibbous-4.svg"
   inkscape:version="1.4.3 (0d15f75, 2025-12-25)"
   xmlns:inkscape="http://www.inkscape.org/namespaces/inkscape"
   xmlns:sodipodi="http://sodipodi.sourceforge.net/DTD/sodipodi-0.dtd"
   xmlns="http://www.w3.org/2000/svg"
   xmlns:svg="http://www.w3.org/2000/svg"><defs
   id="defs1" /><sodipodi:namedview
   id="namedview1"
   pagecolor="#ffffff"
   bordercolor="#000000"
   borderopacity="0.25"
   inkscape:showpageshadow="2"
   inkscape:pageopacity="0.0"
   inkscape:pagecheckerboard="0"
   inkscape:deskcolor="#d1d1d1"
   inkscape:zoom="23.133333"
   inkscape:cx="15.021614"
   inkscape:cy="15"
   inkscape:window-width="1024"
   inkscape:window-height="821"
   inkscape:window-x="0"
   inkscape:window-y="123"
   inkscape:window-maximized="0"
   inkscape:current-layer="Layer_1" />
<path
   d="M10.73,14.43c0,1.19,0.07,2.29,0.2,3.3s0.35,2,0.67,2.99s0.76,1.9,1.33,2.75s1.27,1.59,2.09,2.25c1.53,0,2.99-0.3,4.38-0.89  s2.58-1.4,3.59-2.4s1.81-2.2,2.4-3.6s0.89-2.85,0.89-4.39c0-2.04-0.5-3.93-1.51-5.65s-2.37-3.1-4.1-4.1s-3.61-1.51-5.65-1.51  c-1.35,1.3-2.4,2.94-3.16,4.93S10.73,12.19,10.73,14.43z"
   id="moon" />
</svg>
