<?xml version="1.0" encoding="UTF-8" standalone="no"?>
<!-- Generator: Adobe Illustrator 22.0.1, SVG Export Plug-In . SVG Version: 6.00 Build 0)  -->

<svg
   version="1.1"
   id="Layer_1"
   x="0px"
   y="0px"
   viewBox="0 0 30 30"
   style="enable-background:new 0 0 30 30;"
   xml:space="preserve"
   sodipodi:docname="wi-moon-waning-gibbous-1.svg"
   inkscape:version="1.4.3 (0d15f75, 2025-12-25)"
   xmlns:inkscape="http://www.inkscape.org/namespaces/inkscape"
   xmlns:sodipodi="http://sodipodi.sourceforge.net/DTD/sodipodi-0.dtd"
   xmlns="http://www.w3.org/2000/svg"
   xmlns:svg="http://www.w3.org/2000/svg"><defs
   id="defs1" /><sodipodi:namedview
   id="namedview1"
   pagecolor="#ffffff"
   bordercolor="#000000"
   borderopacity="0.25"
   inkscape:showpageshadow="2"
   inkscape:pageopacity="0.0"
   inkscape:pagecheckerboard="0"
   inkscape:deskcolor="#d1d1d1"
   inkscape:zoom="23.133333"
   inkscape:cx="15.021614"
   inkscape:cy="15"
   inkscape:window-width="1024"
   inkscape:window-height="821"
   inkscape:window-x="0"
   inkscape:window-y="123"
   inkscape:window-maximized="0"
   inkscape:current-layer="Layer_1" />
<path
   d="M3.74,14.49c0,1.22,0.19,2.4,0.56,3.54s0.91,2.17,1.6,3.09s1.5,1.72,2.42,2.42s1.95,1.23,3.09,1.6s2.32,0.56,3.54,0.56  c5.03-1.4,7.54-5.14,7.54-11.22c0-1.18-0.14-2.3-0.42-3.37s-0.65-2.01-1.13-2.83s-1.04-1.57-1.68-2.24s-1.34-1.24-2.06-1.68  s-1.47-0.81-2.26-1.07c-1.52,0-2.98,0.3-4.37,0.89S8.02,5.57,7.02,6.57s-1.8,2.19-2.39,3.57S3.74,12.97,3.74,14.49z"
   id="moon" />
</svg>
