<?xml version="1.0" encoding="UTF-8" standalone="no"?>
<!-- Generator: Adobe Illustrator 22.0.1, SVG Export Plug-In . SVG Version: 6.00 Build 0)  -->

<svg
   version="1.1"
   id="Layer_1"
   x="0px"
   y="0px"
   viewBox="0 0 30 30"
   style="enable-background:new 0 0 30 30;"
   xml:space="preserve"
   sodipodi:docname="wi-moon-alt-first-quarter.svg"
   inkscape:version="1.4.3 (0d15f75, 2025-12-25)"
   xmlns:inkscape="http://www.inkscape.org/namespaces/inkscape"
   xmlns:sodipodi="http://sodipodi.sourceforge.net/DTD/sodipodi-0.dtd"
   xmlns="http://www.w3.org/2000/svg"
   xmlns:svg="http://www.w3.org/2000/svg"><defs
   id="defs1" /><sodipodi:namedview
   id="namedview1"
   pagecolor="#ffffff"
   bordercolor="#000000"
   borderopacity="0.25"
   inkscape:showpageshadow="2"
   inkscape:pageopacity="0.0"
   inkscape:pagecheckerboard="0"
   inkscape:deskcolor="#d1d1d1"
   inkscape:zoom="23.133333"
   inkscape:cx="15"
   inkscape:cy="15"
   inkscape:window-width="1352"
   inkscape:window-height="821"
   inkscape:window-x="0"
   inkscape:window-y="123"
   inkscape:window-maximized="0"
   inkscape:current-layer="Layer_1" />
<path
   d="m 3.74,14.44 c 0,-1.52 0.3,-2.98 0.89,-4.37 0.59,-1.39 1.4,-2.58 2.4,-3.59 1,-1.01 2.2,-1.81 3.59,-2.4 1.39,-0.59 2.84,-0.89 4.37,-0.89 1.53,0 2.98,0.3 4.37,0.89 1.39,0.59 2.59,1.4 3.6,2.4 1.01,1 1.81,2.2 2.4,3.59 0.59,1.39 0.89,2.84 0.89,4.37 0,1.53 -0.3,2.98 -0.89,4.37 -0.59,1.39 -1.4,2.59 -2.4,3.6 -1,1.01 -2.2,1.81 -3.6,2.4 -1.4,0.59 -2.85,0.89 -4.37,0.89 -1.52,0 -2.98,-0.3 -4.37,-0.89 -1.39,-0.59 -2.58,-1.4 -3.59,-2.4 -1.01,-1 -1.81,-2.2 -2.4,-3.6 C 4.04,17.41 3.74,15.97 3.74,14.44 Z M 14.8,24.51 h 0.19 c 1.37,0 2.67,-0.27 3.91,-0.8 1.24,-0.53 2.31,-1.25 3.21,-2.15 0.9,-0.9 1.61,-1.97 2.15,-3.21 0.54,-1.24 0.8,-2.54 0.8,-3.91 0,-1.36 -0.27,-2.66 -0.8,-3.9 C 23.73,9.3 23.01,8.23 22.11,7.33 21.21,6.43 20.14,5.72 18.9,5.18 17.66,4.64 16.36,4.38 14.99,4.38 H 14.8 Z"
   id="moon" />
</svg>
