<?xml version="1.0" encoding="UTF-8" standalone="no"?>
<!-- Generator: Adobe Illustrator 22.0.1, SVG Export Plug-In . SVG Version: 6.00 Build 0)  -->

<svg
   version="1.1"
   id="Layer_1"
   x="0px"
   y="0px"
   viewBox="0 0 30 30"
   style="enable-background:new 0 0 30 30;"
   xml:space="preserve"
   sodipodi:docname="wi-moonset.svg"
   inkscape:version="1.4.3 (0d15f75, 2025-12-25)"
   xmlns:inkscape="http://www.inkscape.org/namespaces/inkscape"
   xmlns:sodipodi="http://sodipodi.sourceforge.net/DTD/sodipodi-0.dtd"
   xmlns="http://www.w3.org/2000/svg"
   xmlns:svg="http://www.w3.org/2000/svg"><defs
   id="defs1" /><sodipodi:namedview
   id="namedview1"
   pagecolor="#ffffff"
   bordercolor="#000000"
   borderopacity="0.25"
   inkscape:showpageshadow="2"
   inkscape:pageopacity="0.0"
   inkscape:pagecheckerboard="0"
   inkscape:deskcolor="#d1d1d1"
   inkscape:zoom="23.133333"
   inkscape:cx="14.978386"
   inkscape:cy="15"
   inkscape:window-width="2560"
   inkscape:window-height="1387"
   inkscape:window-x="1352"
   inkscape:window-y="25"
   inkscape:window-maximized="0"
   inkscape:current-layer="Layer_1" />
<path
   d="m 7.99,20.89 c 0,-0.26 0.1,-0.49 0.3,-0.69 0.18,-0.18 0.41,-0.27 0.68,-0.27 h 3.22 c 0.11,0 0.2,0.02 0.28,0.08 l 2.35,2.22 2.39,-2.23 c 0.07,-0.05 0.17,-0.08 0.29,-0.08 h 3.3 c 0.27,0 0.5,0.09 0.69,0.28 0.19,0.19 0.29,0.42 0.29,0.68 0,0.27 -0.1,0.5 -0.29,0.69 -0.19,0.19 -0.42,0.29 -0.69,0.29 h -2.68 l -3.13,2.84 c -0.12,0.09 -0.24,0.09 -0.34,0 L 11.57,21.86 H 8.97 C 8.7,21.86 8.47,21.76 8.28,21.57 8.09,21.39 7.99,21.16 7.99,20.89 Z"
   id="horizon" /><path
   d="m 7.74,14.86 c 0,-0.98 0.19,-1.92 0.58,-2.82 0.38,-0.9 0.9,-1.67 1.55,-2.32 0.65,-0.65 1.43,-1.17 2.32,-1.56 0.9,-0.39 1.84,-0.58 2.83,-0.58 h 1.17 c 0.16,0.04 0.24,0.14 0.24,0.28 l 0.05,0.9 c 0.02,0.64 0.15,1.25 0.4,1.83 0.25,0.58 0.58,1.08 1,1.5 0.42,0.43 0.91,0.77 1.48,1.03 0.57,0.26 1.17,0.4 1.8,0.43 l 0.85,0.07 c 0.16,0 0.24,0.08 0.24,0.23 v 1.01 c 0.01,1.01 -0.19,1.98 -0.59,2.92 h -2.05 c 0.51,-0.74 0.83,-1.59 0.97,-2.53 C 18.9,14.9 17.56,14.18 16.55,13.09 15.54,12 14.96,10.72 14.8,9.26 c -0.97,0.05 -1.85,0.35 -2.66,0.9 -0.8,0.55 -1.42,1.24 -1.87,2.08 -0.44,0.84 -0.66,1.72 -0.66,2.63 0,1.07 0.28,2.04 0.83,2.92 h -2.1 c -0.4,-0.94 -0.6,-1.91 -0.6,-2.93 z"
   id="moon" />
</svg>
