<?xml version="1.0" encoding="UTF-8" standalone="no"?>
<!-- Generator: Adobe Illustrator 22.0.1, SVG Export Plug-In . SVG Version: 6.00 Build 0)  -->

<svg
   version="1.1"
   id="Layer_1"
   x="0px"
   y="0px"
   viewBox="0 0 30 30"
   style="enable-background:new 0 0 30 30;"
   xml:space="preserve"
   sodipodi:docname="wi-moon-waning-crescent-6.svg"
   inkscape:version="1.4.3 (0d15f75, 2025-12-25)"
   xmlns:inkscape="http://www.inkscape.org/namespaces/inkscape"
   xmlns:sodipodi="http://sodipodi.sourceforge.net/DTD/sodipodi-0.dtd"
   xmlns="http://www.w3.org/2000/svg"
   xmlns:svg="http://www.w3.org/2000/svg"><defs
   id="defs1" /><sodipodi:namedview
   id="namedview1"
   pagecolor="#ffffff"
   bordercolor="#000000"
   borderopacity="0.25"
   inkscape:showpageshadow="2"
   inkscape:pageopacity="0.0"
   inkscape:pagecheckerboard="0"
   inkscape:deskcolor="#d1d1d1"
   inkscape:zoom="23.133333"
   inkscape:cx="15.021614"
   inkscape:cy="15"
   inkscape:window-width="1024"
   inkscape:window-height="821"
   inkscape:window-x="0"
   inkscape:window-y="123"
   inkscape:window-maximized="0"
   inkscape:current-layer="Layer_1" />
<path
   d="M3.74,14.44c0,2.04,0.5,3.93,1.51,5.65s2.37,3.1,4.09,4.1s3.61,1.51,5.65,1.51c-1.46-0.56-2.72-1.18-3.79-1.88  s-1.93-1.39-2.57-2.1s-1.15-1.49-1.53-2.34s-0.64-1.66-0.77-2.42s-0.2-1.6-0.2-2.52c0-0.65,0.03-1.26,0.08-1.81s0.16-1.14,0.32-1.77  s0.38-1.21,0.64-1.75s0.63-1.09,1.08-1.66s0.98-1.1,1.59-1.57s1.34-0.95,2.21-1.42s1.85-0.89,2.93-1.27c-2.04,0-3.92,0.5-5.65,1.51  S6.26,7.07,5.25,8.8S3.74,12.4,3.74,14.44z"
   id="moon" />
</svg>
