<?xml version="1.0" encoding="UTF-8" standalone="no"?>
<!-- Generator: Adobe Illustrator 22.0.1, SVG Export Plug-In . SVG Version: 6.00 Build 0)  -->

<svg
   version="1.1"
   id="Layer_1"
   x="0px"
   y="0px"
   viewBox="0 0 30 30"
   style="enable-background:new 0 0 30 30;"
   xml:space="preserve"
   sodipodi:docname="wi-moonrise.svg"
   inkscape:version="1.4.3 (0d15f75, 2025-12-25)"
   xmlns:inkscape="http://www.inkscape.org/namespaces/inkscape"
   xmlns:sodipodi="http://sodipodi.sourceforge.net/DTD/sodipodi-0.dtd"
   xmlns="http://www.w3.org/2000/svg"
   xmlns:svg="http://www.w3.org/2000/svg"><defs
   id="defs1" /><sodipodi:namedview
   id="namedview1"
   pagecolor="#ffffff"
   bordercolor="#000000"
   borderopacity="0.25"
   inkscape:showpageshadow="2"
   inkscape:pageopacity="0.0"
   inkscape:pagecheckerboard="0"
   inkscape:deskcolor="#d1d1d1"
   inkscape:zoom="23.133333"
   inkscape:cx="14.978386"
   inkscape:cy="15"
   inkscape:window-width="2560"
   inkscape:window-height="1387"
   inkscape:window-x="1352"
   inkscape:window-y="25"
   inkscape:window-maximized="0"
   inkscape:current-layer="Layer_1" />
<path
   d="m 8.09,20.87 c 0,-0.29 0.09,-0.52 0.28,-0.68 0.18,-0.18 0.41,-0.26 0.69,-0.26 h 2.63 L 14.8,17 c 0.1,-0.08 0.22,-0.08 0.35,0 l 3.16,2.92 h 2.77 c 0.27,0 0.5,0.09 0.69,0.28 0.19,0.18 0.29,0.41 0.29,0.67 0,0.27 -0.1,0.5 -0.29,0.69 -0.19,0.19 -0.42,0.29 -0.69,0.29 H 17.7 c -0.1,0 -0.2,-0.02 -0.29,-0.07 L 15,19.51 12.61,21.78 c -0.08,0.05 -0.17,0.07 -0.28,0.07 H 9.06 c -0.27,0 -0.5,-0.1 -0.69,-0.29 C 8.18,21.37 8.09,21.14 8.09,20.87 Z"
   id="horizon" /><path
   d="m 7.8,14.86 c 0,-0.98 0.19,-1.92 0.58,-2.82 0.38,-0.9 0.9,-1.67 1.55,-2.32 0.65,-0.65 1.43,-1.17 2.32,-1.56 0.89,-0.39 1.84,-0.58 2.83,-0.58 h 1.17 c 0.16,0.04 0.24,0.14 0.24,0.28 l 0.04,0.9 c 0.04,1.3 0.51,2.41 1.41,3.33 0.9,0.92 2,1.41 3.28,1.46 l 0.85,0.07 c 0.16,0 0.23,0.08 0.23,0.23 v 1.01 c 0.01,1.03 -0.19,2 -0.58,2.92 H 19.67 C 20.18,17.04 20.5,16.19 20.64,15.25 18.97,14.9 17.62,14.18 16.61,13.09 15.6,12 15.02,10.72 14.86,9.26 c -0.97,0.05 -1.85,0.35 -2.66,0.9 -0.8,0.55 -1.43,1.24 -1.87,2.08 -0.44,0.84 -0.66,1.72 -0.66,2.63 0,1.07 0.28,2.04 0.83,2.92 H 8.4 C 8,16.85 7.8,15.88 7.8,14.86 Z"
   id="moon" />
</svg>
