<?xml version="1.0" encoding="UTF-8" standalone="no"?>
<!-- Generator: Adobe Illustrator 22.0.1, SVG Export Plug-In . SVG Version: 6.00 Build 0)  -->

<svg
   version="1.1"
   id="Layer_1"
   x="0px"
   y="0px"
   viewBox="0 0 30 30"
   style="enable-background:new 0 0 30 30;"
   xml:space="preserve"
   sodipodi:docname="wi-moon-alt-waxing-crescent-6.svg"
   inkscape:version="1.4.3 (0d15f75, 2025-12-25)"
   xmlns:inkscape="http://www.inkscape.org/namespaces/inkscape"
   xmlns:sodipodi="http://sodipodi.sourceforge.net/DTD/sodipodi-0.dtd"
   xmlns="http://www.w3.org/2000/svg"
   xmlns:svg="http://www.w3.org/2000/svg"><defs
   id="defs1" /><sodipodi:namedview
   id="namedview1"
   pagecolor="#ffffff"
   bordercolor="#000000"
   borderopacity="0.25"
   inkscape:showpageshadow="2"
   inkscape:pageopacity="0.0"
   inkscape:pagecheckerboard="0"
   inkscape:deskcolor="#d1d1d1"
   inkscape:zoom="23.133333"
   inkscape:cx="15.021614"
   inkscape:cy="15"
   inkscape:window-width="1024"
   inkscape:window-height="821"
   inkscape:window-x="0"
   inkscape:window-y="123"
   inkscape:window-maximized="0"
   inkscape:current-layer="Layer_1" />
<path
   d="M3.74,14.44c0-1.52,0.3-2.98,0.89-4.37s1.4-2.58,2.4-3.59s2.2-1.81,3.59-2.4s2.84-0.89,4.37-0.89s2.98,0.3,4.37,0.89  s2.59,1.4,3.6,2.4s1.81,2.2,2.4,3.59s0.89,2.84,0.89,4.37s-0.3,2.98-0.89,4.37s-1.4,2.59-2.4,3.6s-2.2,1.81-3.6,2.4  s-2.85,0.89-4.37,0.89s-2.98-0.3-4.37-0.89s-2.58-1.4-3.59-2.4s-1.81-2.2-2.4-3.6S3.74,15.97,3.74,14.44z M15.01,4.39  c1.23,3.54,1.85,6.89,1.85,10.05c0,3.93-0.59,7.28-1.77,10.06c1.35-0.01,2.64-0.28,3.87-0.81s2.3-1.25,3.19-2.15s1.6-1.97,2.12-3.21  s0.79-2.54,0.79-3.9s-0.27-2.66-0.8-3.9s-1.25-2.31-2.15-3.21s-1.97-1.61-3.21-2.15S16.36,4.39,15.01,4.39z"
   id="moon" />
</svg>
