<?xml version="1.0" encoding="UTF-8" standalone="no"?>
<!-- Generator: Adobe Illustrator 22.0.1, SVG Export Plug-In . SVG Version: 6.00 Build 0)  -->

<svg
   version="1.1"
   id="Layer_1"
   x="0px"
   y="0px"
   viewBox="0 0 30 30"
   style="enable-background:new 0 0 30 30;"
   xml:space="preserve"
   sodipodi:docname="wi-night-snow-wind.svg"
   inkscape:version="1.4.3 (0d15f75, 2025-12-25)"
   xmlns:inkscape="http://www.inkscape.org/namespaces/inkscape"
   xmlns:sodipodi="http://sodipodi.sourceforge.net/DTD/sodipodi-0.dtd"
   xmlns="http://www.w3.org/2000/svg"
   xmlns:svg="http://www.w3.org/2000/svg"><defs
   id="defs1" /><sodipodi:namedview
   id="namedview1"
   pagecolor="#ffffff"
   bordercolor="#000000"
   borderopacity="0.25"
   inkscape:showpageshadow="2"
   inkscape:pageopacity="0.0"
   inkscape:pagecheckerboard="0"
   inkscape:deskcolor="#d1d1d1"
   inkscape:zoom="23.133333"
   inkscape:cx="15"
   inkscape:cy="15"
   inkscape:window-width="2560"
   inkscape:window-height="1387"
   inkscape:window-x="1352"
   inkscape:window-y="25"
   inkscape:window-maximized="0"
   inkscape:current-layer="Layer_1" />
<path
   id="snow"
   d="m 9.72,24.61 c 0,0.21 0.08,0.4 0.24,0.57 0.18,0.16 0.37,0.24 0.58,0.24 0.24,0 0.43,-0.08 0.59,-0.23 0.16,-0.16 0.23,-0.35 0.23,-0.58 0,-0.24 -0.08,-0.43 -0.24,-0.59 -0.16,-0.16 -0.35,-0.23 -0.59,-0.23 -0.23,0 -0.43,0.08 -0.59,0.23 -0.14,0.15 -0.22,0.35 -0.22,0.59 z m 0.86,-3.63 c 0,0.24 0.08,0.44 0.24,0.61 0.16,0.17 0.35,0.25 0.59,0.25 0.23,0 0.43,-0.08 0.59,-0.25 0.16,-0.17 0.24,-0.37 0.24,-0.61 0,-0.23 -0.08,-0.42 -0.24,-0.58 -0.16,-0.16 -0.35,-0.24 -0.59,-0.24 -0.23,0 -0.43,0.08 -0.59,0.24 -0.16,0.16 -0.24,0.36 -0.24,0.58 z m 1.89,5.58 c 0,0.22 0.08,0.41 0.24,0.57 0.17,0.17 0.36,0.25 0.58,0.25 0.24,0 0.44,-0.08 0.6,-0.23 0.17,-0.16 0.25,-0.35 0.25,-0.59 0,-0.24 -0.08,-0.44 -0.25,-0.6 -0.17,-0.17 -0.37,-0.25 -0.6,-0.25 -0.22,0 -0.41,0.08 -0.58,0.25 -0.15,0.17 -0.24,0.37 -0.24,0.6 z m 0.86,-3.66 c 0,0.22 0.08,0.42 0.25,0.6 0.16,0.16 0.35,0.24 0.57,0.24 0.24,0 0.44,-0.08 0.61,-0.24 0.17,-0.16 0.25,-0.36 0.25,-0.6 0,-0.23 -0.08,-0.43 -0.25,-0.6 -0.17,-0.17 -0.37,-0.25 -0.61,-0.25 -0.23,0 -0.42,0.08 -0.58,0.25 -0.16,0.17 -0.24,0.37 -0.24,0.6 z m 0.43,-3.6 c 0,0.23 0.08,0.42 0.24,0.58 0.16,0.16 0.36,0.24 0.58,0.24 0.24,0 0.44,-0.08 0.6,-0.24 0.17,-0.16 0.25,-0.35 0.25,-0.59 0,-0.23 -0.08,-0.43 -0.25,-0.59 -0.17,-0.16 -0.37,-0.24 -0.6,-0.24 -0.22,0 -0.42,0.08 -0.58,0.24 -0.16,0.16 -0.24,0.37 -0.24,0.6 z m 2.37,5.31 c 0,0.21 0.08,0.4 0.23,0.57 0.17,0.16 0.38,0.24 0.6,0.24 0.24,0 0.43,-0.08 0.59,-0.23 0.16,-0.16 0.23,-0.35 0.23,-0.58 0,-0.24 -0.08,-0.43 -0.23,-0.59 -0.16,-0.16 -0.35,-0.23 -0.59,-0.23 -0.24,0 -0.44,0.08 -0.6,0.24 -0.15,0.15 -0.23,0.35 -0.23,0.58 z m 0.85,-3.63 c 0,0.24 0.08,0.44 0.24,0.61 0.16,0.17 0.36,0.25 0.59,0.25 0.23,0 0.43,-0.08 0.59,-0.25 0.16,-0.17 0.24,-0.37 0.24,-0.61 0,-0.23 -0.08,-0.42 -0.24,-0.58 -0.16,-0.16 -0.35,-0.24 -0.59,-0.24 -0.23,0 -0.43,0.08 -0.59,0.24 -0.16,0.16 -0.24,0.36 -0.24,0.58 z"
   inkscape:label="snow" /><path
   d="M 23.53,13.41 C 22.57,12.45 21.4,11.97 20.03,11.97 H 19.72 C 19.44,10.8 18.87,9.82 18.03,9.02 L 16.64,8.03 C 15.83,7.6 14.93,7.38 13.93,7.38 c -1.41,0 -2.67,0.44 -3.76,1.32 -1.09,0.88 -1.8,2 -2.11,3.36 -1.11,0.26 -2.02,0.84 -2.74,1.74 -0.73,0.91 -1.09,1.94 -1.09,3.09 0,1.33 0.47,2.48 1.4,3.44 0.93,0.96 2.07,1.47 3.4,1.53 0.12,0 0.18,-0.06 0.18,-0.17 v -1.34 c 0,-0.11 -0.06,-0.17 -0.18,-0.17 -0.86,-0.05 -1.59,-0.39 -2.19,-1.03 -0.6,-0.64 -0.9,-1.39 -0.9,-2.26 0,-0.83 0.28,-1.55 0.85,-2.17 0.57,-0.61 1.27,-0.97 2.1,-1.07 l 0.53,-0.04 c 0.13,0 0.2,-0.06 0.2,-0.18 l 0.07,-0.54 c 0.11,-1.08 0.56,-1.99 1.37,-2.72 0.81,-0.73 1.76,-1.1 2.85,-1.1 1.09,0 2.04,0.37 2.86,1.1 0.82,0.73 1.28,1.64 1.4,2.72 l 0.08,0.57 c 0,0.12 0.06,0.19 0.17,0.19 h 1.62 c 0.91,0 1.68,0.32 2.33,0.95 0.64,0.63 0.97,1.4 0.97,2.28 0,0.86 -0.3,1.61 -0.91,2.25 -0.61,0.64 -1.34,0.99 -2.19,1.04 -0.12,0 -0.19,0.06 -0.19,0.17 v 1.34 c 0,0.11 0.06,0.17 0.19,0.17 1.34,-0.04 2.47,-0.55 3.4,-1.51 0.93,-0.97 1.39,-2.12 1.39,-3.45 0,-0.71 -0.14,-1.38 -0.43,-2.01 z"
   id="cloud"
   inkscape:label="cloud"
   sodipodi:nodetypes="cscccssccsscsscsscccccsssccsscsscssccscc"
   style="display:inline" />
<path
   d="m 24.6,14.88 c 0.79,-0.96 1.18,-2.07 1.18,-3.32 0,-0.95 -0.24,-1.83 -0.71,-2.64 C 24.6,8.11 23.96,7.47 23.15,7 22.34,6.53 21.47,6.3 20.53,6.3 c -1.55,0 -2.85,0.58 -3.89,1.73 l 1.39,0.99 c 0.68,-0.68 1.5,-1.01 2.48,-1.01 0.98,0 1.81,0.35 2.5,1.04 0.69,0.69 1.03,1.53 1.03,2.52 0,0.59 -0.17,1.2 -0.51,1.84 z"
   id="moon"
   inkscape:label="moon"
   style="display:inline"
   sodipodi:nodetypes="cssssccssscc" /></svg>
