<?xml version="1.0" encoding="UTF-8" standalone="no"?>
<!-- Generator: Adobe Illustrator 22.0.1, SVG Export Plug-In . SVG Version: 6.00 Build 0)  -->

<svg
   version="1.1"
   id="Layer_1"
   x="0px"
   y="0px"
   viewBox="0 0 30 30"
   style="enable-background:new 0 0 30 30;"
   xml:space="preserve"
   sodipodi:docname="wi-night-fog.svg"
   inkscape:version="1.4.3 (0d15f75, 2025-12-25)"
   xmlns:inkscape="http://www.inkscape.org/namespaces/inkscape"
   xmlns:sodipodi="http://sodipodi.sourceforge.net/DTD/sodipodi-0.dtd"
   xmlns="http://www.w3.org/2000/svg"
   xmlns:svg="http://www.w3.org/2000/svg"><defs
   id="defs1" /><sodipodi:namedview
   id="namedview1"
   pagecolor="#ffffff"
   bordercolor="#000000"
   borderopacity="0.25"
   inkscape:showpageshadow="2"
   inkscape:pageopacity="0.0"
   inkscape:pagecheckerboard="0"
   inkscape:deskcolor="#d1d1d1"
   inkscape:zoom="23.133333"
   inkscape:cx="15"
   inkscape:cy="15"
   inkscape:window-width="2560"
   inkscape:window-height="1387"
   inkscape:window-x="1352"
   inkscape:window-y="25"
   inkscape:window-maximized="0"
   inkscape:current-layer="Layer_1" />
<path
   d="M 23.96,13.01 C 23.04,12.25 21.99,11.88 20.82,11.88 H 20.5 C 20.18,10.57 19.52,9.51 18.51,8.7 L 17.05,7.8 C 16.26,7.49 15.49,7.34 14.76,7.34 13.37,7.34 12.14,7.78 11.05,8.65 9.96,9.52 9.27,10.64 8.95,12 8.11,12.2 7.37,12.6 6.73,13.21 6.09,13.82 5.67,14.55 5.42,15.39 v -0.05 c -0.04,0.15 0,0.22 0.12,0.22 h 1.44 c 0.06,0 0.12,-0.05 0.19,-0.15 0.24,-0.52 0.59,-0.94 1.06,-1.27 0.47,-0.33 0.99,-0.52 1.55,-0.56 l 0.53,-0.08 c 0.12,0 0.19,-0.06 0.19,-0.18 l 0.06,-0.5 c 0.11,-1.08 0.56,-1.97 1.36,-2.7 0.8,-0.72 1.75,-1.08 2.84,-1.08 1.07,0 2.02,0.36 2.82,1.07 0.8,0.71 1.27,1.6 1.38,2.67 l 0.07,0.57 c 0,0.12 0.07,0.18 0.21,0.18 h 1.58 c 0.64,0 1.23,0.17 1.75,0.52 0.52,0.34 0.92,0.8 1.17,1.36 0.07,0.1 0.14,0.15 0.22,0.15 h 1.42 c 0.12,0 0.17,-0.07 0.15,-0.22 -0.22,-0.56 -0.37,-0.91 -0.46,-1.06 z"
   id="cloud"
   inkscape:label="cloud"
   sodipodi:nodetypes="cscccsscsccsscscccccssccssccssccc"
   style="display:inline" /><path
   id="fog"
   d="m 2.66,20.92 c 0,0.23 0.08,0.42 0.25,0.57 0.17,0.16 0.38,0.23 0.62,0.23 h 18.61 c 0.24,0 0.44,-0.08 0.6,-0.23 0.17,-0.16 0.25,-0.35 0.25,-0.57 0,-0.24 -0.08,-0.45 -0.24,-0.61 -0.16,-0.17 -0.37,-0.25 -0.61,-0.25 H 3.53 c -0.24,0 -0.44,0.08 -0.61,0.25 -0.17,0.17 -0.26,0.38 -0.26,0.61 z m 2.61,-3.11 c 0,0.24 0.09,0.43 0.26,0.59 0.14,0.18 0.33,0.27 0.59,0.27 h 18.61 c 0.23,0 0.42,-0.08 0.58,-0.25 0.16,-0.17 0.23,-0.37 0.23,-0.61 0,-0.23 -0.08,-0.43 -0.23,-0.58 C 25.16,17.08 24.96,17 24.73,17 H 6.12 c -0.24,0 -0.44,0.08 -0.6,0.23 -0.17,0.16 -0.25,0.35 -0.25,0.58 z M 7,23.97 c 0,0.24 0.09,0.43 0.26,0.59 0.17,0.18 0.37,0.27 0.59,0.27 H 26.5 c 0.23,0 0.43,-0.08 0.59,-0.25 0.16,-0.17 0.24,-0.37 0.24,-0.61 0,-0.23 -0.08,-0.42 -0.24,-0.58 -0.16,-0.16 -0.36,-0.23 -0.59,-0.23 H 7.86 c -0.24,0 -0.44,0.08 -0.6,0.23 C 7.09,23.55 7,23.74 7,23.97 Z"
   inkscape:label="fog" />
<path
   d="m 25.07,14.28 c 0.72,-0.65 1.23,-1.51 1.5,-2.57 l 0.17,-0.66 c 0.03,-0.06 0.02,-0.12 -0.01,-0.16 -0.03,-0.04 -0.07,-0.07 -0.12,-0.07 L 25.99,10.6 C 25.1,10.34 24.42,9.82 23.95,9.02 23.48,8.22 23.36,7.37 23.58,6.46 L 23.71,5.88 C 23.76,5.79 23.72,5.71 23.58,5.65 L 22.74,5.42 C 21.65,5.15 20.57,5.24 19.52,5.68 18.47,6.12 17.65,6.83 17.05,7.8 l 1.46,0.9 c 0.35,-0.57 0.82,-1.02 1.41,-1.33 0.59,-0.31 1.21,-0.44 1.87,-0.38 -0.07,1.04 0.17,2.02 0.7,2.93 0.54,0.91 1.28,1.58 2.22,2.02 -0.15,0.35 -0.4,0.71 -0.75,1.07 z"
   id="moon"
   inkscape:label="moon"
   style="display:inline"
   sodipodi:nodetypes="cccsccsccccsccsccccc" /></svg>
