<?xml version="1.0" encoding="UTF-8" standalone="no"?>
<!-- Generator: Adobe Illustrator 22.0.1, SVG Export Plug-In . SVG Version: 6.00 Build 0)  -->

<svg
   version="1.1"
   id="Layer_1"
   x="0px"
   y="0px"
   viewBox="0 0 30 30"
   style="enable-background:new 0 0 30 30;"
   xml:space="preserve"
   sodipodi:docname="wi-night-alt-sprinkle.svg"
   inkscape:version="1.4.3 (0d15f75, 2025-12-25)"
   xmlns:inkscape="http://www.inkscape.org/namespaces/inkscape"
   xmlns:sodipodi="http://sodipodi.sourceforge.net/DTD/sodipodi-0.dtd"
   xmlns="http://www.w3.org/2000/svg"
   xmlns:svg="http://www.w3.org/2000/svg"><defs
   id="defs1" /><sodipodi:namedview
   id="namedview1"
   pagecolor="#ffffff"
   bordercolor="#000000"
   borderopacity="0.25"
   inkscape:showpageshadow="2"
   inkscape:pageopacity="0.0"
   inkscape:pagecheckerboard="0"
   inkscape:deskcolor="#d1d1d1"
   inkscape:zoom="23.133333"
   inkscape:cx="15"
   inkscape:cy="15"
   inkscape:window-width="2560"
   inkscape:window-height="1387"
   inkscape:window-x="1352"
   inkscape:window-y="25"
   inkscape:window-maximized="0"
   inkscape:current-layer="Layer_1" />
<path
   id="rain"
   d="m 10.05,17.77 c 0,0.38 0.14,0.71 0.42,0.98 0.28,0.27 0.62,0.4 1.02,0.4 0.4,0 0.73,-0.13 1,-0.4 0.27,-0.27 0.4,-0.59 0.4,-0.98 0,-0.26 -0.12,-0.6 -0.35,-1.02 C 12.31,16.33 12.09,16 11.89,15.77 11.78,15.65 11.65,15.51 11.48,15.34 l -0.35,0.41 c -0.27,0.29 -0.52,0.64 -0.75,1.04 -0.23,0.4 -0.33,0.72 -0.33,0.98 z m 2.99,3.99 c 0,0.66 0.23,1.21 0.68,1.66 0.46,0.45 1.01,0.67 1.65,0.67 0.66,0 1.21,-0.23 1.66,-0.68 0.45,-0.46 0.68,-1.01 0.68,-1.65 0,-0.55 -0.27,-1.22 -0.8,-2 -0.44,-0.58 -0.87,-1.08 -1.28,-1.49 -0.08,-0.06 -0.17,-0.13 -0.26,-0.23 l -0.23,0.23 c -0.39,0.36 -0.82,0.86 -1.28,1.48 -0.24,0.33 -0.43,0.68 -0.59,1.04 -0.16,0.37 -0.23,0.69 -0.23,0.97 z m 1.47,-6.67 c 0,0.26 0.1,0.47 0.29,0.66 0.19,0.19 0.42,0.27 0.7,0.27 0.26,0 0.47,-0.09 0.66,-0.27 0.18,-0.18 0.27,-0.4 0.27,-0.66 0,-0.43 -0.31,-0.97 -0.93,-1.62 l -0.25,0.27 c -0.18,0.2 -0.35,0.43 -0.5,0.7 -0.17,0.27 -0.24,0.49 -0.24,0.65 z"
   inkscape:label="rain" /><path
   d="m 24.18,14.45 c 0.78,-0.74 1.29,-1.6 1.54,-2.58 l 0.14,-0.73 c 0.01,-0.01 0.02,-0.03 0.02,-0.07 0,-0.07 -0.05,-0.13 -0.16,-0.16 L 25.15,10.74 C 24.58,10.58 24.09,10.3 23.69,9.92 23.28,9.54 22.99,9.13 22.82,8.71 22.65,8.28 22.56,7.86 22.56,7.43 22.56,7.14 22.6,6.86 22.67,6.58 L 22.8,5.97 C 22.82,5.87 22.78,5.79 22.67,5.74 L 21.87,5.5 C 21.42,5.4 21,5.35 20.6,5.35 c -0.36,0 -0.73,0.04 -1.12,0.13 -0.38,0.09 -0.78,0.22 -1.19,0.4 -0.41,0.18 -0.81,0.44 -1.2,0.79 -0.39,0.35 -0.72,0.74 -1,1.2 l 1.47,0.9 c 0.35,-0.57 0.8,-1 1.34,-1.29 0.54,-0.29 1.12,-0.44 1.72,-0.44 0.12,0 0.21,0.01 0.27,0.02 v 0.3 c 0,0.96 0.26,1.87 0.79,2.74 0.53,0.87 1.25,1.52 2.18,1.97 -0.16,0.38 -0.41,0.72 -0.75,1.03 z"
   id="moon"
   inkscape:label="moon"
   sodipodi:nodetypes="cccsccccsccccscssccsscssccc"
   style="display:inline" />
<path
   d="M 16.09,7.87 C 15.28,7.56 14.5,7.41 13.76,7.41 c -1.41,0 -2.67,0.44 -3.76,1.32 -1.09,0.88 -1.8,2 -2.11,3.36 -1.11,0.26 -2.02,0.84 -2.73,1.74 -0.69,0.88 -1.05,1.91 -1.05,3.06 0,1.33 0.46,2.48 1.39,3.43 0.93,0.96 2.06,1.47 3.4,1.54 0.12,0 0.18,-0.06 0.18,-0.18 V 20.35 C 9.08,20.23 9.02,20.17 8.9,20.17 8.04,20.13 7.32,19.79 6.72,19.15 c -0.6,-0.64 -0.9,-1.39 -0.9,-2.26 0,-0.83 0.28,-1.55 0.84,-2.17 0.56,-0.61 1.26,-0.97 2.1,-1.07 l 0.52,-0.04 c 0.13,0 0.2,-0.06 0.2,-0.18 l 0.07,-0.54 c 0.11,-1.08 0.56,-1.99 1.37,-2.71 0.81,-0.73 1.76,-1.09 2.85,-1.09 1.09,0 2.04,0.37 2.86,1.1 0.82,0.73 1.28,1.63 1.4,2.71 l 0.07,0.57 c 0,0.12 0.06,0.19 0.18,0.19 h 1.62 c 0.89,0 1.65,0.32 2.3,0.96 0.65,0.64 0.97,1.4 0.97,2.27 0,0.87 -0.3,1.62 -0.9,2.26 -0.6,0.64 -1.33,0.98 -2.18,1.02 -0.12,0 -0.19,0.06 -0.19,0.18 v 1.33 c 0,0.12 0.06,0.18 0.19,0.18 0.88,-0.03 1.68,-0.27 2.41,-0.72 0.73,-0.45 1.31,-1.05 1.73,-1.8 0.42,-0.75 0.63,-1.57 0.63,-2.44 0,-0.87 -0.23,-1.68 -0.68,-2.45 L 23.11,13.1 C 22.18,12.34 21.12,11.96 19.9,11.96 H 19.57 C 19.27,10.65 18.6,9.59 17.56,8.77 Z"
   id="cloud"
   inkscape:label="cloud"
   style="display:inline"
   sodipodi:nodetypes="cssccsccsscssccccccssccssssscsscsssccsccc" /></svg>
