<?xml version="1.0" encoding="UTF-8" standalone="no"?>
<!-- Generator: Adobe Illustrator 22.0.1, SVG Export Plug-In . SVG Version: 6.00 Build 0)  -->

<svg
   version="1.1"
   id="Layer_1"
   x="0px"
   y="0px"
   viewBox="0 0 30 30"
   style="enable-background:new 0 0 30 30;"
   xml:space="preserve"
   sodipodi:docname="wi-night-alt-sleet.svg"
   inkscape:version="1.4.3 (0d15f75, 2025-12-25)"
   xmlns:inkscape="http://www.inkscape.org/namespaces/inkscape"
   xmlns:sodipodi="http://sodipodi.sourceforge.net/DTD/sodipodi-0.dtd"
   xmlns="http://www.w3.org/2000/svg"
   xmlns:svg="http://www.w3.org/2000/svg"><defs
   id="defs1" /><sodipodi:namedview
   id="namedview1"
   pagecolor="#ffffff"
   bordercolor="#000000"
   borderopacity="0.25"
   inkscape:showpageshadow="2"
   inkscape:pageopacity="0.0"
   inkscape:pagecheckerboard="0"
   inkscape:deskcolor="#d1d1d1"
   inkscape:zoom="23.133333"
   inkscape:cx="15"
   inkscape:cy="15"
   inkscape:window-width="2560"
   inkscape:window-height="1387"
   inkscape:window-x="1352"
   inkscape:window-y="25"
   inkscape:window-maximized="0"
   inkscape:current-layer="Layer_1" />
<path
   id="rain"
   d="m 9.59,24.1 c 0,-0.03 0.01,-0.07 0.02,-0.13 0.01,-0.06 0.02,-0.09 0.02,-0.12 l 0.09,-0.59 c 0.07,-0.24 0.2,-0.41 0.41,-0.53 0.21,-0.12 0.43,-0.14 0.68,-0.08 0.23,0.07 0.39,0.21 0.51,0.41 0.11,0.21 0.13,0.42 0.07,0.63 l -0.14,0.6 c -0.1,0.43 -0.35,0.65 -0.76,0.65 -0.03,0 -0.08,0 -0.15,-0.01 C 10.27,24.92 10.23,24.92 10.21,24.92 10,24.86 9.85,24.75 9.75,24.59 9.64,24.43 9.59,24.27 9.59,24.1 Z m 0.74,-2.94 c 0,-0.24 0.08,-0.43 0.23,-0.59 0.15,-0.16 0.35,-0.23 0.59,-0.23 0.24,0 0.43,0.08 0.59,0.23 0.16,0.15 0.23,0.35 0.23,0.59 0,0.23 -0.08,0.43 -0.23,0.58 -0.15,0.15 -0.35,0.23 -0.59,0.23 -0.23,0 -0.42,-0.08 -0.57,-0.25 -0.16,-0.15 -0.25,-0.34 -0.25,-0.56 z m 1.64,6 c 0,-0.04 0.01,-0.11 0.04,-0.22 l 0.13,-0.59 c 0.07,-0.23 0.21,-0.4 0.41,-0.51 0.21,-0.12 0.42,-0.14 0.63,-0.07 0.23,0.04 0.41,0.17 0.53,0.37 0.12,0.2 0.15,0.43 0.08,0.68 l -0.13,0.59 c -0.1,0.41 -0.37,0.61 -0.8,0.61 -0.07,0 -0.16,-0.01 -0.24,-0.03 -0.22,-0.06 -0.38,-0.17 -0.49,-0.33 -0.1,-0.17 -0.16,-0.33 -0.16,-0.5 z m 0.79,-2.91 c 0,-0.23 0.08,-0.42 0.23,-0.58 0.16,-0.16 0.35,-0.23 0.59,-0.23 0.24,0 0.43,0.08 0.59,0.23 0.16,0.16 0.23,0.35 0.23,0.58 0,0.24 -0.08,0.43 -0.23,0.59 -0.16,0.16 -0.35,0.23 -0.59,0.23 -0.23,0 -0.42,-0.08 -0.58,-0.24 -0.16,-0.16 -0.24,-0.35 -0.24,-0.58 z m 0.62,-2.27 c 0,-0.09 0.01,-0.18 0.03,-0.27 l 0.23,-0.9 c 0.07,-0.23 0.21,-0.41 0.41,-0.53 0.21,-0.12 0.42,-0.15 0.64,-0.08 0.24,0.07 0.41,0.2 0.53,0.4 0.12,0.2 0.14,0.41 0.07,0.63 l -0.26,0.9 c -0.08,0.28 -0.22,0.46 -0.41,0.56 -0.19,0.1 -0.41,0.12 -0.64,0.06 -0.2,-0.04 -0.35,-0.14 -0.45,-0.3 -0.12,-0.16 -0.16,-0.32 -0.15,-0.47 z m 2.76,2.14 c 0,-0.03 0,-0.08 0.01,-0.13 0.01,-0.05 0.01,-0.09 0.01,-0.11 l 0.09,-0.59 c 0.07,-0.24 0.2,-0.41 0.41,-0.53 0.21,-0.12 0.43,-0.14 0.68,-0.08 0.23,0.07 0.4,0.21 0.51,0.41 0.12,0.21 0.14,0.42 0.07,0.63 l -0.14,0.6 c -0.1,0.44 -0.35,0.66 -0.76,0.66 -0.03,0 -0.08,-0.01 -0.14,-0.02 -0.06,-0.01 -0.11,-0.02 -0.14,-0.02 -0.2,-0.06 -0.35,-0.17 -0.45,-0.33 -0.1,-0.16 -0.15,-0.32 -0.15,-0.49 z m 0.74,-2.94 c 0,-0.24 0.08,-0.43 0.23,-0.59 0.15,-0.16 0.35,-0.23 0.59,-0.23 0.24,0 0.43,0.08 0.59,0.23 0.16,0.16 0.23,0.35 0.23,0.59 0,0.23 -0.08,0.42 -0.23,0.58 -0.16,0.16 -0.35,0.23 -0.59,0.23 -0.24,0 -0.43,-0.08 -0.58,-0.24 -0.15,-0.15 -0.24,-0.34 -0.24,-0.57 z"
   inkscape:label="rain" /><path
   d="m 24.21,14.5 c 0.44,0.76 0.66,1.58 0.66,2.45 0,1.34 -0.46,2.49 -1.39,3.45 -0.93,0.97 -2.06,1.47 -3.39,1.51 -0.12,0 -0.19,-0.06 -0.19,-0.19 v -1.36 c 0,-0.12 0.06,-0.18 0.19,-0.18 0.87,-0.06 1.6,-0.41 2.2,-1.03 0.6,-0.62 0.9,-1.36 0.9,-2.21 0,-0.89 -0.32,-1.66 -0.97,-2.29 C 21.57,14.02 20.8,13.7 19.89,13.7 h -1.62 c -0.11,0 -0.17,-0.06 -0.17,-0.18 l -0.07,-0.58 c -0.11,-1.07 -0.58,-1.98 -1.4,-2.71 -0.82,-0.73 -1.77,-1.1 -2.86,-1.1 -1.09,0 -2.05,0.37 -2.85,1.1 -0.81,0.73 -1.27,1.64 -1.37,2.72 l -0.07,0.52 c 0,0.11 -0.07,0.17 -0.2,0.17 L 8.75,13.71 C 7.91,13.81 7.21,14.17 6.65,14.78 6.08,15.4 5.8,16.12 5.8,16.95 v 0.02 l 0.01,0.01 h 0.02 c 0,0.52 0.12,1.02 0.36,1.48 0.24,0.46 0.56,0.84 0.97,1.14 h 0.01 l 0.01,0.01 0.01,0.01 c 0.22,0.16 0.42,0.27 0.62,0.35 0.34,0.15 0.69,0.23 1.07,0.24 0.11,0 0.17,0.06 0.17,0.17 v 1.34 C 9.05,21.84 8.99,21.9 8.88,21.9 7.95,21.86 7.1,21.58 6.33,21.08 H 6.32 C 5.66,20.65 5.13,20.09 4.73,19.39 4.33,18.69 4.12,17.94 4.09,17.13 V 16.76 C 4.13,15.64 4.51,14.65 5.22,13.79 5.93,12.93 6.83,12.37 7.9,12.12 8.21,10.76 8.92,9.64 10.01,8.76 11.1,7.88 12.36,7.45 13.77,7.45 c 0.74,0 1.53,0.15 2.38,0.46 l 1.44,0.91 c 1.04,0.85 1.7,1.9 1.98,3.16 h 0.33 c 1.23,0 2.3,0.39 3.22,1.18 z"
   id="cloud"
   inkscape:label="cloud"
   sodipodi:nodetypes="csccsscsssssccssccccccscccsccccccsscccsccscsscccscc"
   style="display:inline" />
<path
   d="m 23.12,13.16 c 0.34,-0.31 0.59,-0.65 0.76,-1.04 -0.62,-0.3 -1.15,-0.7 -1.61,-1.21 C 21.82,10.4 21.48,9.85 21.25,9.25 21.02,8.65 20.91,8.03 20.91,7.39 v -0.3 h -0.22 c -0.62,0 -1.21,0.15 -1.77,0.45 -0.56,0.3 -1,0.73 -1.33,1.28 L 16.15,7.91 c 0.28,-0.46 0.61,-0.86 0.99,-1.2 0.38,-0.34 0.77,-0.6 1.18,-0.79 0.41,-0.18 0.8,-0.32 1.19,-0.4 0.38,-0.08 0.76,-0.12 1.13,-0.12 0.39,0 0.8,0.04 1.24,0.13 l 0.8,0.25 c 0.12,0.06 0.17,0.13 0.14,0.23 L 22.7,6.63 c -0.07,0.29 -0.1,0.57 -0.1,0.84 0,0.31 0.05,0.62 0.15,0.95 0.1,0.32 0.24,0.64 0.44,0.95 0.2,0.31 0.46,0.59 0.8,0.85 0.34,0.26 0.72,0.45 1.16,0.58 l 0.62,0.17 c 0.1,0.03 0.15,0.08 0.15,0.16 0,0.04 0,0.06 -0.01,0.07 l -0.19,0.68 c -0.24,1.01 -0.75,1.89 -1.51,2.62 z"
   id="moon"
   inkscape:label="moon"
   style="display:inline"
   sodipodi:nodetypes="cccsscssccsccsccccscssccscccc" /></svg>
