<?xml version="1.0" encoding="UTF-8" standalone="no"?>
<!-- Generator: Adobe Illustrator 22.0.1, SVG Export Plug-In . SVG Version: 6.00 Build 0)  -->

<svg
   version="1.1"
   id="Layer_1"
   x="0px"
   y="0px"
   viewBox="0 0 30 30"
   style="enable-background:new 0 0 30 30;"
   xml:space="preserve"
   sodipodi:docname="wi-night-sleet-storm.svg"
   inkscape:version="1.4.3 (0d15f75, 2025-12-25)"
   xmlns:inkscape="http://www.inkscape.org/namespaces/inkscape"
   xmlns:sodipodi="http://sodipodi.sourceforge.net/DTD/sodipodi-0.dtd"
   xmlns="http://www.w3.org/2000/svg"
   xmlns:svg="http://www.w3.org/2000/svg"><defs
   id="defs1" /><sodipodi:namedview
   id="namedview1"
   pagecolor="#ffffff"
   bordercolor="#000000"
   borderopacity="0.25"
   inkscape:showpageshadow="2"
   inkscape:pageopacity="0.0"
   inkscape:pagecheckerboard="0"
   inkscape:deskcolor="#d1d1d1"
   inkscape:zoom="23.133333"
   inkscape:cx="15"
   inkscape:cy="15"
   inkscape:window-width="2560"
   inkscape:window-height="1387"
   inkscape:window-x="1352"
   inkscape:window-y="25"
   inkscape:window-maximized="0"
   inkscape:current-layer="Layer_1" />
<path
   id="rain"
   d="m 12.07,27.1 c 0,0.17 0.05,0.33 0.16,0.49 0.11,0.16 0.27,0.27 0.49,0.33 0.09,0.02 0.17,0.03 0.24,0.03 0.43,0 0.7,-0.2 0.8,-0.61 l 0.13,-0.59 c 0.06,-0.26 0.03,-0.48 -0.08,-0.68 -0.12,-0.2 -0.29,-0.32 -0.53,-0.37 -0.21,-0.07 -0.42,-0.05 -0.63,0.07 -0.21,0.12 -0.34,0.29 -0.41,0.51 l -0.13,0.59 c -0.03,0.12 -0.04,0.2 -0.04,0.23 z m 0.79,-2.9 c 0,0.23 0.08,0.42 0.24,0.58 0.16,0.16 0.36,0.24 0.58,0.24 0.24,0 0.43,-0.08 0.59,-0.23 0.16,-0.16 0.23,-0.35 0.23,-0.59 0,-0.23 -0.08,-0.42 -0.23,-0.58 -0.16,-0.16 -0.35,-0.23 -0.59,-0.23 -0.24,0 -0.43,0.08 -0.59,0.23 -0.16,0.15 -0.23,0.35 -0.23,0.58 z m 0.62,-2.27 c -0.01,0.15 0.03,0.31 0.14,0.47 0.1,0.16 0.25,0.26 0.45,0.3 0.23,0.06 0.44,0.04 0.64,-0.06 0.2,-0.1 0.33,-0.29 0.41,-0.56 l 0.26,-0.9 c 0.07,-0.22 0.05,-0.43 -0.07,-0.63 -0.12,-0.2 -0.29,-0.33 -0.53,-0.4 -0.22,-0.07 -0.43,-0.04 -0.64,0.08 -0.21,0.12 -0.34,0.3 -0.41,0.53 l -0.22,0.9 c -0.02,0.08 -0.03,0.17 -0.03,0.27 z m 2.76,2.15 c 0,0.17 0.05,0.33 0.15,0.48 0.1,0.15 0.25,0.26 0.46,0.32 0.03,0 0.08,0.01 0.14,0.02 0.06,0.01 0.11,0.02 0.14,0.02 0.41,0 0.66,-0.22 0.76,-0.66 l 0.14,-0.6 c 0.07,-0.21 0.05,-0.42 -0.07,-0.63 -0.12,-0.21 -0.29,-0.34 -0.51,-0.41 -0.25,-0.06 -0.48,-0.04 -0.68,0.08 -0.2,0.12 -0.34,0.29 -0.41,0.53 l -0.09,0.59 c 0,0.01 0,0.05 -0.01,0.11 -0.01,0.07 -0.02,0.11 -0.02,0.15 z m 0.74,-2.96 c 0,0.23 0.08,0.42 0.24,0.57 0.15,0.16 0.34,0.24 0.58,0.24 0.24,0 0.43,-0.08 0.59,-0.23 0.16,-0.16 0.23,-0.35 0.23,-0.58 0,-0.24 -0.08,-0.43 -0.23,-0.59 -0.16,-0.16 -0.35,-0.23 -0.59,-0.23 -0.24,0 -0.43,0.08 -0.59,0.23 -0.16,0.15 -0.23,0.35 -0.23,0.59 z"
   inkscape:label="rain" /><path
   d="m 7.77,21.64 -0.66,1.7 c -0.05,0.14 0,0.22 0.14,0.22 h 2.13 l -1.43,4.21 h 0.29 l 4.36,-5.66 c 0.04,-0.04 0.04,-0.09 0.02,-0.14 C 12.6,21.92 12.55,21.9 12.48,21.9 h -2.19 l 2.49,-4.65 c 0.07,-0.14 0.03,-0.22 -0.14,-0.22 H 9.68 c -0.09,0 -0.17,0.05 -0.23,0.15 l -1.07,2.88 z"
   id="lightning"
   inkscape:label="lightning"
   style="display:inline"
   sodipodi:nodetypes="ccsccccssccssccc" />
<path
   d="M 23.55,13.39 C 22.59,12.43 21.42,11.95 20.03,11.95 H 19.72 C 19.42,10.76 18.85,9.78 18.02,9.02 L 16.59,8 C 15.78,7.57 14.88,7.35 13.87,7.35 c -1.42,0 -2.68,0.44 -3.77,1.32 -1.09,0.88 -1.8,2 -2.1,3.37 -1.11,0.26 -2.02,0.84 -2.74,1.74 -0.71,0.92 -1.07,1.95 -1.07,3.1 0,1.12 0.33,2.12 1,3 0.67,0.88 1.53,1.47 2.58,1.76 L 8.38,20.06 C 7.66,19.88 7.07,19.5 6.6,18.9 6.13,18.31 5.9,17.64 5.9,16.88 5.9,16.04 6.18,15.31 6.74,14.7 7.3,14.09 8,13.73 8.85,13.63 L 9.36,13.6 c 0.12,0 0.19,-0.05 0.22,-0.14 l 0.07,-0.59 c 0.11,-1.08 0.56,-1.99 1.37,-2.72 0.81,-0.73 1.76,-1.1 2.86,-1.1 1.09,0 2.04,0.37 2.86,1.1 0.82,0.73 1.29,1.64 1.4,2.72 l 0.08,0.59 c 0,0.11 0.06,0.17 0.18,0.17 h 1.61 c 0.89,0 1.66,0.32 2.31,0.96 0.65,0.64 0.97,1.4 0.97,2.29 0,0.87 -0.3,1.62 -0.9,2.26 -0.6,0.64 -1.32,0.98 -2.18,1.03 -0.13,0 -0.2,0.06 -0.2,0.18 v 1.34 c 0,0.11 0.07,0.17 0.2,0.17 0.88,-0.02 1.69,-0.26 2.42,-0.72 0.73,-0.45 1.31,-1.06 1.74,-1.81 0.43,-0.75 0.64,-1.57 0.64,-2.45 0,-0.73 -0.14,-1.4 -0.43,-2.02 z"
   id="cloud"
   inkscape:label="cloud"
   style="display:inline"
   sodipodi:nodetypes="cscccssccsscccssccccsssccssssscssccsscc" /><path
   d="m 24.58,14.86 c 0.76,-0.96 1.14,-2.06 1.14,-3.29 0,-0.95 -0.24,-1.83 -0.71,-2.64 C 24.54,8.12 23.9,7.48 23.09,7.01 22.28,6.54 21.4,6.3 20.45,6.3 19.73,6.3 19.03,6.45 18.35,6.75 17.67,7.05 17.09,7.47 16.59,8 l 1.43,1.02 c 0.67,-0.64 1.48,-0.97 2.45,-0.97 0.98,0 1.82,0.34 2.51,1.03 0.69,0.68 1.04,1.52 1.04,2.5 0,0.66 -0.16,1.26 -0.47,1.81 z"
   id="moon"
   inkscape:label="moon"
   sodipodi:nodetypes="csssssccscscc"
   style="display:inline" /></svg>
