<?xml version="1.0" encoding="UTF-8" standalone="no"?>
<!-- Generator: Adobe Illustrator 22.0.1, SVG Export Plug-In . SVG Version: 6.00 Build 0)  -->

<svg
   version="1.1"
   id="Layer_1"
   x="0px"
   y="0px"
   viewBox="0 0 30 30"
   style="enable-background:new 0 0 30 30;"
   xml:space="preserve"
   sodipodi:docname="wi-night-cloudy-windy.svg"
   inkscape:version="1.4.3 (0d15f75, 2025-12-25)"
   xmlns:inkscape="http://www.inkscape.org/namespaces/inkscape"
   xmlns:sodipodi="http://sodipodi.sourceforge.net/DTD/sodipodi-0.dtd"
   xmlns="http://www.w3.org/2000/svg"
   xmlns:svg="http://www.w3.org/2000/svg"><defs
   id="defs1" /><sodipodi:namedview
   id="namedview1"
   pagecolor="#ffffff"
   bordercolor="#000000"
   borderopacity="0.25"
   inkscape:showpageshadow="2"
   inkscape:pageopacity="0.0"
   inkscape:pagecheckerboard="0"
   inkscape:deskcolor="#d1d1d1"
   inkscape:zoom="23.133333"
   inkscape:cx="15"
   inkscape:cy="15"
   inkscape:window-width="2560"
   inkscape:window-height="1387"
   inkscape:window-x="1352"
   inkscape:window-y="25"
   inkscape:window-maximized="0"
   inkscape:current-layer="Layer_1" />
<path
   d="m 25.37,13.37 c -0.98,-0.96 -2.15,-1.43 -3.52,-1.43 h -0.32 c -0.23,-1.1 -0.8,-2.07 -1.7,-2.92 l -1.37,-1 C 17.6,7.6 16.7,7.4 15.74,7.4 c -0.93,0 -1.81,0.2 -2.63,0.59 -0.82,0.39 -1.51,0.95 -2.07,1.66 -0.56,0.71 -0.94,1.52 -1.13,2.43 -0.88,0.2 -1.64,0.6 -2.29,1.2 -0.65,0.6 -1.11,1.33 -1.36,2.17 l -0.05,0.19 c 0,0.07 0.07,0.11 0.2,0.11 h 1.42 c 0.09,0 0.16,-0.05 0.23,-0.14 0.22,-0.54 0.57,-0.99 1.05,-1.35 0.47,-0.36 1,-0.56 1.58,-0.6 l 0.54,-0.07 c 0.12,0 0.18,-0.06 0.18,-0.18 l 0.07,-0.51 c 0.11,-1.08 0.57,-1.99 1.38,-2.72 0.81,-0.73 1.77,-1.1 2.87,-1.1 1.1,0 2.06,0.36 2.87,1.09 0.81,0.72 1.28,1.63 1.39,2.73 l 0.08,0.57 c 0,0.12 0.06,0.19 0.17,0.19 h 1.62 c 0.91,0 1.69,0.32 2.33,0.95 0.64,0.63 0.96,1.39 0.96,2.29 0,0.89 -0.32,1.65 -0.96,2.29 -0.64,0.64 -1.42,0.96 -2.33,0.96 h -6.91 c -0.11,0 -0.17,0.06 -0.17,0.17 v 1.38 c 0,0.12 0.06,0.18 0.17,0.18 h 6.91 c 0.91,0 1.74,-0.22 2.51,-0.67 0.77,-0.44 1.37,-1.05 1.82,-1.81 0.45,-0.76 0.67,-1.59 0.67,-2.49 0,-0.71 -0.15,-1.37 -0.44,-2.01 z"
   id="cloud"
   inkscape:label="cloud"
   style="display:inline"
   sodipodi:nodetypes="cscccssscsccssccccccsscccssssssssssscsscc" /><path
   id="wind"
   d="m 2.43,21 c 0,0.25 0.09,0.45 0.27,0.6 0.17,0.17 0.37,0.26 0.61,0.26 h 9.54 c 0.23,0 0.43,-0.08 0.59,-0.25 0.16,-0.17 0.24,-0.37 0.24,-0.61 0,-0.24 -0.08,-0.44 -0.24,-0.61 -0.16,-0.17 -0.35,-0.25 -0.59,-0.25 H 3.31 c -0.24,0 -0.44,0.09 -0.62,0.26 -0.17,0.17 -0.26,0.37 -0.26,0.6 z m 2.64,-3.03 c 0,0.23 0.09,0.42 0.27,0.58 0.16,0.16 0.36,0.24 0.6,0.24 h 9.55 c 0.24,0 0.43,-0.08 0.59,-0.23 0.16,-0.16 0.23,-0.35 0.23,-0.59 0,-0.24 -0.08,-0.44 -0.24,-0.6 -0.16,-0.17 -0.35,-0.25 -0.59,-0.25 H 5.94 c -0.24,0 -0.44,0.08 -0.61,0.25 -0.18,0.17 -0.26,0.37 -0.26,0.6 z m 1.76,6.12 c 0,0.23 0.09,0.43 0.26,0.58 0.16,0.16 0.36,0.24 0.6,0.24 h 9.56 c 0.24,0 0.44,-0.08 0.6,-0.23 0.16,-0.15 0.25,-0.35 0.25,-0.59 0,-0.24 -0.08,-0.44 -0.25,-0.61 -0.17,-0.17 -0.37,-0.25 -0.6,-0.25 H 7.69 c -0.23,0 -0.43,0.09 -0.6,0.26 -0.17,0.17 -0.26,0.37 -0.26,0.6 z"
   inkscape:label="wind" />
<path
   d="m 26.42,14.9 c 0.77,-1.01 1.15,-2.1 1.15,-3.29 0,-0.95 -0.24,-1.83 -0.71,-2.64 C 26.39,8.16 25.75,7.52 24.94,7.05 24.13,6.58 23.25,6.35 22.3,6.35 c -1.52,0 -2.81,0.56 -3.84,1.67 l 1.37,1 c 0.67,-0.65 1.5,-0.98 2.47,-0.98 0.99,0 1.83,0.35 2.52,1.04 0.69,0.69 1.04,1.53 1.04,2.52 0,0.63 -0.16,1.22 -0.49,1.77 z"
   id="moon"
   inkscape:label="moon"
   sodipodi:nodetypes="cssssccssscc"
   style="display:inline" /></svg>
