<?xml version="1.0" encoding="UTF-8" standalone="no"?>
<!-- Generator: Adobe Illustrator 22.0.1, SVG Export Plug-In . SVG Version: 6.00 Build 0)  -->

<svg
   version="1.1"
   id="Layer_1"
   x="0px"
   y="0px"
   viewBox="0 0 30 30"
   style="enable-background:new 0 0 30 30;"
   xml:space="preserve"
   sodipodi:docname="wi-night-alt-cloudy-windy.svg"
   inkscape:version="1.4.3 (0d15f75, 2025-12-25)"
   xmlns:inkscape="http://www.inkscape.org/namespaces/inkscape"
   xmlns:sodipodi="http://sodipodi.sourceforge.net/DTD/sodipodi-0.dtd"
   xmlns="http://www.w3.org/2000/svg"
   xmlns:svg="http://www.w3.org/2000/svg"><defs
   id="defs1" /><sodipodi:namedview
   id="namedview1"
   pagecolor="#ffffff"
   bordercolor="#000000"
   borderopacity="0.25"
   inkscape:showpageshadow="2"
   inkscape:pageopacity="0.0"
   inkscape:pagecheckerboard="0"
   inkscape:deskcolor="#d1d1d1"
   inkscape:zoom="32.715474"
   inkscape:cx="18.431645"
   inkscape:cy="13.632693"
   inkscape:window-width="2560"
   inkscape:window-height="1387"
   inkscape:window-x="1352"
   inkscape:window-y="25"
   inkscape:window-maximized="0"
   inkscape:current-layer="Layer_1" />
<path
   d="m 25.97,14.47 c 0.72,-0.64 1.22,-1.5 1.51,-2.58 l 0.18,-0.68 c 0.01,-0.01 0.01,-0.03 0.01,-0.07 0,-0.08 -0.05,-0.13 -0.15,-0.16 L 26.9,10.76 C 26.46,10.63 26.07,10.44 25.74,10.19 25.4,9.94 25.14,9.66 24.94,9.35 24.74,9.04 24.6,8.73 24.5,8.41 24.4,8.09 24.35,7.78 24.35,7.46 c 0,-0.24 0.04,-0.53 0.11,-0.87 l 0.13,-0.61 c 0.04,-0.09 0,-0.17 -0.13,-0.23 L 23.62,5.5 C 23.18,5.39 22.77,5.34 22.37,5.34 c -0.38,0 -0.75,0.04 -1.13,0.13 -0.38,0.09 -0.77,0.22 -1.18,0.41 -0.41,0.18 -0.8,0.45 -1.18,0.8 -0.38,0.35 -0.71,0.75 -0.99,1.22 l 1.44,0.88 c 0.34,-0.55 0.79,-0.98 1.35,-1.28 0.55,-0.3 1.12,-0.45 1.7,-0.44 0.11,0 0.2,0 0.25,0.01 v 0.24 c 0,0.97 0.26,1.9 0.79,2.79 0.53,0.88 1.25,1.55 2.17,1.98 -0.17,0.4 -0.43,0.76 -0.76,1.07 z"
   id="moon"
   inkscape:label="moon"
   sodipodi:nodetypes="cccscccsssccccsscscccccscccc"
   style="display:inline" /><path
   id="wind"
   d="m 2.35,21.05 c 0,0.24 0.08,0.43 0.25,0.59 0.17,0.16 0.38,0.23 0.63,0.23 h 9.4 c 0.24,0 0.43,-0.08 0.59,-0.23 0.16,-0.16 0.23,-0.35 0.23,-0.59 0,-0.25 -0.08,-0.45 -0.23,-0.61 C 13.06,20.28 12.87,20.2 12.63,20.2 H 3.23 C 2.98,20.2 2.77,20.28 2.6,20.44 2.43,20.6 2.35,20.8 2.35,21.05 Z M 4.98,18 c 0,0.24 0.09,0.44 0.26,0.6 0.16,0.17 0.36,0.25 0.6,0.25 h 9.42 c 0.23,0 0.43,-0.08 0.59,-0.25 0.16,-0.17 0.24,-0.37 0.24,-0.6 0,-0.23 -0.08,-0.43 -0.23,-0.59 -0.15,-0.16 -0.35,-0.24 -0.59,-0.24 H 5.85 c -0.24,0 -0.44,0.08 -0.61,0.24 C 5.07,17.57 4.98,17.77 4.98,18 Z m 1.77,6.15 c 0,0.24 0.08,0.44 0.25,0.6 C 7.16,24.92 7.36,25 7.6,25 h 9.43 c 0.24,0 0.44,-0.08 0.61,-0.25 0.17,-0.17 0.25,-0.37 0.25,-0.6 0,-0.23 -0.08,-0.43 -0.25,-0.59 -0.17,-0.16 -0.37,-0.24 -0.61,-0.24 H 7.6 c -0.24,0 -0.44,0.08 -0.6,0.24 -0.17,0.16 -0.25,0.36 -0.25,0.59 z"
   inkscape:label="wind"
   style="display:inline" />
<path
   d="m 24.83,13.15 c -0.88,-0.79 -1.95,-1.18 -3.2,-1.18 H 21.31 C 21.06,10.77 20.4,9.71 19.33,8.78 L 17.89,7.9 C 17.12,7.58 16.32,7.42 15.52,7.42 c -1.41,0 -2.66,0.44 -3.75,1.32 -1.09,0.88 -1.78,2 -2.08,3.38 -0.87,0.2 -1.63,0.61 -2.28,1.22 -0.65,0.62 -1.11,1.35 -1.36,2.21 v 0.03 c -0.02,0.01 -0.03,0.04 -0.03,0.08 0,0.09 0.06,0.14 0.18,0.14 h 1.43 c 0.09,0 0.16,-0.05 0.22,-0.14 0.23,-0.54 0.57,-0.99 1.04,-1.35 0.47,-0.36 0.99,-0.56 1.58,-0.6 l 0.55,-0.07 c 0.12,0 0.18,-0.06 0.18,-0.17 l 0.07,-0.52 c 0.11,-1.09 0.57,-2 1.38,-2.72 0.82,-0.73 1.77,-1.09 2.87,-1.09 1.09,0 2.04,0.36 2.84,1.08 0.8,0.72 1.27,1.62 1.41,2.71 l 0.08,0.58 c 0,0.11 0.06,0.17 0.18,0.17 h 1.61 c 0.91,0 1.68,0.32 2.32,0.96 0.64,0.64 0.96,1.41 0.96,2.31 0,0.88 -0.32,1.65 -0.97,2.29 -0.65,0.65 -1.41,0.97 -2.3,0.97 h -6.91 c -0.11,0 -0.17,0.06 -0.17,0.17 v 1.34 c 0,0.11 0.06,0.17 0.17,0.17 h 6.91 c 0.9,0 1.73,-0.22 2.49,-0.66 0.76,-0.44 1.37,-1.04 1.81,-1.8 0.44,-0.76 0.67,-1.59 0.67,-2.49 0,-0.9 -0.22,-1.72 -0.65,-2.47 z"
   id="cloud"
   inkscape:label="cloud"
   style="display:inline"
   sodipodi:nodetypes="cscccssccccssscscccccssccsssscssssssssscc" /></svg>
