<?xml version="1.0" encoding="UTF-8" standalone="no"?>
<!-- Generator: Adobe Illustrator 22.0.1, SVG Export Plug-In . SVG Version: 6.00 Build 0)  -->

<svg
   version="1.1"
   id="Layer_1"
   x="0px"
   y="0px"
   viewBox="0 0 30 30"
   style="enable-background:new 0 0 30 30;"
   xml:space="preserve"
   sodipodi:docname="wi-night-alt-cloudy.svg"
   inkscape:version="1.4.3 (0d15f75, 2025-12-25)"
   xmlns:inkscape="http://www.inkscape.org/namespaces/inkscape"
   xmlns:sodipodi="http://sodipodi.sourceforge.net/DTD/sodipodi-0.dtd"
   xmlns="http://www.w3.org/2000/svg"
   xmlns:svg="http://www.w3.org/2000/svg"><defs
   id="defs1" /><sodipodi:namedview
   id="namedview1"
   pagecolor="#ffffff"
   bordercolor="#000000"
   borderopacity="0.25"
   inkscape:showpageshadow="2"
   inkscape:pageopacity="0.0"
   inkscape:pagecheckerboard="0"
   inkscape:deskcolor="#d1d1d1"
   inkscape:zoom="23.133333"
   inkscape:cx="15"
   inkscape:cy="15"
   inkscape:window-width="2560"
   inkscape:window-height="1387"
   inkscape:window-x="1352"
   inkscape:window-y="25"
   inkscape:window-maximized="0"
   inkscape:current-layer="Layer_1" />
<path
   d="m 23.06,13.15 c 0.33,-0.31 0.58,-0.67 0.76,-1.07 C 22.91,11.65 22.19,10.99 21.66,10.11 21.14,9.23 20.87,8.3 20.87,7.33 V 7.09 C 20.82,7.08 20.74,7.08 20.63,7.08 c -0.58,-0.01 -1.15,0.13 -1.7,0.44 -0.55,0.3 -1,0.72 -1.33,1.27 L 16.15,7.91 c 0.28,-0.47 0.61,-0.88 0.99,-1.22 0.38,-0.34 0.77,-0.61 1.17,-0.79 0.4,-0.18 0.8,-0.32 1.18,-0.41 0.38,-0.09 0.76,-0.13 1.12,-0.13 0.38,0 0.79,0.05 1.23,0.16 l 0.82,0.25 c 0.14,0.06 0.18,0.13 0.14,0.22 l -0.14,0.6 c -0.07,0.31 -0.1,0.6 -0.1,0.86 0,0.31 0.05,0.63 0.15,0.95 0.1,0.32 0.24,0.63 0.44,0.94 0.19,0.31 0.46,0.58 0.8,0.83 0.34,0.25 0.72,0.44 1.15,0.57 l 0.62,0.22 c 0.1,0.03 0.15,0.08 0.15,0.16 0,0.02 -0.01,0.04 -0.02,0.07 l -0.18,0.67 c -0.27,1.08 -0.78,1.93 -1.5,2.57 z"
   id="moon"
   inkscape:label="moon"
   sodipodi:nodetypes="cccscccccssssccccsscsccscccc"
   style="display:inline" />
<path
   d="m 24.17,14.43 c 0.4,0.7 0.62,1.45 0.65,2.24 0.01,0.05 0.01,0.12 0.01,0.23 0,0.89 -0.22,1.72 -0.67,2.48 -0.44,0.76 -1.05,1.36 -1.8,1.8 -0.76,0.44 -1.59,0.67 -2.48,0.67 H 9.07 C 8.18,21.85 7.35,21.63 6.59,21.18 5.83,20.73 5.24,20.13 4.8,19.38 4.36,18.63 4.14,17.8 4.14,16.9 c 0,-1.16 0.35,-2.18 1.06,-3.08 0.71,-0.9 1.62,-1.47 2.74,-1.72 0.23,-1.03 0.7,-1.93 1.4,-2.7 0.7,-0.77 1.55,-1.32 2.53,-1.65 0.62,-0.21 1.26,-0.32 1.93,-0.32 0.81,0 1.6,0.16 2.35,0.48 l 1.45,0.88 c 1.06,0.91 1.72,1.97 1.97,3.18 h 0.32 c 1.24,0 2.3,0.39 3.17,1.18 z M 5.85,16.9 c 0,0.89 0.32,1.66 0.96,2.31 0.64,0.65 1.39,0.98 2.26,0.98 h 10.81 c 0.89,0 1.65,-0.32 2.28,-0.97 0.63,-0.65 0.95,-1.42 0.95,-2.32 0,-0.88 -0.32,-1.63 -0.96,-2.26 -0.64,-0.63 -1.4,-0.95 -2.28,-0.95 h -1.78 l -0.1,-0.75 c -0.1,-1.01 -0.52,-1.88 -1.26,-2.59 -0.74,-0.71 -1.62,-1.11 -2.63,-1.2 -0.03,0 -0.08,0 -0.15,-0.01 -0.07,-0.01 -0.11,-0.01 -0.15,-0.01 -0.51,0 -1.02,0.1 -1.54,0.29 V 9.4 c -0.73,0.28 -1.35,0.74 -1.84,1.37 -0.5,0.63 -0.8,1.35 -0.9,2.17 l -0.07,0.72 -0.68,0.03 c -0.84,0.1 -1.54,0.45 -2.1,1.06 -0.56,0.61 -0.82,1.32 -0.82,2.15 z"
   id="cloud"
   inkscape:label="cloud"
   style="display:inline"
   sodipodi:nodetypes="ccsccsssssscscscccsccssssssssccscssccccccss" /></svg>
