<?xml version="1.0" encoding="UTF-8" standalone="no"?>
<!-- Generator: Adobe Illustrator 22.0.1, SVG Export Plug-In . SVG Version: 6.00 Build 0)  -->

<svg
   version="1.1"
   id="Layer_1"
   x="0px"
   y="0px"
   viewBox="0 0 30 30"
   style="enable-background:new 0 0 30 30;"
   xml:space="preserve"
   sodipodi:docname="wi-night-thunderstorm.svg"
   inkscape:version="1.4.3 (0d15f75, 2025-12-25)"
   xmlns:inkscape="http://www.inkscape.org/namespaces/inkscape"
   xmlns:sodipodi="http://sodipodi.sourceforge.net/DTD/sodipodi-0.dtd"
   xmlns="http://www.w3.org/2000/svg"
   xmlns:svg="http://www.w3.org/2000/svg"><defs
   id="defs1" /><sodipodi:namedview
   id="namedview1"
   pagecolor="#ffffff"
   bordercolor="#000000"
   borderopacity="0.25"
   inkscape:showpageshadow="2"
   inkscape:pageopacity="0.0"
   inkscape:pagecheckerboard="0"
   inkscape:deskcolor="#d1d1d1"
   inkscape:zoom="23.133333"
   inkscape:cx="15"
   inkscape:cy="15"
   inkscape:window-width="2560"
   inkscape:window-height="1387"
   inkscape:window-x="1352"
   inkscape:window-y="25"
   inkscape:window-maximized="0"
   inkscape:current-layer="Layer_1" />
<path
   id="rain"
   d="m 12.21,26.77 c 0,0.16 0.05,0.32 0.15,0.46 0.1,0.14 0.25,0.25 0.45,0.31 l 0.25,0.03 c 0.42,0 0.68,-0.2 0.8,-0.6 l 2.43,-8.89 c 0.06,-0.23 0.04,-0.45 -0.07,-0.64 -0.11,-0.2 -0.27,-0.33 -0.49,-0.4 -0.23,-0.07 -0.45,-0.05 -0.65,0.06 -0.2,0.11 -0.34,0.28 -0.4,0.5 l -2.45,8.9 c -0.01,0.17 -0.02,0.26 -0.02,0.27 z m 4.14,-3.03 c 0,0.4 0.21,0.67 0.62,0.8 0.17,0.02 0.26,0.03 0.26,0.03 0.11,0 0.23,-0.02 0.35,-0.08 0.2,-0.09 0.34,-0.27 0.42,-0.55 l 1.64,-5.85 c 0.06,-0.23 0.04,-0.45 -0.08,-0.64 -0.11,-0.2 -0.28,-0.33 -0.51,-0.4 -0.23,-0.07 -0.45,-0.05 -0.65,0.06 -0.2,0.11 -0.33,0.28 -0.39,0.5 l -1.62,5.89 c -0.02,0.14 -0.04,0.22 -0.04,0.24 z"
   inkscape:label="rain" /><path
   d="M 7.83,21.62 7.19,23.3 c -0.05,0.14 0,0.22 0.14,0.22 h 2.12 l -1.04,4.19 h 0.28 l 3.97,-5.62 C 12.7,22.05 12.7,22 12.67,21.95 12.64,21.9 12.59,21.88 12.52,21.88 h -2.17 l 2.47,-4.61 c 0.07,-0.14 0.02,-0.22 -0.14,-0.22 H 9.74 c -0.09,0 -0.16,0.05 -0.23,0.14 l -1.07,2.87 z"
   id="lightning"
   inkscape:label="lightning"
   style="display:inline"
   sodipodi:nodetypes="ccsccccssccssccc" />
<path
   d="M 23.5,13.43 C 22.54,12.47 21.38,11.99 20.02,11.99 H 19.7 C 19.42,10.84 18.86,9.86 18.02,9.04 L 16.61,8.1 C 15.8,7.67 14.9,7.45 13.91,7.45 c -1.41,0 -2.66,0.44 -3.75,1.31 -1.09,0.87 -1.79,1.99 -2.1,3.35 -1.1,0.26 -2.01,0.83 -2.73,1.73 -0.72,0.9 -1.05,1.9 -1.05,3.05 0,1.11 0.33,2.11 0.99,2.98 0.66,0.87 1.52,1.46 2.56,1.75 L 8.44,20.06 C 7.73,19.89 7.14,19.5 6.67,18.92 6.2,18.34 5.97,17.66 5.97,16.9 c 0,-0.83 0.28,-1.55 0.84,-2.16 0.56,-0.61 1.26,-0.96 2.1,-1.06 l 0.53,-0.04 c 0.12,0 0.18,-0.06 0.18,-0.18 l 0.07,-0.53 c 0.07,-0.71 0.3,-1.35 0.69,-1.94 0.39,-0.58 0.9,-1.04 1.52,-1.37 0.62,-0.33 1.29,-0.5 2.01,-0.5 1.08,0 2.03,0.37 2.84,1.1 0.81,0.73 1.27,1.63 1.39,2.71 l 0.08,0.56 c 0,0.12 0.06,0.19 0.17,0.19 h 1.62 c 0.89,0 1.65,0.32 2.3,0.96 0.65,0.64 0.97,1.39 0.97,2.27 0,0.86 -0.3,1.61 -0.9,2.25 -0.6,0.64 -1.33,0.97 -2.18,1.02 -0.13,0 -0.2,0.06 -0.2,0.18 v 1.34 c 0,0.11 0.07,0.17 0.2,0.17 0.87,-0.02 1.67,-0.26 2.4,-0.72 0.73,-0.45 1.31,-1.05 1.72,-1.8 0.41,-0.75 0.63,-1.56 0.63,-2.43 0,-0.73 -0.14,-1.4 -0.42,-2.01 z"
   id="cloud"
   inkscape:label="cloud"
   style="display:inline"
   sodipodi:nodetypes="cscccsscsssccssscccccsssccssssscssccsscc" /><path
   d="M 24.53,14.91 C 25.31,13.98 25.7,12.88 25.7,11.6 25.7,10.89 25.56,10.22 25.28,9.58 25,8.94 24.63,8.38 24.16,7.91 23.69,7.44 23.14,7.07 22.49,6.79 21.85,6.51 21.17,6.37 20.47,6.37 c -1.54,0 -2.83,0.58 -3.86,1.73 l 1.41,0.94 c 0.68,-0.64 1.5,-0.96 2.48,-0.96 0.97,0 1.8,0.34 2.48,1.02 0.69,0.68 1.03,1.51 1.03,2.48 0,0.63 -0.17,1.25 -0.51,1.85 z"
   id="moon"
   inkscape:label="moon"
   sodipodi:nodetypes="cssscsccscscc"
   style="display:inline" /></svg>
