<?xml version="1.0" encoding="UTF-8" standalone="no"?>
<!-- Generator: Adobe Illustrator 22.0.1, SVG Export Plug-In . SVG Version: 6.00 Build 0)  -->

<svg
   version="1.1"
   id="Layer_1"
   x="0px"
   y="0px"
   viewBox="0 0 30 30"
   style="enable-background:new 0 0 30 30;"
   xml:space="preserve"
   sodipodi:docname="wi-night-alt-cloudy-gusts.svg"
   inkscape:version="1.4.3 (0d15f75, 2025-12-25)"
   xmlns:inkscape="http://www.inkscape.org/namespaces/inkscape"
   xmlns:sodipodi="http://sodipodi.sourceforge.net/DTD/sodipodi-0.dtd"
   xmlns="http://www.w3.org/2000/svg"
   xmlns:svg="http://www.w3.org/2000/svg"><defs
   id="defs1" /><sodipodi:namedview
   id="namedview1"
   pagecolor="#ffffff"
   bordercolor="#000000"
   borderopacity="0.25"
   inkscape:showpageshadow="2"
   inkscape:pageopacity="0.0"
   inkscape:pagecheckerboard="0"
   inkscape:deskcolor="#d1d1d1"
   inkscape:zoom="32.715474"
   inkscape:cx="17.086716"
   inkscape:cy="8.3752417"
   inkscape:window-width="2560"
   inkscape:window-height="1387"
   inkscape:window-x="1352"
   inkscape:window-y="25"
   inkscape:window-maximized="0"
   inkscape:current-layer="Layer_1" />
<path
   d="M 24.23,13.11 C 23.34,12.35 22.29,11.97 21.07,11.97 H 20.74 C 20.48,10.71 19.81,9.64 18.73,8.76 L 17.27,7.89 C 16.56,7.59 15.79,7.44 14.95,7.44 13.54,7.44 12.29,7.88 11.2,8.75 10.11,9.62 9.43,10.74 9.13,12.1 8.27,12.3 7.52,12.71 6.86,13.33 6.2,13.95 5.75,14.68 5.5,15.53 v 0.03 c 0.01,0.02 0,0.05 0,0.09 0,0.09 0.05,0.13 0.16,0.13 H 7.1 c 0.08,0 0.15,-0.05 0.22,-0.15 0.22,-0.54 0.57,-0.99 1.05,-1.35 0.47,-0.35 1,-0.55 1.58,-0.6 l 0.52,-0.07 c 0.12,0 0.19,-0.06 0.19,-0.17 l 0.08,-0.52 c 0.11,-1.08 0.57,-1.99 1.38,-2.71 0.81,-0.73 1.77,-1.09 2.86,-1.09 1.09,0 2.05,0.36 2.85,1.09 0.81,0.72 1.27,1.63 1.38,2.72 l 0.07,0.58 c 0,0.12 0.06,0.18 0.19,0.18 h 1.62 c 0.91,0 1.68,0.32 2.32,0.95 0.64,0.63 0.96,1.39 0.96,2.28 0,0.89 -0.32,1.65 -0.96,2.29 -0.64,0.64 -1.41,0.96 -2.31,0.96 h -6.91 c -0.11,0 -0.17,0.06 -0.17,0.18 v 1.37 c 0,0.11 0.06,0.17 0.17,0.17 h 6.91 c 0.89,0 1.72,-0.22 2.48,-0.67 0.76,-0.45 1.36,-1.05 1.8,-1.81 0.44,-0.76 0.67,-1.59 0.67,-2.48 0,-0.88 -0.23,-1.71 -0.68,-2.48 z"
   id="cloud"
   inkscape:label="cloud"
   style="display:inline"
   sodipodi:nodetypes="cscccsscsccssscccccccscccsssssssssssssscc" /><path
   id="wind"
   d="m 2.98,21.02 c 0,0.23 0.09,0.43 0.27,0.6 0.17,0.17 0.37,0.25 0.61,0.25 H 9.6 c 0.26,0 0.49,0.1 0.69,0.29 0.2,0.19 0.3,0.42 0.3,0.68 0,0.27 -0.1,0.5 -0.3,0.69 -0.2,0.19 -0.43,0.29 -0.69,0.29 -0.26,0 -0.48,-0.1 -0.68,-0.3 -0.18,-0.16 -0.38,-0.24 -0.61,-0.24 -0.24,0 -0.44,0.08 -0.6,0.24 -0.16,0.16 -0.24,0.36 -0.24,0.6 0,0.22 0.08,0.42 0.24,0.6 0.52,0.53 1.16,0.79 1.89,0.79 0.73,0 1.37,-0.26 1.89,-0.78 0.52,-0.52 0.78,-1.15 0.78,-1.89 0,-0.74 -0.26,-1.37 -0.78,-1.89 C 10.97,20.43 10.34,20.16 9.6,20.16 H 3.86 c -0.24,0 -0.44,0.09 -0.62,0.26 -0.17,0.17 -0.26,0.37 -0.26,0.6 z m 0,-3.02 c 0,0.22 0.09,0.41 0.27,0.58 0.17,0.16 0.38,0.24 0.61,0.24 h 10.85 c 0.74,0 1.37,-0.26 1.89,-0.78 0.52,-0.52 0.78,-1.15 0.78,-1.88 0,-0.74 -0.26,-1.36 -0.78,-1.88 -0.52,-0.52 -1.15,-0.77 -1.89,-0.77 -0.76,0 -1.39,0.25 -1.89,0.76 -0.15,0.16 -0.23,0.36 -0.23,0.61 0,0.25 0.08,0.45 0.23,0.6 0.15,0.15 0.35,0.23 0.59,0.23 0.24,0 0.44,-0.07 0.62,-0.23 0.19,-0.19 0.42,-0.28 0.68,-0.28 0.26,0 0.48,0.09 0.67,0.28 0.19,0.19 0.29,0.42 0.29,0.68 0,0.26 -0.1,0.49 -0.29,0.68 -0.19,0.19 -0.42,0.29 -0.67,0.29 H 3.86 c -0.24,0 -0.44,0.09 -0.62,0.26 C 3.07,17.57 2.98,17.77 2.98,18 Z"
   inkscape:label="wind"
   style="display:inline" />
<path
   d="m 25.37,14.45 c 0.73,-0.71 1.23,-1.57 1.51,-2.58 L 27,11.18 c 0.02,-0.02 0.03,-0.04 0.03,-0.07 0,-0.04 -0.05,-0.1 -0.14,-0.16 l -0.6,-0.21 C 25.45,10.48 24.81,10.03 24.37,9.38 23.93,8.73 23.71,8.06 23.71,7.36 23.71,7.12 23.74,6.85 23.8,6.57 L 23.93,5.95 C 23.95,5.85 23.91,5.77 23.8,5.73 L 23,5.49 C 22.56,5.38 22.15,5.33 21.75,5.33 c -0.37,0 -0.74,0.04 -1.12,0.13 -0.38,0.09 -0.77,0.22 -1.18,0.41 -0.4,0.18 -0.8,0.45 -1.18,0.8 -0.38,0.35 -0.72,0.75 -1,1.22 l 1.46,0.87 c 0.31,-0.55 0.74,-0.97 1.29,-1.26 0.55,-0.29 1.12,-0.44 1.71,-0.44 0.14,0 0.24,0 0.31,0.01 -0.01,0.09 -0.02,0.21 -0.02,0.36 0,0.94 0.26,1.85 0.79,2.71 0.52,0.86 1.25,1.51 2.17,1.94 -0.16,0.38 -0.41,0.72 -0.75,1.03 z"
   id="moon"
   inkscape:label="moon"
   sodipodi:nodetypes="cccsccssccccsscsccsscscccc"
   style="display:inline" /></svg>
