<?xml version="1.0" encoding="UTF-8" standalone="no"?>
<!-- Generator: Adobe Illustrator 22.0.1, SVG Export Plug-In . SVG Version: 6.00 Build 0)  -->

<svg
   version="1.1"
   id="Layer_1"
   x="0px"
   y="0px"
   viewBox="0 0 30 30"
   style="enable-background:new 0 0 30 30;"
   xml:space="preserve"
   sodipodi:docname="wi-night-cloudy-gusts.svg"
   inkscape:version="1.4.3 (0d15f75, 2025-12-25)"
   xmlns:inkscape="http://www.inkscape.org/namespaces/inkscape"
   xmlns:sodipodi="http://sodipodi.sourceforge.net/DTD/sodipodi-0.dtd"
   xmlns="http://www.w3.org/2000/svg"
   xmlns:svg="http://www.w3.org/2000/svg"><defs
   id="defs1" /><sodipodi:namedview
   id="namedview1"
   pagecolor="#ffffff"
   bordercolor="#000000"
   borderopacity="0.25"
   inkscape:showpageshadow="2"
   inkscape:pageopacity="0.0"
   inkscape:pagecheckerboard="0"
   inkscape:deskcolor="#d1d1d1"
   inkscape:zoom="23.133333"
   inkscape:cx="15"
   inkscape:cy="15"
   inkscape:window-width="2560"
   inkscape:window-height="1387"
   inkscape:window-x="1352"
   inkscape:window-y="25"
   inkscape:window-maximized="0"
   inkscape:current-layer="Layer_1" />
<path
   d="M 24.77,13.38 C 23.81,12.42 22.66,11.95 21.3,11.95 H 20.97 C 20.73,10.88 20.16,9.89 19.24,9 L 17.83,8.03 C 17.05,7.62 16.16,7.42 15.18,7.42 c -1.41,0 -2.66,0.44 -3.75,1.31 -1.09,0.87 -1.77,1.99 -2.07,3.35 -0.85,0.2 -1.6,0.61 -2.26,1.23 -0.66,0.62 -1.11,1.35 -1.37,2.18 v 0.04 c -0.01,0.05 -0.02,0.09 -0.02,0.1 0,0.08 0.06,0.12 0.17,0.12 h 1.43 c 0.08,0 0.15,-0.05 0.22,-0.14 0.23,-0.54 0.57,-0.99 1.05,-1.35 0.47,-0.36 1,-0.56 1.59,-0.6 l 0.52,-0.07 c 0.12,0 0.19,-0.06 0.19,-0.19 l 0.07,-0.5 c 0.11,-1.08 0.57,-1.99 1.38,-2.71 0.81,-0.73 1.77,-1.09 2.86,-1.09 1.09,0 2.04,0.36 2.85,1.08 0.81,0.72 1.27,1.63 1.39,2.72 l 0.07,0.57 c 0,0.12 0.06,0.18 0.18,0.18 h 1.63 c 0.9,0 1.67,0.32 2.31,0.95 0.64,0.63 0.96,1.39 0.96,2.28 0,0.89 -0.32,1.66 -0.96,2.29 -0.64,0.63 -1.41,0.95 -2.31,0.95 H 14.4 c -0.11,0 -0.17,0.06 -0.17,0.18 v 1.37 c 0,0.12 0.06,0.18 0.17,0.18 h 6.91 c 0.89,0 1.72,-0.22 2.48,-0.67 0.76,-0.44 1.36,-1.05 1.8,-1.81 0.44,-0.76 0.66,-1.59 0.66,-2.49 0,-0.74 -0.14,-1.42 -0.42,-2.02 z"
   id="cloud"
   inkscape:label="cloud"
   sodipodi:nodetypes="cscccsscsccssscccccccssccssssssssssscsscc"
   style="display:inline" /><path
   id="wind"
   d="m 3.06,20.98 c 0,0.24 0.09,0.44 0.27,0.6 0.18,0.18 0.38,0.27 0.61,0.27 h 5.88 c 0.26,0 0.49,0.09 0.69,0.28 0.2,0.19 0.3,0.42 0.3,0.68 0,0.26 -0.1,0.48 -0.3,0.68 -0.2,0.2 -0.43,0.3 -0.68,0.3 -0.25,0 -0.48,-0.1 -0.68,-0.3 -0.19,-0.17 -0.39,-0.26 -0.62,-0.26 -0.23,0 -0.43,0.08 -0.59,0.25 -0.16,0.17 -0.24,0.37 -0.24,0.61 0,0.24 0.08,0.44 0.24,0.6 0.52,0.52 1.15,0.78 1.88,0.78 0.74,0 1.38,-0.26 1.89,-0.77 0.52,-0.52 0.78,-1.14 0.78,-1.88 0,-0.74 -0.26,-1.38 -0.78,-1.9 C 11.19,20.4 10.56,20.13 9.82,20.13 H 3.94 c -0.24,0 -0.44,0.08 -0.62,0.25 -0.18,0.17 -0.26,0.37 -0.26,0.6 z m 0,-3.01 c 0,0.23 0.09,0.42 0.27,0.58 0.15,0.16 0.35,0.24 0.61,0.24 h 10.99 c 0.74,0 1.37,-0.26 1.89,-0.78 0.52,-0.52 0.78,-1.15 0.78,-1.88 0,-0.73 -0.26,-1.36 -0.78,-1.88 -0.52,-0.52 -1.15,-0.77 -1.89,-0.77 -0.76,0 -1.39,0.25 -1.89,0.75 -0.15,0.17 -0.23,0.38 -0.23,0.63 0,0.24 0.08,0.43 0.23,0.59 0.15,0.16 0.35,0.23 0.6,0.23 0.25,0 0.45,-0.07 0.61,-0.23 0.19,-0.19 0.42,-0.28 0.68,-0.28 0.26,0 0.48,0.09 0.68,0.28 0.19,0.19 0.29,0.42 0.29,0.68 0,0.26 -0.1,0.5 -0.29,0.69 -0.19,0.19 -0.42,0.29 -0.68,0.29 H 3.94 c -0.24,0 -0.44,0.08 -0.62,0.25 -0.18,0.18 -0.26,0.38 -0.26,0.61 z"
   inkscape:label="wind" />
<path
   d="m 25.83,14.86 c 0.76,-1 1.14,-2.11 1.14,-3.33 0,-0.71 -0.14,-1.39 -0.42,-2.04 C 26.27,8.84 25.9,8.29 25.43,7.82 24.96,7.35 24.4,6.98 23.76,6.71 23.12,6.44 22.42,6.3 21.71,6.3 20.17,6.3 18.87,6.88 17.83,8.03 L 19.24,9 c 0.72,-0.68 1.54,-1.02 2.48,-1.02 0.98,0 1.81,0.35 2.51,1.05 0.7,0.7 1.05,1.53 1.05,2.5 0,0.61 -0.17,1.22 -0.51,1.85 z"
   id="moon"
   inkscape:label="moon"
   style="display:inline"
   sodipodi:nodetypes="csssssccssscc" /></svg>
