<?xml version="1.0" encoding="UTF-8" standalone="no"?>
<!-- Generator: Adobe Illustrator 22.0.1, SVG Export Plug-In . SVG Version: 6.00 Build 0)  -->

<svg
   version="1.1"
   id="Layer_1"
   x="0px"
   y="0px"
   viewBox="0 0 30 30"
   style="enable-background:new 0 0 30 30;"
   xml:space="preserve"
   sodipodi:docname="wi-night-sleet.svg"
   inkscape:version="1.4.3 (0d15f75, 2025-12-25)"
   xmlns:inkscape="http://www.inkscape.org/namespaces/inkscape"
   xmlns:sodipodi="http://sodipodi.sourceforge.net/DTD/sodipodi-0.dtd"
   xmlns="http://www.w3.org/2000/svg"
   xmlns:svg="http://www.w3.org/2000/svg"><defs
   id="defs1" /><sodipodi:namedview
   id="namedview1"
   pagecolor="#ffffff"
   bordercolor="#000000"
   borderopacity="0.25"
   inkscape:showpageshadow="2"
   inkscape:pageopacity="0.0"
   inkscape:pagecheckerboard="0"
   inkscape:deskcolor="#d1d1d1"
   inkscape:zoom="23.133333"
   inkscape:cx="15"
   inkscape:cy="15"
   inkscape:window-width="2560"
   inkscape:window-height="1387"
   inkscape:window-x="1352"
   inkscape:window-y="25"
   inkscape:window-maximized="0"
   inkscape:current-layer="Layer_1" />
<path
   id="rain"
   d="m 9.73,24.16 c 0,-0.03 0.01,-0.07 0.02,-0.13 0.01,-0.06 0.02,-0.1 0.02,-0.12 l 0.09,-0.58 c 0.07,-0.24 0.21,-0.42 0.41,-0.53 0.21,-0.12 0.43,-0.15 0.68,-0.08 0.23,0.07 0.39,0.21 0.51,0.41 0.11,0.21 0.13,0.42 0.07,0.63 l -0.14,0.6 c -0.1,0.44 -0.35,0.66 -0.76,0.66 -0.03,0 -0.08,0 -0.15,-0.01 C 10.41,25 10.37,25 10.35,25 10.14,24.94 9.99,24.83 9.89,24.67 9.78,24.49 9.73,24.33 9.73,24.16 Z m 0.74,-2.95 c 0,-0.24 0.08,-0.43 0.23,-0.59 0.15,-0.16 0.35,-0.23 0.59,-0.23 0.24,0 0.43,0.08 0.59,0.23 0.16,0.15 0.23,0.35 0.23,0.59 0,0.23 -0.08,0.43 -0.23,0.58 -0.15,0.15 -0.35,0.23 -0.59,0.23 -0.23,0 -0.42,-0.08 -0.57,-0.24 -0.16,-0.16 -0.25,-0.35 -0.25,-0.57 z m 1.64,5.98 c 0,-0.04 0.01,-0.11 0.04,-0.23 l 0.13,-0.59 c 0.07,-0.23 0.21,-0.39 0.41,-0.51 0.21,-0.11 0.42,-0.13 0.63,-0.07 0.23,0.04 0.41,0.17 0.53,0.37 0.12,0.2 0.15,0.43 0.08,0.68 l -0.13,0.58 c -0.11,0.41 -0.37,0.62 -0.8,0.62 -0.05,0 -0.13,-0.01 -0.24,-0.04 -0.22,-0.06 -0.38,-0.17 -0.49,-0.33 -0.11,-0.16 -0.16,-0.31 -0.16,-0.48 z m 0.79,-2.91 c 0,-0.23 0.08,-0.42 0.23,-0.58 0.16,-0.15 0.35,-0.23 0.59,-0.23 0.24,0 0.43,0.08 0.59,0.23 0.16,0.15 0.23,0.35 0.23,0.58 0,0.24 -0.08,0.43 -0.23,0.59 -0.16,0.16 -0.35,0.23 -0.59,0.23 -0.23,0 -0.42,-0.08 -0.58,-0.24 C 12.98,24.7 12.9,24.51 12.9,24.28 Z m 0.62,-2.27 c 0,-0.09 0.01,-0.18 0.03,-0.26 l 0.23,-0.9 c 0.07,-0.24 0.21,-0.42 0.41,-0.53 0.2,-0.11 0.42,-0.15 0.64,-0.08 0.24,0.07 0.41,0.2 0.53,0.4 0.12,0.2 0.14,0.41 0.07,0.63 l -0.26,0.9 c -0.08,0.27 -0.22,0.46 -0.41,0.56 -0.19,0.1 -0.41,0.12 -0.64,0.06 -0.2,-0.04 -0.35,-0.14 -0.45,-0.3 -0.12,-0.17 -0.16,-0.33 -0.15,-0.48 z m 2.76,2.15 c 0,-0.03 0,-0.08 0.01,-0.14 0.01,-0.06 0.01,-0.1 0.01,-0.11 l 0.09,-0.58 c 0.07,-0.24 0.21,-0.42 0.41,-0.53 0.21,-0.12 0.43,-0.15 0.67,-0.08 0.23,0.07 0.4,0.21 0.51,0.41 0.12,0.21 0.14,0.42 0.07,0.63 l -0.14,0.6 c -0.1,0.44 -0.35,0.66 -0.76,0.66 -0.03,0 -0.08,0 -0.15,-0.01 C 16.93,25 16.89,25 16.87,25 c -0.2,-0.06 -0.35,-0.17 -0.45,-0.33 -0.1,-0.16 -0.14,-0.34 -0.14,-0.51 z m 0.74,-2.95 c 0,-0.24 0.08,-0.43 0.23,-0.59 0.15,-0.16 0.35,-0.23 0.59,-0.23 0.24,0 0.43,0.08 0.59,0.23 0.16,0.16 0.23,0.35 0.23,0.59 0,0.23 -0.08,0.43 -0.23,0.58 -0.16,0.16 -0.35,0.23 -0.59,0.23 -0.24,0 -0.43,-0.08 -0.58,-0.24 -0.15,-0.15 -0.24,-0.34 -0.24,-0.57 z"
   inkscape:label="rain" /><path
   d="m 24.62,14.97 c 0.29,0.61 0.43,1.28 0.43,2.02 0,0.88 -0.21,1.7 -0.64,2.45 -0.42,0.75 -1,1.36 -1.74,1.81 -0.73,0.45 -1.54,0.69 -2.42,0.72 -0.13,0 -0.2,-0.06 -0.2,-0.17 v -1.34 c 0,-0.12 0.07,-0.18 0.2,-0.18 0.86,-0.04 1.58,-0.39 2.18,-1.03 0.6,-0.64 0.9,-1.4 0.9,-2.26 0,-0.89 -0.32,-1.65 -0.97,-2.29 -0.64,-0.64 -1.41,-0.96 -2.31,-0.96 h -1.61 c -0.12,0 -0.18,-0.06 -0.18,-0.18 L 18.18,12.97 C 18.07,11.89 17.6,10.98 16.78,10.25 15.96,9.52 15,9.15 13.92,9.15 c -1.1,0 -2.05,0.37 -2.86,1.1 -0.81,0.73 -1.27,1.64 -1.37,2.72 L 9.61,13.56 C 9.58,13.65 9.5,13.7 9.39,13.7 l -0.51,0.04 c -0.84,0.1 -1.55,0.45 -2.11,1.06 -0.56,0.61 -0.84,1.34 -0.84,2.18 v 0.04 c 0.01,0.01 0.02,0.02 0.03,0.02 0.01,0.85 0.31,1.59 0.9,2.22 0.28,0.29 0.59,0.52 0.92,0.67 v 0.02 c 0.38,0.19 0.79,0.31 1.24,0.34 0.11,0 0.17,0.06 0.17,0.17 v 1.34 c 0,0.11 -0.06,0.17 -0.17,0.17 C 8.53,21.95 8.05,21.85 7.59,21.68 6.83,21.41 6.17,21 5.62,20.42 5.07,19.84 4.67,19.18 4.44,18.42 4.3,17.95 4.23,17.48 4.23,16.99 v -0.02 c 0,-1.16 0.36,-2.19 1.08,-3.09 0.72,-0.9 1.64,-1.49 2.74,-1.74 0.31,-1.37 1.01,-2.49 2.1,-3.37 1.09,-0.88 2.35,-1.32 3.77,-1.32 0.99,0 1.9,0.22 2.72,0.66 l 1.42,0.99 c 0.84,0.76 1.4,1.74 1.7,2.93 h 0.31 c 1.38,0 2.55,0.48 3.52,1.44 z"
   id="cloud"
   inkscape:label="cloud"
   sodipodi:nodetypes="cscccsscsscssccsssccccssccccccssccscssscsscccscc"
   style="display:inline" />
<path
   d="m 23.59,13.47 c 0.31,-0.55 0.47,-1.15 0.47,-1.81 0,-0.98 -0.35,-1.81 -1.04,-2.5 C 22.33,8.48 21.49,8.13 20.51,8.13 19.54,8.14 18.73,8.46 18.06,9.1 L 16.64,8.11 c 0.5,-0.53 1.09,-0.95 1.76,-1.25 0.67,-0.3 1.37,-0.45 2.09,-0.45 0.95,0 1.83,0.24 2.64,0.71 0.81,0.47 1.45,1.11 1.92,1.92 0.47,0.81 0.71,1.69 0.71,2.64 0,1.23 -0.38,2.33 -1.14,3.29 z"
   id="moon"
   inkscape:label="moon"
   style="display:inline"
   sodipodi:nodetypes="csccccssssscc" /></svg>
