<?xml version="1.0" encoding="UTF-8" standalone="no"?>
<!-- Generator: Adobe Illustrator 22.0.1, SVG Export Plug-In . SVG Version: 6.00 Build 0)  -->

<svg
   version="1.1"
   id="Layer_1"
   x="0px"
   y="0px"
   viewBox="0 0 30 30"
   style="enable-background:new 0 0 30 30;"
   xml:space="preserve"
   sodipodi:docname="wi-night-alt-thunderstorm.svg"
   inkscape:version="1.4.3 (0d15f75, 2025-12-25)"
   xmlns:inkscape="http://www.inkscape.org/namespaces/inkscape"
   xmlns:sodipodi="http://sodipodi.sourceforge.net/DTD/sodipodi-0.dtd"
   xmlns="http://www.w3.org/2000/svg"
   xmlns:svg="http://www.w3.org/2000/svg"><defs
   id="defs1" /><sodipodi:namedview
   id="namedview1"
   pagecolor="#ffffff"
   bordercolor="#000000"
   borderopacity="0.25"
   inkscape:showpageshadow="2"
   inkscape:pageopacity="0.0"
   inkscape:pagecheckerboard="0"
   inkscape:deskcolor="#d1d1d1"
   inkscape:zoom="23.133333"
   inkscape:cx="15"
   inkscape:cy="15"
   inkscape:window-width="2560"
   inkscape:window-height="1387"
   inkscape:window-x="1352"
   inkscape:window-y="25"
   inkscape:window-maximized="0"
   inkscape:current-layer="Layer_1" />
<path
   id="rain"
   d="m 12.18,26.7 c 0,0.16 0.05,0.32 0.15,0.46 0.1,0.15 0.25,0.25 0.45,0.3 0.11,0.02 0.21,0.03 0.3,0.03 0.41,0 0.66,-0.21 0.76,-0.63 l 2.32,-8.79 c 0.06,-0.24 0.04,-0.45 -0.07,-0.65 -0.11,-0.2 -0.28,-0.33 -0.5,-0.39 -0.23,-0.07 -0.45,-0.05 -0.65,0.06 -0.2,0.11 -0.34,0.27 -0.4,0.49 l -2.32,8.84 c -0.03,0.1 -0.04,0.19 -0.04,0.28 z m 4.17,-3.02 c 0,0.16 0.05,0.32 0.15,0.46 0.1,0.14 0.25,0.25 0.46,0.31 0.03,0 0.08,0 0.15,0.01 0.07,0.01 0.13,0.01 0.16,0.01 0.38,0 0.62,-0.21 0.72,-0.63 l 1.5,-5.77 c 0.06,-0.24 0.04,-0.46 -0.08,-0.66 -0.11,-0.19 -0.28,-0.32 -0.51,-0.38 -0.23,-0.07 -0.45,-0.05 -0.65,0.06 -0.2,0.11 -0.33,0.27 -0.39,0.5 l -1.5,5.82 c 0,0.1 -0.01,0.19 -0.01,0.27 z"
   inkscape:label="rain" /><path
   d="m 7.65,21.65 -0.66,1.69 c -0.03,0.14 0.02,0.21 0.15,0.21 h 2.12 l -0.97,3.51 h 0.29 l 3.91,-4.94 c 0.04,-0.05 0.04,-0.1 0.01,-0.15 -0.03,-0.05 -0.08,-0.07 -0.15,-0.07 h -2.18 l 2.48,-4.63 c 0.07,-0.14 0.03,-0.22 -0.13,-0.22 H 9.56 c -0.09,0 -0.16,0.05 -0.23,0.14 l -1.07,2.88 z"
   id="lightning"
   inkscape:label="lightning"
   style="display:inline"
   sodipodi:nodetypes="ccsccccssccssccc" />
<path
   d="M 8.26,20.07 C 7.54,19.89 6.95,19.5 6.48,18.9 6.01,18.3 5.78,17.63 5.78,16.89 5.78,16.06 6.06,15.34 6.63,14.72 7.2,14.1 7.9,13.75 8.73,13.65 l 0.52,-0.08 c 0.13,0 0.2,-0.06 0.2,-0.17 l 0.07,-0.52 c 0.11,-1.08 0.56,-1.99 1.37,-2.72 0.81,-0.73 1.76,-1.1 2.85,-1.1 1.08,0 2.03,0.37 2.85,1.1 0.82,0.73 1.29,1.64 1.41,2.71 l 0.07,0.59 c 0,0.11 0.06,0.17 0.18,0.17 h 1.62 c 0.91,0 1.68,0.32 2.33,0.95 0.65,0.63 0.97,1.4 0.97,2.29 0,0.85 -0.3,1.59 -0.9,2.21 -0.6,0.62 -1.33,0.97 -2.2,1.04 -0.12,0 -0.19,0.06 -0.19,0.17 v 1.38 c 0,0.12 0.06,0.18 0.19,0.18 0.88,-0.03 1.68,-0.27 2.41,-0.72 0.73,-0.45 1.31,-1.05 1.73,-1.8 0.42,-0.75 0.63,-1.57 0.63,-2.45 0,-0.87 -0.22,-1.68 -0.66,-2.45 L 23.11,13.1 C 22.19,12.31 21.12,11.92 19.89,11.92 H 19.57 C 19.29,10.66 18.63,9.61 17.59,8.75 L 16.11,7.85 C 15.29,7.55 14.49,7.4 13.73,7.4 c -1.41,0 -2.67,0.44 -3.76,1.31 -1.09,0.87 -1.8,1.99 -2.11,3.36 -1.11,0.26 -2.02,0.84 -2.74,1.74 -0.68,0.88 -1.04,1.91 -1.04,3.07 0,1.11 0.33,2.1 0.99,2.98 0.66,0.88 1.52,1.47 2.58,1.79 z"
   id="cloud"
   inkscape:label="cloud"
   style="display:inline"
   sodipodi:nodetypes="csssccccsssccssssscsscsssccscccssccsscc" /><path
   d="m 24.18,14.43 c 0.79,-0.76 1.31,-1.63 1.56,-2.62 l 0.14,-0.72 c 0.01,-0.01 0.02,-0.04 0.02,-0.07 0,-0.07 -0.05,-0.12 -0.16,-0.15 L 25.18,10.69 C 24.61,10.53 24.12,10.25 23.72,9.87 23.31,9.49 23.02,9.07 22.85,8.64 22.68,8.2 22.59,7.76 22.59,7.32 c 0,-0.26 0.03,-0.53 0.08,-0.8 l 0.14,-0.61 c 0.04,-0.1 0,-0.18 -0.14,-0.23 C 22.46,5.59 22.16,5.51 21.77,5.42 21.38,5.33 21,5.29 20.62,5.29 c -0.36,0 -0.73,0.04 -1.12,0.13 -0.38,0.09 -0.78,0.22 -1.19,0.41 -0.41,0.18 -0.81,0.45 -1.2,0.8 -0.39,0.35 -0.72,0.75 -1,1.22 l 1.48,0.9 c 0.33,-0.57 0.77,-1 1.33,-1.3 C 19.47,7.15 20.06,7 20.68,7 20.8,7 20.9,7 20.95,7.01 v 0.32 c 0,0.96 0.26,1.87 0.78,2.73 0.52,0.86 1.25,1.51 2.17,1.97 -0.18,0.42 -0.44,0.77 -0.79,1.07 z"
   id="moon"
   inkscape:label="moon"
   sodipodi:nodetypes="cccsccccscccssccscccscssccc"
   style="display:inline" /></svg>
