<?xml version="1.0" encoding="UTF-8" standalone="no"?>
<!-- Generator: Adobe Illustrator 22.0.1, SVG Export Plug-In . SVG Version: 6.00 Build 0)  -->

<svg
   version="1.1"
   id="Layer_1"
   x="0px"
   y="0px"
   viewBox="0 0 30 30"
   style="enable-background:new 0 0 30 30;"
   xml:space="preserve"
   sodipodi:docname="wi-night-alt-showers.svg"
   inkscape:version="1.4.3 (0d15f75, 2025-12-25)"
   xmlns:inkscape="http://www.inkscape.org/namespaces/inkscape"
   xmlns:sodipodi="http://sodipodi.sourceforge.net/DTD/sodipodi-0.dtd"
   xmlns="http://www.w3.org/2000/svg"
   xmlns:svg="http://www.w3.org/2000/svg"><defs
   id="defs1" /><sodipodi:namedview
   id="namedview1"
   pagecolor="#ffffff"
   bordercolor="#000000"
   borderopacity="0.25"
   inkscape:showpageshadow="2"
   inkscape:pageopacity="0.0"
   inkscape:pagecheckerboard="0"
   inkscape:deskcolor="#d1d1d1"
   inkscape:zoom="23.133333"
   inkscape:cx="15"
   inkscape:cy="15"
   inkscape:window-width="2560"
   inkscape:window-height="1387"
   inkscape:window-x="1352"
   inkscape:window-y="25"
   inkscape:window-maximized="0"
   inkscape:current-layer="Layer_1" />
<path
   id="rain"
   d="m 9.47,23.68 c 0,0.15 0.05,0.3 0.15,0.45 0.1,0.15 0.25,0.26 0.45,0.33 0.22,0.07 0.43,0.06 0.64,-0.05 0.21,-0.11 0.34,-0.28 0.41,-0.51 l 0.28,-1.06 c 0.07,-0.21 0.05,-0.41 -0.07,-0.62 -0.12,-0.21 -0.29,-0.34 -0.51,-0.41 -0.23,-0.06 -0.45,-0.03 -0.65,0.08 -0.2,0.11 -0.34,0.3 -0.42,0.53 l -0.23,0.99 c -0.03,0.16 -0.05,0.25 -0.05,0.27 z m 1.3,-4.73 c 0,0.11 0.03,0.23 0.1,0.36 0.07,0.17 0.25,0.3 0.53,0.38 0.24,0.06 0.46,0.04 0.66,-0.06 0.19,-0.1 0.33,-0.28 0.4,-0.52 l 0.28,-1.03 c 0.07,-0.23 0.05,-0.45 -0.07,-0.64 -0.12,-0.2 -0.29,-0.33 -0.51,-0.39 -0.24,-0.06 -0.47,-0.04 -0.67,0.07 -0.2,0.11 -0.33,0.28 -0.4,0.52 l -0.27,1.01 c -0.03,0.13 -0.05,0.23 -0.05,0.3 z m 1.25,7.85 c 0,0.17 0.05,0.33 0.15,0.49 0.1,0.16 0.25,0.27 0.45,0.33 0.11,0.03 0.18,0.05 0.23,0.05 0.09,0 0.21,-0.03 0.38,-0.1 0.2,-0.08 0.34,-0.27 0.43,-0.55 l 0.3,-1.05 c 0.07,-0.21 0.05,-0.42 -0.07,-0.63 -0.12,-0.21 -0.29,-0.34 -0.51,-0.41 -0.24,-0.06 -0.47,-0.04 -0.67,0.08 -0.2,0.12 -0.34,0.29 -0.41,0.53 l -0.25,1.01 c -0.02,0.08 -0.03,0.17 -0.03,0.25 z m 1.33,-4.77 c 0,0.15 0.05,0.3 0.15,0.45 0.1,0.15 0.25,0.26 0.46,0.33 0.22,0.07 0.44,0.05 0.64,-0.06 0.2,-0.11 0.33,-0.28 0.4,-0.52 l 0.27,-1.04 c 0.07,-0.21 0.05,-0.42 -0.06,-0.62 -0.11,-0.2 -0.27,-0.34 -0.49,-0.41 -0.24,-0.06 -0.47,-0.03 -0.68,0.08 -0.21,0.11 -0.35,0.3 -0.42,0.53 l -0.24,1 z m 2.81,1.76 c 0,0.38 0.21,0.62 0.64,0.75 0.09,0.02 0.17,0.03 0.24,0.03 0.15,0 0.27,-0.02 0.37,-0.07 0.21,-0.08 0.36,-0.27 0.44,-0.57 l 0.27,-1.02 c 0.06,-0.25 0.04,-0.47 -0.08,-0.67 -0.12,-0.2 -0.29,-0.32 -0.53,-0.37 -0.23,-0.07 -0.45,-0.05 -0.64,0.07 -0.19,0.12 -0.33,0.29 -0.4,0.51 l -0.27,1.04 c 0,0.02 -0.01,0.07 -0.02,0.15 -0.02,0.07 -0.02,0.12 -0.02,0.15 z m 1.39,-4.81 c 0,0.16 0.05,0.31 0.15,0.46 0.1,0.15 0.26,0.26 0.46,0.32 0.14,0.03 0.22,0.05 0.23,0.05 0.09,0 0.21,-0.03 0.38,-0.1 0.21,-0.08 0.35,-0.27 0.44,-0.55 l 0.28,-1.04 c 0.06,-0.22 0.03,-0.43 -0.08,-0.63 -0.11,-0.2 -0.3,-0.33 -0.53,-0.4 -0.22,-0.07 -0.43,-0.05 -0.63,0.07 -0.2,0.12 -0.33,0.29 -0.4,0.52 l -0.26,1.06 c -0.03,0.09 -0.04,0.18 -0.04,0.24 z"
   inkscape:label="rain" /><path
   d="M 23.09,13.18 C 22.16,12.37 21.07,11.97 19.84,11.97 H 19.52 C 19.27,10.78 18.63,9.73 17.58,8.81 L 16.11,7.92 C 15.37,7.59 14.58,7.43 13.75,7.43 12.34,7.43 11.09,7.87 10,8.74 8.91,9.61 8.23,10.73 7.93,12.1 c -1.12,0.26 -2.05,0.83 -2.77,1.72 -0.73,0.91 -1.09,1.94 -1.09,3.09 0,1.33 0.46,2.48 1.39,3.43 0.93,0.95 2.06,1.47 3.4,1.53 0.11,0 0.17,-0.06 0.17,-0.17 V 20.33 C 9.03,20.21 8.97,20.15 8.86,20.15 7.99,20.08 7.26,19.74 6.67,19.11 6.08,18.49 5.78,17.75 5.78,16.9 c 0,-0.83 0.28,-1.54 0.84,-2.16 0.56,-0.62 1.26,-0.97 2.1,-1.07 L 9.25,13.6 c 0.13,0 0.2,-0.06 0.2,-0.17 l 0.07,-0.52 c 0.11,-1.08 0.56,-1.99 1.37,-2.71 0.81,-0.73 1.76,-1.09 2.85,-1.09 1.09,0 2.04,0.36 2.85,1.09 0.81,0.72 1.28,1.63 1.39,2.72 l 0.08,0.58 c 0,0.12 0.06,0.18 0.18,0.18 h 1.61 c 0.9,0 1.67,0.32 2.32,0.95 0.64,0.63 0.97,1.39 0.97,2.28 0,0.85 -0.3,1.59 -0.89,2.21 -0.59,0.62 -1.33,0.97 -2.19,1.04 -0.13,0 -0.2,0.06 -0.2,0.18 v 1.37 c 0,0.11 0.07,0.17 0.2,0.17 1.33,-0.04 2.46,-0.55 3.38,-1.51 0.92,-0.96 1.38,-2.11 1.38,-3.45 0,-0.87 -0.22,-1.68 -0.65,-2.43 z"
   id="cloud"
   inkscape:label="cloud"
   sodipodi:nodetypes="cscccssccsscssccsscccccscccsscsscsscsscc"
   style="display:inline" />
<path
   d="m 24.17,14.49 c 0.81,-0.73 1.34,-1.6 1.58,-2.62 v -0.13 l 0.19,-0.79 -0.76,-0.21 C 24.37,10.5 23.74,10.04 23.29,9.39 22.84,8.73 22.62,8.05 22.62,7.36 22.62,7.1 22.65,6.84 22.7,6.58 L 22.9,5.78 22.05,5.53 21.9,5.49 C 21.43,5.4 21.02,5.35 20.65,5.35 c -0.38,0 -0.76,0.04 -1.14,0.13 -0.39,0.09 -0.79,0.22 -1.2,0.41 -0.42,0.19 -0.82,0.45 -1.2,0.8 -0.38,0.35 -0.72,0.76 -1,1.23 l 1.47,0.89 c 0.32,-0.56 0.76,-1 1.33,-1.31 0.57,-0.31 1.17,-0.47 1.81,-0.47 h 0.21 c -0.01,0.09 -0.01,0.21 -0.01,0.38 0,0.95 0.26,1.85 0.78,2.71 0.52,0.86 1.25,1.51 2.17,1.96 -0.22,0.43 -0.48,0.8 -0.78,1.1 z"
   id="moon"
   inkscape:label="moon"
   style="display:inline"
   sodipodi:nodetypes="ccccccsccccsccsccsscssccc" /></svg>
