<?xml version="1.0" encoding="UTF-8" standalone="no"?>
<!-- Generator: Adobe Illustrator 22.0.1, SVG Export Plug-In . SVG Version: 6.00 Build 0)  -->

<svg
   version="1.1"
   id="Layer_1"
   x="0px"
   y="0px"
   viewBox="0 0 30 30"
   style="enable-background:new 0 0 30 30;"
   xml:space="preserve"
   sodipodi:docname="wi-night-alt-hail.svg"
   inkscape:version="1.4.3 (0d15f75, 2025-12-25)"
   xmlns:inkscape="http://www.inkscape.org/namespaces/inkscape"
   xmlns:sodipodi="http://sodipodi.sourceforge.net/DTD/sodipodi-0.dtd"
   xmlns="http://www.w3.org/2000/svg"
   xmlns:svg="http://www.w3.org/2000/svg"><defs
   id="defs1" /><sodipodi:namedview
   id="namedview1"
   pagecolor="#ffffff"
   bordercolor="#000000"
   borderopacity="0.25"
   inkscape:showpageshadow="2"
   inkscape:pageopacity="0.0"
   inkscape:pagecheckerboard="0"
   inkscape:deskcolor="#d1d1d1"
   inkscape:zoom="23.133333"
   inkscape:cx="15"
   inkscape:cy="15"
   inkscape:window-width="2560"
   inkscape:window-height="1387"
   inkscape:window-x="1352"
   inkscape:window-y="25"
   inkscape:window-maximized="0"
   inkscape:current-layer="Layer_1" />
<path
   id="rain"
   d="m 10.2,21.11 c 0,0.15 0.05,0.3 0.16,0.45 0.11,0.15 0.26,0.26 0.46,0.32 0.26,0.1 0.48,0.1 0.67,0 0.19,-0.1 0.32,-0.29 0.4,-0.57 l 0.88,-3.21 c 0.07,-0.25 0.04,-0.47 -0.08,-0.67 -0.12,-0.2 -0.3,-0.32 -0.54,-0.37 -0.22,-0.07 -0.43,-0.05 -0.63,0.07 -0.2,0.11 -0.33,0.28 -0.4,0.51 l -0.88,3.22 c 0,0.02 -0.01,0.06 -0.02,0.12 -0.01,0.05 -0.02,0.1 -0.02,0.13 z m 2.61,2.95 c 0,0.38 0.21,0.64 0.64,0.78 0.09,0.03 0.17,0.05 0.23,0.05 0.11,0 0.23,-0.03 0.35,-0.08 0.23,-0.08 0.39,-0.27 0.47,-0.57 l 1.65,-6.12 c 0.06,-0.24 0.04,-0.45 -0.07,-0.65 -0.11,-0.19 -0.28,-0.32 -0.5,-0.39 -0.23,-0.07 -0.45,-0.05 -0.65,0.07 -0.2,0.11 -0.34,0.28 -0.4,0.51 l -1.68,6.17 c -0.03,0.09 -0.04,0.17 -0.04,0.23 z m 4.16,-2.98 c 0,0.16 0.05,0.32 0.15,0.46 0.1,0.14 0.25,0.25 0.45,0.31 0.17,0.02 0.26,0.03 0.27,0.03 0.41,0 0.66,-0.2 0.77,-0.61 l 0.87,-3.17 c 0.06,-0.24 0.04,-0.45 -0.07,-0.65 -0.11,-0.19 -0.28,-0.32 -0.5,-0.39 -0.23,-0.07 -0.45,-0.05 -0.64,0.07 -0.2,0.11 -0.33,0.28 -0.4,0.51 L 17,20.81 c -0.02,0.09 -0.03,0.18 -0.03,0.27 z"
   inkscape:label="rain"
   style="display:inline" /><path
   id="hail"
   d="m 9.58,23.94 c 0.09,0.21 0.24,0.36 0.46,0.45 0.19,0.1 0.4,0.11 0.62,0.02 0.22,-0.08 0.37,-0.23 0.45,-0.45 0.1,-0.22 0.11,-0.43 0.02,-0.65 -0.08,-0.21 -0.23,-0.36 -0.45,-0.44 -0.2,-0.1 -0.41,-0.11 -0.62,-0.02 -0.21,0.09 -0.37,0.24 -0.47,0.46 -0.09,0.17 -0.1,0.38 -0.01,0.63 z m 2.49,2.77 c 0,0.12 0.02,0.22 0.06,0.29 0.09,0.22 0.24,0.37 0.45,0.45 0.09,0.05 0.2,0.07 0.33,0.07 0.06,0 0.16,-0.02 0.3,-0.06 0.23,-0.08 0.39,-0.23 0.48,-0.45 0.1,-0.22 0.1,-0.44 0,-0.66 -0.1,-0.22 -0.25,-0.37 -0.45,-0.46 -0.2,-0.09 -0.4,-0.09 -0.61,0 -0.19,0.08 -0.33,0.2 -0.42,0.36 -0.1,0.17 -0.14,0.32 -0.14,0.46 z m 4.18,-3.07 c 0,0.13 0.02,0.23 0.07,0.31 0.08,0.2 0.23,0.35 0.44,0.44 0.12,0.05 0.23,0.08 0.35,0.08 0.06,0 0.16,-0.02 0.3,-0.06 0.22,-0.09 0.37,-0.23 0.45,-0.44 0.08,-0.22 0.08,-0.43 0,-0.63 -0.08,-0.2 -0.22,-0.35 -0.42,-0.45 -0.22,-0.1 -0.44,-0.11 -0.65,-0.02 -0.22,0.08 -0.37,0.24 -0.47,0.46 -0.05,0.08 -0.07,0.18 -0.07,0.31 z"
   inkscape:label="hail"
   style="display:inline" /><path
   d="m 24.21,14.49 c 0.79,-0.74 1.3,-1.62 1.55,-2.62 l 0.13,-0.68 c 0.02,-0.01 0.03,-0.03 0.03,-0.07 0,-0.07 -0.05,-0.13 -0.16,-0.16 L 25.2,10.79 C 24.63,10.62 24.15,10.34 23.74,9.94 23.34,9.54 23.05,9.13 22.88,8.69 22.71,8.26 22.63,7.82 22.63,7.37 22.62,7.13 22.65,6.86 22.71,6.58 L 22.85,6 C 22.88,5.91 22.83,5.84 22.71,5.78 L 21.91,5.53 C 21.49,5.41 21.05,5.34 20.6,5.34 c -0.35,0 -0.71,0.04 -1.08,0.13 -0.37,0.09 -0.76,0.22 -1.17,0.4 -0.41,0.18 -0.8,0.45 -1.19,0.8 -0.38,0.35 -0.72,0.75 -1,1.22 l 1.46,0.94 c 0.31,-0.57 0.75,-1.01 1.3,-1.31 0.55,-0.3 1.14,-0.45 1.76,-0.44 0.11,0 0.2,0.01 0.25,0.02 v 0.31 c 0,0.98 0.26,1.89 0.78,2.75 0.52,0.86 1.25,1.51 2.17,1.95 -0.19,0.44 -0.44,0.79 -0.75,1.07 z"
   id="moon"
   inkscape:label="moon"
   style="display:inline"
   sodipodi:nodetypes="cccscccccccccssscccsccssccc" />
<path
   d="M 23.13,13.18 C 22.25,12.39 21.17,12 19.88,12 H 19.56 C 19.3,10.75 18.66,9.69 17.62,8.83 L 16.16,7.89 C 15.41,7.57 14.62,7.4 13.79,7.4 12.38,7.4 11.12,7.84 10.03,8.71 8.94,9.58 8.24,10.7 7.93,12.07 6.82,12.33 5.91,12.9 5.19,13.8 4.47,14.7 4.1,15.76 4.1,16.91 c 0,1.33 0.46,2.48 1.39,3.43 0.93,0.95 2.06,1.47 3.4,1.53 0.12,0 0.18,-0.06 0.18,-0.17 v -1.34 c 0,-0.11 -0.06,-0.17 -0.18,-0.17 -0.86,-0.04 -1.58,-0.38 -2.18,-1.02 -0.6,-0.64 -0.9,-1.39 -0.9,-2.26 0,-0.83 0.28,-1.55 0.84,-2.17 0.56,-0.61 1.26,-0.97 2.1,-1.07 l 0.53,-0.03 c 0.13,0 0.2,-0.06 0.2,-0.18 l 0.07,-0.54 c 0.11,-1.08 0.56,-1.99 1.37,-2.72 0.81,-0.73 1.76,-1.1 2.85,-1.1 1.08,0 2.03,0.37 2.85,1.1 0.82,0.73 1.28,1.64 1.4,2.72 l 0.08,0.58 c 0,0.11 0.06,0.17 0.17,0.17 h 1.61 c 0.89,0 1.66,0.32 2.31,0.96 0.65,0.64 0.98,1.4 0.98,2.27 0,0.87 -0.3,1.62 -0.9,2.26 -0.6,0.64 -1.33,0.98 -2.18,1.02 -0.13,0 -0.2,0.06 -0.2,0.17 v 1.34 c 0,0.11 0.07,0.17 0.2,0.17 1.33,-0.04 2.46,-0.55 3.38,-1.51 0.93,-0.96 1.39,-2.11 1.39,-3.45 0,-0.86 -0.22,-1.66 -0.65,-2.41 z"
   id="cloud"
   inkscape:label="cloud"
   sodipodi:nodetypes="cscccsscssscsscsscccccsssccssssscssccscc"
   style="display:inline" /></svg>
