<?xml version="1.0" encoding="UTF-8" standalone="no"?>
<!-- Generator: Adobe Illustrator 22.0.1, SVG Export Plug-In . SVG Version: 6.00 Build 0)  -->

<svg
   version="1.1"
   id="Layer_1"
   x="0px"
   y="0px"
   viewBox="0 0 30 30"
   style="enable-background:new 0 0 30 30;"
   xml:space="preserve"
   sodipodi:docname="wi-night-alt-rain-mix.svg"
   inkscape:version="1.4.3 (0d15f75, 2025-12-25)"
   xmlns:inkscape="http://www.inkscape.org/namespaces/inkscape"
   xmlns:sodipodi="http://sodipodi.sourceforge.net/DTD/sodipodi-0.dtd"
   xmlns="http://www.w3.org/2000/svg"
   xmlns:svg="http://www.w3.org/2000/svg"><defs
   id="defs1" /><sodipodi:namedview
   id="namedview1"
   pagecolor="#ffffff"
   bordercolor="#000000"
   borderopacity="0.25"
   inkscape:showpageshadow="2"
   inkscape:pageopacity="0.0"
   inkscape:pagecheckerboard="0"
   inkscape:deskcolor="#d1d1d1"
   inkscape:zoom="23.133333"
   inkscape:cx="15"
   inkscape:cy="15"
   inkscape:window-width="2560"
   inkscape:window-height="1387"
   inkscape:window-x="1352"
   inkscape:window-y="25"
   inkscape:window-maximized="0"
   inkscape:current-layer="Layer_1" />
<path
   id="rain"
   d="m 9.48,23.98 c 0,0.17 0.05,0.34 0.16,0.51 0.11,0.17 0.27,0.28 0.47,0.35 0.23,0.07 0.44,0.06 0.64,-0.04 0.2,-0.1 0.32,-0.28 0.39,-0.56 l 0.14,-0.61 C 11.33,23.4 11.3,23.19 11.19,23 c -0.11,-0.2 -0.28,-0.33 -0.52,-0.4 -0.23,-0.07 -0.44,-0.04 -0.64,0.08 -0.2,0.12 -0.34,0.3 -0.4,0.53 L 9.5,23.79 c -0.02,0.04 -0.02,0.1 -0.02,0.19 z m 0.76,-2.9 c 0,0.21 0.08,0.4 0.25,0.57 0.16,0.17 0.34,0.25 0.56,0.25 0.24,0 0.44,-0.08 0.6,-0.24 0.16,-0.16 0.24,-0.35 0.24,-0.59 0,-0.23 -0.08,-0.43 -0.24,-0.59 -0.16,-0.16 -0.36,-0.24 -0.6,-0.24 -0.23,0 -0.43,0.08 -0.58,0.23 -0.15,0.15 -0.23,0.38 -0.23,0.61 z m 0.61,-2.27 c -0.01,0.16 0.03,0.31 0.14,0.45 0.1,0.15 0.26,0.25 0.48,0.32 0.21,0.06 0.41,0.04 0.62,-0.07 C 12.3,19.4 12.43,19.23 12.5,19 l 0.28,-0.9 c 0.07,-0.24 0.05,-0.46 -0.07,-0.65 -0.12,-0.19 -0.3,-0.32 -0.54,-0.39 -0.22,-0.07 -0.43,-0.05 -0.63,0.07 -0.2,0.11 -0.34,0.28 -0.41,0.5 l -0.24,0.92 c 0,0.02 -0.01,0.06 -0.02,0.12 -0.02,0.05 -0.02,0.1 -0.02,0.14 z m 1.16,8.29 c 0,0.18 0.05,0.34 0.15,0.5 0.1,0.16 0.26,0.27 0.48,0.33 0.08,0.02 0.17,0.03 0.25,0.03 0.43,0 0.69,-0.2 0.79,-0.61 l 0.14,-0.59 c 0.06,-0.26 0.03,-0.48 -0.08,-0.68 -0.11,-0.2 -0.29,-0.32 -0.52,-0.37 -0.21,-0.07 -0.42,-0.05 -0.63,0.07 -0.21,0.12 -0.34,0.29 -0.41,0.51 l -0.14,0.59 c -0.02,0.09 -0.03,0.16 -0.03,0.22 z m 0.78,-2.9 c 0,0.22 0.08,0.41 0.25,0.58 0.16,0.16 0.35,0.24 0.57,0.24 0.24,0 0.43,-0.08 0.59,-0.23 0.16,-0.16 0.23,-0.35 0.23,-0.59 0,-0.23 -0.08,-0.42 -0.23,-0.58 -0.15,-0.16 -0.35,-0.23 -0.59,-0.23 -0.24,0 -0.43,0.08 -0.59,0.23 -0.15,0.15 -0.23,0.35 -0.23,0.58 z m 0.63,-2.27 c -0.01,0.15 0.03,0.31 0.13,0.47 0.1,0.16 0.25,0.26 0.45,0.3 0.23,0.06 0.44,0.04 0.64,-0.06 0.19,-0.1 0.33,-0.29 0.41,-0.56 l 0.27,-0.9 c 0.07,-0.22 0.05,-0.43 -0.07,-0.63 -0.12,-0.2 -0.29,-0.33 -0.53,-0.4 -0.22,-0.07 -0.43,-0.04 -0.64,0.08 -0.21,0.12 -0.34,0.3 -0.41,0.53 l -0.22,0.9 c -0.02,0.08 -0.03,0.17 -0.03,0.27 z m 2.75,2.15 c 0,0.16 0.05,0.32 0.15,0.48 0.1,0.16 0.26,0.27 0.46,0.33 0.03,0 0.08,0.01 0.14,0.02 0.06,0.01 0.1,0.02 0.14,0.02 0.41,0 0.66,-0.22 0.76,-0.66 l 0.14,-0.6 c 0.07,-0.21 0.05,-0.42 -0.07,-0.63 -0.11,-0.21 -0.28,-0.34 -0.51,-0.41 -0.25,-0.06 -0.48,-0.04 -0.68,0.08 -0.2,0.12 -0.34,0.29 -0.41,0.53 l -0.09,0.59 c 0,0.02 -0.01,0.07 -0.02,0.12 0,0.05 -0.01,0.09 -0.01,0.13 z m 0.74,-2.96 c 0,0.22 0.08,0.42 0.25,0.57 0.15,0.16 0.34,0.24 0.57,0.24 0.24,0 0.43,-0.08 0.59,-0.23 0.16,-0.15 0.23,-0.35 0.23,-0.58 0,-0.24 -0.08,-0.43 -0.23,-0.59 -0.15,-0.16 -0.35,-0.23 -0.59,-0.23 -0.24,0 -0.43,0.08 -0.59,0.23 -0.16,0.15 -0.23,0.35 -0.23,0.59 z m 0.61,-2.31 c 0,0.17 0.05,0.33 0.16,0.48 0.11,0.15 0.27,0.26 0.49,0.32 0.02,0 0.06,0.01 0.12,0.02 0.06,0.01 0.11,0.02 0.14,0.02 0.1,0 0.22,-0.03 0.36,-0.09 0.21,-0.11 0.35,-0.29 0.41,-0.52 l 0.24,-0.9 c 0.06,-0.23 0.04,-0.44 -0.08,-0.63 -0.11,-0.2 -0.28,-0.33 -0.51,-0.4 -0.23,-0.07 -0.44,-0.05 -0.64,0.06 -0.2,0.11 -0.32,0.27 -0.39,0.51 l -0.28,0.91 c 0,0.02 -0.01,0.06 -0.02,0.12 0.01,0.03 0,0.07 0,0.1 z"
   inkscape:label="rain" /><path
   d="m 23.12,13.11 c -0.92,-0.76 -2,-1.14 -3.23,-1.14 H 19.58 C 19.27,10.66 18.61,9.59 17.59,8.76 L 16.1,7.87 C 15.29,7.56 14.5,7.41 13.75,7.41 c -1.41,0 -2.67,0.44 -3.76,1.32 -1.09,0.88 -1.8,2 -2.11,3.37 -1.12,0.29 -2.04,0.88 -2.75,1.77 -0.71,0.87 -1.06,1.9 -1.06,3.06 0,1.33 0.47,2.47 1.4,3.43 0.93,0.96 2.07,1.47 3.4,1.51 0.12,0 0.18,-0.06 0.18,-0.17 V 20.36 C 9.05,20.25 8.99,20.19 8.87,20.19 8.02,20.15 7.29,19.8 6.69,19.16 6.09,18.52 5.78,17.77 5.78,16.93 5.78,16.08 6.06,15.34 6.63,14.72 7.2,14.1 7.9,13.75 8.73,13.68 l 0.53,-0.07 c 0.13,0 0.2,-0.06 0.2,-0.18 l 0.07,-0.51 c 0.11,-1.1 0.56,-2.02 1.37,-2.75 0.81,-0.73 1.76,-1.1 2.86,-1.1 1.09,0 2.04,0.37 2.86,1.1 0.82,0.73 1.29,1.64 1.4,2.72 l 0.07,0.57 c 0,0.12 0.06,0.19 0.17,0.19 h 1.62 c 0.91,0 1.68,0.32 2.33,0.97 0.65,0.64 0.97,1.41 0.97,2.31 0,0.55 -0.14,1.07 -0.41,1.56 -0.27,0.49 -0.65,0.89 -1.13,1.2 -0.48,0.31 -1,0.48 -1.56,0.51 -0.13,0 -0.2,0.06 -0.2,0.17 v 1.34 c 0,0.11 0.07,0.17 0.2,0.17 0.88,-0.02 1.69,-0.26 2.42,-0.71 0.73,-0.45 1.31,-1.05 1.73,-1.8 0.42,-0.75 0.63,-1.56 0.63,-2.43 0,-0.88 -0.23,-1.72 -0.68,-2.51 z"
   id="cloud"
   inkscape:label="cloud"
   style="display:inline"
   sodipodi:nodetypes="cscccssccsscsscsssccccsssccsscssscsscssscc" />
<path
   d="m 24.18,14.43 c 0.83,-0.74 1.36,-1.62 1.58,-2.62 l 0.14,-0.68 c 0.02,-0.02 0.03,-0.04 0.03,-0.07 0,-0.06 -0.06,-0.11 -0.17,-0.16 L 25.21,10.72 C 24.64,10.55 24.14,10.27 23.74,9.87 23.33,9.47 23.04,9.06 22.87,8.62 22.7,8.19 22.61,7.76 22.61,7.33 22.59,7.12 22.62,6.84 22.7,6.51 l 0.13,-0.58 c 0.04,-0.1 0,-0.18 -0.13,-0.23 L 21.9,5.46 C 21.49,5.35 21.06,5.29 20.61,5.29 c -0.36,0 -0.74,0.04 -1.12,0.13 -0.38,0.09 -0.78,0.22 -1.19,0.41 -0.41,0.19 -0.81,0.46 -1.2,0.81 -0.39,0.35 -0.72,0.76 -1,1.23 l 1.49,0.89 c 0.32,-0.58 0.76,-1.02 1.31,-1.34 0.56,-0.32 1.13,-0.47 1.73,-0.46 0.09,0 0.19,0.01 0.3,0.03 V 7.3 c -0.01,0.98 0.25,1.9 0.77,2.76 0.53,0.86 1.27,1.5 2.22,1.94 -0.19,0.41 -0.46,0.78 -0.8,1.11 z"
   id="moon"
   inkscape:label="moon"
   sodipodi:nodetypes="cccscccccccccsssscccccccccc"
   style="display:inline" /></svg>
