<?xml version="1.0" encoding="UTF-8" standalone="no"?>
<!-- Generator: Adobe Illustrator 22.0.1, SVG Export Plug-In . SVG Version: 6.00 Build 0)  -->

<svg
   version="1.1"
   id="Layer_1"
   x="0px"
   y="0px"
   viewBox="0 0 30 30"
   style="enable-background:new 0 0 30 30;"
   xml:space="preserve"
   sodipodi:docname="wi-night-alt-lightning.svg"
   inkscape:version="1.4.3 (0d15f75, 2025-12-25)"
   xmlns:inkscape="http://www.inkscape.org/namespaces/inkscape"
   xmlns:sodipodi="http://sodipodi.sourceforge.net/DTD/sodipodi-0.dtd"
   xmlns="http://www.w3.org/2000/svg"
   xmlns:svg="http://www.w3.org/2000/svg"><defs
   id="defs1" /><sodipodi:namedview
   id="namedview1"
   pagecolor="#ffffff"
   bordercolor="#000000"
   borderopacity="0.25"
   inkscape:showpageshadow="2"
   inkscape:pageopacity="0.0"
   inkscape:pagecheckerboard="0"
   inkscape:deskcolor="#d1d1d1"
   inkscape:zoom="23.133333"
   inkscape:cx="15"
   inkscape:cy="15"
   inkscape:window-width="2560"
   inkscape:window-height="1387"
   inkscape:window-x="1352"
   inkscape:window-y="25"
   inkscape:window-maximized="0"
   inkscape:current-layer="Layer_1" />
<path
   d="m 11.79,21.56 c -0.05,0.14 0,0.22 0.14,0.22 h 2.16 l -1.31,4.14 h 0.3 l 4.17,-5.59 c 0.04,-0.04 0.05,-0.09 0.03,-0.14 -0.02,-0.05 -0.06,-0.07 -0.13,-0.07 h -2.2 l 2.31,-4.21 c 0.07,-0.14 0.02,-0.22 -0.14,-0.22 h -2.94 c -0.08,0 -0.15,0.05 -0.22,0.14 z"
   id="lightning"
   inkscape:label="lightning" /><path
   d="m 24.18,14.44 c 0.8,-0.72 1.32,-1.58 1.55,-2.58 l 0.15,-0.72 c 0.01,-0.01 0.01,-0.03 0.01,-0.07 0,-0.07 -0.05,-0.13 -0.16,-0.16 L 25.15,10.74 C 24.58,10.58 24.1,10.3 23.7,9.92 23.3,9.53 23.02,9.12 22.85,8.69 22.68,8.26 22.6,7.82 22.6,7.37 22.6,7.13 22.63,6.86 22.69,6.58 L 22.83,5.96 C 22.86,5.87 22.81,5.79 22.69,5.74 L 21.9,5.5 C 21.46,5.39 21.05,5.34 20.65,5.34 c -0.36,0 -0.73,0.04 -1.12,0.13 -0.38,0.09 -0.78,0.22 -1.19,0.41 -0.41,0.18 -0.81,0.45 -1.2,0.8 -0.39,0.35 -0.72,0.75 -1,1.22 l 1.46,0.91 c 0.33,-0.57 0.77,-1 1.33,-1.3 0.55,-0.3 1.13,-0.45 1.72,-0.45 0.13,0 0.22,0.01 0.27,0.02 v 0.31 c 0,0.96 0.26,1.87 0.78,2.73 0.52,0.86 1.24,1.51 2.17,1.96 -0.16,0.37 -0.41,0.73 -0.75,1.07 z"
   id="moon"
   inkscape:label="moon"
   style="display:inline"
   sodipodi:nodetypes="cccscccssccccsccscccscssccc" />
<path
   d="M 23.12,13.15 C 22.2,12.36 21.13,11.97 19.9,11.97 H 19.58 C 19.29,10.71 18.63,9.66 17.6,8.81 L 16.14,7.9 C 15.43,7.6 14.66,7.45 13.81,7.45 c -1.41,0 -2.66,0.44 -3.75,1.31 -1.09,0.87 -1.79,1.99 -2.1,3.35 -1.1,0.26 -2.01,0.84 -2.73,1.74 -0.75,0.89 -1.11,1.91 -1.11,3.06 0,1.33 0.46,2.48 1.39,3.43 0.93,0.95 2.06,1.47 3.4,1.53 0.11,0 0.17,-0.06 0.17,-0.17 V 20.33 C 9.08,20.21 9.02,20.15 8.91,20.15 8.04,20.08 7.31,19.74 6.72,19.11 6.13,18.49 5.83,17.75 5.83,16.9 c 0,-0.84 0.28,-1.57 0.85,-2.19 0.57,-0.62 1.26,-0.97 2.1,-1.04 L 9.31,13.6 c 0.13,0 0.2,-0.06 0.2,-0.17 l 0.07,-0.52 c 0.11,-1.08 0.56,-1.99 1.37,-2.71 0.81,-0.73 1.76,-1.09 2.85,-1.09 1.09,0 2.04,0.36 2.85,1.09 0.81,0.72 1.27,1.63 1.39,2.72 l 0.07,0.58 c 0,0.12 0.06,0.18 0.18,0.18 h 1.61 c 0.91,0 1.68,0.32 2.32,0.95 0.64,0.63 0.96,1.39 0.96,2.28 0,0.85 -0.3,1.59 -0.89,2.21 -0.59,0.62 -1.32,0.97 -2.19,1.04 -0.13,0 -0.2,0.06 -0.2,0.18 v 1.37 c 0,0.11 0.07,0.17 0.2,0.17 1.33,-0.04 2.46,-0.55 3.38,-1.51 0.92,-0.96 1.38,-2.11 1.38,-3.45 0,-0.89 -0.23,-1.72 -0.68,-2.48 z"
   id="cloud"
   inkscape:label="cloud"
   sodipodi:nodetypes="cscccssccsscssccsscccccscccssssscsscsscc"
   style="display:inline" /></svg>
