<?xml version="1.0" encoding="UTF-8" standalone="no"?>
<!-- Generator: Adobe Illustrator 22.0.1, SVG Export Plug-In . SVG Version: 6.00 Build 0)  -->

<svg
   version="1.1"
   id="Layer_1"
   x="0px"
   y="0px"
   viewBox="0 0 30 30"
   style="enable-background:new 0 0 30 30;"
   xml:space="preserve"
   sodipodi:docname="wi-night-snow-thunderstorm.svg"
   inkscape:version="1.4.3 (0d15f75, 2025-12-25)"
   xmlns:inkscape="http://www.inkscape.org/namespaces/inkscape"
   xmlns:sodipodi="http://sodipodi.sourceforge.net/DTD/sodipodi-0.dtd"
   xmlns="http://www.w3.org/2000/svg"
   xmlns:svg="http://www.w3.org/2000/svg"><defs
   id="defs1" /><sodipodi:namedview
   id="namedview1"
   pagecolor="#ffffff"
   bordercolor="#000000"
   borderopacity="0.25"
   inkscape:showpageshadow="2"
   inkscape:pageopacity="0.0"
   inkscape:pagecheckerboard="0"
   inkscape:deskcolor="#d1d1d1"
   inkscape:zoom="23.133333"
   inkscape:cx="15"
   inkscape:cy="15"
   inkscape:window-width="2560"
   inkscape:window-height="1387"
   inkscape:window-x="1352"
   inkscape:window-y="25"
   inkscape:window-maximized="0"
   inkscape:current-layer="Layer_1" />
<path
   id="snow"
   d="m 13.82,22.96 c 0,0.24 0.08,0.44 0.24,0.59 0.16,0.16 0.36,0.24 0.58,0.24 0.24,0 0.44,-0.08 0.61,-0.24 0.17,-0.16 0.25,-0.36 0.25,-0.59 0,-0.24 -0.08,-0.44 -0.25,-0.61 -0.17,-0.17 -0.37,-0.26 -0.61,-0.26 -0.22,0 -0.41,0.09 -0.58,0.26 -0.17,0.17 -0.24,0.37 -0.24,0.61 z m 0,-3.64 c 0,0.24 0.08,0.43 0.24,0.58 0.16,0.16 0.36,0.24 0.58,0.24 0.24,0 0.45,-0.08 0.61,-0.23 0.16,-0.15 0.25,-0.35 0.25,-0.59 0,-0.23 -0.08,-0.43 -0.25,-0.6 -0.17,-0.17 -0.37,-0.25 -0.61,-0.25 -0.23,0 -0.42,0.08 -0.58,0.25 -0.16,0.17 -0.24,0.37 -0.24,0.6 z m 0,7.31 c 0,0.22 0.08,0.41 0.24,0.57 0.17,0.17 0.36,0.25 0.58,0.25 0.24,0 0.44,-0.08 0.61,-0.24 0.17,-0.16 0.25,-0.35 0.25,-0.59 0,-0.24 -0.08,-0.44 -0.25,-0.61 -0.17,-0.17 -0.37,-0.26 -0.61,-0.26 -0.22,0 -0.41,0.09 -0.58,0.26 -0.16,0.18 -0.24,0.39 -0.24,0.62 z m 3.23,-5.61 c 0,0.24 0.08,0.44 0.25,0.6 0.17,0.16 0.36,0.25 0.6,0.25 0.23,0 0.43,-0.08 0.59,-0.25 0.16,-0.17 0.24,-0.37 0.24,-0.6 0,-0.22 -0.08,-0.42 -0.24,-0.58 -0.16,-0.16 -0.35,-0.24 -0.59,-0.24 -0.23,0 -0.43,0.08 -0.6,0.24 -0.17,0.16 -0.25,0.35 -0.25,0.58 z m 0,3.64 c 0,0.23 0.08,0.42 0.24,0.58 0.16,0.16 0.36,0.24 0.6,0.24 0.24,0 0.43,-0.08 0.59,-0.24 0.16,-0.16 0.23,-0.35 0.23,-0.59 0,-0.24 -0.08,-0.43 -0.23,-0.59 -0.16,-0.16 -0.35,-0.23 -0.59,-0.23 -0.24,0 -0.44,0.08 -0.6,0.23 -0.16,0.16 -0.24,0.36 -0.24,0.6 z"
   inkscape:label="snow" /><path
   d="m 7.81,21.64 -0.66,1.7 c -0.05,0.14 0,0.22 0.14,0.22 H 9.42 L 8,27.77 h 0.29 l 4.36,-5.66 c 0.04,-0.04 0.04,-0.09 0.02,-0.14 C 12.65,21.92 12.6,21.9 12.53,21.9 h -2.19 l 2.49,-4.65 c 0.07,-0.14 0.03,-0.22 -0.14,-0.22 H 9.72 c -0.09,0 -0.17,0.05 -0.23,0.15 l -1.07,2.88 z"
   id="lightning"
   inkscape:label="lightning"
   style="display:inline"
   sodipodi:nodetypes="ccsccccssccssccc" />
<path
   d="M 23.59,13.39 C 22.63,12.43 21.46,11.95 20.07,11.95 H 19.76 C 19.46,10.76 18.89,9.78 18.06,9.02 L 16.64,8 C 15.83,7.57 14.93,7.35 13.92,7.35 c -1.42,0 -2.68,0.44 -3.77,1.32 -1.09,0.88 -1.8,2 -2.1,3.37 -1.11,0.26 -2.02,0.84 -2.74,1.74 -0.72,0.92 -1.08,1.95 -1.08,3.1 0,1.12 0.33,2.12 1,3 0.67,0.88 1.53,1.47 2.58,1.76 L 8.42,20.06 C 7.7,19.88 7.11,19.5 6.64,18.9 6.17,18.31 5.94,17.64 5.94,16.88 5.94,16.04 6.22,15.31 6.78,14.7 7.34,14.09 8.05,13.73 8.89,13.63 L 9.4,13.6 c 0.12,0 0.19,-0.05 0.22,-0.14 L 9.7,12.87 c 0.11,-1.08 0.56,-1.99 1.37,-2.72 0.81,-0.73 1.76,-1.1 2.86,-1.1 1.09,0 2.04,0.37 2.86,1.1 0.82,0.73 1.29,1.64 1.4,2.72 l 0.08,0.59 c 0,0.11 0.06,0.17 0.18,0.17 h 1.61 c 0.89,0 1.66,0.32 2.31,0.96 0.65,0.64 0.97,1.4 0.97,2.29 0,0.87 -0.3,1.62 -0.9,2.26 -0.6,0.64 -1.32,0.98 -2.18,1.03 -0.13,0 -0.2,0.06 -0.2,0.18 v 1.34 c 0,0.11 0.07,0.17 0.2,0.17 0.88,-0.02 1.69,-0.26 2.42,-0.72 0.73,-0.45 1.31,-1.06 1.74,-1.81 0.43,-0.75 0.64,-1.57 0.64,-2.45 0,-0.73 -0.14,-1.4 -0.43,-2.02 z"
   id="cloud"
   inkscape:label="cloud"
   style="display:inline"
   sodipodi:nodetypes="cssccssccsccccccsssccssssscssccssccsccc" /><path
   d="m 24.63,14.86 c 0.76,-0.96 1.14,-2.06 1.14,-3.29 0,-0.95 -0.24,-1.83 -0.71,-2.64 C 24.59,8.12 23.95,7.48 23.14,7.01 22.33,6.54 21.45,6.3 20.5,6.3 19.78,6.3 19.08,6.45 18.4,6.75 17.72,7.05 17.14,7.47 16.64,8 l 1.42,1.02 c 0.67,-0.64 1.48,-0.97 2.45,-0.97 0.98,0 1.82,0.34 2.51,1.03 0.69,0.68 1.04,1.52 1.04,2.5 0,0.66 -0.16,1.26 -0.47,1.81 z"
   id="moon"
   inkscape:label="moon"
   sodipodi:nodetypes="csssssccscscc"
   style="display:inline" /></svg>
