<?xml version="1.0" encoding="UTF-8" standalone="no"?>
<!-- Generator: Adobe Illustrator 22.0.1, SVG Export Plug-In . SVG Version: 6.00 Build 0)  -->

<svg
   version="1.1"
   id="Layer_1"
   x="0px"
   y="0px"
   viewBox="0 0 30 30"
   style="enable-background:new 0 0 30 30;"
   xml:space="preserve"
   sodipodi:docname="wi-night-storm-showers.svg"
   inkscape:version="1.4.3 (0d15f75, 2025-12-25)"
   xmlns:inkscape="http://www.inkscape.org/namespaces/inkscape"
   xmlns:sodipodi="http://sodipodi.sourceforge.net/DTD/sodipodi-0.dtd"
   xmlns="http://www.w3.org/2000/svg"
   xmlns:svg="http://www.w3.org/2000/svg"><defs
   id="defs1" /><sodipodi:namedview
   id="namedview1"
   pagecolor="#ffffff"
   bordercolor="#000000"
   borderopacity="0.25"
   inkscape:showpageshadow="2"
   inkscape:pageopacity="0.0"
   inkscape:pagecheckerboard="0"
   inkscape:deskcolor="#d1d1d1"
   inkscape:zoom="23.133333"
   inkscape:cx="15"
   inkscape:cy="15"
   inkscape:window-width="2560"
   inkscape:window-height="1387"
   inkscape:window-x="1352"
   inkscape:window-y="25"
   inkscape:window-maximized="0"
   inkscape:current-layer="Layer_1" />
<path
   id="snow"
   d="m 12.42,26.73 c 0,0.18 0.05,0.35 0.16,0.51 0.11,0.17 0.26,0.27 0.46,0.3 0.02,0 0.05,0 0.08,0.01 0.03,0.01 0.07,0.01 0.09,0.01 0.02,0 0.05,0 0.08,0 0.43,-0.03 0.69,-0.23 0.8,-0.61 l 0.29,-1.06 c 0.06,-0.22 0.03,-0.43 -0.09,-0.63 -0.12,-0.2 -0.3,-0.34 -0.53,-0.41 -0.22,-0.06 -0.43,-0.03 -0.63,0.08 -0.2,0.12 -0.34,0.3 -0.41,0.53 l -0.25,1 c -0.03,0.18 -0.05,0.26 -0.05,0.27 z m 1.34,-4.77 c 0,0.15 0.05,0.3 0.15,0.45 0.1,0.15 0.26,0.26 0.46,0.34 0.22,0.08 0.43,0.06 0.63,-0.05 0.2,-0.11 0.33,-0.29 0.4,-0.53 l 0.3,-1.04 c 0.06,-0.25 0.04,-0.48 -0.08,-0.68 -0.12,-0.2 -0.29,-0.32 -0.53,-0.37 -0.22,-0.07 -0.44,-0.05 -0.64,0.07 -0.2,0.12 -0.34,0.29 -0.42,0.53 l -0.25,1.02 c 0,0.02 0,0.05 -0.01,0.08 -0.01,0.03 -0.01,0.07 -0.01,0.09 0,0.03 0,0.06 0,0.09 z m 2.83,1.62 c 0,0.19 0.05,0.36 0.16,0.52 0.11,0.16 0.26,0.27 0.47,0.32 0.16,0.03 0.25,0.05 0.27,0.05 0.39,0 0.65,-0.2 0.77,-0.6 l 0.24,-1.06 c 0.07,-0.22 0.05,-0.43 -0.06,-0.63 -0.11,-0.2 -0.27,-0.34 -0.5,-0.41 -0.25,-0.06 -0.48,-0.03 -0.68,0.09 -0.21,0.12 -0.33,0.3 -0.38,0.53 l -0.28,0.99 c 0,0.05 -0.01,0.12 -0.01,0.2 z m 1.36,-4.75 c 0,0.16 0.05,0.32 0.16,0.47 0.11,0.15 0.27,0.27 0.49,0.34 0.17,0.02 0.26,0.03 0.26,0.03 0.12,0 0.24,-0.03 0.38,-0.08 0.19,-0.1 0.33,-0.27 0.39,-0.52 l 0.29,-1.04 c 0.06,-0.22 0.03,-0.43 -0.09,-0.63 -0.12,-0.2 -0.3,-0.34 -0.53,-0.41 -0.23,-0.07 -0.44,-0.05 -0.64,0.07 -0.2,0.12 -0.33,0.29 -0.4,0.53 l -0.28,1.02 c -0.02,0.09 -0.03,0.16 -0.03,0.22 z"
   inkscape:label="rain" /><path
   d="M 7.82,21.64 7.17,23.3 c -0.04,0.14 0,0.21 0.14,0.21 H 9.43 L 8.29,27.6 h 0.29 l 4.08,-5.49 C 12.7,22.07 12.7,22.02 12.67,21.97 12.64,21.92 12.59,21.9 12.52,21.9 h -2.17 l 2.47,-4.67 c 0.07,-0.14 0.03,-0.22 -0.13,-0.22 H 9.73 c -0.09,0 -0.16,0.05 -0.19,0.14 l -1.11,2.93 z"
   id="lightning"
   inkscape:label="lightning"
   style="display:inline"
   sodipodi:nodetypes="ccsccccssccssccc" />
<path
   d="M 23.55,13.35 C 22.56,12.39 21.4,11.91 20.06,11.91 H 19.74 C 19.44,10.75 18.88,9.77 18.06,8.98 L 16.64,8.05 c -0.82,-0.44 -1.72,-0.66 -2.7,-0.66 -1.42,0 -2.68,0.44 -3.77,1.31 -1.09,0.87 -1.8,2 -2.11,3.37 -1.11,0.26 -2.02,0.83 -2.74,1.73 -0.72,0.9 -1.07,1.91 -1.07,3.06 0,1.1 0.33,2.09 1,2.98 0.67,0.88 1.52,1.48 2.57,1.8 L 8.43,20.08 C 7.72,19.9 7.13,19.51 6.65,18.91 6.18,18.31 5.94,17.64 5.94,16.89 c 0,-0.84 0.28,-1.57 0.85,-2.19 0.57,-0.62 1.27,-0.97 2.1,-1.05 l 0.52,-0.07 c 0.13,0 0.2,-0.06 0.2,-0.17 l 0.07,-0.52 c 0.11,-1.09 0.56,-2 1.37,-2.72 0.81,-0.73 1.76,-1.09 2.86,-1.09 1.09,0 2.05,0.36 2.86,1.09 0.81,0.73 1.28,1.64 1.4,2.72 l 0.07,0.58 c 0,0.11 0.06,0.17 0.18,0.17 h 1.62 c 0.91,0 1.68,0.32 2.33,0.95 0.64,0.63 0.97,1.4 0.97,2.28 0,0.86 -0.3,1.6 -0.9,2.23 -0.6,0.63 -1.33,0.97 -2.2,1.04 -0.12,0 -0.19,0.06 -0.19,0.18 v 1.38 c 0,0.11 0.06,0.17 0.19,0.17 1.33,-0.04 2.46,-0.55 3.39,-1.52 0.93,-0.97 1.39,-2.12 1.39,-3.47 0,-0.73 -0.14,-1.39 -0.41,-2 z"
   id="cloud"
   inkscape:label="cloud"
   style="display:inline"
   sodipodi:nodetypes="cscccsscssccccsscccccssccsscsscsscsscc" /><path
   d="m 24.61,14.88 c 0.76,-1 1.14,-2.1 1.14,-3.29 0,-0.71 -0.14,-1.39 -0.42,-2.04 C 25.05,8.9 24.67,8.35 24.21,7.88 23.75,7.41 23.18,7.04 22.53,6.76 21.88,6.48 21.2,6.34 20.5,6.34 c -0.74,0 -1.44,0.15 -2.12,0.45 -0.67,0.3 -1.26,0.72 -1.74,1.26 l 1.42,0.93 c 0.66,-0.64 1.48,-0.96 2.45,-0.96 0.98,0 1.82,0.35 2.5,1.04 0.69,0.69 1.03,1.53 1.03,2.51 0,0.63 -0.16,1.22 -0.49,1.78 z"
   id="moon"
   inkscape:label="moon"
   sodipodi:nodetypes="cssssscccscscc"
   style="display:inline" /></svg>
