<?xml version="1.0" encoding="UTF-8" standalone="no"?>
<!-- Generator: Adobe Illustrator 22.0.1, SVG Export Plug-In . SVG Version: 6.00 Build 0)  -->

<svg
   version="1.1"
   id="Layer_1"
   x="0px"
   y="0px"
   viewBox="0 0 30 30"
   style="enable-background:new 0 0 30 30;"
   xml:space="preserve"
   sodipodi:docname="wi-night-alt-cloudy-high.svg"
   inkscape:version="1.4.3 (0d15f75, 2025-12-25)"
   xmlns:inkscape="http://www.inkscape.org/namespaces/inkscape"
   xmlns:sodipodi="http://sodipodi.sourceforge.net/DTD/sodipodi-0.dtd"
   xmlns="http://www.w3.org/2000/svg"
   xmlns:svg="http://www.w3.org/2000/svg"><defs
   id="defs1" /><sodipodi:namedview
   id="namedview1"
   pagecolor="#ffffff"
   bordercolor="#000000"
   borderopacity="0.25"
   inkscape:showpageshadow="2"
   inkscape:pageopacity="0.0"
   inkscape:pagecheckerboard="0"
   inkscape:deskcolor="#d1d1d1"
   inkscape:zoom="46.266667"
   inkscape:cx="17.744957"
   inkscape:cy="18.04755"
   inkscape:window-width="2560"
   inkscape:window-height="1387"
   inkscape:window-x="1352"
   inkscape:window-y="25"
   inkscape:window-maximized="0"
   inkscape:current-layer="Layer_1" />
<path
   d="m 5.28,13.43 c 0,0.87 0.3,1.62 0.9,2.26 0.6,0.64 1.33,0.98 2.19,1.02 h 11.19 c 0.86,-0.04 1.59,-0.38 2.19,-1.02 0.6,-0.64 0.9,-1.39 0.9,-2.26 0,-0.88 -0.32,-1.63 -0.97,-2.28 -0.65,-0.64 -1.42,-0.97 -2.31,-0.97 h -1.62 c -0.11,0 -0.17,-0.06 -0.17,-0.17 L 17.51,9.43 C 17.4,8.35 16.93,7.44 16.11,6.72 15.29,6 14.34,5.63 13.25,5.63 12.15,5.63 11.2,5.99 10.39,6.72 9.58,7.45 9.13,8.35 9.03,9.43 l -0.07,0.58 c 0,0.11 -0.07,0.17 -0.2,0.17 H 8.23 c -0.84,0.1 -1.54,0.46 -2.1,1.07 -0.56,0.61 -0.85,1.34 -0.85,2.18 z m 17.1,3.94 c -0.84,0.65 -1.78,0.99 -2.82,1.01 h -2.85 l -1.45,0.01 H 8.37 C 7.03,18.33 5.9,17.82 4.97,16.86 4.04,15.9 3.57,14.76 3.57,13.43 3.57,12.28 3.93,11.25 4.65,10.35 5.37,9.45 6.28,8.87 7.38,8.61 7.7,7.24 8.4,6.12 9.5,5.24 c 1.1,-0.88 2.35,-1.31 3.76,-1.31 1.38,0 2.61,0.43 3.69,1.28 1.08,0.85 1.78,1.95 2.1,3.29 h 0.33 c 0.9,0 1.73,0.22 2.49,0.65 0.76,0.43 1.37,1.03 1.81,1.79 0.44,0.76 0.67,1.58 0.67,2.48 0,1.15 -0.35,2.18 -1.06,3.08 z"
   id="cloud"
   inkscape:label="cloud"
   style="display:inline"
   sodipodi:nodetypes="ssccsscssccsssccscsscccccssscssscsssscc" />
<path
   d="m 23.29,16.5 c 0.64,0.55 1.4,0.84 2.26,0.87 l 0.66,0.06 c 0.12,0 0.18,0.06 0.18,0.19 v 0.77 c 0.01,1.01 -0.24,1.95 -0.73,2.8 -0.49,0.86 -1.17,1.53 -2.02,2.03 -0.85,0.5 -1.78,0.75 -2.79,0.75 -0.77,0 -1.5,-0.15 -2.19,-0.44 -0.69,-0.29 -1.28,-0.69 -1.78,-1.19 -0.49,-0.5 -0.89,-1.09 -1.18,-1.78 -0.29,-0.69 -0.44,-1.41 -0.44,-2.17 h 1.45 c 0,0.79 0.2,1.52 0.6,2.17 0.4,0.65 0.91,1.15 1.54,1.5 0.63,0.35 1.29,0.52 1.99,0.52 0.62,0 1.23,-0.15 1.82,-0.45 0.6,-0.3 1.12,-0.75 1.58,-1.36 0.46,-0.61 0.75,-1.31 0.86,-2.1 -1.08,-0.22 -1.98,-0.65 -2.72,-1.3 z"
   id="moon"
   inkscape:label="moon"
   sodipodi:nodetypes="cccsccssscsccssscsccc"
   style="display:inline" /></svg>
