<?xml version="1.0" encoding="UTF-8" standalone="no"?>
<!-- Generator: Adobe Illustrator 22.0.1, SVG Export Plug-In . SVG Version: 6.00 Build 0)  -->

<svg
   version="1.1"
   id="Layer_1"
   x="0px"
   y="0px"
   viewBox="0 0 30 30"
   style="enable-background:new 0 0 30 30;"
   xml:space="preserve"
   sodipodi:docname="wi-night-alt-snow-wind.svg"
   inkscape:version="1.4.3 (0d15f75, 2025-12-25)"
   xmlns:inkscape="http://www.inkscape.org/namespaces/inkscape"
   xmlns:sodipodi="http://sodipodi.sourceforge.net/DTD/sodipodi-0.dtd"
   xmlns="http://www.w3.org/2000/svg"
   xmlns:svg="http://www.w3.org/2000/svg"><defs
   id="defs1" /><sodipodi:namedview
   id="namedview1"
   pagecolor="#ffffff"
   bordercolor="#000000"
   borderopacity="0.25"
   inkscape:showpageshadow="2"
   inkscape:pageopacity="0.0"
   inkscape:pagecheckerboard="0"
   inkscape:deskcolor="#d1d1d1"
   inkscape:zoom="23.133333"
   inkscape:cx="15"
   inkscape:cy="15"
   inkscape:window-width="2560"
   inkscape:window-height="1387"
   inkscape:window-x="1352"
   inkscape:window-y="25"
   inkscape:window-maximized="0"
   inkscape:current-layer="Layer_1" />
<path
   id="snow"
   d="m 9.6,24.66 c 0,0.23 0.08,0.42 0.24,0.58 0.16,0.16 0.36,0.24 0.58,0.24 0.24,0 0.44,-0.08 0.6,-0.23 0.16,-0.16 0.24,-0.35 0.24,-0.59 0,-0.24 -0.08,-0.43 -0.24,-0.59 -0.16,-0.16 -0.36,-0.23 -0.6,-0.23 -0.24,0 -0.42,0.07 -0.58,0.23 -0.16,0.15 -0.24,0.35 -0.24,0.59 z m 0.43,-3.64 c 0,0.24 0.08,0.44 0.24,0.6 0.16,0.16 0.35,0.25 0.59,0.25 0.24,0 0.44,-0.08 0.6,-0.25 0.16,-0.17 0.24,-0.37 0.24,-0.6 0,-0.22 -0.08,-0.42 -0.24,-0.58 -0.16,-0.16 -0.36,-0.24 -0.6,-0.24 -0.23,0 -0.43,0.08 -0.59,0.24 -0.16,0.16 -0.24,0.35 -0.24,0.58 z m 2.35,5.61 c 0,0.22 0.08,0.41 0.24,0.57 0.17,0.17 0.36,0.25 0.58,0.25 0.24,0 0.44,-0.08 0.61,-0.24 0.17,-0.16 0.25,-0.35 0.25,-0.59 0,-0.24 -0.08,-0.44 -0.25,-0.61 -0.17,-0.17 -0.37,-0.26 -0.61,-0.26 -0.22,0 -0.41,0.09 -0.58,0.26 -0.16,0.18 -0.24,0.39 -0.24,0.62 z m 0.64,-3.67 c 0,0.24 0.08,0.43 0.25,0.59 0.16,0.16 0.35,0.24 0.57,0.24 0.24,0 0.44,-0.08 0.61,-0.24 0.17,-0.16 0.26,-0.36 0.26,-0.59 0,-0.24 -0.09,-0.44 -0.26,-0.61 -0.17,-0.17 -0.38,-0.26 -0.61,-0.26 -0.22,0 -0.41,0.09 -0.58,0.26 -0.17,0.17 -0.24,0.37 -0.24,0.61 z m 0.64,-3.64 c 0,0.24 0.08,0.43 0.24,0.58 0.16,0.16 0.36,0.24 0.58,0.24 0.24,0 0.45,-0.08 0.61,-0.23 0.16,-0.15 0.25,-0.35 0.25,-0.59 0,-0.23 -0.08,-0.43 -0.25,-0.6 -0.17,-0.17 -0.37,-0.25 -0.61,-0.25 -0.22,0 -0.42,0.08 -0.58,0.25 -0.16,0.17 -0.24,0.37 -0.24,0.6 z m 2.39,5.34 c 0,0.23 0.08,0.42 0.24,0.58 0.16,0.16 0.36,0.24 0.6,0.24 0.23,0 0.43,-0.08 0.59,-0.24 0.16,-0.16 0.24,-0.35 0.24,-0.59 0,-0.24 -0.08,-0.43 -0.23,-0.59 -0.16,-0.16 -0.35,-0.23 -0.59,-0.23 -0.24,0 -0.44,0.08 -0.6,0.23 -0.17,0.16 -0.25,0.36 -0.25,0.6 z m 0.42,-3.64 c 0,0.23 0.08,0.43 0.25,0.6 0.17,0.17 0.37,0.25 0.6,0.25 0.23,0 0.43,-0.08 0.59,-0.25 0.16,-0.17 0.24,-0.37 0.24,-0.6 0,-0.22 -0.08,-0.42 -0.24,-0.58 -0.16,-0.16 -0.35,-0.24 -0.59,-0.24 -0.24,0 -0.43,0.08 -0.6,0.25 -0.17,0.16 -0.25,0.35 -0.25,0.57 z"
   inkscape:label="snow" /><path
   d="m 24.22,14.45 c 0.74,-0.66 1.24,-1.52 1.52,-2.58 l 0.17,-0.72 c 0.01,-0.01 0.02,-0.04 0.02,-0.08 0,-0.07 -0.05,-0.13 -0.16,-0.16 L 25.16,10.74 C 24.72,10.61 24.33,10.42 23.99,10.17 23.65,9.92 23.38,9.64 23.18,9.33 22.98,9.02 22.84,8.71 22.74,8.38 22.64,8.06 22.59,7.74 22.59,7.43 c 0,-0.27 0.03,-0.56 0.1,-0.86 L 22.8,5.95 C 22.82,5.86 22.78,5.78 22.66,5.73 L 21.86,5.49 C 21.42,5.38 21.01,5.33 20.61,5.33 c -0.37,0 -0.74,0.04 -1.12,0.13 -0.38,0.09 -0.77,0.22 -1.18,0.41 -0.41,0.19 -0.8,0.45 -1.18,0.8 -0.38,0.35 -0.71,0.75 -0.99,1.22 l 1.44,0.88 c 0.31,-0.54 0.75,-0.96 1.3,-1.26 0.55,-0.3 1.12,-0.45 1.71,-0.46 0.15,0 0.26,0.01 0.33,0.02 v 0.31 c 0,0.97 0.26,1.88 0.78,2.74 0.52,0.86 1.25,1.51 2.17,1.96 -0.16,0.36 -0.41,0.72 -0.76,1.07 z"
   id="moon"
   inkscape:label="moon"
   style="display:inline"
   sodipodi:nodetypes="cccsccsscsccccssssccsccssccc" />
<path
   d="M 23.11,13.15 C 22.22,12.36 21.15,11.97 19.88,11.97 H 19.57 C 19.3,10.74 18.64,9.68 17.58,8.77 L 16.14,7.89 c -0.81,-0.33 -1.6,-0.5 -2.38,-0.5 -1.41,0 -2.67,0.44 -3.76,1.32 -1.09,0.88 -1.8,2 -2.11,3.37 -1.12,0.28 -2.04,0.87 -2.75,1.76 -0.71,0.9 -1.07,1.93 -1.07,3.09 0,1.33 0.47,2.47 1.4,3.43 0.93,0.96 2.07,1.47 3.4,1.51 0.12,0 0.18,-0.06 0.18,-0.17 V 20.36 C 9.05,20.25 8.99,20.19 8.87,20.19 8.02,20.15 7.29,19.8 6.69,19.16 6.08,18.52 5.78,17.77 5.78,16.92 c 0,-0.85 0.28,-1.58 0.85,-2.2 0.57,-0.62 1.27,-0.96 2.1,-1.03 l 0.53,-0.07 c 0.13,0 0.2,-0.06 0.2,-0.17 l 0.07,-0.52 c 0.11,-1.09 0.56,-2.01 1.37,-2.75 0.81,-0.74 1.76,-1.11 2.86,-1.11 1.09,0 2.04,0.37 2.86,1.1 0.82,0.73 1.28,1.64 1.4,2.72 l 0.08,0.57 c 0,0.12 0.06,0.18 0.17,0.18 h 1.62 c 0.91,0 1.68,0.32 2.33,0.97 0.65,0.64 0.97,1.41 0.97,2.31 0,0.85 -0.3,1.6 -0.91,2.24 -0.61,0.64 -1.33,0.98 -2.18,1.03 -0.14,0 -0.21,0.06 -0.21,0.17 v 1.34 c 0,0.11 0.07,0.17 0.21,0.17 0.88,-0.02 1.68,-0.26 2.41,-0.71 0.73,-0.45 1.31,-1.05 1.73,-1.8 0.42,-0.75 0.63,-1.56 0.63,-2.43 0,-0.91 -0.22,-1.74 -0.65,-2.48 z"
   id="cloud"
   inkscape:label="cloud"
   style="display:inline"
   sodipodi:nodetypes="cscccssccsscssccssccccsssccsscsscsscssscc" /></svg>
