<?xml version="1.0" encoding="UTF-8" standalone="no"?>
<!-- Generator: Adobe Illustrator 22.0.1, SVG Export Plug-In . SVG Version: 6.00 Build 0)  -->

<svg
   version="1.1"
   id="Layer_1"
   x="0px"
   y="0px"
   viewBox="0 0 30 30"
   style="enable-background:new 0 0 30 30;"
   xml:space="preserve"
   sodipodi:docname="wi-night-cloudy.svg"
   inkscape:version="1.4.3 (0d15f75, 2025-12-25)"
   xmlns:inkscape="http://www.inkscape.org/namespaces/inkscape"
   xmlns:sodipodi="http://sodipodi.sourceforge.net/DTD/sodipodi-0.dtd"
   xmlns="http://www.w3.org/2000/svg"
   xmlns:svg="http://www.w3.org/2000/svg"><defs
   id="defs1" /><sodipodi:namedview
   id="namedview1"
   pagecolor="#ffffff"
   bordercolor="#000000"
   borderopacity="0.25"
   inkscape:showpageshadow="2"
   inkscape:pageopacity="0.0"
   inkscape:pagecheckerboard="0"
   inkscape:deskcolor="#d1d1d1"
   inkscape:zoom="23.133333"
   inkscape:cx="15"
   inkscape:cy="15"
   inkscape:window-width="2560"
   inkscape:window-height="1387"
   inkscape:window-x="1352"
   inkscape:window-y="25"
   inkscape:window-maximized="0"
   inkscape:current-layer="Layer_1" />
<path
   d="m 6.01,16.89 c 0,-0.83 0.28,-1.55 0.83,-2.16 0.56,-0.61 1.26,-0.96 2.1,-1.06 l 0.68,-0.03 0.07,-0.72 c 0.14,-1.08 0.61,-1.99 1.41,-2.71 0.8,-0.73 1.74,-1.09 2.81,-1.09 1.09,0 2.05,0.37 2.86,1.1 0.81,0.73 1.27,1.63 1.38,2.71 l 0.1,0.75 h 1.78 c 0.88,0 1.64,0.32 2.28,0.95 0.64,0.63 0.96,1.39 0.96,2.26 0,0.9 -0.32,1.67 -0.95,2.32 -0.63,0.65 -1.4,0.97 -2.28,0.97 H 9.23 C 8.36,20.18 7.61,19.86 6.97,19.21 6.33,18.55 6.01,17.78 6.01,16.89 Z M 23.52,13.45 C 22.56,12.48 21.4,12 20.03,12 H 19.72 C 19.45,10.89 18.89,9.91 18.04,9.06 L 16.61,8.09 C 15.85,7.66 14.95,7.44 13.92,7.44 c -1.41,0 -2.65,0.43 -3.73,1.3 -1.08,0.87 -1.77,1.98 -2.08,3.35 -1.12,0.25 -2.03,0.82 -2.74,1.72 -0.71,0.9 -1.07,1.93 -1.07,3.08 0,0.89 0.22,1.72 0.66,2.48 0.44,0.76 1.03,1.36 1.79,1.8 0.76,0.44 1.58,0.67 2.48,0.67 h 10.81 c 0.89,0 1.72,-0.22 2.48,-0.67 0.76,-0.45 1.36,-1.05 1.8,-1.8 0.44,-0.76 0.67,-1.59 0.67,-2.48 0,-0.64 -0.14,-1.3 -0.42,-2 z"
   id="cloud"
   inkscape:label="cloud"
   sodipodi:nodetypes="scccccssccsssssscscscccsscssssssscscc"
   style="display:inline" />
<path
   d="m 24.57,14.89 c 0.76,-0.93 1.13,-2.03 1.13,-3.3 0,-0.95 -0.23,-1.83 -0.69,-2.63 -0.46,-0.8 -1.1,-1.44 -1.9,-1.91 -0.8,-0.47 -1.68,-0.7 -2.63,-0.7 -1.49,0 -2.78,0.58 -3.87,1.74 l 1.43,0.97 c 0.69,-0.66 1.5,-0.99 2.44,-0.99 0.99,0 1.83,0.34 2.52,1.03 0.69,0.68 1.04,1.52 1.04,2.51 0,0.62 -0.17,1.23 -0.52,1.84 z"
   id="moon"
   inkscape:label="moon"
   style="display:inline"
   sodipodi:nodetypes="cssssccscscc" /></svg>
