<?xml version="1.0" encoding="UTF-8" standalone="no"?>
<!-- Generator: Adobe Illustrator 22.0.1, SVG Export Plug-In . SVG Version: 6.00 Build 0)  -->

<svg
   version="1.1"
   id="Layer_1"
   x="0px"
   y="0px"
   viewBox="0 0 30 30"
   style="enable-background:new 0 0 30 30;"
   xml:space="preserve"
   sodipodi:docname="wi-night-alt-partly-cloudy.svg"
   inkscape:version="1.4.3 (0d15f75, 2025-12-25)"
   xmlns:inkscape="http://www.inkscape.org/namespaces/inkscape"
   xmlns:sodipodi="http://sodipodi.sourceforge.net/DTD/sodipodi-0.dtd"
   xmlns="http://www.w3.org/2000/svg"
   xmlns:svg="http://www.w3.org/2000/svg"><defs
   id="defs1" /><sodipodi:namedview
   id="namedview1"
   pagecolor="#ffffff"
   bordercolor="#000000"
   borderopacity="0.25"
   inkscape:showpageshadow="2"
   inkscape:pageopacity="0.0"
   inkscape:pagecheckerboard="0"
   inkscape:deskcolor="#d1d1d1"
   inkscape:zoom="32.715474"
   inkscape:cx="5.043485"
   inkscape:cy="14.671956"
   inkscape:window-width="2560"
   inkscape:window-height="1387"
   inkscape:window-x="1352"
   inkscape:window-y="25"
   inkscape:window-maximized="0"
   inkscape:current-layer="Layer_1" />
<path
   d="m 19.36,16.85 c 0.69,-0.43 1.2,-1.02 1.53,-1.75 -1.04,-0.52 -1.85,-1.27 -2.43,-2.25 -0.58,-0.98 -0.88,-2.01 -0.88,-3.11 V 9.39 h -0.12 -0.12 c -0.61,0 -1.2,0.13 -1.77,0.39 -0.57,0.26 -1.05,0.64 -1.44,1.12 L 14.1,10.88 c -0.55,0.68 -0.85,1.47 -0.92,2.37 l -1.93,0.55 v -0.35 c 0,-1.46 0.46,-2.74 1.38,-3.85 0.92,-1.11 2.09,-1.8 3.5,-2.06 0.36,-0.06 0.72,-0.09 1.08,-0.09 h 0.03 c 0.21,0 0.44,0.02 0.7,0.05 0.26,0.02 0.5,0.06 0.73,0.11 l 0.91,0.28 c 0.13,0.07 0.18,0.16 0.16,0.26 l -0.13,0.7 C 19.54,9.18 19.5,9.5 19.5,9.82 c 0,0.35 0.05,0.71 0.16,1.07 0.11,0.37 0.27,0.72 0.5,1.08 0.23,0.36 0.52,0.68 0.91,0.97 0.38,0.29 0.83,0.51 1.33,0.66 l 0.71,0.21 c 0.11,0.03 0.17,0.08 0.17,0.18 0,0.04 0,0.06 -0.01,0.07 l -0.18,0.68 c -0.06,0.24 -0.13,0.49 -0.22,0.73 -0.15,0.44 -0.38,0.89 -0.7,1.37 0,-0.01 0,-0.01 -0.01,-0.01 -0.44,0.63 -0.98,1.16 -1.64,1.58 z"
   id="moon"
   inkscape:label="moon"
   sodipodi:nodetypes="ccssccssccccsscsscccccscscccsccccccc"
   style="display:inline" />
<path
   d="m 20.52,18.41 c 0.14,0.34 0.21,0.75 0.21,1.24 0,0.99 -0.35,1.83 -1.04,2.53 -0.69,0.7 -1.52,1.05 -2.49,1.05 h -6.85 c -0.97,0 -1.81,-0.35 -2.52,-1.06 -0.7,-0.71 -1.06,-1.55 -1.06,-2.52 0,-0.79 0.23,-1.48 0.68,-2.09 0.45,-0.61 1.06,-1.03 1.81,-1.27 0.32,-1.09 0.98,-1.92 1.99,-2.49 0.972042,-0.424686 0.527122,-0.402835 1.93,-0.55 h 0.12 c 0.93,0 1.75,0.26 2.49,0.78 0.73,0.52 1.25,1.22 1.54,2.1 0.77,0 1.45,0.24 2.03,0.72 0.756127,0.684205 0.827368,0.964352 1.16,1.56 z M 8.75,19.65 c 0,0.45 0.15,0.83 0.46,1.15 0.31,0.32 0.69,0.47 1.14,0.47 h 6.85 c 0.43,0 0.8,-0.16 1.12,-0.48 0.32,-0.32 0.47,-0.7 0.47,-1.14 0,-0.43 -0.16,-0.8 -0.47,-1.12 -0.31,-0.32 -0.69,-0.47 -1.12,-0.47 h -1.3 c -0.11,0 -0.19,-0.07 -0.25,-0.23 l -0.08,-0.64 c -0.07,-0.58 -0.32,-1.06 -0.75,-1.44 -0.43,-0.38 -0.93,-0.58 -1.51,-0.58 -0.57,0 -1.06,0.19 -1.48,0.58 -0.42,0.39 -0.66,0.87 -0.73,1.44 L 11,17.74 c 0,0.15 -0.06,0.22 -0.19,0.22 l -0.63,0.08 c -0.41,0.04 -0.75,0.21 -1.02,0.51 -0.27,0.32 -0.41,0.68 -0.41,1.1 z"
   id="cloud"
   inkscape:label="cloud"
   style="display:inline"
   sodipodi:nodetypes="csssscsscccsccccsssssssssccssscccccs" /></svg>
