<?xml version="1.0" encoding="UTF-8" standalone="no"?>
<!-- Generator: Adobe Illustrator 22.0.1, SVG Export Plug-In . SVG Version: 6.00 Build 0)  -->

<svg
   version="1.1"
   id="Layer_1"
   x="0px"
   y="0px"
   viewBox="0 0 30 30"
   style="enable-background:new 0 0 30 30;"
   xml:space="preserve"
   sodipodi:docname="wi-night-rain.svg"
   inkscape:version="1.4.3 (0d15f75, 2025-12-25)"
   xmlns:inkscape="http://www.inkscape.org/namespaces/inkscape"
   xmlns:sodipodi="http://sodipodi.sourceforge.net/DTD/sodipodi-0.dtd"
   xmlns="http://www.w3.org/2000/svg"
   xmlns:svg="http://www.w3.org/2000/svg"><defs
   id="defs1" /><sodipodi:namedview
   id="namedview1"
   pagecolor="#ffffff"
   bordercolor="#000000"
   borderopacity="0.25"
   inkscape:showpageshadow="2"
   inkscape:pageopacity="0.0"
   inkscape:pagecheckerboard="0"
   inkscape:deskcolor="#d1d1d1"
   inkscape:zoom="23.133333"
   inkscape:cx="15"
   inkscape:cy="15"
   inkscape:window-width="2560"
   inkscape:window-height="1387"
   inkscape:window-x="1352"
   inkscape:window-y="25"
   inkscape:window-maximized="0"
   inkscape:current-layer="Layer_1" />
<path
   id="rain"
   d="m 9.75,23.61 c 0,0.4 0.22,0.66 0.65,0.78 0.21,0.07 0.42,0.05 0.63,-0.06 0.21,-0.11 0.35,-0.28 0.41,-0.5 l 1.5,-5.73 c 0.06,-0.22 0.03,-0.43 -0.09,-0.63 -0.12,-0.2 -0.3,-0.33 -0.54,-0.4 -0.22,-0.07 -0.43,-0.05 -0.63,0.07 -0.2,0.12 -0.33,0.29 -0.39,0.52 l -1.5,5.7 c -0.03,0.11 -0.04,0.19 -0.04,0.25 z m 2.59,3.05 c 0,0.12 0.03,0.24 0.08,0.37 0.1,0.21 0.27,0.35 0.51,0.43 0.02,0 0.06,0 0.1,0.01 0.04,0.01 0.08,0.01 0.11,0.01 0.03,0 0.06,0 0.09,0 0.43,0 0.68,-0.22 0.76,-0.66 l 2.3,-8.74 c 0.07,-0.22 0.05,-0.43 -0.06,-0.63 -0.11,-0.2 -0.28,-0.33 -0.5,-0.4 -0.24,-0.07 -0.47,-0.05 -0.68,0.07 -0.21,0.12 -0.33,0.29 -0.38,0.52 l -2.31,8.75 c -0.01,0.1 -0.02,0.19 -0.02,0.27 z M 16.5,23.6 c 0,0.16 0.05,0.31 0.16,0.47 0.11,0.16 0.26,0.26 0.45,0.32 0.06,0.02 0.14,0.03 0.23,0.03 0.17,0 0.33,-0.05 0.49,-0.14 0.16,-0.09 0.26,-0.24 0.32,-0.45 l 1.5,-5.73 C 19.73,17.89 19.7,17.69 19.58,17.48 19.46,17.27 19.29,17.14 19.06,17.07 18.82,17 18.6,17.02 18.4,17.14 c -0.2,0.12 -0.32,0.29 -0.36,0.52 l -1.5,5.7 c -0.03,0.11 -0.04,0.19 -0.04,0.24 z"
   inkscape:label="rain" /><path
   d="M 23.51,13.43 C 22.56,12.48 21.4,12 20.02,12 H 19.71 C 19.43,10.83 18.87,9.86 18.03,9.08 L 16.66,8.05 C 15.78,7.62 14.88,7.4 13.96,7.4 c -1.41,0 -2.66,0.44 -3.75,1.32 -1.09,0.88 -1.79,2 -2.1,3.38 -1.1,0.26 -2.01,0.83 -2.73,1.73 -0.76,0.93 -1.12,1.95 -1.12,3.1 0,0.66 0.12,1.28 0.38,1.88 0.26,0.6 0.59,1.11 1.02,1.55 0.43,0.43 0.94,0.79 1.53,1.05 0.59,0.26 1.21,0.42 1.87,0.45 0.11,0 0.17,-0.06 0.17,-0.17 V 20.35 C 9.23,20.24 9.17,20.18 9.06,20.18 8.19,20.12 7.46,19.77 6.87,19.15 6.28,18.53 5.98,17.78 5.98,16.93 c 0,-0.84 0.28,-1.57 0.85,-2.19 0.57,-0.62 1.26,-0.97 2.1,-1.04 l 0.53,-0.06 c 0.13,0 0.2,-0.06 0.2,-0.19 l 0.06,-0.51 c 0.11,-1.09 0.56,-1.99 1.37,-2.71 0.81,-0.72 1.76,-1.08 2.86,-1.08 1.09,0 2.05,0.36 2.85,1.07 0.81,0.72 1.27,1.61 1.38,2.69 l 0.07,0.58 c 0,0.12 0.06,0.18 0.19,0.18 h 1.6 c 0.9,0 1.67,0.32 2.32,0.96 0.65,0.64 0.97,1.4 0.97,2.29 0,0.86 -0.3,1.6 -0.89,2.22 -0.59,0.62 -1.33,0.97 -2.19,1.03 -0.13,0 -0.2,0.06 -0.2,0.17 v 1.34 c 0,0.11 0.07,0.17 0.2,0.17 1.34,-0.06 2.47,-0.57 3.39,-1.51 0.92,-0.95 1.38,-2.09 1.38,-3.42 0,-0.72 -0.14,-1.38 -0.42,-1.99 z"
   id="cloud"
   inkscape:label="cloud"
   style="display:inline"
   sodipodi:nodetypes="cscccssccsscscsscsssccccsscccssssscssccscc" />
<path
   d="m 24.6,14.93 c 0.78,-0.94 1.17,-2.06 1.17,-3.36 0,-0.94 -0.23,-1.81 -0.7,-2.62 C 24.6,8.14 23.96,7.5 23.16,7.03 22.36,6.56 21.48,6.32 20.54,6.32 c -1.56,0 -2.85,0.58 -3.88,1.73 l 1.37,1.03 c 0.67,-0.67 1.49,-1 2.48,-1 0.98,0 1.81,0.34 2.49,1.02 0.69,0.68 1.03,1.51 1.03,2.48 0,0.63 -0.17,1.24 -0.52,1.85 z"
   id="moon"
   inkscape:label="moon"
   sodipodi:nodetypes="cssssccscscc"
   style="display:inline" /></svg>
