<?xml version="1.0" encoding="UTF-8" standalone="no"?>
<!-- Generator: Adobe Illustrator 22.0.1, SVG Export Plug-In . SVG Version: 6.00 Build 0)  -->

<svg
   version="1.1"
   id="Layer_1"
   x="0px"
   y="0px"
   viewBox="0 0 30 30"
   style="enable-background:new 0 0 30 30;"
   xml:space="preserve"
   sodipodi:docname="wi-night-alt-rain.svg"
   inkscape:version="1.4.3 (0d15f75, 2025-12-25)"
   xmlns:inkscape="http://www.inkscape.org/namespaces/inkscape"
   xmlns:sodipodi="http://sodipodi.sourceforge.net/DTD/sodipodi-0.dtd"
   xmlns="http://www.w3.org/2000/svg"
   xmlns:svg="http://www.w3.org/2000/svg"><defs
   id="defs1" /><sodipodi:namedview
   id="namedview1"
   pagecolor="#ffffff"
   bordercolor="#000000"
   borderopacity="0.25"
   inkscape:showpageshadow="2"
   inkscape:pageopacity="0.0"
   inkscape:pagecheckerboard="0"
   inkscape:deskcolor="#d1d1d1"
   inkscape:zoom="23.133333"
   inkscape:cx="15"
   inkscape:cy="15"
   inkscape:window-width="2560"
   inkscape:window-height="1387"
   inkscape:window-x="1352"
   inkscape:window-y="25"
   inkscape:window-maximized="0"
   inkscape:current-layer="Layer_1" />
<path
   id="rain"
   d="m 9.63,23.74 c 0,0.17 0.05,0.33 0.16,0.49 0.11,0.16 0.27,0.27 0.49,0.33 0.23,0.07 0.45,0.05 0.64,-0.04 0.2,-0.1 0.33,-0.28 0.4,-0.56 l 1.43,-5.87 c 0.06,-0.25 0.03,-0.48 -0.08,-0.67 -0.12,-0.2 -0.29,-0.32 -0.52,-0.37 -0.22,-0.07 -0.43,-0.05 -0.63,0.07 -0.2,0.11 -0.34,0.28 -0.41,0.51 l -1.44,5.9 c 0,0.01 -0.01,0.04 -0.02,0.09 -0.01,0.05 -0.02,0.09 -0.02,0.12 z m 2.61,3.07 c 0,0.16 0.05,0.31 0.15,0.46 0.1,0.15 0.25,0.25 0.45,0.31 0.11,0.03 0.19,0.04 0.24,0.04 0.44,0 0.71,-0.2 0.82,-0.59 l 2.25,-8.93 c 0.06,-0.24 0.04,-0.46 -0.07,-0.65 -0.11,-0.19 -0.28,-0.32 -0.5,-0.39 -0.23,-0.07 -0.45,-0.05 -0.66,0.07 -0.21,0.12 -0.34,0.28 -0.39,0.5 l -2.26,8.92 c 0,0.01 0,0.05 -0.01,0.12 -0.02,0.06 -0.02,0.11 -0.02,0.14 z m 4.16,-2.99 c 0,0.36 0.21,0.6 0.63,0.74 0.14,0.04 0.24,0.06 0.3,0.06 0.11,0 0.23,-0.02 0.35,-0.07 0.21,-0.08 0.34,-0.28 0.39,-0.58 L 19.5,18.1 c 0.06,-0.24 0.04,-0.45 -0.08,-0.65 -0.11,-0.19 -0.28,-0.32 -0.51,-0.39 -0.23,-0.07 -0.45,-0.05 -0.66,0.07 -0.21,0.11 -0.33,0.28 -0.38,0.51 l -1.43,5.9 C 16.42,23.7 16.4,23.8 16.4,23.82 Z"
   inkscape:label="rain" /><path
   d="M 23.11,13.1 C 22.19,12.34 21.12,11.97 19.88,11.97 H 19.57 C 19.3,10.7 18.64,9.64 17.58,8.77 L 16.11,7.86 c -0.82,-0.3 -1.6,-0.45 -2.33,-0.45 -1.41,0 -2.67,0.44 -3.76,1.32 -1.09,0.88 -1.8,2 -2.11,3.37 -1.11,0.26 -2.02,0.83 -2.74,1.73 -0.74,0.89 -1.1,1.92 -1.1,3.07 0,1.33 0.47,2.48 1.4,3.44 0.93,0.96 2.07,1.47 3.4,1.53 0.12,0 0.18,-0.06 0.18,-0.17 V 20.36 C 9.05,20.25 8.99,20.19 8.87,20.19 8.01,20.14 7.28,19.8 6.68,19.16 6.08,18.52 5.78,17.77 5.78,16.9 c 0,-0.83 0.28,-1.55 0.85,-2.17 0.57,-0.62 1.27,-0.97 2.1,-1.07 l 0.53,-0.04 c 0.13,0 0.2,-0.06 0.2,-0.17 l 0.07,-0.54 c 0.11,-1.08 0.57,-1.99 1.38,-2.72 0.81,-0.73 1.77,-1.1 2.86,-1.1 1.09,0 2.04,0.37 2.86,1.1 0.82,0.73 1.28,1.64 1.4,2.72 l 0.08,0.57 c 0,0.12 0.06,0.18 0.17,0.18 h 1.62 c 0.89,0 1.67,0.32 2.32,0.96 0.65,0.64 0.98,1.4 0.98,2.28 0,0.87 -0.3,1.62 -0.9,2.26 -0.6,0.64 -1.33,0.98 -2.19,1.03 -0.14,0 -0.21,0.06 -0.21,0.17 v 1.34 c 0,0.11 0.07,0.17 0.21,0.17 1.33,-0.04 2.46,-0.55 3.38,-1.51 0.93,-0.97 1.39,-2.12 1.39,-3.45 0,-0.88 -0.23,-1.7 -0.68,-2.46 z"
   id="cloud"
   inkscape:label="cloud"
   style="display:inline"
   sodipodi:nodetypes="cscccssccsscsscsssccccsssccssssscssccscc" />
<path
   d="m 24.2,14.45 c 0.81,-0.73 1.33,-1.6 1.58,-2.62 l 0.14,-0.72 c 0.01,-0.01 0.02,-0.03 0.02,-0.07 0,-0.07 -0.05,-0.13 -0.16,-0.16 L 25.22,10.7 C 24.65,10.54 24.16,10.26 23.76,9.87 23.35,9.48 23.06,9.07 22.89,8.64 22.72,8.21 22.63,7.78 22.63,7.36 22.61,7.14 22.64,6.86 22.71,6.54 l 0.14,-0.61 c 0.04,-0.1 0,-0.18 -0.14,-0.24 L 21.92,5.45 C 21.47,5.35 21.05,5.3 20.65,5.3 c -0.38,0 -0.76,0.04 -1.14,0.13 -0.39,0.09 -0.79,0.22 -1.2,0.41 -0.41,0.18 -0.81,0.45 -1.2,0.8 -0.39,0.35 -0.72,0.75 -1,1.22 l 1.47,0.91 C 17.9,8.19 18.33,7.75 18.89,7.44 19.44,7.14 20.03,6.99 20.65,7 c 0.12,0 0.21,0 0.27,0.01 v 0.3 c -0.01,0.97 0.24,1.88 0.77,2.75 0.52,0.86 1.26,1.52 2.21,1.97 -0.22,0.46 -0.49,0.81 -0.79,1.07 z"
   id="moon"
   inkscape:label="moon"
   sodipodi:nodetypes="cccscccscccccsccscccccccccc"
   style="display:inline" /></svg>
