<?xml version="1.0" encoding="UTF-8" standalone="no"?>
<!-- Generator: Adobe Illustrator 22.0.1, SVG Export Plug-In . SVG Version: 6.00 Build 0)  -->

<svg
   version="1.1"
   id="Layer_1"
   x="0px"
   y="0px"
   viewBox="0 0 30 30"
   style="enable-background:new 0 0 30 30;"
   xml:space="preserve"
   sodipodi:docname="wi-night-rain-wind.svg"
   inkscape:version="1.4.3 (0d15f75, 2025-12-25)"
   xmlns:inkscape="http://www.inkscape.org/namespaces/inkscape"
   xmlns:sodipodi="http://sodipodi.sourceforge.net/DTD/sodipodi-0.dtd"
   xmlns="http://www.w3.org/2000/svg"
   xmlns:svg="http://www.w3.org/2000/svg"><defs
   id="defs1" /><sodipodi:namedview
   id="namedview1"
   pagecolor="#ffffff"
   bordercolor="#000000"
   borderopacity="0.25"
   inkscape:showpageshadow="2"
   inkscape:pageopacity="0.0"
   inkscape:pagecheckerboard="0"
   inkscape:deskcolor="#d1d1d1"
   inkscape:zoom="32.715474"
   inkscape:cx="15.283288"
   inkscape:cy="16.505951"
   inkscape:window-width="2560"
   inkscape:window-height="1387"
   inkscape:window-x="1352"
   inkscape:window-y="25"
   inkscape:window-maximized="0"
   inkscape:current-layer="Layer_1" />
<path
   id="rain"
   d="m 7.91,24.52 c 0,0.14 0.02,0.25 0.05,0.32 0.08,0.21 0.23,0.36 0.44,0.44 0.23,0.1 0.45,0.11 0.68,0.02 0.23,-0.08 0.38,-0.24 0.45,-0.45 0.1,-0.22 0.11,-0.44 0.02,-0.67 C 9.46,23.95 9.31,23.8 9.09,23.72 8.86,23.64 8.65,23.64 8.43,23.72 8.22,23.8 8.06,23.95 7.96,24.17 7.93,24.25 7.91,24.37 7.91,24.52 Z m 1.84,-2.44 c 0,0.23 0.11,0.45 0.32,0.67 0.43,0.36 0.84,0.31 1.26,-0.15 l 2.19,-2.44 c 0.15,-0.17 0.21,-0.38 0.18,-0.61 -0.03,-0.23 -0.13,-0.42 -0.31,-0.57 -0.18,-0.14 -0.39,-0.19 -0.63,-0.16 -0.24,0.03 -0.43,0.13 -0.59,0.29 l -2.2,2.38 C 9.82,21.7 9.75,21.9 9.75,22.08 Z m 0.64,4.93 c 0,0.12 0.03,0.23 0.08,0.32 0.09,0.23 0.22,0.38 0.41,0.46 0.12,0.05 0.24,0.07 0.37,0.07 0.07,0 0.18,-0.02 0.32,-0.06 0.21,-0.09 0.36,-0.24 0.44,-0.45 0.1,-0.2 0.11,-0.41 0.02,-0.64 -0.08,-0.23 -0.23,-0.38 -0.45,-0.46 -0.22,-0.11 -0.44,-0.12 -0.66,-0.03 -0.21,0.09 -0.38,0.25 -0.49,0.48 -0.02,0.1 -0.04,0.2 -0.04,0.31 z m 1.67,-2.39 v 0.13 c 0.02,0.24 0.12,0.44 0.32,0.6 0.14,0.18 0.34,0.26 0.6,0.24 0.25,-0.02 0.45,-0.15 0.6,-0.38 L 17.8,20.3 c 0.16,-0.18 0.22,-0.39 0.2,-0.64 -0.02,-0.24 -0.14,-0.43 -0.35,-0.57 -0.17,-0.14 -0.38,-0.21 -0.6,-0.19 -0.23,0.02 -0.42,0.12 -0.58,0.3 l -4.22,4.92 c -0.13,0.13 -0.19,0.29 -0.19,0.5 z m 3.63,0.83 c -0.07,0.23 -0.07,0.43 0,0.62 0.09,0.22 0.24,0.38 0.45,0.49 0.11,0.05 0.23,0.07 0.36,0.07 0.06,0 0.16,-0.02 0.3,-0.06 0.23,-0.09 0.38,-0.24 0.46,-0.46 0.1,-0.23 0.11,-0.44 0.03,-0.66 -0.08,-0.21 -0.23,-0.36 -0.44,-0.44 -0.23,-0.11 -0.45,-0.12 -0.66,-0.03 -0.22,0.09 -0.39,0.25 -0.5,0.47 z"
   inkscape:label="rain" /><path
   d="M 23.66,13.44 C 22.69,12.46 21.5,11.98 20.11,11.98 H 19.8 C 19.55,10.84 18.98,9.86 18.09,9.03 L 16.66,8.01 C 15.79,7.58 14.87,7.36 13.89,7.36 c -1.43,0 -2.7,0.44 -3.79,1.33 -1.09,0.89 -1.8,2.03 -2.11,3.43 -1.14,0.26 -2.07,0.84 -2.79,1.75 -0.72,0.91 -1.09,1.96 -1.09,3.15 0,1.13 0.33,2.13 1,3.01 0.67,0.88 1.54,1.48 2.62,1.8 0.1,0.01 0.18,-0.01 0.25,-0.08 L 9.11,20.29 C 8.22,20.29 7.45,19.97 6.8,19.33 6.15,18.69 5.83,17.92 5.83,17.02 c 0,-0.86 0.29,-1.61 0.86,-2.24 0.57,-0.63 1.29,-0.98 2.14,-1.05 l 0.52,-0.07 c 0.11,0 0.16,-0.05 0.16,-0.14 l 0.07,-0.56 c 0.12,-1.1 0.59,-2.02 1.41,-2.76 0.82,-0.74 1.78,-1.11 2.88,-1.11 1.11,0 2.08,0.37 2.91,1.1 0.83,0.73 1.3,1.64 1.4,2.74 l 0.07,0.59 c 0.02,0.11 0.09,0.17 0.21,0.17 h 1.63 c 0.9,0 1.67,0.33 2.32,0.98 0.65,0.66 0.98,1.44 0.98,2.35 0,0.84 -0.28,1.58 -0.85,2.21 -0.57,0.63 -1.27,0.98 -2.1,1.06 -0.48,0 -0.78,0.09 -0.91,0.28 l -2.18,2.4 c -0.16,0.18 -0.22,0.39 -0.19,0.62 0.03,0.23 0.13,0.45 0.31,0.63 0.13,0.17 0.33,0.25 0.59,0.23 0.26,-0.02 0.46,-0.15 0.6,-0.38 L 20.64,22 c 0.82,-0.08 1.58,-0.35 2.28,-0.82 0.69,-0.47 1.24,-1.07 1.65,-1.8 0.41,-0.73 0.6,-1.52 0.6,-2.36 0,-0.63 -0.14,-1.32 -0.43,-2.08 z"
   id="cloud"
   inkscape:label="cloud"
   sodipodi:nodetypes="cscccsscssscccsssccccsssccsscsscccscscccsscc"
   style="display:inline" />
<path
   d="m 24.74,14.94 c 0.77,-0.98 1.15,-2.08 1.15,-3.32 0,-0.98 -0.24,-1.87 -0.71,-2.69 C 24.7,8.11 24.06,7.47 23.24,7 22.42,6.53 21.53,6.3 20.56,6.3 c -1.57,0 -2.87,0.57 -3.9,1.71 l 1.43,1.02 c 0.68,-0.68 1.51,-1.02 2.48,-1.02 1.01,0 1.86,0.35 2.56,1.05 0.7,0.7 1.05,1.56 1.05,2.56 0,0.62 -0.17,1.23 -0.52,1.82 z"
   id="moon"
   inkscape:label="moon"
   style="display:inline"
   sodipodi:nodetypes="cscssccssscc" /></svg>
