<?xml version="1.0" encoding="UTF-8" standalone="no"?>
<!-- Generator: Adobe Illustrator 22.0.1, SVG Export Plug-In . SVG Version: 6.00 Build 0)  -->

<svg
   version="1.1"
   id="Layer_1"
   x="0px"
   y="0px"
   viewBox="0 0 30 30"
   style="enable-background:new 0 0 30 30;"
   xml:space="preserve"
   sodipodi:docname="wi-night-alt-rain-wind.svg"
   inkscape:version="1.4.3 (0d15f75, 2025-12-25)"
   xmlns:inkscape="http://www.inkscape.org/namespaces/inkscape"
   xmlns:sodipodi="http://sodipodi.sourceforge.net/DTD/sodipodi-0.dtd"
   xmlns="http://www.w3.org/2000/svg"
   xmlns:svg="http://www.w3.org/2000/svg"><defs
   id="defs1" /><sodipodi:namedview
   id="namedview1"
   pagecolor="#ffffff"
   bordercolor="#000000"
   borderopacity="0.25"
   inkscape:showpageshadow="2"
   inkscape:pageopacity="0.0"
   inkscape:pagecheckerboard="0"
   inkscape:deskcolor="#d1d1d1"
   inkscape:zoom="23.133333"
   inkscape:cx="18.544669"
   inkscape:cy="16.469741"
   inkscape:window-width="2560"
   inkscape:window-height="1387"
   inkscape:window-x="1352"
   inkscape:window-y="25"
   inkscape:window-maximized="0"
   inkscape:current-layer="Layer_1" />
<path
   id="rain"
   inkscape:label="rain"
   d="m 7.77,24.92 c 0,0.13 0.02,0.23 0.07,0.31 0.09,0.22 0.23,0.37 0.43,0.46 0.22,0.1 0.44,0.11 0.67,0.03 C 9.17,25.64 9.32,25.49 9.4,25.28 9.5,25.06 9.5,24.84 9.41,24.61 9.32,24.38 9.17,24.23 8.96,24.16 8.74,24.06 8.52,24.05 8.3,24.14 8.08,24.22 7.93,24.38 7.85,24.59 7.79,24.67 7.77,24.79 7.77,24.92 Z m 2.42,2.76 c 0.09,0.21 0.24,0.36 0.46,0.45 0.11,0.05 0.22,0.08 0.33,0.08 0.06,0 0.16,-0.02 0.3,-0.06 0.21,-0.09 0.36,-0.23 0.44,-0.44 0.08,-0.22 0.08,-0.43 0.01,-0.65 -0.07,-0.21 -0.22,-0.37 -0.44,-0.48 -0.22,-0.08 -0.43,-0.08 -0.63,0 -0.2,0.08 -0.35,0.23 -0.45,0.44 -0.11,0.2 -0.12,0.41 -0.02,0.66 z m 5.1,-1.55 c 0,0.11 0.02,0.22 0.07,0.33 0.08,0.23 0.24,0.38 0.47,0.47 0.23,0.09 0.43,0.09 0.61,0.02 0.22,-0.09 0.37,-0.24 0.46,-0.46 0.1,-0.22 0.11,-0.43 0.03,-0.64 -0.08,-0.21 -0.23,-0.36 -0.45,-0.46 -0.22,-0.08 -0.44,-0.08 -0.65,0 -0.22,0.08 -0.37,0.22 -0.47,0.42 -0.05,0.11 -0.07,0.22 -0.07,0.32 z M 9.61,22.47 v 0.11 c 0.02,0.23 0.13,0.41 0.33,0.55 0.13,0.15 0.31,0.22 0.54,0.22 0.23,-0.01 0.45,-0.11 0.66,-0.32 l 2.33,-2.92 c 0.14,-0.17 0.19,-0.38 0.17,-0.62 -0.03,-0.24 -0.12,-0.43 -0.3,-0.58 -0.18,-0.14 -0.38,-0.2 -0.63,-0.18 -0.24,0.02 -0.43,0.14 -0.57,0.34 l -2.32,2.86 c -0.14,0.16 -0.21,0.34 -0.21,0.54 z m 2.17,2.55 v 0.08 c 0.02,0.22 0.13,0.42 0.32,0.58 0.19,0.16 0.38,0.24 0.56,0.24 0.22,0 0.42,-0.11 0.6,-0.34 l 4.31,-5.36 c 0.14,-0.17 0.21,-0.38 0.19,-0.62 -0.02,-0.24 -0.12,-0.44 -0.29,-0.58 -0.2,-0.14 -0.42,-0.2 -0.66,-0.18 -0.24,0.02 -0.43,0.12 -0.57,0.3 l -4.27,5.36 c -0.13,0.15 -0.19,0.33 -0.19,0.52 z" /><path
   d="M 23.09,13.19 C 22.2,12.4 21.13,12.01 19.87,12.01 H 19.55 C 19.26,10.74 18.6,9.67 17.57,8.81 L 16.1,7.93 C 15.35,7.6 14.57,7.44 13.76,7.44 12.35,7.44 11.09,7.88 10,8.75 8.91,9.62 8.2,10.74 7.89,12.11 c -1.13,0.27 -2.05,0.86 -2.76,1.75 -0.71,0.89 -1.07,1.91 -1.07,3.07 0,1.12 0.33,2.12 1,3 0.67,0.88 1.52,1.47 2.57,1.77 0.09,0.02 0.17,-0.01 0.24,-0.08 L 9,20.22 C 8.12,20.22 7.37,19.9 6.73,19.25 6.09,18.6 5.77,17.83 5.77,16.93 c 0,-0.84 0.28,-1.56 0.84,-2.17 0.56,-0.61 1.27,-0.95 2.11,-1.03 l 0.5,-0.07 c 0.12,0 0.19,-0.06 0.19,-0.19 l 0.08,-0.53 c 0.12,-1.09 0.59,-2 1.41,-2.73 0.81,-0.73 1.77,-1.1 2.86,-1.1 1.09,0 2.04,0.37 2.86,1.1 0.82,0.73 1.29,1.64 1.41,2.72 l 0.07,0.58 c 0,0.11 0.06,0.17 0.18,0.17 h 1.62 c 0.88,0 1.64,0.32 2.28,0.96 0.64,0.64 0.96,1.4 0.96,2.28 0,0.85 -0.28,1.59 -0.84,2.22 -0.56,0.63 -1.25,0.98 -2.07,1.05 -0.45,0.06 -0.74,0.15 -0.86,0.28 l -2.33,2.91 c -0.16,0.17 -0.22,0.38 -0.19,0.63 0.02,0.24 0.13,0.43 0.31,0.59 0.18,0.16 0.37,0.23 0.57,0.23 0.23,0 0.44,-0.12 0.64,-0.38 l 2.04,-2.59 c 0.62,-0.06 1.2,-0.24 1.76,-0.52 0.55,-0.28 1.03,-0.65 1.42,-1.08 0.39,-0.44 0.71,-0.95 0.94,-1.53 0.23,-0.58 0.35,-1.18 0.35,-1.81 0,-0.87 -0.23,-1.68 -0.68,-2.44 z"
   id="cloud"
   inkscape:label="cloud"
   style="display:inline"
   sodipodi:nodetypes="cscccsscssscccssscccccssccsssssccccssccccsscc" />
<path
   d="m 24.2,14.48 c 0.81,-0.74 1.34,-1.61 1.58,-2.62 V 11.77 L 25.98,11 25.22,10.74 C 24.65,10.57 24.16,10.29 23.75,9.91 23.34,9.53 23.06,9.11 22.89,8.68 22.72,8.25 22.63,7.81 22.63,7.37 c 0,-0.26 0.03,-0.52 0.08,-0.8 L 22.9,5.79 22.07,5.56 c -0.01,0 -0.02,0 -0.03,-0.01 C 22.03,5.54 22.02,5.53 22,5.53 21.98,5.53 21.97,5.52 21.96,5.51 21.91,5.5 21.9,5.49 21.9,5.49 21.46,5.38 21.05,5.33 20.65,5.33 20.27,5.34 19.89,5.38 19.5,5.47 c -0.39,0.09 -0.78,0.22 -1.2,0.41 -0.42,0.19 -0.82,0.46 -1.2,0.81 -0.38,0.35 -0.72,0.76 -1,1.24 l 1.47,0.88 c 0.31,-0.57 0.75,-1.01 1.3,-1.32 0.55,-0.3 1.14,-0.45 1.76,-0.44 0.12,0 0.21,0 0.26,0.01 v 0.3 c 0,0.97 0.27,1.89 0.8,2.75 0.53,0.87 1.26,1.52 2.19,1.96 -0.25,0.47 -0.51,0.84 -0.79,1.12 z"
   id="moon"
   inkscape:label="moon"
   sodipodi:nodetypes="cccccssscccsscccssscccccscccc"
   style="display:inline" /></svg>
