<?xml version="1.0" encoding="UTF-8" standalone="no"?>
<!-- Generator: Adobe Illustrator 22.0.1, SVG Export Plug-In . SVG Version: 6.00 Build 0)  -->

<svg
   version="1.1"
   id="Layer_1"
   x="0px"
   y="0px"
   viewBox="0 0 30 30"
   style="enable-background:new 0 0 30 30;"
   xml:space="preserve"
   sodipodi:docname="wi-night-sprinkle.svg"
   inkscape:version="1.4.3 (0d15f75, 2025-12-25)"
   xmlns:inkscape="http://www.inkscape.org/namespaces/inkscape"
   xmlns:sodipodi="http://sodipodi.sourceforge.net/DTD/sodipodi-0.dtd"
   xmlns="http://www.w3.org/2000/svg"
   xmlns:svg="http://www.w3.org/2000/svg"><defs
   id="defs1" /><sodipodi:namedview
   id="namedview1"
   pagecolor="#ffffff"
   bordercolor="#000000"
   borderopacity="0.25"
   inkscape:showpageshadow="2"
   inkscape:pageopacity="0.0"
   inkscape:pagecheckerboard="0"
   inkscape:deskcolor="#d1d1d1"
   inkscape:zoom="23.133333"
   inkscape:cx="15"
   inkscape:cy="15"
   inkscape:window-width="2560"
   inkscape:window-height="1387"
   inkscape:window-x="1352"
   inkscape:window-y="25"
   inkscape:window-maximized="0"
   inkscape:current-layer="Layer_1" />
<path
   id="rain"
   d="m 10.15,17.77 c 0,0.38 0.14,0.7 0.43,0.98 0.28,0.27 0.62,0.41 1.02,0.41 0.4,0 0.73,-0.13 1,-0.4 0.27,-0.27 0.41,-0.6 0.41,-0.98 0,-0.26 -0.12,-0.6 -0.35,-1.02 -0.23,-0.42 -0.45,-0.76 -0.66,-1 -0.02,-0.02 -0.08,-0.09 -0.18,-0.2 -0.1,-0.11 -0.17,-0.19 -0.21,-0.24 l -0.36,0.4 c -0.28,0.3 -0.53,0.65 -0.75,1.05 -0.23,0.4 -0.35,0.74 -0.35,1 z m 2.99,3.99 c 0,0.63 0.23,1.18 0.69,1.64 0.46,0.46 1.01,0.69 1.65,0.69 0.64,0 1.2,-0.23 1.66,-0.69 0.46,-0.46 0.69,-1.01 0.69,-1.64 0,-0.27 -0.08,-0.59 -0.23,-0.97 -0.16,-0.38 -0.34,-0.72 -0.56,-1.04 -0.46,-0.59 -0.89,-1.09 -1.29,-1.49 -0.06,-0.04 -0.14,-0.13 -0.26,-0.24 L 14.9,18.6 c -0.44,0.42 -0.85,0.95 -1.21,1.56 -0.37,0.62 -0.55,1.15 -0.55,1.6 z m 1.48,-6.7 c 0,0.27 0.09,0.49 0.28,0.67 0.19,0.18 0.43,0.27 0.71,0.27 0.26,0 0.48,-0.09 0.66,-0.27 0.18,-0.18 0.27,-0.4 0.27,-0.67 0,-0.41 -0.31,-0.94 -0.93,-1.61 l -0.25,0.26 c -0.19,0.2 -0.36,0.43 -0.51,0.7 -0.16,0.26 -0.23,0.48 -0.23,0.65 z"
   inkscape:label="rain" /><path
   d="m 23.5,13.38 c -1,-0.96 -2.17,-1.44 -3.51,-1.44 H 19.7 C 19.42,10.76 18.85,9.79 18.01,9.02 L 16.57,7.99 C 15.74,7.61 14.85,7.4 13.9,7.4 c -1.41,0 -2.67,0.44 -3.76,1.31 -1.09,0.87 -1.8,2 -2.1,3.37 -1.11,0.26 -2.02,0.84 -2.74,1.74 -0.72,0.89 -1.08,1.92 -1.08,3.07 0,1.33 0.46,2.48 1.39,3.44 0.93,0.96 2.06,1.47 3.41,1.53 0.11,0 0.17,-0.06 0.17,-0.17 V 20.32 C 9.19,20.19 9.13,20.13 9.02,20.13 8.14,20.07 7.41,19.72 6.81,19.1 c -0.6,-0.62 -0.9,-1.36 -0.9,-2.21 0,-0.84 0.28,-1.58 0.85,-2.2 0.57,-0.62 1.27,-0.97 2.11,-1.04 l 0.52,-0.07 c 0.12,0 0.19,-0.06 0.19,-0.19 l 0.07,-0.5 c 0.11,-1.08 0.57,-1.99 1.38,-2.72 0.81,-0.73 1.77,-1.1 2.87,-1.1 1.09,0 2.05,0.36 2.86,1.09 0.81,0.73 1.28,1.64 1.4,2.72 l 0.06,0.57 c 0,0.12 0.06,0.18 0.19,0.18 h 1.6 c 0.91,0 1.68,0.32 2.32,0.95 0.64,0.63 0.97,1.4 0.97,2.28 0,0.85 -0.3,1.59 -0.89,2.21 -0.59,0.62 -1.33,0.97 -2.19,1.03 -0.14,0 -0.21,0.06 -0.21,0.19 v 1.37 c 0,0.11 0.07,0.17 0.21,0.17 1.33,-0.04 2.46,-0.55 3.39,-1.51 C 24.54,19.35 25,18.2 25,16.87 25,16.13 24.86,15.46 24.57,14.86 Z"
   id="cloud"
   inkscape:label="cloud"
   sodipodi:nodetypes="cscccssccsscsscsssccccsssccssssscssccscc"
   style="display:inline" />
<path
   d="m 24.57,14.86 c 0.79,-0.96 1.18,-2.07 1.18,-3.36 0,-0.94 -0.24,-1.82 -0.71,-2.63 C 24.57,8.06 23.93,7.42 23.12,6.95 22.31,6.48 21.44,6.24 20.5,6.24 c -1.52,0 -2.83,0.58 -3.93,1.75 l 1.44,1.03 c 0.67,-0.66 1.5,-0.99 2.48,-0.99 0.98,0 1.81,0.34 2.49,1.02 0.68,0.68 1.03,1.51 1.03,2.48 0,0.63 -0.17,1.25 -0.51,1.85 z"
   id="moon"
   inkscape:label="moon"
   style="display:inline"
   sodipodi:nodetypes="cssssccssscc" /></svg>
