<?xml version="1.0" encoding="UTF-8" standalone="no"?>
<!-- Generator: Adobe Illustrator 22.0.1, SVG Export Plug-In . SVG Version: 6.00 Build 0)  -->

<svg
   version="1.1"
   id="Layer_1"
   x="0px"
   y="0px"
   viewBox="0 0 30 30"
   style="enable-background:new 0 0 30 30;"
   xml:space="preserve"
   sodipodi:docname="wi-night-showers.svg"
   inkscape:version="1.4.3 (0d15f75, 2025-12-25)"
   xmlns:inkscape="http://www.inkscape.org/namespaces/inkscape"
   xmlns:sodipodi="http://sodipodi.sourceforge.net/DTD/sodipodi-0.dtd"
   xmlns="http://www.w3.org/2000/svg"
   xmlns:svg="http://www.w3.org/2000/svg"><defs
   id="defs1" /><sodipodi:namedview
   id="namedview1"
   pagecolor="#ffffff"
   bordercolor="#000000"
   borderopacity="0.25"
   inkscape:showpageshadow="2"
   inkscape:pageopacity="0.0"
   inkscape:pagecheckerboard="0"
   inkscape:deskcolor="#d1d1d1"
   inkscape:zoom="23.133333"
   inkscape:cx="15"
   inkscape:cy="15"
   inkscape:window-width="2560"
   inkscape:window-height="1387"
   inkscape:window-x="1352"
   inkscape:window-y="25"
   inkscape:window-maximized="0"
   inkscape:current-layer="Layer_1" />
<path
   id="rain"
   d="m 9.64,23.67 c 0,0.17 0.05,0.33 0.15,0.48 0.1,0.15 0.26,0.27 0.48,0.34 0.11,0.06 0.24,0.08 0.37,0.07 0.13,-0.01 0.27,-0.08 0.4,-0.2 0.13,-0.12 0.23,-0.28 0.28,-0.48 l 0.28,-1.01 c 0.06,-0.25 0.04,-0.48 -0.08,-0.67 -0.12,-0.2 -0.29,-0.32 -0.53,-0.37 -0.21,-0.07 -0.42,-0.05 -0.63,0.07 -0.21,0.12 -0.34,0.28 -0.41,0.5 l -0.28,1.04 c -0.02,0.09 -0.03,0.17 -0.03,0.23 z m 1.31,-4.77 c 0.01,0.19 0.06,0.37 0.17,0.52 0.11,0.15 0.27,0.25 0.48,0.28 0.18,0.03 0.27,0.05 0.3,0.05 0.38,0 0.63,-0.22 0.76,-0.66 l 0.28,-1 c 0.06,-0.23 0.04,-0.45 -0.08,-0.66 -0.12,-0.21 -0.29,-0.35 -0.53,-0.42 -0.22,-0.06 -0.44,-0.04 -0.64,0.08 -0.2,0.12 -0.33,0.29 -0.4,0.52 l -0.3,1.05 c -0.02,0.12 -0.04,0.2 -0.04,0.24 z m 1.24,7.9 c 0,0.18 0.05,0.34 0.15,0.5 0.1,0.16 0.26,0.27 0.48,0.33 0.14,0.03 0.23,0.05 0.28,0.05 0.09,0 0.21,-0.03 0.38,-0.1 0.17,-0.08 0.3,-0.27 0.38,-0.55 l 0.3,-1.01 c 0.06,-0.25 0.03,-0.48 -0.08,-0.68 -0.12,-0.2 -0.29,-0.33 -0.52,-0.37 -0.22,-0.07 -0.43,-0.05 -0.64,0.07 -0.21,0.12 -0.35,0.29 -0.42,0.51 l -0.28,1.04 c -0.02,0.08 -0.03,0.15 -0.03,0.21 z M 13.52,22 c 0,0.17 0.05,0.33 0.16,0.49 0.11,0.16 0.27,0.27 0.49,0.33 0.22,0.07 0.44,0.05 0.63,-0.05 0.2,-0.1 0.33,-0.29 0.41,-0.56 l 0.28,-1.01 c 0.07,-0.25 0.05,-0.47 -0.07,-0.67 -0.12,-0.19 -0.29,-0.31 -0.53,-0.36 -0.22,-0.08 -0.43,-0.05 -0.64,0.06 -0.21,0.11 -0.34,0.29 -0.41,0.51 l -0.28,1.04 c -0.02,0.1 -0.04,0.17 -0.04,0.22 z m 2.85,1.75 c -0.01,0.16 0.03,0.31 0.14,0.46 0.11,0.15 0.26,0.26 0.46,0.33 l 0.25,0.03 c 0.11,0.01 0.24,-0.02 0.38,-0.07 0.21,-0.08 0.35,-0.26 0.42,-0.54 l 0.28,-1.05 c 0.07,-0.23 0.05,-0.45 -0.07,-0.64 -0.12,-0.2 -0.29,-0.33 -0.51,-0.4 -0.25,-0.06 -0.47,-0.03 -0.67,0.08 -0.2,0.11 -0.32,0.3 -0.36,0.53 l -0.29,1 c -0.02,0.17 -0.03,0.26 -0.03,0.27 z m 1.35,-4.8 c 0,0.17 0.05,0.34 0.16,0.5 0.11,0.16 0.27,0.26 0.48,0.3 l 0.25,0.03 c 0.43,0 0.7,-0.21 0.81,-0.62 l 0.28,-1.03 c 0.06,-0.25 0.03,-0.48 -0.08,-0.68 -0.11,-0.2 -0.3,-0.32 -0.53,-0.37 -0.23,-0.07 -0.45,-0.05 -0.64,0.07 -0.2,0.12 -0.33,0.29 -0.39,0.53 l -0.3,1.02 c -0.02,0.12 -0.04,0.2 -0.04,0.25 z"
   inkscape:label="rain" /><path
   d="M 23.55,13.41 C 22.59,12.45 21.43,11.97 20.06,11.97 H 19.74 C 19.5,10.87 18.94,9.9 18.06,9.05 l -1.4,-1 C 15.79,7.62 14.89,7.4 13.96,7.4 12.54,7.4 11.28,7.84 10.19,8.72 9.1,9.6 8.4,10.73 8.09,12.1 c -1.13,0.26 -2.05,0.84 -2.76,1.72 -0.71,0.88 -1.08,1.92 -1.08,3.1 0,0.66 0.12,1.28 0.38,1.88 0.25,0.6 0.59,1.11 1.02,1.55 0.43,0.44 0.94,0.79 1.53,1.06 0.59,0.27 1.22,0.42 1.88,0.45 0.12,0 0.18,-0.06 0.18,-0.17 v -1.34 c 0,-0.11 -0.06,-0.17 -0.18,-0.17 -0.85,-0.04 -1.58,-0.39 -2.18,-1.03 -0.6,-0.64 -0.9,-1.39 -0.9,-2.24 0,-0.85 0.28,-1.58 0.84,-2.2 0.56,-0.62 1.26,-0.96 2.1,-1.03 l 0.53,-0.07 c 0.1,0 0.15,-0.05 0.15,-0.15 l 0.08,-0.53 c 0.11,-1.09 0.58,-2 1.4,-2.73 0.82,-0.73 1.78,-1.09 2.88,-1.09 1.09,0 2.04,0.36 2.85,1.08 0.82,0.72 1.28,1.62 1.4,2.7 l 0.07,0.57 c 0,0.12 0.06,0.19 0.18,0.19 h 1.62 c 0.89,0 1.65,0.32 2.29,0.96 0.64,0.64 0.96,1.41 0.96,2.31 0,0.85 -0.3,1.6 -0.89,2.24 -0.59,0.64 -1.32,0.98 -2.17,1.03 -0.13,0 -0.19,0.06 -0.19,0.17 v 1.34 c 0,0.11 0.06,0.17 0.19,0.17 1.34,-0.06 2.47,-0.57 3.39,-1.52 0.93,-0.95 1.39,-2.09 1.39,-3.42 0,-0.64 -0.14,-1.31 -0.41,-2 z"
   id="cloud"
   inkscape:label="cloud"
   sodipodi:nodetypes="cscccsscsscsscsscsssccccsscccssssscssccscc"
   style="display:inline" />
<path
   d="m 24.64,14.93 c 0.76,-0.99 1.13,-2.09 1.13,-3.29 0,-0.94 -0.24,-1.82 -0.71,-2.63 C 24.59,8.2 23.95,7.56 23.14,7.09 22.33,6.62 21.46,6.38 20.52,6.38 c -1.53,0 -2.82,0.56 -3.86,1.67 l 1.4,1 c 0.67,-0.64 1.48,-0.97 2.45,-0.97 0.98,0 1.81,0.35 2.49,1.05 0.69,0.7 1.03,1.53 1.03,2.51 0,0.64 -0.16,1.23 -0.48,1.77 z"
   id="moon"
   inkscape:label="moon"
   style="display:inline"
   sodipodi:nodetypes="cssssccscscc" /></svg>
