<?xml version="1.0" encoding="UTF-8" standalone="no"?>
<!-- Generator: Adobe Illustrator 22.0.1, SVG Export Plug-In . SVG Version: 6.00 Build 0)  -->

<svg
   version="1.1"
   id="Layer_1"
   x="0px"
   y="0px"
   viewBox="0 0 30 30"
   style="enable-background:new 0 0 30 30;"
   xml:space="preserve"
   sodipodi:docname="wi-night-partly-cloudy.svg"
   inkscape:version="1.4.3 (0d15f75, 2025-12-25)"
   xmlns:inkscape="http://www.inkscape.org/namespaces/inkscape"
   xmlns:sodipodi="http://sodipodi.sourceforge.net/DTD/sodipodi-0.dtd"
   xmlns="http://www.w3.org/2000/svg"
   xmlns:svg="http://www.w3.org/2000/svg"><defs
   id="defs1" /><sodipodi:namedview
   id="namedview1"
   pagecolor="#ffffff"
   bordercolor="#000000"
   borderopacity="0.25"
   inkscape:showpageshadow="2"
   inkscape:pageopacity="0.0"
   inkscape:pagecheckerboard="0"
   inkscape:deskcolor="#d1d1d1"
   inkscape:zoom="32"
   inkscape:cx="3.78125"
   inkscape:cy="13.34375"
   inkscape:window-width="2560"
   inkscape:window-height="1387"
   inkscape:window-x="1352"
   inkscape:window-y="25"
   inkscape:window-maximized="0"
   inkscape:current-layer="Layer_1" />
<path
   d="m 8.75,19.61 c 0,-0.42 0.13,-0.78 0.4,-1.08 0.27,-0.3 0.61,-0.47 1.02,-0.51 l 0.63,-0.08 c 0.12,0 0.19,-0.08 0.19,-0.23 l 0.1,-0.56 c 0.07,-0.58 0.31,-1.06 0.73,-1.44 0.42,-0.39 0.91,-0.58 1.48,-0.58 0.58,0 1.09,0.19 1.51,0.58 0.43,0.39 0.68,0.87 0.75,1.44 l 0.08,0.65 c 0.06,0.15 0.15,0.23 0.25,0.23 h 1.31 c 0.43,0 0.8,0.16 1.12,0.47 0.32,0.31 0.47,0.68 0.47,1.12 0,0.45 -0.16,0.83 -0.47,1.15 -0.31,0.32 -0.69,0.48 -1.12,0.48 H 10.35 C 9.9,21.25 9.52,21.09 9.21,20.77 8.9,20.45 8.75,20.06 8.75,19.61 Z M 19.37,16.82 C 18.78,16.33 18.1,16.09 17.34,16.09 17.05,15.21 16.53,14.52 15.8,14 15.07,13.48 14.24,13.22 13.31,13.22 h -0.13 c -1.015485,0.08066 -1.117261,0.170646 -1.93,0.54 -1.01,0.57 -1.67,1.41 -1.99,2.49 C 8.5,16.49 7.9,16.91 7.45,17.52 7,18.13 6.77,18.83 6.77,19.61 c 0,0.97 0.35,1.81 1.06,2.52 0.71,0.71 1.55,1.06 2.52,1.06 h 6.85 c 0.97,0 1.8,-0.35 2.49,-1.05 0.69,-0.7 1.04,-1.54 1.04,-2.53 0,-0.48 -0.07,-0.89 -0.21,-1.23 -0.283992,-0.596416 -0.504922,-1.144698 -1.15,-1.56 z"
   id="cloud"
   inkscape:label="cloud"
   sodipodi:nodetypes="sscccccscccsssssssssccsscccssssssscc"
   style="display:inline" />
<path
   d="m 20.52,18.38 c 0.83,-0.53 1.49,-1.24 1.97,-2.12 0.48,-0.88 0.73,-1.83 0.73,-2.84 0,-0.81 -0.16,-1.59 -0.47,-2.33 C 22.43,10.35 22.01,9.71 21.47,9.18 20.93,8.65 20.3,8.22 19.56,7.9 18.82,7.58 18.05,7.42 17.24,7.42 c -1.09,0 -2.1,0.27 -3.02,0.81 -0.92,0.54 -1.65,1.27 -2.18,2.18 -0.53,0.92 -0.79,1.92 -0.79,3.01 v 0.34 l 1.93,-0.54 c 0.07,-1.09 0.49,-2.01 1.27,-2.76 0.78,-0.74 1.71,-1.12 2.8,-1.12 1.11,0 2.06,0.4 2.84,1.19 0.78,0.79 1.17,1.76 1.17,2.89 0,0.7 -0.17,1.35 -0.51,1.95 -0.34,0.6 -0.8,1.08 -1.38,1.45 z"
   id="moon"
   inkscape:label="moon"
   style="display:inline"
   sodipodi:nodetypes="csscsssscscccsssscc" /></svg>
