<?xml version="1.0" encoding="UTF-8" standalone="no"?>
<!-- Generator: Adobe Illustrator 22.0.1, SVG Export Plug-In . SVG Version: 6.00 Build 0)  -->

<svg
   version="1.1"
   id="Layer_1"
   x="0px"
   y="0px"
   viewBox="0 0 30 30"
   style="enable-background:new 0 0 30 30;"
   xml:space="preserve"
   sodipodi:docname="wi-night-alt-sleet-storm.svg"
   inkscape:version="1.4.3 (0d15f75, 2025-12-25)"
   xmlns:inkscape="http://www.inkscape.org/namespaces/inkscape"
   xmlns:sodipodi="http://sodipodi.sourceforge.net/DTD/sodipodi-0.dtd"
   xmlns="http://www.w3.org/2000/svg"
   xmlns:svg="http://www.w3.org/2000/svg"><defs
   id="defs1" /><sodipodi:namedview
   id="namedview1"
   pagecolor="#ffffff"
   bordercolor="#000000"
   borderopacity="0.25"
   inkscape:showpageshadow="2"
   inkscape:pageopacity="0.0"
   inkscape:pagecheckerboard="0"
   inkscape:deskcolor="#d1d1d1"
   inkscape:zoom="23.133333"
   inkscape:cx="15"
   inkscape:cy="15"
   inkscape:window-width="2560"
   inkscape:window-height="1387"
   inkscape:window-x="1352"
   inkscape:window-y="25"
   inkscape:window-maximized="0"
   inkscape:current-layer="Layer_1" />
<path
   id="rain"
   d="m 11.97,27.1 c 0,0.17 0.05,0.33 0.16,0.49 0.11,0.16 0.27,0.27 0.49,0.33 0.09,0.02 0.17,0.03 0.24,0.03 0.43,0 0.7,-0.2 0.8,-0.61 l 0.13,-0.59 c 0.06,-0.26 0.03,-0.48 -0.08,-0.68 -0.12,-0.2 -0.29,-0.32 -0.53,-0.37 -0.21,-0.07 -0.42,-0.05 -0.63,0.07 -0.21,0.12 -0.34,0.29 -0.41,0.51 l -0.13,0.59 c -0.03,0.12 -0.04,0.2 -0.04,0.23 z m 0.79,-2.9 c 0,0.23 0.08,0.42 0.24,0.58 0.16,0.16 0.36,0.24 0.58,0.24 0.24,0 0.43,-0.08 0.59,-0.23 0.16,-0.16 0.23,-0.35 0.23,-0.59 0,-0.23 -0.08,-0.42 -0.23,-0.58 -0.16,-0.16 -0.35,-0.23 -0.59,-0.23 -0.24,0 -0.43,0.08 -0.59,0.23 -0.15,0.15 -0.23,0.35 -0.23,0.58 z m 0.62,-2.27 c -0.01,0.15 0.03,0.31 0.14,0.47 0.1,0.16 0.25,0.26 0.45,0.3 0.23,0.06 0.44,0.04 0.64,-0.06 0.2,-0.1 0.33,-0.29 0.41,-0.56 l 0.26,-0.9 c 0.07,-0.22 0.05,-0.43 -0.07,-0.63 -0.12,-0.2 -0.29,-0.33 -0.53,-0.4 -0.22,-0.07 -0.43,-0.04 -0.64,0.08 -0.21,0.12 -0.34,0.3 -0.41,0.53 l -0.23,0.9 c -0.01,0.08 -0.02,0.17 -0.02,0.27 z m 2.76,2.15 c 0,0.17 0.05,0.33 0.15,0.48 0.1,0.15 0.25,0.26 0.46,0.32 0.03,0 0.08,0.01 0.14,0.02 0.06,0.01 0.11,0.02 0.14,0.02 0.41,0 0.66,-0.22 0.76,-0.66 l 0.14,-0.6 c 0.07,-0.21 0.05,-0.42 -0.07,-0.63 -0.12,-0.21 -0.29,-0.34 -0.51,-0.41 -0.25,-0.06 -0.48,-0.04 -0.68,0.08 -0.2,0.12 -0.34,0.29 -0.41,0.53 l -0.09,0.59 c 0,0.01 0,0.05 -0.01,0.11 -0.01,0.07 -0.02,0.11 -0.02,0.15 z m 0.74,-2.96 c 0,0.23 0.08,0.42 0.24,0.57 0.15,0.16 0.34,0.24 0.58,0.24 0.24,0 0.43,-0.08 0.59,-0.23 0.16,-0.16 0.23,-0.35 0.23,-0.58 0,-0.24 -0.08,-0.43 -0.23,-0.59 -0.16,-0.16 -0.35,-0.23 -0.59,-0.23 -0.24,0 -0.43,0.08 -0.59,0.23 -0.16,0.15 -0.23,0.35 -0.23,0.59 z"
   inkscape:label="rain" /><path
   d="m 7.66,21.65 -0.65,1.7 c -0.04,0.14 0,0.21 0.14,0.21 h 2.12 l -1.29,4.18 h 0.28 l 4.23,-5.62 c 0.04,-0.04 0.04,-0.09 0.02,-0.14 -0.03,-0.05 -0.07,-0.07 -0.14,-0.07 h -2.18 l 2.47,-4.64 c 0.07,-0.14 0.03,-0.22 -0.13,-0.22 H 9.57 c -0.09,0 -0.16,0.05 -0.22,0.15 l -1.07,2.88 z"
   id="lightning"
   inkscape:label="lightning"
   style="display:inline"
   sodipodi:nodetypes="ccscccccsccssccc" />
<path
   d="M 8.28,20.08 C 7.57,19.9 6.98,19.51 6.5,18.91 6.02,18.31 5.79,17.64 5.79,16.9 c 0,-0.83 0.28,-1.55 0.85,-2.17 0.57,-0.61 1.27,-0.97 2.1,-1.07 l 0.53,-0.07 c 0.13,0 0.2,-0.06 0.2,-0.18 L 9.54,12.9 c 0.11,-1.08 0.56,-1.99 1.37,-2.72 0.81,-0.73 1.76,-1.1 2.85,-1.1 1.09,0 2.04,0.37 2.86,1.1 0.82,0.73 1.28,1.64 1.4,2.71 l 0.07,0.57 c 0,0.12 0.06,0.19 0.17,0.19 h 1.62 c 0.91,0 1.68,0.32 2.33,0.95 0.65,0.63 0.97,1.4 0.97,2.28 0,0.85 -0.3,1.59 -0.9,2.21 -0.6,0.62 -1.33,0.97 -2.2,1.03 -0.12,0 -0.19,0.06 -0.19,0.19 v 1.36 c 0,0.12 0.06,0.18 0.19,0.18 1.33,-0.04 2.46,-0.55 3.39,-1.51 0.93,-0.97 1.39,-2.12 1.39,-3.45 0,-0.87 -0.22,-1.68 -0.66,-2.45 L 23.12,13.11 C 22.21,12.33 21.14,11.94 19.9,11.94 H 19.57 C 19.28,10.68 18.62,9.62 17.59,8.77 L 16.13,7.86 C 15.3,7.55 14.51,7.4 13.77,7.4 c -1.41,0 -2.67,0.44 -3.76,1.32 -1.09,0.88 -1.8,2 -2.11,3.36 -1.11,0.26 -2.02,0.84 -2.74,1.74 -0.71,0.89 -1.07,1.92 -1.07,3.07 0,1.11 0.33,2.1 0.99,2.97 0.66,0.87 1.52,1.47 2.58,1.79 z"
   id="cloud"
   inkscape:label="cloud"
   style="display:inline"
   sodipodi:nodetypes="csscccccsssccssssscssccsccscccssccsscc" /><path
   d="m 24.2,14.44 c 0.76,-0.74 1.27,-1.61 1.51,-2.62 l 0.19,-0.68 c 0.01,-0.01 0.01,-0.03 0.01,-0.07 0,-0.08 -0.05,-0.13 -0.15,-0.16 L 25.14,10.74 C 24.57,10.57 24.08,10.29 23.68,9.9 23.28,9.51 23,9.1 22.83,8.68 22.66,8.26 22.58,7.84 22.59,7.42 c 0,-0.28 0.03,-0.56 0.1,-0.85 L 22.8,5.96 C 22.82,5.86 22.78,5.78 22.66,5.73 L 21.86,5.49 C 21.39,5.4 20.98,5.35 20.62,5.35 20.25,5.34 19.87,5.38 19.49,5.47 19.11,5.55 18.71,5.69 18.3,5.87 17.89,6.05 17.5,6.32 17.12,6.66 16.74,7 16.41,7.4 16.13,7.86 l 1.46,0.91 c 0.33,-0.56 0.78,-0.99 1.34,-1.29 0.56,-0.3 1.15,-0.45 1.76,-0.45 h 0.22 v 0.32 c 0,0.64 0.11,1.26 0.34,1.86 0.23,0.6 0.56,1.15 1.02,1.66 0.45,0.51 0.99,0.91 1.61,1.21 -0.17,0.38 -0.42,0.72 -0.76,1.03 z"
   id="moon"
   inkscape:label="moon"
   sodipodi:nodetypes="cccsccsscccccccssccsscsscccc"
   style="display:inline" /></svg>
