<?xml version="1.0" encoding="UTF-8" standalone="no"?>
<!-- Generator: Adobe Illustrator 22.0.1, SVG Export Plug-In . SVG Version: 6.00 Build 0)  -->

<svg
   version="1.1"
   id="Layer_1"
   x="0px"
   y="0px"
   viewBox="0 0 30 30"
   style="enable-background:new 0 0 30 30;"
   xml:space="preserve"
   sodipodi:docname="wi-rain.svg"
   inkscape:version="1.4.3 (0d15f75, 2025-12-25)"
   xmlns:inkscape="http://www.inkscape.org/namespaces/inkscape"
   xmlns:sodipodi="http://sodipodi.sourceforge.net/DTD/sodipodi-0.dtd"
   xmlns="http://www.w3.org/2000/svg"
   xmlns:svg="http://www.w3.org/2000/svg"><defs
   id="defs1" /><sodipodi:namedview
   id="namedview1"
   pagecolor="#ffffff"
   bordercolor="#000000"
   borderopacity="0.25"
   inkscape:showpageshadow="2"
   inkscape:pageopacity="0.0"
   inkscape:pagecheckerboard="0"
   inkscape:deskcolor="#d1d1d1"
   inkscape:zoom="23.133333"
   inkscape:cx="15"
   inkscape:cy="15"
   inkscape:window-width="1024"
   inkscape:window-height="821"
   inkscape:window-x="0"
   inkscape:window-y="123"
   inkscape:window-maximized="0"
   inkscape:current-layer="Layer_1" />
<path
   id="rain"
   d="m 9.99,23.6 c 0,-0.04 0.01,-0.11 0.04,-0.2 l 1.63,-5.77 c 0.06,-0.19 0.17,-0.34 0.32,-0.44 0.15,-0.1 0.31,-0.15 0.46,-0.15 0.07,0 0.15,0.01 0.24,0.03 0.24,0.04 0.42,0.17 0.54,0.37 0.12,0.2 0.15,0.42 0.08,0.67 l -1.63,5.73 c -0.12,0.43 -0.4,0.64 -0.82,0.64 -0.04,0 -0.07,-0.01 -0.11,-0.02 -0.06,-0.02 -0.09,-0.03 -0.1,-0.03 C 10.42,24.37 10.26,24.26 10.15,24.1 10.04,23.93 9.99,23.77 9.99,23.6 Z m 2.62,2.81 2.44,-8.77 c 0.04,-0.19 0.14,-0.34 0.3,-0.44 0.16,-0.1 0.32,-0.15 0.49,-0.15 0.09,0 0.18,0.01 0.27,0.03 0.22,0.06 0.38,0.19 0.49,0.39 0.11,0.2 0.13,0.41 0.07,0.64 l -2.43,8.78 c -0.04,0.17 -0.13,0.31 -0.29,0.43 -0.16,0.12 -0.32,0.18 -0.51,0.18 -0.09,0 -0.18,-0.02 -0.25,-0.05 -0.2,-0.05 -0.37,-0.18 -0.52,-0.39 -0.11,-0.18 -0.13,-0.39 -0.06,-0.65 z m 4.13,-2.79 c 0,-0.04 0.01,-0.11 0.04,-0.23 l 1.63,-5.77 c 0.06,-0.19 0.16,-0.34 0.3,-0.44 0.15,-0.1 0.3,-0.15 0.46,-0.15 0.08,0 0.17,0.01 0.26,0.03 0.21,0.06 0.36,0.16 0.46,0.31 0.1,0.15 0.15,0.31 0.15,0.47 0,0.03 -0.01,0.08 -0.02,0.14 C 20.01,18.04 20,18.08 20,18.1 l -1.63,5.73 c -0.04,0.19 -0.13,0.35 -0.28,0.46 -0.15,0.11 -0.32,0.17 -0.51,0.17 l -0.24,-0.05 c -0.2,-0.06 -0.35,-0.16 -0.46,-0.32 -0.09,-0.15 -0.14,-0.31 -0.14,-0.47 z" /><path
   d="m 4.64,16.91 c 0,-1.15 0.36,-2.17 1.08,-3.07 0.72,-0.9 1.63,-1.47 2.73,-1.73 0.31,-1.36 1.02,-2.48 2.11,-3.36 1.09,-0.88 2.34,-1.31 3.75,-1.31 1.38,0 2.6,0.43 3.68,1.28 1.08,0.85 1.78,1.95 2.1,3.29 h 0.32 c 0.89,0 1.72,0.22 2.48,0.65 0.76,0.43 1.37,1.03 1.81,1.78 0.44,0.75 0.67,1.58 0.67,2.47 0,0.88 -0.21,1.69 -0.63,2.44 -0.42,0.75 -1,1.35 -1.73,1.8 -0.73,0.45 -1.53,0.69 -2.4,0.71 -0.13,0 -0.2,-0.06 -0.2,-0.17 v -1.33 c 0,-0.12 0.07,-0.18 0.2,-0.18 0.85,-0.04 1.58,-0.38 2.18,-1.02 0.6,-0.64 0.9,-1.39 0.9,-2.26 0,-0.87 -0.33,-1.62 -0.98,-2.26 C 22.06,14 21.29,13.68 20.4,13.68 h -1.61 c -0.12,0 -0.18,-0.06 -0.18,-0.17 L 18.53,12.93 C 18.42,11.85 17.95,10.94 17.14,10.22 16.32,9.49 15.38,9.13 14.29,9.13 c -1.09,0 -2.05,0.36 -2.85,1.09 -0.81,0.73 -1.26,1.63 -1.36,2.71 l -0.07,0.53 c 0,0.12 -0.07,0.19 -0.2,0.19 l -0.53,0.03 c -0.83,0.1 -1.53,0.46 -2.1,1.07 -0.57,0.61 -0.85,1.33 -0.85,2.16 0,0.87 0.3,1.62 0.9,2.26 0.6,0.64 1.33,0.98 2.18,1.02 0.11,0 0.17,0.06 0.17,0.18 v 1.33 c 0,0.11 -0.06,0.17 -0.17,0.17 C 8.07,21.81 6.94,21.3 6.01,20.34 5.08,19.38 4.64,18.24 4.64,16.91 Z"
   id="cloud" />
</svg>
