<?xml version="1.0" encoding="UTF-8" standalone="no"?>
<!-- Generator: Adobe Illustrator 22.0.1, SVG Export Plug-In . SVG Version: 6.00 Build 0)  -->

<svg
   version="1.1"
   id="Layer_1"
   x="0px"
   y="0px"
   viewBox="0 0 30 30"
   style="enable-background:new 0 0 30 30;"
   xml:space="preserve"
   sodipodi:docname="wi-rain-mix.svg"
   inkscape:version="1.4.3 (0d15f75, 2025-12-25)"
   xmlns:inkscape="http://www.inkscape.org/namespaces/inkscape"
   xmlns:sodipodi="http://sodipodi.sourceforge.net/DTD/sodipodi-0.dtd"
   xmlns="http://www.w3.org/2000/svg"
   xmlns:svg="http://www.w3.org/2000/svg"><defs
   id="defs1" /><sodipodi:namedview
   id="namedview1"
   pagecolor="#ffffff"
   bordercolor="#000000"
   borderopacity="0.25"
   inkscape:showpageshadow="2"
   inkscape:pageopacity="0.0"
   inkscape:pagecheckerboard="0"
   inkscape:deskcolor="#d1d1d1"
   inkscape:zoom="23.133333"
   inkscape:cx="15.021614"
   inkscape:cy="15"
   inkscape:window-width="1024"
   inkscape:window-height="821"
   inkscape:window-x="0"
   inkscape:window-y="123"
   inkscape:window-maximized="0"
   inkscape:current-layer="Layer_1" />
<path
   id="rain"
   d="m 10.05,23.98 c 0,0.17 0.05,0.34 0.16,0.51 0.11,0.17 0.27,0.28 0.47,0.35 0.23,0.07 0.44,0.06 0.64,-0.04 0.19,-0.09 0.33,-0.28 0.39,-0.56 l 0.14,-0.61 C 11.9,23.4 11.87,23.19 11.76,23 11.65,22.81 11.48,22.67 11.24,22.6 11.02,22.53 10.8,22.56 10.6,22.68 c -0.2,0.12 -0.34,0.3 -0.4,0.53 l -0.14,0.59 c 0,0.03 -0.01,0.09 -0.01,0.18 z m 0.76,-2.9 c 0,0.21 0.08,0.4 0.25,0.57 0.16,0.17 0.34,0.25 0.56,0.25 0.24,0 0.44,-0.08 0.6,-0.24 0.16,-0.16 0.24,-0.35 0.24,-0.59 0,-0.23 -0.08,-0.43 -0.24,-0.59 -0.16,-0.16 -0.36,-0.24 -0.6,-0.24 -0.23,0 -0.42,0.08 -0.58,0.23 -0.15,0.18 -0.23,0.38 -0.23,0.61 z m 0.61,-2.27 c -0.01,0.16 0.03,0.31 0.14,0.45 0.1,0.15 0.26,0.25 0.48,0.32 0.21,0.06 0.41,0.04 0.62,-0.07 C 12.87,19.4 13,19.23 13.07,19 l 0.28,-0.9 c 0.07,-0.24 0.05,-0.46 -0.07,-0.65 -0.12,-0.19 -0.3,-0.32 -0.54,-0.39 -0.22,-0.07 -0.43,-0.05 -0.63,0.07 -0.2,0.11 -0.34,0.28 -0.41,0.5 l -0.24,0.92 c 0,0.02 -0.01,0.06 -0.02,0.12 -0.01,0.05 -0.02,0.1 -0.02,0.14 z m 1.17,8.29 c 0,0.18 0.05,0.34 0.15,0.5 0.1,0.16 0.26,0.27 0.48,0.33 0.08,0.02 0.17,0.03 0.25,0.03 0.43,0 0.69,-0.2 0.79,-0.61 l 0.14,-0.59 c 0.06,-0.26 0.03,-0.48 -0.08,-0.68 -0.12,-0.2 -0.29,-0.32 -0.52,-0.37 -0.21,-0.07 -0.42,-0.05 -0.63,0.07 -0.21,0.12 -0.34,0.29 -0.41,0.51 l -0.14,0.59 c -0.02,0.09 -0.03,0.16 -0.03,0.22 z m 0.77,-2.9 c 0,0.22 0.08,0.41 0.25,0.58 0.16,0.16 0.35,0.24 0.57,0.24 0.24,0 0.43,-0.08 0.59,-0.23 0.16,-0.16 0.23,-0.35 0.23,-0.59 0,-0.23 -0.08,-0.42 -0.23,-0.58 -0.16,-0.16 -0.35,-0.23 -0.59,-0.23 -0.24,0 -0.43,0.08 -0.59,0.23 -0.16,0.15 -0.23,0.35 -0.23,0.58 z m 0.63,-2.27 c -0.01,0.15 0.03,0.31 0.13,0.47 0.1,0.16 0.25,0.26 0.45,0.3 0.23,0.06 0.44,0.04 0.64,-0.06 0.2,-0.1 0.33,-0.29 0.41,-0.56 l 0.27,-0.9 c 0.07,-0.22 0.05,-0.43 -0.07,-0.63 -0.12,-0.2 -0.29,-0.33 -0.53,-0.4 -0.22,-0.07 -0.43,-0.04 -0.64,0.08 -0.21,0.12 -0.34,0.3 -0.41,0.53 l -0.23,0.9 c -0.01,0.08 -0.02,0.17 -0.02,0.27 z m 2.76,2.15 c 0,0.16 0.05,0.32 0.15,0.48 0.1,0.16 0.26,0.27 0.46,0.33 0.03,0 0.08,0.01 0.14,0.02 0.06,0.01 0.1,0.02 0.14,0.02 0.41,0 0.66,-0.22 0.76,-0.66 l 0.14,-0.6 c 0.07,-0.21 0.05,-0.42 -0.07,-0.63 -0.11,-0.21 -0.28,-0.34 -0.51,-0.41 -0.25,-0.06 -0.48,-0.04 -0.68,0.08 -0.2,0.12 -0.34,0.29 -0.41,0.53 l -0.09,0.59 c 0,0.02 -0.01,0.07 -0.02,0.12 -0.01,0.05 -0.01,0.09 -0.01,0.13 z m 0.74,-2.96 c 0,0.22 0.08,0.42 0.25,0.57 0.15,0.16 0.34,0.24 0.57,0.24 0.24,0 0.43,-0.08 0.59,-0.23 0.16,-0.15 0.23,-0.35 0.23,-0.58 0,-0.24 -0.08,-0.43 -0.23,-0.59 -0.15,-0.16 -0.35,-0.23 -0.59,-0.23 -0.24,0 -0.43,0.08 -0.59,0.23 -0.15,0.16 -0.23,0.35 -0.23,0.59 z m 0.61,-2.31 c 0,0.17 0.05,0.33 0.16,0.48 0.11,0.15 0.27,0.26 0.49,0.32 0.02,0 0.06,0.01 0.12,0.02 0.06,0.01 0.11,0.02 0.14,0.02 0.1,0 0.22,-0.03 0.36,-0.09 0.21,-0.11 0.35,-0.29 0.41,-0.52 l 0.24,-0.9 c 0.06,-0.23 0.04,-0.44 -0.08,-0.63 -0.11,-0.2 -0.28,-0.33 -0.51,-0.4 -0.23,-0.07 -0.44,-0.05 -0.64,0.06 -0.19,0.11 -0.33,0.27 -0.39,0.51 l -0.28,0.91 c 0,0.02 -0.01,0.06 -0.02,0.12 0,0.03 0,0.07 0,0.1 z" /><path
   d="m 4.65,16.96 c 0,1.32 0.47,2.46 1.4,3.41 0.93,0.96 2.06,1.46 3.38,1.5 0.12,0 0.18,-0.06 0.18,-0.17 V 20.37 C 9.61,20.25 9.55,20.19 9.43,20.19 8.59,20.15 7.86,19.81 7.26,19.17 6.66,18.53 6.35,17.8 6.35,16.95 c 0,-0.84 0.28,-1.57 0.85,-2.19 0.57,-0.62 1.26,-0.97 2.1,-1.04 l 0.53,-0.07 c 0.12,0 0.19,-0.06 0.19,-0.18 l 0.07,-0.5 c 0.1,-1.09 0.55,-2.01 1.36,-2.75 0.81,-0.74 1.76,-1.11 2.86,-1.11 1.08,0 2.03,0.37 2.84,1.1 0.81,0.73 1.28,1.63 1.4,2.71 l 0.07,0.58 c 0,0.12 0.06,0.18 0.19,0.18 h 1.6 c 0.9,0 1.67,0.32 2.32,0.97 0.64,0.64 0.97,1.41 0.97,2.3 0,0.84 -0.3,1.58 -0.9,2.22 -0.6,0.63 -1.33,0.97 -2.18,1.02 -0.13,0 -0.2,0.06 -0.2,0.18 v 1.33 c 0,0.11 0.07,0.17 0.2,0.17 1.33,-0.04 2.46,-0.54 3.38,-1.5 0.92,-0.96 1.38,-2.09 1.38,-3.42 0,-0.89 -0.22,-1.72 -0.67,-2.48 -0.44,-0.76 -1.05,-1.36 -1.81,-1.8 -0.76,-0.44 -1.59,-0.66 -2.48,-0.66 H 20.11 C 19.78,10.67 19.08,9.58 18,8.72 16.93,7.87 15.7,7.44 14.32,7.44 12.91,7.44 11.66,7.88 10.57,8.75 9.48,9.62 8.78,10.74 8.47,12.1 7.34,12.39 6.43,12.98 5.72,13.87 5.01,14.76 4.65,15.8 4.65,16.96 Z"
   id="cloud" />
</svg>
