<?xml version="1.0" encoding="UTF-8" standalone="no"?>
<!-- Generator: Adobe Illustrator 22.0.1, SVG Export Plug-In . SVG Version: 6.00 Build 0)  -->

<svg
   version="1.1"
   id="Layer_1"
   x="0px"
   y="0px"
   viewBox="0 0 30 30"
   style="enable-background:new 0 0 30 30;"
   xml:space="preserve"
   sodipodi:docname="wi-raindrop.svg"
   inkscape:version="1.4.3 (0d15f75, 2025-12-25)"
   xmlns:inkscape="http://www.inkscape.org/namespaces/inkscape"
   xmlns:sodipodi="http://sodipodi.sourceforge.net/DTD/sodipodi-0.dtd"
   xmlns="http://www.w3.org/2000/svg"
   xmlns:svg="http://www.w3.org/2000/svg"><defs
   id="defs1" /><sodipodi:namedview
   id="namedview1"
   pagecolor="#ffffff"
   bordercolor="#000000"
   borderopacity="0.25"
   inkscape:showpageshadow="2"
   inkscape:pageopacity="0.0"
   inkscape:pagecheckerboard="0"
   inkscape:deskcolor="#d1d1d1"
   inkscape:zoom="23.133333"
   inkscape:cx="15.021614"
   inkscape:cy="15"
   inkscape:window-width="1024"
   inkscape:window-height="821"
   inkscape:window-x="0"
   inkscape:window-y="123"
   inkscape:window-maximized="0"
   inkscape:current-layer="Layer_1" />
<path
   d="M9.81,15.25c0,0.92,0.23,1.78,0.7,2.57s1.1,1.43,1.9,1.9c0.8,0.47,1.66,0.71,2.59,0.71c0.93,0,1.8-0.24,2.61-0.71  c0.81-0.47,1.45-1.11,1.92-1.9c0.47-0.8,0.71-1.65,0.71-2.57c0-0.6-0.17-1.31-0.52-2.14c-0.35-0.83-0.77-1.6-1.26-2.3  c-0.44-0.57-0.96-1.2-1.56-1.88c-0.6-0.68-1.65-1.73-1.89-1.97l-1.28,1.29c-0.62,0.6-1.22,1.29-1.79,2.08  c-0.57,0.79-1.07,1.64-1.49,2.55C10.01,13.79,9.81,14.58,9.81,15.25z"
   id="rain" />
</svg>
