<?xml version="1.0" encoding="UTF-8" standalone="no"?>
<!-- Generator: Adobe Illustrator 22.0.1, SVG Export Plug-In . SVG Version: 6.00 Build 0)  -->

<svg
   version="1.1"
   id="Layer_1"
   x="0px"
   y="0px"
   viewBox="0 0 30 30"
   style="enable-background:new 0 0 30 30;"
   xml:space="preserve"
   sodipodi:docname="wi-snowflake-cold.svg"
   inkscape:version="1.4.3 (0d15f75, 2025-12-25)"
   xmlns:inkscape="http://www.inkscape.org/namespaces/inkscape"
   xmlns:sodipodi="http://sodipodi.sourceforge.net/DTD/sodipodi-0.dtd"
   xmlns="http://www.w3.org/2000/svg"
   xmlns:svg="http://www.w3.org/2000/svg"><defs
   id="defs1" /><sodipodi:namedview
   id="namedview1"
   pagecolor="#ffffff"
   bordercolor="#000000"
   borderopacity="0.25"
   inkscape:showpageshadow="2"
   inkscape:pageopacity="0.0"
   inkscape:pagecheckerboard="0"
   inkscape:deskcolor="#d1d1d1"
   inkscape:zoom="23.133333"
   inkscape:cx="15"
   inkscape:cy="15"
   inkscape:window-width="1024"
   inkscape:window-height="821"
   inkscape:window-x="1870"
   inkscape:window-y="313"
   inkscape:window-maximized="0"
   inkscape:current-layer="Layer_1" />
<path
   d="m 9.44,14.41 c 0,-0.19 0.07,-0.36 0.2,-0.5 0.13,-0.14 0.29,-0.21 0.48,-0.21 h 3.23 l -2.28,-2.28 c -0.14,-0.12 -0.21,-0.28 -0.21,-0.47 0,-0.19 0.07,-0.35 0.21,-0.49 0.14,-0.14 0.3,-0.21 0.49,-0.21 0.19,0 0.35,0.07 0.49,0.21 l 2.27,2.27 V 9.52 c 0,-0.19 0.07,-0.36 0.21,-0.5 0.14,-0.14 0.3,-0.21 0.5,-0.21 0.19,0 0.35,0.07 0.48,0.21 0.13,0.14 0.2,0.3 0.2,0.5 v 3.23 L 18,10.45 c 0.14,-0.14 0.3,-0.21 0.48,-0.21 0.18,0 0.35,0.07 0.49,0.21 0.12,0.14 0.18,0.3 0.18,0.49 0,0.19 -0.06,0.35 -0.18,0.47 l -2.28,2.28 h 3.23 c 0.18,0 0.34,0.07 0.47,0.21 0.13,0.14 0.2,0.3 0.2,0.5 0,0.18 -0.07,0.34 -0.2,0.47 -0.13,0.13 -0.29,0.2 -0.47,0.2 h -3.23 l 2.29,2.29 c 0.12,0.12 0.18,0.28 0.18,0.47 0,0.19 -0.06,0.35 -0.18,0.49 -0.14,0.14 -0.31,0.21 -0.49,0.21 -0.18,0 -0.35,-0.07 -0.48,-0.21 l -2.29,-2.3 v 3.24 c 0,0.19 -0.07,0.36 -0.2,0.49 -0.13,0.13 -0.29,0.2 -0.48,0.2 -0.19,0 -0.36,-0.07 -0.5,-0.2 -0.14,-0.13 -0.21,-0.3 -0.21,-0.49 v -3.22 l -2.27,2.27 c -0.14,0.14 -0.3,0.21 -0.49,0.21 -0.19,0 -0.35,-0.07 -0.49,-0.21 -0.14,-0.14 -0.21,-0.3 -0.21,-0.49 0,-0.19 0.07,-0.34 0.21,-0.47 l 2.3,-2.29 H 10.14 C 9.95,15.06 9.79,14.99 9.66,14.86 9.5,14.75 9.44,14.59 9.44,14.41 Z"
   id="snowflake" /><path
   id="snow"
   d="m 7.46,14.41 c 0,-0.19 0.07,-0.36 0.2,-0.5 0.13,-0.14 0.29,-0.21 0.48,-0.21 0.19,0 0.36,0.07 0.49,0.21 0.13,0.14 0.2,0.3 0.2,0.5 0,0.19 -0.07,0.35 -0.2,0.48 -0.13,0.13 -0.3,0.2 -0.48,0.2 -0.18,0 -0.35,-0.07 -0.48,-0.2 -0.15,-0.14 -0.21,-0.3 -0.21,-0.48 z m 1.99,4.84 c 0,-0.18 0.07,-0.35 0.21,-0.48 0.12,-0.14 0.28,-0.21 0.47,-0.21 0.19,0 0.35,0.07 0.49,0.21 0.14,0.14 0.21,0.3 0.21,0.48 0,0.18 -0.07,0.35 -0.21,0.48 -0.14,0.14 -0.3,0.21 -0.49,0.21 -0.19,0 -0.35,-0.07 -0.47,-0.21 C 9.52,19.6 9.45,19.44 9.45,19.25 Z m 0,-9.71 c 0,-0.18 0.07,-0.35 0.21,-0.48 0.12,-0.14 0.28,-0.21 0.47,-0.21 0.19,0 0.35,0.07 0.49,0.21 0.14,0.14 0.21,0.3 0.21,0.48 0,0.18 -0.07,0.35 -0.21,0.49 -0.14,0.14 -0.3,0.21 -0.49,0.21 -0.19,0 -0.35,-0.07 -0.47,-0.21 C 9.52,9.89 9.45,9.72 9.45,9.54 Z m 4.85,11.71 c 0,-0.18 0.07,-0.34 0.21,-0.47 0.14,-0.13 0.3,-0.2 0.5,-0.2 0.19,0 0.35,0.07 0.48,0.2 0.13,0.13 0.2,0.29 0.2,0.47 0,0.19 -0.07,0.36 -0.2,0.49 -0.13,0.13 -0.29,0.2 -0.48,0.2 -0.19,0 -0.36,-0.07 -0.5,-0.2 -0.14,-0.13 -0.21,-0.29 -0.21,-0.49 z m 0,-13.71 c 0,-0.19 0.07,-0.36 0.21,-0.49 0.14,-0.13 0.3,-0.2 0.5,-0.2 0.19,0 0.35,0.07 0.48,0.2 0.13,0.13 0.2,0.3 0.2,0.49 0,0.18 -0.07,0.34 -0.2,0.47 -0.13,0.13 -0.29,0.2 -0.48,0.2 -0.19,0 -0.36,-0.07 -0.5,-0.2 C 14.37,7.88 14.3,7.72 14.3,7.54 Z m 4.87,11.71 c 0,-0.18 0.07,-0.35 0.21,-0.48 0.12,-0.14 0.28,-0.21 0.47,-0.21 0.19,0 0.35,0.07 0.49,0.21 0.14,0.14 0.21,0.3 0.21,0.48 0,0.18 -0.07,0.35 -0.21,0.48 -0.14,0.14 -0.3,0.21 -0.49,0.21 -0.19,0 -0.35,-0.07 -0.47,-0.21 -0.14,-0.13 -0.21,-0.29 -0.21,-0.48 z m 0,-9.71 c 0,-0.18 0.07,-0.35 0.21,-0.48 0.12,-0.14 0.28,-0.21 0.47,-0.21 0.19,0 0.35,0.07 0.49,0.21 0.14,0.14 0.21,0.3 0.21,0.48 0,0.18 -0.07,0.35 -0.21,0.49 -0.14,0.14 -0.3,0.21 -0.49,0.21 -0.19,0 -0.35,-0.07 -0.47,-0.21 C 19.24,9.89 19.17,9.72 19.17,9.54 Z m 2,4.87 c 0,-0.19 0.07,-0.36 0.2,-0.5 0.13,-0.14 0.3,-0.21 0.49,-0.21 0.18,0 0.34,0.07 0.47,0.21 0.13,0.14 0.2,0.3 0.2,0.5 0,0.18 -0.07,0.34 -0.2,0.47 -0.13,0.13 -0.29,0.2 -0.47,0.2 -0.19,0 -0.36,-0.07 -0.49,-0.2 -0.13,-0.13 -0.2,-0.29 -0.2,-0.47 z" />
</svg>
