<?xml version="1.0" encoding="UTF-8" standalone="no"?>
<!-- Generator: Adobe Illustrator 22.0.1, SVG Export Plug-In . SVG Version: 6.00 Build 0)  -->

<svg
   version="1.1"
   id="Layer_1"
   x="0px"
   y="0px"
   viewBox="0 0 30 30"
   style="enable-background:new 0 0 30 30;"
   xml:space="preserve"
   sodipodi:docname="wi-storm-showers.svg"
   inkscape:version="1.4.3 (0d15f75, 2025-12-25)"
   xmlns:inkscape="http://www.inkscape.org/namespaces/inkscape"
   xmlns:sodipodi="http://sodipodi.sourceforge.net/DTD/sodipodi-0.dtd"
   xmlns="http://www.w3.org/2000/svg"
   xmlns:svg="http://www.w3.org/2000/svg"><defs
   id="defs1" /><sodipodi:namedview
   id="namedview1"
   pagecolor="#ffffff"
   bordercolor="#000000"
   borderopacity="0.25"
   inkscape:showpageshadow="2"
   inkscape:pageopacity="0.0"
   inkscape:pagecheckerboard="0"
   inkscape:deskcolor="#d1d1d1"
   inkscape:zoom="23.133333"
   inkscape:cx="15"
   inkscape:cy="15"
   inkscape:window-width="2560"
   inkscape:window-height="1387"
   inkscape:window-x="1352"
   inkscape:window-y="25"
   inkscape:window-maximized="0"
   inkscape:current-layer="Layer_1" />
<path
   id="rain"
   d="m 12.79,26.77 c 0,0.16 0.05,0.31 0.15,0.46 0.1,0.15 0.26,0.26 0.46,0.32 0.14,0.03 0.22,0.05 0.25,0.05 0.09,0 0.21,-0.03 0.38,-0.1 0.21,-0.09 0.35,-0.27 0.42,-0.52 l 0.28,-1.05 c 0.06,-0.22 0.04,-0.43 -0.08,-0.63 -0.12,-0.2 -0.29,-0.33 -0.53,-0.4 -0.22,-0.06 -0.43,-0.04 -0.63,0.08 -0.2,0.12 -0.34,0.29 -0.41,0.53 l -0.27,1 c -0.01,0.17 -0.02,0.26 -0.02,0.26 z M 14.13,22 c 0,0.14 0.05,0.29 0.15,0.44 0.1,0.15 0.25,0.26 0.45,0.33 0.22,0.07 0.44,0.06 0.64,-0.05 0.2,-0.11 0.33,-0.28 0.4,-0.52 l 0.3,-1.04 c 0.06,-0.22 0.03,-0.43 -0.08,-0.63 -0.12,-0.2 -0.3,-0.34 -0.53,-0.41 -0.23,-0.06 -0.44,-0.04 -0.65,0.08 -0.21,0.12 -0.34,0.29 -0.41,0.52 l -0.24,1.01 C 14.14,21.9 14.13,21.99 14.13,22 Z m 2.82,1.65 c 0,0.17 0.05,0.34 0.16,0.51 0.11,0.17 0.27,0.28 0.47,0.35 0.02,0 0.06,0.01 0.12,0.02 0.05,0.01 0.09,0.02 0.12,0.02 0.13,0 0.26,-0.02 0.38,-0.08 0.19,-0.07 0.33,-0.26 0.41,-0.57 l 0.25,-1.01 c 0.07,-0.23 0.05,-0.45 -0.06,-0.66 -0.11,-0.21 -0.28,-0.35 -0.5,-0.42 -0.25,-0.06 -0.48,-0.03 -0.68,0.08 -0.2,0.12 -0.33,0.3 -0.37,0.53 l -0.27,1.03 c -0.02,0.06 -0.03,0.13 -0.03,0.2 z m 1.36,-4.79 c -0.01,0.16 0.04,0.31 0.15,0.47 0.11,0.16 0.27,0.28 0.49,0.38 0.08,0.04 0.16,0.06 0.26,0.06 0.11,0 0.22,-0.03 0.34,-0.08 0.21,-0.1 0.35,-0.29 0.44,-0.57 l 0.29,-1.03 c 0.02,-0.13 0.03,-0.2 0.03,-0.22 0,-0.17 -0.05,-0.33 -0.16,-0.49 -0.11,-0.16 -0.27,-0.27 -0.49,-0.33 -0.02,0 -0.06,-0.01 -0.11,-0.02 C 19.49,17 19.45,17 19.42,17 c -0.17,0 -0.33,0.05 -0.49,0.15 -0.16,0.1 -0.27,0.26 -0.33,0.48 l -0.27,1.01 c -0.01,0.08 -0.02,0.15 -0.02,0.22 z"
   inkscape:label="rain" /><path
   d="m 8.18,21.67 -0.65,1.68 c -0.03,0.14 0.02,0.22 0.14,0.22 H 9.8 l -1.04,3.78 h 0.28 l 3.97,-5.22 c 0.04,-0.04 0.04,-0.09 0.02,-0.14 -0.02,-0.05 -0.07,-0.07 -0.14,-0.07 h -2.18 l 2.48,-4.64 c 0.06,-0.14 0.02,-0.21 -0.14,-0.21 h -2.94 c -0.09,0 -0.17,0.05 -0.22,0.14 L 8.8,20.08 Z"
   id="lightning"
   inkscape:label="lightning"
   sodipodi:nodetypes="ccsccccssccssccc"
   style="display:inline" />
<path
   d="m 4.63,16.91 c 0,1.11 0.33,2.1 0.99,2.97 0.66,0.87 1.51,1.47 2.56,1.79 L 8.8,20.08 C 8.09,19.9 7.5,19.51 7.03,18.92 6.56,18.33 6.33,17.66 6.33,16.91 c 0,-0.83 0.28,-1.55 0.84,-2.16 0.56,-0.61 1.26,-0.96 2.1,-1.06 l 0.52,-0.07 c 0.13,0 0.2,-0.06 0.2,-0.17 l 0.07,-0.52 c 0.1,-1.08 0.55,-1.99 1.36,-2.72 0.81,-0.73 1.76,-1.1 2.85,-1.1 1.09,0 2.04,0.37 2.85,1.1 0.82,0.73 1.28,1.64 1.4,2.72 l 0.06,0.58 c 0,0.12 0.06,0.18 0.19,0.18 h 1.61 c 0.91,0 1.68,0.32 2.32,0.95 0.64,0.63 0.96,1.39 0.96,2.28 0,0.85 -0.3,1.59 -0.89,2.21 -0.59,0.62 -1.32,0.96 -2.19,1.03 -0.13,0 -0.2,0.06 -0.2,0.19 v 1.37 c 0,0.11 0.07,0.17 0.2,0.17 0.65,-0.02 1.27,-0.17 1.86,-0.44 0.59,-0.27 1.1,-0.63 1.52,-1.07 0.42,-0.44 0.76,-0.96 1.01,-1.57 0.25,-0.6 0.38,-1.23 0.38,-1.88 0,-0.9 -0.22,-1.73 -0.67,-2.49 -0.45,-0.76 -1.05,-1.36 -1.81,-1.8 -0.76,-0.44 -1.59,-0.66 -2.48,-0.66 H 20.07 C 19.74,10.65 19.04,9.56 17.96,8.72 16.88,7.88 15.66,7.45 14.28,7.45 c -1.41,0 -2.67,0.44 -3.76,1.31 -1.09,0.87 -1.79,1.99 -2.1,3.36 -1.1,0.26 -2.01,0.83 -2.73,1.73 -0.72,0.9 -1.06,1.91 -1.06,3.06 z"
   id="cloud"
   inkscape:label="cloud"
   style="display:inline"
   sodipodi:nodetypes="ssccsssccccsscccssssscsscsscsssscssscss" /></svg>
