<?xml version="1.0" encoding="UTF-8" standalone="no"?>
<!-- Generator: Adobe Illustrator 22.0.1, SVG Export Plug-In . SVG Version: 6.00 Build 0)  -->

<svg
   version="1.1"
   id="Layer_1"
   x="0px"
   y="0px"
   viewBox="0 0 30 30"
   style="enable-background:new 0 0 30 30;"
   xml:space="preserve"
   sodipodi:docname="wi-sleet.svg"
   inkscape:version="1.4.3 (0d15f75, 2025-12-25)"
   xmlns:inkscape="http://www.inkscape.org/namespaces/inkscape"
   xmlns:sodipodi="http://sodipodi.sourceforge.net/DTD/sodipodi-0.dtd"
   xmlns="http://www.w3.org/2000/svg"
   xmlns:svg="http://www.w3.org/2000/svg"><defs
   id="defs1" /><sodipodi:namedview
   id="namedview1"
   pagecolor="#ffffff"
   bordercolor="#000000"
   borderopacity="0.25"
   inkscape:showpageshadow="2"
   inkscape:pageopacity="0.0"
   inkscape:pagecheckerboard="0"
   inkscape:deskcolor="#d1d1d1"
   inkscape:zoom="23.133333"
   inkscape:cx="14.848703"
   inkscape:cy="16.988473"
   inkscape:window-width="1024"
   inkscape:window-height="821"
   inkscape:window-x="1868"
   inkscape:window-y="290"
   inkscape:window-maximized="0"
   inkscape:current-layer="Layer_1" />
<path
   id="rain"
   d="m 9.59,24.12 c 0,-0.03 0.01,-0.07 0.02,-0.13 0.01,-0.05 0.02,-0.09 0.02,-0.12 l 0.09,-0.59 c 0.07,-0.24 0.2,-0.41 0.41,-0.53 0.21,-0.12 0.43,-0.14 0.68,-0.08 0.23,0.07 0.39,0.21 0.51,0.41 0.11,0.21 0.13,0.42 0.07,0.63 l -0.14,0.6 c -0.1,0.44 -0.35,0.66 -0.76,0.66 -0.03,0 -0.08,-0.01 -0.14,-0.02 -0.06,-0.01 -0.1,-0.02 -0.14,-0.02 C 10,24.87 9.85,24.76 9.75,24.6 9.64,24.45 9.59,24.29 9.59,24.12 Z m 0.74,-2.94 c 0,-0.24 0.08,-0.43 0.23,-0.59 0.15,-0.16 0.35,-0.23 0.59,-0.23 0.24,0 0.43,0.08 0.59,0.23 0.16,0.15 0.23,0.35 0.23,0.59 0,0.23 -0.08,0.42 -0.23,0.58 -0.15,0.16 -0.35,0.23 -0.59,0.23 -0.23,0 -0.42,-0.08 -0.57,-0.24 -0.16,-0.16 -0.25,-0.35 -0.25,-0.57 z m 1.64,5.99 c 0,-0.04 0.01,-0.11 0.04,-0.23 l 0.13,-0.59 c 0.07,-0.23 0.21,-0.4 0.41,-0.51 0.21,-0.12 0.42,-0.14 0.63,-0.07 0.23,0.04 0.41,0.17 0.53,0.37 0.12,0.2 0.15,0.43 0.08,0.68 l -0.13,0.59 c -0.1,0.41 -0.37,0.61 -0.8,0.61 -0.07,0 -0.16,-0.01 -0.24,-0.03 -0.22,-0.06 -0.38,-0.17 -0.49,-0.33 -0.1,-0.16 -0.16,-0.32 -0.16,-0.49 z m 0.79,-2.91 c 0,-0.23 0.08,-0.43 0.23,-0.58 0.16,-0.16 0.35,-0.23 0.59,-0.23 0.24,0 0.43,0.08 0.59,0.23 0.16,0.16 0.23,0.35 0.23,0.58 0,0.24 -0.08,0.43 -0.23,0.59 -0.16,0.16 -0.35,0.23 -0.59,0.23 -0.23,0 -0.42,-0.08 -0.58,-0.24 -0.16,-0.16 -0.24,-0.35 -0.24,-0.58 z m 0.62,-2.27 c 0,-0.1 0.01,-0.19 0.03,-0.27 l 0.23,-0.9 c 0.07,-0.23 0.21,-0.41 0.41,-0.53 0.21,-0.12 0.42,-0.15 0.64,-0.08 0.24,0.07 0.41,0.2 0.53,0.4 0.12,0.2 0.14,0.41 0.07,0.63 l -0.26,0.9 c -0.08,0.28 -0.22,0.46 -0.41,0.56 -0.19,0.1 -0.41,0.12 -0.64,0.06 -0.2,-0.04 -0.35,-0.14 -0.45,-0.3 -0.12,-0.16 -0.16,-0.32 -0.15,-0.47 z m 2.76,2.14 c 0,-0.03 0,-0.08 0.01,-0.13 0.01,-0.05 0.01,-0.09 0.01,-0.11 l 0.09,-0.59 c 0.07,-0.24 0.2,-0.41 0.41,-0.53 0.21,-0.12 0.43,-0.14 0.68,-0.08 0.23,0.07 0.4,0.21 0.51,0.41 0.12,0.21 0.14,0.42 0.07,0.63 l -0.14,0.6 c -0.1,0.44 -0.35,0.66 -0.76,0.66 -0.03,0 -0.08,-0.01 -0.14,-0.02 -0.06,-0.01 -0.11,-0.02 -0.14,-0.02 -0.2,-0.06 -0.35,-0.17 -0.45,-0.33 -0.09,-0.16 -0.15,-0.32 -0.15,-0.49 z m 0.74,-2.94 c 0,-0.24 0.08,-0.43 0.23,-0.59 0.16,-0.16 0.35,-0.23 0.59,-0.23 0.24,0 0.43,0.08 0.59,0.23 0.16,0.16 0.23,0.35 0.23,0.59 0,0.23 -0.08,0.43 -0.23,0.58 -0.15,0.15 -0.34,0.23 -0.58,0.23 -0.24,0 -0.43,-0.08 -0.58,-0.24 -0.16,-0.15 -0.25,-0.34 -0.25,-0.57 z" /><path
   d="m 4.09,16.95 c 0,-1.16 0.36,-2.19 1.08,-3.09 0.72,-0.9 1.64,-1.49 2.74,-1.74 0.31,-1.37 1.01,-2.49 2.1,-3.37 1.09,-0.88 2.35,-1.32 3.77,-1.32 0.81,0 1.55,0.13 2.2,0.4 0,0.01 0,0.01 0.01,0.02 0.84,0.32 1.58,0.84 2.21,1.55 h 0.03 c 0.68,0.73 1.13,1.6 1.37,2.62 h 0.31 c 1.08,0 2.02,0.29 2.83,0.86 v -0.01 c 0.53,0.36 0.98,0.8 1.34,1.33 0.36,0.53 0.6,1.11 0.73,1.74 0.04,0.21 0.06,0.38 0.08,0.52 v 0.06 c 0,0.01 0,0.06 0.01,0.17 0.01,0.11 0.01,0.19 0.01,0.24 v 0.03 c 0,0.88 -0.21,1.7 -0.64,2.45 -0.42,0.75 -1,1.36 -1.74,1.81 -0.73,0.45 -1.54,0.69 -2.42,0.72 -0.13,0 -0.2,-0.06 -0.2,-0.17 v -1.34 c 0,-0.13 0.07,-0.19 0.2,-0.19 0.86,-0.04 1.58,-0.38 2.18,-1.02 0.6,-0.64 0.9,-1.39 0.9,-2.26 0,-0.89 -0.32,-1.65 -0.97,-2.29 -0.64,-0.64 -1.41,-0.96 -2.31,-0.96 H 18.3 c -0.12,0 -0.18,-0.06 -0.18,-0.17 l -0.08,-0.59 c -0.1,-1 -0.52,-1.86 -1.27,-2.59 -0.01,-0.01 -0.01,-0.02 -0.02,-0.03 -0.01,-0.01 -0.02,-0.02 -0.02,-0.03 -0.01,-0.01 -0.02,-0.02 -0.04,-0.02 0,-0.02 -0.01,-0.03 -0.02,-0.03 C 15.94,9.59 15.09,9.21 14.11,9.13 14.04,9.12 13.93,9.12 13.77,9.12 c -1.1,0 -2.05,0.37 -2.86,1.1 -0.81,0.73 -1.27,1.64 -1.37,2.72 L 9.46,13.53 C 9.43,13.62 9.35,13.67 9.24,13.67 L 8.75,13.7 C 7.91,13.8 7.2,14.16 6.64,14.77 6.08,15.38 5.8,16.11 5.8,16.95 v 0.04 h 0.03 c 0.01,0.48 0.11,0.93 0.3,1.35 0.2,0.43 0.46,0.79 0.8,1.09 0.21,0.18 0.45,0.34 0.74,0.48 v 0.01 c 0.4,0.19 0.8,0.3 1.21,0.32 0.11,0 0.17,0.06 0.17,0.18 v 1.34 c 0,0.11 -0.06,0.17 -0.17,0.17 C 8.36,21.9 7.87,21.8 7.4,21.63 v 0.01 C 6.57,21.35 5.86,20.87 5.29,20.21 4.72,19.55 4.34,18.77 4.18,17.9 V 17.87 C 4.17,17.86 4.17,17.85 4.17,17.83 4.11,17.57 4.09,17.27 4.09,16.95 Z"
   id="cloud" />
</svg>
