<?xml version="1.0" encoding="UTF-8" standalone="no"?>
<!-- Generator: Adobe Illustrator 22.0.1, SVG Export Plug-In . SVG Version: 6.00 Build 0)  -->

<svg
   version="1.1"
   id="Layer_1"
   x="0px"
   y="0px"
   viewBox="0 0 30 30"
   style="enable-background:new 0 0 30 30;"
   xml:space="preserve"
   sodipodi:docname="wi-snow.svg"
   inkscape:version="1.4.3 (0d15f75, 2025-12-25)"
   xmlns:inkscape="http://www.inkscape.org/namespaces/inkscape"
   xmlns:sodipodi="http://sodipodi.sourceforge.net/DTD/sodipodi-0.dtd"
   xmlns="http://www.w3.org/2000/svg"
   xmlns:svg="http://www.w3.org/2000/svg"><defs
   id="defs1" /><sodipodi:namedview
   id="namedview1"
   pagecolor="#ffffff"
   bordercolor="#000000"
   borderopacity="0.25"
   inkscape:showpageshadow="2"
   inkscape:pageopacity="0.0"
   inkscape:pagecheckerboard="0"
   inkscape:deskcolor="#d1d1d1"
   inkscape:zoom="23.133333"
   inkscape:cx="15.021614"
   inkscape:cy="15"
   inkscape:window-width="1024"
   inkscape:window-height="821"
   inkscape:window-x="1919"
   inkscape:window-y="303"
   inkscape:window-maximized="0"
   inkscape:current-layer="Layer_1" />
<path
   id="snow"
   d="m 11,21.02 c 0,-0.22 0.08,-0.42 0.24,-0.58 0.16,-0.16 0.35,-0.24 0.59,-0.24 0.23,0 0.43,0.08 0.59,0.24 0.16,0.16 0.24,0.36 0.24,0.58 0,0.24 -0.08,0.44 -0.24,0.6 -0.16,0.17 -0.35,0.25 -0.59,0.25 -0.23,0 -0.43,-0.08 -0.59,-0.25 C 11.08,21.46 11,21.26 11,21.02 Z m 0,3.63 c 0,-0.24 0.08,-0.44 0.24,-0.6 0.16,-0.15 0.35,-0.23 0.58,-0.23 0.23,0 0.43,0.08 0.59,0.23 0.16,0.16 0.24,0.35 0.24,0.59 0,0.24 -0.08,0.43 -0.24,0.59 -0.16,0.16 -0.35,0.23 -0.59,0.23 -0.23,0 -0.43,-0.08 -0.59,-0.23 C 11.08,25.08 11,24.88 11,24.65 Z m 3.19,-1.7 c 0,-0.23 0.08,-0.44 0.25,-0.62 0.16,-0.16 0.35,-0.24 0.57,-0.24 0.23,0 0.43,0.09 0.6,0.26 0.17,0.17 0.26,0.37 0.26,0.6 0,0.23 -0.08,0.43 -0.25,0.6 -0.17,0.17 -0.37,0.25 -0.61,0.25 -0.23,0 -0.42,-0.08 -0.58,-0.25 -0.16,-0.17 -0.24,-0.37 -0.24,-0.6 z m 0,-3.62 c 0,-0.23 0.08,-0.43 0.25,-0.6 0.18,-0.16 0.37,-0.24 0.57,-0.24 0.24,0 0.44,0.08 0.61,0.25 0.17,0.17 0.25,0.36 0.25,0.6 0,0.23 -0.08,0.43 -0.25,0.59 -0.17,0.16 -0.37,0.24 -0.61,0.24 -0.23,0 -0.42,-0.08 -0.58,-0.24 -0.16,-0.17 -0.24,-0.37 -0.24,-0.6 z m 0,7.28 c 0,-0.23 0.08,-0.43 0.25,-0.61 0.16,-0.16 0.35,-0.24 0.57,-0.24 0.24,0 0.44,0.08 0.61,0.25 0.17,0.17 0.25,0.37 0.25,0.6 0,0.23 -0.08,0.43 -0.25,0.59 -0.17,0.16 -0.37,0.24 -0.61,0.24 -0.23,0 -0.42,-0.08 -0.58,-0.24 -0.16,-0.17 -0.24,-0.36 -0.24,-0.59 z m 3.22,-5.59 c 0,-0.22 0.08,-0.41 0.25,-0.58 0.17,-0.17 0.37,-0.25 0.6,-0.25 0.23,0 0.43,0.08 0.59,0.24 0.16,0.16 0.24,0.36 0.24,0.58 0,0.24 -0.08,0.44 -0.24,0.6 -0.16,0.17 -0.35,0.25 -0.59,0.25 -0.24,0 -0.44,-0.08 -0.6,-0.25 -0.16,-0.16 -0.25,-0.36 -0.25,-0.59 z m 0,3.63 c 0,-0.22 0.08,-0.42 0.25,-0.6 0.16,-0.15 0.36,-0.23 0.6,-0.23 0.24,0 0.43,0.08 0.59,0.23 0.16,0.15 0.23,0.35 0.23,0.59 0,0.24 -0.08,0.43 -0.23,0.59 -0.16,0.16 -0.35,0.23 -0.59,0.23 -0.24,0 -0.44,-0.08 -0.6,-0.24 -0.16,-0.15 -0.25,-0.34 -0.25,-0.57 z" /><path
   d="m 4.64,16.95 c 0,-1.16 0.35,-2.18 1.06,-3.08 0.71,-0.9 1.62,-1.48 2.74,-1.76 0.31,-1.36 1.01,-2.48 2.1,-3.36 1.09,-0.88 2.34,-1.31 3.75,-1.31 1.38,0 2.6,0.43 3.68,1.28 1.08,0.85 1.78,1.95 2.1,3.29 h 0.32 c 0.89,0 1.72,0.22 2.48,0.66 0.76,0.44 1.37,1.04 1.81,1.8 0.44,0.76 0.67,1.59 0.67,2.48 0,1.32 -0.46,2.47 -1.39,3.42 -0.92,0.96 -2.05,1.46 -3.38,1.5 -0.13,0 -0.2,-0.06 -0.2,-0.17 v -1.33 c 0,-0.12 0.07,-0.18 0.2,-0.18 0.85,-0.04 1.58,-0.38 2.18,-1.02 0.6,-0.64 0.9,-1.38 0.9,-2.23 0,-0.89 -0.32,-1.65 -0.97,-2.3 -0.65,-0.65 -1.42,-0.97 -2.32,-0.97 h -1.61 c -0.12,0 -0.18,-0.06 -0.18,-0.17 L 18.5,12.92 C 18.39,11.84 17.92,10.93 17.11,10.2 16.29,9.47 15.35,9.1 14.26,9.1 c -1.1,0 -2.05,0.37 -2.86,1.11 -0.81,0.74 -1.27,1.65 -1.37,2.75 l -0.06,0.5 c 0,0.12 -0.07,0.19 -0.2,0.19 l -0.53,0.07 c -0.83,0.07 -1.53,0.41 -2.1,1.04 -0.57,0.63 -0.85,1.35 -0.85,2.19 0,0.85 0.3,1.59 0.9,2.23 0.6,0.64 1.33,0.97 2.18,1.02 0.11,0 0.17,0.06 0.17,0.18 v 1.33 c 0,0.11 -0.06,0.17 -0.17,0.17 C 8.03,21.84 6.9,21.34 5.97,20.38 5.1,19.42 4.64,18.27 4.64,16.95 Z"
   id="cloud" />
</svg>
