<?xml version="1.0" encoding="UTF-8" standalone="no"?>
<!-- Generator: Adobe Illustrator 22.0.1, SVG Export Plug-In . SVG Version: 6.00 Build 0)  -->

<svg
   version="1.1"
   id="Layer_1"
   x="0px"
   y="0px"
   viewBox="0 0 30 30"
   style="enable-background:new 0 0 30 30;"
   xml:space="preserve"
   sodipodi:docname="wi-sunset.svg"
   inkscape:version="1.4.3 (0d15f75, 2025-12-25)"
   xmlns:inkscape="http://www.inkscape.org/namespaces/inkscape"
   xmlns:sodipodi="http://sodipodi.sourceforge.net/DTD/sodipodi-0.dtd"
   xmlns="http://www.w3.org/2000/svg"
   xmlns:svg="http://www.w3.org/2000/svg"><defs
   id="defs1" /><sodipodi:namedview
   id="namedview1"
   pagecolor="#ffffff"
   bordercolor="#000000"
   borderopacity="0.25"
   inkscape:showpageshadow="2"
   inkscape:pageopacity="0.0"
   inkscape:pagecheckerboard="0"
   inkscape:deskcolor="#d1d1d1"
   inkscape:zoom="23.133333"
   inkscape:cx="14.978386"
   inkscape:cy="15"
   inkscape:window-width="2560"
   inkscape:window-height="1387"
   inkscape:window-x="1352"
   inkscape:window-y="25"
   inkscape:window-maximized="0"
   inkscape:current-layer="Layer_1" />
<path
   d="m 8.14,20.89 c 0,-0.26 0.1,-0.49 0.3,-0.69 0.18,-0.18 0.41,-0.27 0.68,-0.27 h 3.22 c 0.11,0 0.2,0.02 0.28,0.08 l 2.35,2.22 2.39,-2.23 c 0.07,-0.05 0.17,-0.08 0.29,-0.08 h 3.3 c 0.27,0 0.5,0.09 0.69,0.28 0.19,0.19 0.29,0.42 0.29,0.68 0,0.27 -0.1,0.5 -0.29,0.69 -0.19,0.19 -0.42,0.29 -0.69,0.29 h -2.68 l -3.14,2.84 c -0.12,0.09 -0.23,0.09 -0.33,0 l -3.08,-2.84 h -2.6 c -0.27,0 -0.5,-0.1 -0.69,-0.29 C 8.24,21.39 8.14,21.16 8.14,20.89 Z"
   id="horizon" /><path
   id="sun"
   d="m 2.88,15.47 c 0,-0.28 0.1,-0.5 0.3,-0.68 0.17,-0.18 0.4,-0.26 0.68,-0.26 h 2.31 c 0.27,0 0.49,0.09 0.67,0.27 0.17,0.18 0.26,0.4 0.26,0.67 0,0.28 -0.09,0.52 -0.27,0.71 -0.18,0.19 -0.4,0.29 -0.66,0.29 h -2.3 c -0.27,0 -0.5,-0.1 -0.69,-0.3 -0.2,-0.2 -0.3,-0.43 -0.3,-0.7 z M 6.17,7.61 c 0,-0.28 0.08,-0.51 0.25,-0.68 0.2,-0.2 0.43,-0.3 0.7,-0.3 0.29,0 0.51,0.1 0.68,0.3 L 9.42,8.56 C 9.88,9 9.88,9.45 9.42,9.91 9.23,10.1 9.02,10.19 8.77,10.19 8.55,10.19 8.33,10.1 8.09,9.91 L 6.43,8.29 C 6.26,8.11 6.17,7.88 6.17,7.61 Z m 2.91,7.86 c 0,0.99 0.19,1.87 0.58,2.62 0.06,0.11 0.15,0.16 0.27,0.16 h 1.87 c 0.08,0 0.13,-0.02 0.15,-0.07 0.02,-0.05 -0.01,-0.11 -0.07,-0.18 -0.59,-0.74 -0.89,-1.59 -0.89,-2.53 0,-1.1 0.39,-2.04 1.18,-2.81 0.79,-0.77 1.74,-1.16 2.85,-1.16 1.1,0 2.04,0.39 2.83,1.16 0.78,0.78 1.18,1.71 1.18,2.8 0,0.94 -0.3,1.79 -0.89,2.53 -0.07,0.07 -0.09,0.13 -0.07,0.18 0.02,0.05 0.07,0.07 0.15,0.07 h 1.88 c 0.13,0 0.21,-0.05 0.24,-0.16 0.41,-0.78 0.62,-1.66 0.62,-2.62 0,-0.79 -0.16,-1.56 -0.47,-2.29 C 20.18,12.44 19.75,11.8 19.22,11.27 18.69,10.74 18.06,10.32 17.33,10 16.6,9.68 15.83,9.53 15.03,9.53 c -0.8,0 -1.57,0.16 -2.3,0.47 -0.73,0.32 -1.36,0.74 -1.89,1.27 -0.53,0.53 -0.95,1.16 -1.27,1.9 -0.32,0.74 -0.49,1.51 -0.49,2.3 z M 14.04,6.66 V 4.33 c 0,-0.27 0.1,-0.5 0.29,-0.69 0.19,-0.19 0.42,-0.29 0.69,-0.29 0.27,0 0.5,0.1 0.69,0.29 C 15.9,3.83 16,4.06 16,4.33 v 2.32 c 0,0.27 -0.1,0.5 -0.29,0.69 -0.19,0.19 -0.42,0.29 -0.69,0.29 -0.27,0 -0.5,-0.1 -0.69,-0.29 -0.2,-0.19 -0.29,-0.41 -0.29,-0.68 z m 6.27,2.58 c 0,-0.28 0.09,-0.51 0.26,-0.67 L 22.2,6.94 c 0.16,-0.2 0.39,-0.3 0.68,-0.3 0.27,0 0.5,0.1 0.68,0.29 0.18,0.19 0.27,0.42 0.27,0.69 0,0.28 -0.08,0.51 -0.25,0.68 l -1.66,1.63 c -0.23,0.19 -0.46,0.28 -0.69,0.28 -0.26,0 -0.48,-0.09 -0.66,-0.28 C 20.4,9.74 20.31,9.51 20.31,9.24 Z m 2.59,6.23 c 0,-0.27 0.09,-0.49 0.26,-0.67 0.17,-0.18 0.4,-0.27 0.67,-0.27 h 2.32 c 0.27,0 0.5,0.09 0.69,0.27 0.19,0.18 0.29,0.4 0.29,0.67 0,0.27 -0.1,0.5 -0.29,0.7 -0.19,0.2 -0.42,0.3 -0.69,0.3 h -2.32 c -0.26,0 -0.48,-0.1 -0.66,-0.29 -0.18,-0.19 -0.27,-0.43 -0.27,-0.71 z" />
</svg>
