<?xml version="1.0" encoding="UTF-8" standalone="no"?>
<!-- Generator: Adobe Illustrator 22.0.1, SVG Export Plug-In . SVG Version: 6.00 Build 0)  -->

<svg
   version="1.1"
   id="Layer_1"
   x="0px"
   y="0px"
   viewBox="0 0 30 30"
   style="enable-background:new 0 0 30 30;"
   xml:space="preserve"
   sodipodi:docname="wi-smoke.svg"
   inkscape:version="1.4.3 (0d15f75, 2025-12-25)"
   xmlns:inkscape="http://www.inkscape.org/namespaces/inkscape"
   xmlns:sodipodi="http://sodipodi.sourceforge.net/DTD/sodipodi-0.dtd"
   xmlns="http://www.w3.org/2000/svg"
   xmlns:svg="http://www.w3.org/2000/svg"><defs
   id="defs1" /><sodipodi:namedview
   id="namedview1"
   pagecolor="#ffffff"
   bordercolor="#000000"
   borderopacity="0.25"
   inkscape:showpageshadow="2"
   inkscape:pageopacity="0.0"
   inkscape:pagecheckerboard="0"
   inkscape:deskcolor="#d1d1d1"
   inkscape:zoom="23.133333"
   inkscape:cx="15.021614"
   inkscape:cy="15"
   inkscape:window-width="1024"
   inkscape:window-height="821"
   inkscape:window-x="1955"
   inkscape:window-y="301"
   inkscape:window-maximized="0"
   inkscape:current-layer="Layer_1" />
<path
   id="smoke"
   d="M 6.34,12.48 C 6.34,11.54 6.64,10.7 7.23,9.96 7.82,9.22 8.57,8.75 9.48,8.55 9.73,7.43 10.3,6.5 11.2,5.78 12.1,5.06 13.12,4.7 14.28,4.7 c 1.12,0 2.13,0.35 3.02,1.05 0.89,0.7 1.46,1.6 1.73,2.69 h 0.27 c 1.12,0 2.08,0.39 2.88,1.18 0.79,0.78 1.19,1.74 1.19,2.85 0,0.6 -0.12,1.17 -0.37,1.7 -0.25,0.53 -0.59,0.99 -1.03,1.37 v 0.03 c 0,0.59 -0.19,1.12 -0.56,1.59 -0.37,0.47 -0.84,0.76 -1.4,0.89 -0.14,0.62 -0.45,1.15 -0.91,1.58 -0.46,0.43 -1.01,0.7 -1.63,0.8 0.29,0.34 0.43,0.72 0.43,1.13 0,0.48 -0.17,0.89 -0.51,1.24 -0.34,0.34 -0.75,0.52 -1.23,0.52 -0.48,0 -0.89,-0.17 -1.23,-0.52 -0.34,-0.34 -0.51,-0.76 -0.51,-1.24 0,-0.19 0.03,-0.38 0.1,-0.57 h -0.1 c -0.58,0 -1.08,-0.21 -1.5,-0.63 -0.42,-0.42 -0.63,-0.92 -0.63,-1.5 0,-0.4 0.1,-0.76 0.3,-1.07 -0.52,-0.29 -0.89,-0.7 -1.12,-1.25 H 10.19 V 16.53 C 9.12,16.46 8.21,16.04 7.46,15.26 6.71,14.48 6.34,13.56 6.34,12.48 Z m 1.4,-0.25 c 0,0.8 0.28,1.48 0.84,2.04 0.56,0.56 1.24,0.84 2.03,0.84 0.49,0 0.95,-0.11 1.37,-0.34 0.12,0.74 0.47,1.36 1.04,1.86 0.57,0.5 1.25,0.74 2.02,0.74 0.87,0 1.61,-0.31 2.22,-0.92 0.41,0.48 0.92,0.71 1.54,0.71 0.57,0 1.05,-0.2 1.46,-0.6 0.4,-0.4 0.6,-0.89 0.6,-1.46 0.4,-0.27 0.72,-0.61 0.95,-1.04 0.23,-0.42 0.35,-0.88 0.35,-1.37 0,-0.79 -0.28,-1.47 -0.85,-2.02 -0.57,-0.55 -1.25,-0.83 -2.05,-0.83 -0.56,0 -1.07,0.15 -1.53,0.44 0.06,-0.24 0.08,-0.51 0.08,-0.79 0,-0.96 -0.34,-1.78 -1.03,-2.46 -0.69,-0.68 -1.52,-1.01 -2.49,-1.01 -0.94,0 -1.75,0.33 -2.43,0.97 -0.68,0.64 -1.04,1.44 -1.07,2.37 -0.02,0 -0.05,0 -0.08,0 -0.04,0 -0.07,0 -0.09,0 -0.79,0 -1.46,0.28 -2.03,0.84 -0.57,0.56 -0.85,1.25 -0.85,2.03 z" />
</svg>
