<?xml version="1.0" encoding="UTF-8" standalone="no"?>
<!-- Generator: Adobe Illustrator 22.0.1, SVG Export Plug-In . SVG Version: 6.00 Build 0)  -->

<svg
   version="1.1"
   id="Layer_1"
   x="0px"
   y="0px"
   viewBox="0 0 30 30"
   style="enable-background:new 0 0 30 30;"
   xml:space="preserve"
   sodipodi:docname="wi-sprinkle.svg"
   inkscape:version="1.4.3 (0d15f75, 2025-12-25)"
   xmlns:inkscape="http://www.inkscape.org/namespaces/inkscape"
   xmlns:sodipodi="http://sodipodi.sourceforge.net/DTD/sodipodi-0.dtd"
   xmlns="http://www.w3.org/2000/svg"
   xmlns:svg="http://www.w3.org/2000/svg"><defs
   id="defs1" /><sodipodi:namedview
   id="namedview1"
   pagecolor="#ffffff"
   bordercolor="#000000"
   borderopacity="0.25"
   inkscape:showpageshadow="2"
   inkscape:pageopacity="0.0"
   inkscape:pagecheckerboard="0"
   inkscape:deskcolor="#d1d1d1"
   inkscape:zoom="23.133333"
   inkscape:cx="15.021614"
   inkscape:cy="15"
   inkscape:window-width="1024"
   inkscape:window-height="821"
   inkscape:window-x="1907"
   inkscape:window-y="257"
   inkscape:window-maximized="0"
   inkscape:current-layer="Layer_1" />
<path
   id="rain"
   d="m 10.57,17.79 c 0,-0.24 0.12,-0.57 0.37,-0.99 0.24,-0.42 0.47,-0.75 0.68,-1.01 0.21,-0.24 0.34,-0.38 0.38,-0.42 l 0.36,0.4 c 0.26,0.28 0.5,0.61 0.72,1.02 0.22,0.4 0.33,0.74 0.33,1 0,0.39 -0.13,0.72 -0.4,0.98 -0.27,0.26 -0.6,0.39 -1,0.39 -0.39,0 -0.73,-0.13 -1.01,-0.4 -0.29,-0.26 -0.43,-0.59 -0.43,-0.97 z m 2.98,3.99 c 0,-0.28 0.08,-0.59 0.24,-0.96 0.16,-0.37 0.35,-0.7 0.59,-1.02 0.18,-0.26 0.4,-0.54 0.67,-0.84 0.26,-0.3 0.46,-0.52 0.6,-0.65 0.07,-0.06 0.15,-0.14 0.24,-0.23 l 0.24,0.23 c 0.38,0.33 0.8,0.82 1.27,1.46 0.24,0.33 0.43,0.68 0.59,1.04 0.16,0.36 0.23,0.68 0.23,0.97 0,0.64 -0.23,1.19 -0.68,1.65 -0.45,0.46 -1.01,0.68 -1.66,0.68 -0.64,0 -1.19,-0.23 -1.65,-0.67 -0.46,-0.46 -0.68,-1.01 -0.68,-1.66 z m 1.47,-6.66 c 0,-0.42 0.32,-0.95 0.97,-1.6 l 0.24,0.25 c 0.18,0.21 0.33,0.45 0.48,0.71 0.14,0.26 0.22,0.47 0.22,0.64 0,0.26 -0.09,0.48 -0.28,0.66 -0.18,0.18 -0.4,0.28 -0.66,0.28 -0.27,0 -0.5,-0.09 -0.69,-0.28 -0.19,-0.18 -0.28,-0.4 -0.28,-0.66 z" /><path
   d="m 4.64,16.91 c 0,-1.15 0.36,-2.17 1.08,-3.07 0.72,-0.9 1.63,-1.47 2.73,-1.73 0.31,-1.36 1.01,-2.48 2.1,-3.35 1.09,-0.87 2.35,-1.31 3.76,-1.31 1.38,0 2.6,0.43 3.68,1.27 1.07,0.85 1.78,1.94 2.11,3.28 h 0.31 c 0.89,0 1.72,0.22 2.48,0.65 0.76,0.43 1.37,1.03 1.81,1.78 0.44,0.75 0.67,1.58 0.67,2.47 0,1.34 -0.46,2.49 -1.38,3.45 -0.92,0.96 -2.05,1.47 -3.38,1.51 -0.13,0 -0.2,-0.06 -0.2,-0.17 v -1.33 c 0,-0.12 0.07,-0.18 0.2,-0.18 0.86,-0.04 1.58,-0.38 2.18,-1.02 0.6,-0.64 0.9,-1.39 0.9,-2.26 0,-0.87 -0.32,-1.62 -0.98,-2.26 C 22.06,14 21.29,13.68 20.4,13.68 h -1.6 c -0.12,0 -0.19,-0.06 -0.19,-0.17 l -0.07,-0.58 c -0.11,-1.07 -0.57,-1.98 -1.38,-2.71 -0.82,-0.73 -1.77,-1.1 -2.85,-1.1 -1.09,0 -2.05,0.36 -2.86,1.09 -0.81,0.73 -1.27,1.63 -1.38,2.71 l -0.06,0.54 c 0,0.12 -0.07,0.18 -0.2,0.18 l -0.53,0.03 c -0.82,0.04 -1.51,0.37 -2.09,1 -0.58,0.63 -0.86,1.37 -0.86,2.22 0,0.87 0.3,1.62 0.9,2.26 0.6,0.64 1.33,0.98 2.18,1.02 0.11,0 0.17,0.06 0.17,0.18 v 1.33 c 0,0.11 -0.06,0.17 -0.17,0.17 C 8.07,21.79 6.94,21.28 6.01,20.32 5.08,19.36 4.64,18.24 4.64,16.91 Z"
   id="cloud" />
</svg>
