<?xml version="1.0" encoding="UTF-8" standalone="no"?>
<!-- Generator: Adobe Illustrator 22.0.1, SVG Export Plug-In . SVG Version: 6.00 Build 0)  -->

<svg
   version="1.1"
   id="Layer_1"
   x="0px"
   y="0px"
   viewBox="0 0 30 30"
   style="enable-background:new 0 0 30 30;"
   xml:space="preserve"
   sodipodi:docname="wi-sandstorm.svg"
   inkscape:version="1.4.3 (0d15f75, 2025-12-25)"
   xmlns:inkscape="http://www.inkscape.org/namespaces/inkscape"
   xmlns:sodipodi="http://sodipodi.sourceforge.net/DTD/sodipodi-0.dtd"
   xmlns="http://www.w3.org/2000/svg"
   xmlns:svg="http://www.w3.org/2000/svg"><defs
   id="defs1" /><sodipodi:namedview
   id="namedview1"
   pagecolor="#ffffff"
   bordercolor="#000000"
   borderopacity="0.25"
   inkscape:showpageshadow="2"
   inkscape:pageopacity="0.0"
   inkscape:pagecheckerboard="0"
   inkscape:deskcolor="#d1d1d1"
   inkscape:zoom="16.357737"
   inkscape:cx="12.165497"
   inkscape:cy="16.139152"
   inkscape:window-width="1024"
   inkscape:window-height="821"
   inkscape:window-x="1802"
   inkscape:window-y="311"
   inkscape:window-maximized="0"
   inkscape:current-layer="Layer_1" />
<path
   id="sand"
   d="m 4.67,20.61 c 0,0.24 0.08,0.43 0.24,0.58 0.16,0.16 0.36,0.24 0.58,0.24 0.24,0 0.45,-0.08 0.62,-0.23 0.17,-0.15 0.25,-0.35 0.25,-0.59 0,-0.23 -0.09,-0.43 -0.26,-0.6 -0.17,-0.17 -0.38,-0.25 -0.61,-0.25 -0.22,0 -0.42,0.08 -0.58,0.25 -0.16,0.17 -0.24,0.37 -0.24,0.6 z m 0.95,-9.93 c 0,0.24 0.08,0.43 0.24,0.58 0.16,0.16 0.36,0.24 0.58,0.24 0.24,0 0.45,-0.08 0.61,-0.23 C 7.22,11.11 7.3,10.92 7.3,10.68 7.3,10.45 7.22,10.25 7.05,10.08 6.89,9.92 6.68,9.83 6.45,9.83 6.23,9.83 6.03,9.91 5.87,10.08 5.7,10.25 5.62,10.45 5.62,10.68 Z M 8.65,8.37 c 0,0.24 0.08,0.43 0.24,0.58 0.16,0.17 0.36,0.25 0.58,0.25 0.24,0 0.45,-0.08 0.62,-0.23 0.17,-0.16 0.25,-0.35 0.25,-0.59 0,-0.23 -0.09,-0.43 -0.26,-0.6 C 9.92,7.61 9.71,7.53 9.47,7.53 9.25,7.53 9.05,7.61 8.89,7.78 8.73,7.94 8.65,8.14 8.65,8.37 Z m 0.09,11.6 c 0,0.23 0.08,0.43 0.25,0.58 0.16,0.16 0.35,0.24 0.57,0.24 0.24,0 0.45,-0.08 0.62,-0.23 0.17,-0.16 0.25,-0.35 0.25,-0.59 0,-0.23 -0.09,-0.43 -0.26,-0.6 C 10,19.2 9.79,19.12 9.56,19.12 c -0.22,0 -0.42,0.08 -0.58,0.25 -0.16,0.17 -0.24,0.37 -0.24,0.6 z m 4.18,-9.83 c 0,0.24 0.08,0.43 0.24,0.58 0.16,0.16 0.36,0.24 0.58,0.24 0.24,0 0.45,-0.08 0.62,-0.23 0.17,-0.15 0.25,-0.35 0.25,-0.59 0,-0.23 -0.09,-0.43 -0.26,-0.6 -0.17,-0.17 -0.38,-0.25 -0.61,-0.25 -0.23,0 -0.42,0.08 -0.58,0.25 -0.16,0.17 -0.24,0.37 -0.24,0.6 z m 0.32,10.99 c 0,0.23 0.08,0.42 0.25,0.58 0.16,0.16 0.35,0.24 0.57,0.24 0.24,0 0.45,-0.08 0.62,-0.23 0.17,-0.16 0.25,-0.35 0.25,-0.59 0,-0.23 -0.09,-0.43 -0.26,-0.6 -0.17,-0.17 -0.38,-0.25 -0.61,-0.25 -0.22,0 -0.42,0.08 -0.58,0.25 -0.16,0.17 -0.24,0.37 -0.24,0.6 z M 17.72,9.98 c 0,0.23 0.08,0.42 0.24,0.57 0.17,0.17 0.36,0.25 0.58,0.25 0.24,0 0.45,-0.08 0.62,-0.23 0.17,-0.16 0.25,-0.35 0.25,-0.59 0,-0.23 -0.09,-0.43 -0.26,-0.6 -0.17,-0.17 -0.38,-0.25 -0.61,-0.25 -0.22,0 -0.41,0.08 -0.58,0.25 -0.15,0.17 -0.24,0.37 -0.24,0.6 z m 5.09,7.06 c 0,0.24 0.08,0.43 0.24,0.58 0.16,0.16 0.36,0.24 0.58,0.24 0.24,0 0.45,-0.08 0.61,-0.23 0.17,-0.16 0.25,-0.35 0.25,-0.59 0,-0.23 -0.08,-0.43 -0.25,-0.6 -0.17,-0.17 -0.37,-0.25 -0.61,-0.25 -0.23,0 -0.42,0.08 -0.58,0.25 -0.15,0.17 -0.24,0.37 -0.24,0.6 z"
   style="display:inline" /><path
   id="wind"
   d="m 3.1,16.97 c 0,0.24 0.09,0.45 0.28,0.62 0.16,0.19 0.37,0.28 0.63,0.28 H 18.7 c 0.29,0 0.53,0.1 0.73,0.3 0.2,0.2 0.3,0.45 0.3,0.74 0,0.29 -0.1,0.53 -0.3,0.72 -0.2,0.19 -0.44,0.29 -0.74,0.29 -0.29,0 -0.54,-0.1 -0.73,-0.29 -0.16,-0.18 -0.36,-0.26 -0.6,-0.26 -0.25,0 -0.46,0.09 -0.64,0.26 -0.18,0.17 -0.27,0.38 -0.27,0.61 0,0.25 0.09,0.46 0.28,0.63 0.56,0.55 1.22,0.83 1.96,0.83 0.78,0 1.45,-0.27 2.01,-0.81 0.56,-0.54 0.83,-1.19 0.83,-1.97 0,-0.78 -0.28,-1.44 -0.84,-2 -0.56,-0.56 -1.23,-0.84 -2,-0.84 H 4.01 c -0.25,0 -0.46,0.09 -0.64,0.26 -0.18,0.17 -0.27,0.38 -0.27,0.63 z m 0,-3.28 c 0,0.23 0.09,0.43 0.28,0.61 0.17,0.18 0.38,0.26 0.63,0.26 h 20.04 c 0.78,0 1.45,-0.27 2.01,-0.82 0.56,-0.54 0.84,-1.2 0.84,-1.97 C 26.9,11 26.62,10.33 26.06,9.78 25.5,9.23 24.83,8.95 24.05,8.95 c -0.77,0 -1.42,0.27 -1.95,0.8 -0.18,0.16 -0.27,0.38 -0.27,0.67 0,0.26 0.09,0.47 0.26,0.63 0.17,0.16 0.38,0.24 0.63,0.24 0.24,0 0.45,-0.08 0.63,-0.24 0.19,-0.21 0.42,-0.31 0.7,-0.31 0.29,0 0.53,0.1 0.73,0.3 0.2,0.2 0.3,0.44 0.3,0.73 0,0.29 -0.1,0.53 -0.3,0.72 -0.2,0.19 -0.44,0.29 -0.73,0.29 H 4.01 c -0.25,0 -0.46,0.09 -0.64,0.26 -0.18,0.19 -0.27,0.4 -0.27,0.65 z" />
</svg>
