<?xml version="1.0" encoding="UTF-8" standalone="no"?>
<!-- Generator: Adobe Illustrator 22.0.1, SVG Export Plug-In . SVG Version: 6.00 Build 0)  -->

<svg
   version="1.1"
   id="Layer_1"
   x="0px"
   y="0px"
   viewBox="0 0 30 30"
   style="enable-background:new 0 0 30 30;"
   xml:space="preserve"
   sodipodi:docname="wi-sunrise.svg"
   inkscape:version="1.4.3 (0d15f75, 2025-12-25)"
   xmlns:inkscape="http://www.inkscape.org/namespaces/inkscape"
   xmlns:sodipodi="http://sodipodi.sourceforge.net/DTD/sodipodi-0.dtd"
   xmlns="http://www.w3.org/2000/svg"
   xmlns:svg="http://www.w3.org/2000/svg"><defs
   id="defs1" /><sodipodi:namedview
   id="namedview1"
   pagecolor="#ffffff"
   bordercolor="#000000"
   borderopacity="0.25"
   inkscape:showpageshadow="2"
   inkscape:pageopacity="0.0"
   inkscape:pagecheckerboard="0"
   inkscape:deskcolor="#d1d1d1"
   inkscape:zoom="23.133333"
   inkscape:cx="14.978386"
   inkscape:cy="15"
   inkscape:window-width="2560"
   inkscape:window-height="1387"
   inkscape:window-x="1352"
   inkscape:window-y="25"
   inkscape:window-maximized="0"
   inkscape:current-layer="Layer_1" />
<path
   d="m 8.08,20.88 c 0,-0.28 0.1,-0.51 0.29,-0.68 0.18,-0.17 0.4,-0.26 0.68,-0.26 h 2.63 l 3.11,-2.92 c 0.1,-0.08 0.21,-0.08 0.34,0 l 3.16,2.92 h 2.77 c 0.27,0 0.5,0.09 0.69,0.28 0.19,0.18 0.29,0.41 0.29,0.67 0,0.27 -0.1,0.5 -0.29,0.69 -0.19,0.19 -0.42,0.29 -0.69,0.29 h -3.38 c -0.1,0 -0.2,-0.02 -0.29,-0.07 l -2.41,-2.27 -2.39,2.27 c -0.08,0.05 -0.17,0.07 -0.28,0.07 H 9.05 c -0.27,0 -0.5,-0.1 -0.69,-0.29 -0.19,-0.2 -0.28,-0.43 -0.28,-0.7 z"
   id="horizon" /><path
   id="sun"
   d="m 2.75,15.36 c 0,-0.25 0.1,-0.48 0.3,-0.69 0.22,-0.19 0.46,-0.29 0.7,-0.29 h 2.33 c 0.27,0 0.49,0.1 0.67,0.29 0.18,0.19 0.27,0.43 0.27,0.69 0,0.29 -0.09,0.53 -0.27,0.72 -0.18,0.19 -0.41,0.29 -0.67,0.29 H 3.75 c -0.27,0 -0.5,-0.1 -0.7,-0.3 -0.2,-0.21 -0.3,-0.45 -0.3,-0.71 z M 6.08,7.38 C 6.08,7.11 6.17,6.88 6.34,6.7 6.57,6.5 6.8,6.4 7.05,6.4 c 0.26,0 0.49,0.1 0.68,0.29 l 1.64,1.65 c 0.19,0.22 0.28,0.45 0.28,0.69 0,0.28 -0.09,0.52 -0.27,0.7 -0.18,0.18 -0.4,0.28 -0.66,0.28 -0.24,0 -0.48,-0.1 -0.7,-0.29 L 6.34,8.11 C 6.17,7.9 6.08,7.65 6.08,7.38 Z M 9,15.36 c 0,0.97 0.21,1.85 0.62,2.64 0.02,0.12 0.11,0.18 0.25,0.18 h 1.88 c 0.07,0 0.12,-0.03 0.15,-0.08 0.03,-0.06 0.02,-0.12 -0.02,-0.19 -0.64,-0.77 -0.96,-1.62 -0.96,-2.55 0,-1.12 0.4,-2.08 1.2,-2.87 0.8,-0.79 1.76,-1.18 2.89,-1.18 1.12,0 2.07,0.39 2.86,1.18 0.79,0.79 1.19,1.74 1.19,2.87 0,0.94 -0.32,1.79 -0.95,2.55 -0.04,0.07 -0.05,0.13 -0.03,0.19 0.02,0.06 0.07,0.08 0.15,0.08 h 1.9 c 0.13,0 0.21,-0.06 0.23,-0.18 C 20.8,17.23 21,16.35 21,15.36 21,14.55 20.84,13.77 20.52,13.04 20.2,12.3 19.77,11.67 19.24,11.13 18.71,10.6 18.07,10.17 17.33,9.85 16.59,9.53 15.82,9.38 15.01,9.38 14.2,9.38 13.42,9.54 12.68,9.85 11.94,10.17 11.3,10.59 10.76,11.13 10.22,11.66 9.79,12.3 9.47,13.04 9.16,13.77 9,14.54 9,15.36 Z M 14.03,6.4 V 4.1 c 0,-0.29 0.09,-0.52 0.28,-0.71 0.19,-0.19 0.43,-0.28 0.71,-0.28 0.28,0 0.51,0.09 0.7,0.28 C 15.91,3.58 16,3.83 16,4.11 v 2.3 C 16,6.7 15.91,6.93 15.72,7.12 15.54,7.3 15.3,7.4 15.02,7.4 14.73,7.4 14.5,7.31 14.31,7.12 14.12,6.93 14.03,6.69 14.03,6.4 Z m 6.35,2.64 c 0,-0.25 0.09,-0.48 0.27,-0.69 L 22.27,6.7 c 0.19,-0.19 0.43,-0.29 0.7,-0.29 0.27,0 0.51,0.1 0.69,0.29 0.19,0.19 0.28,0.42 0.28,0.69 0,0.29 -0.09,0.53 -0.26,0.73 L 22,9.73 c -0.21,0.19 -0.45,0.29 -0.7,0.29 -0.27,0 -0.49,-0.09 -0.66,-0.28 -0.17,-0.19 -0.26,-0.42 -0.26,-0.7 z m 2.61,6.32 c 0,-0.27 0.09,-0.5 0.27,-0.69 0.18,-0.19 0.4,-0.29 0.66,-0.29 h 2.35 c 0.27,0 0.5,0.1 0.69,0.29 0.19,0.19 0.29,0.43 0.29,0.69 0,0.28 -0.1,0.51 -0.29,0.71 -0.19,0.2 -0.42,0.3 -0.69,0.3 h -2.35 c -0.27,0 -0.49,-0.1 -0.67,-0.29 -0.17,-0.2 -0.26,-0.44 -0.26,-0.72 z" />
</svg>
