<?xml version="1.0" encoding="UTF-8" standalone="no"?>
<!-- Generator: Adobe Illustrator 22.0.1, SVG Export Plug-In . SVG Version: 6.00 Build 0)  -->

<svg
   version="1.1"
   id="Layer_1"
   x="0px"
   y="0px"
   viewBox="0 0 30 30"
   style="enable-background:new 0 0 30 30;"
   xml:space="preserve"
   sodipodi:docname="wi-train.svg"
   inkscape:version="1.4.3 (0d15f75, 2025-12-25)"
   xmlns:inkscape="http://www.inkscape.org/namespaces/inkscape"
   xmlns:sodipodi="http://sodipodi.sourceforge.net/DTD/sodipodi-0.dtd"
   xmlns="http://www.w3.org/2000/svg"
   xmlns:svg="http://www.w3.org/2000/svg"><defs
   id="defs1" /><sodipodi:namedview
   id="namedview1"
   pagecolor="#ffffff"
   bordercolor="#000000"
   borderopacity="0.25"
   inkscape:showpageshadow="2"
   inkscape:pageopacity="0.0"
   inkscape:pagecheckerboard="0"
   inkscape:deskcolor="#d1d1d1"
   inkscape:zoom="23.133333"
   inkscape:cx="15.021614"
   inkscape:cy="15"
   inkscape:window-width="1024"
   inkscape:window-height="821"
   inkscape:window-x="1948"
   inkscape:window-y="300"
   inkscape:window-maximized="0"
   inkscape:current-layer="Layer_1" />
<path
   d="m 15.78,5.43 c 0,0.41 0.16,0.76 0.47,1.04 0,0.2 0.09,0.43 0.26,0.68 0.17,0.25 0.36,0.4 0.56,0.44 0.04,0.22 0.15,0.41 0.31,0.57 0.16,0.15 0.36,0.25 0.59,0.3 -0.11,0.11 -0.16,0.24 -0.16,0.39 0,0.18 0.06,0.33 0.18,0.45 0.12,0.12 0.27,0.18 0.45,0.18 0.18,0 0.33,-0.06 0.46,-0.19 0.13,-0.12 0.19,-0.28 0.19,-0.45 0,-0.02 0,-0.05 -0.01,-0.09 -0.01,-0.04 -0.01,-0.08 -0.01,-0.1 h 0.03 c 0.21,0 0.39,-0.08 0.54,-0.23 0.15,-0.15 0.23,-0.34 0.23,-0.55 0,-0.1 -0.04,-0.22 -0.12,-0.38 0.17,-0.09 0.31,-0.25 0.41,-0.47 h 0.45 C 21,7 21.34,6.85 21.61,6.57 21.89,6.29 22.03,5.96 22.03,5.56 22.03,5.22 21.92,4.92 21.7,4.66 21.48,4.4 21.2,4.23 20.87,4.14 20.79,3.74 20.58,3.41 20.25,3.15 19.92,2.89 19.54,2.76 19.13,2.76 c -0.41,0 -0.77,0.13 -1.08,0.38 -0.31,0.25 -0.52,0.58 -0.62,0.97 h -0.11 c -0.41,0 -0.77,0.13 -1.08,0.39 -0.31,0.25 -0.46,0.57 -0.46,0.93 z"
   id="smoke" /><path
   d="m 4.25,12.68 v -0.32 c 0,-0.1 0.03,-0.18 0.1,-0.25 0.07,-0.07 0.15,-0.1 0.25,-0.1 h 7.58 c 0.1,0 0.18,0.03 0.25,0.1 0.07,0.07 0.1,0.15 0.1,0.25 v 0.32 c 0,0.1 -0.03,0.18 -0.1,0.25 -0.07,0.07 -0.15,0.1 -0.25,0.1 h -0.44 v 1.65 h 2.12 c 0.02,-0.28 0.14,-0.52 0.35,-0.71 0.21,-0.19 0.46,-0.29 0.75,-0.29 0.29,0 0.53,0.1 0.74,0.29 0.21,0.19 0.32,0.43 0.35,0.71 h 1.32 v -3.39 c -0.14,-0.01 -0.25,-0.06 -0.35,-0.16 -0.1,-0.1 -0.15,-0.23 -0.15,-0.37 v -0.31 c 0,-0.14 0.05,-0.27 0.16,-0.38 0.11,-0.11 0.24,-0.16 0.39,-0.16 h 1.99 c 0.15,0 0.28,0.05 0.38,0.16 0.1,0.11 0.15,0.23 0.15,0.38 v 0.31 c 0,0.14 -0.05,0.27 -0.14,0.37 -0.09,0.1 -0.2,0.16 -0.34,0.16 v 3.39 h 1.56 c 0.27,0 0.51,0.1 0.71,0.3 0.2,0.2 0.3,0.44 0.3,0.71 v 2.93 l 3.73,4.87 h -4.74 v -3.04 h -0.71 c 0.11,0.26 0.16,0.54 0.16,0.83 0,0.61 -0.21,1.12 -0.64,1.56 -0.43,0.43 -0.95,0.65 -1.55,0.65 -0.61,0 -1.12,-0.22 -1.56,-0.65 -0.43,-0.43 -0.65,-0.95 -0.65,-1.56 0,-0.29 0.05,-0.57 0.16,-0.83 h -1 c 0.11,0.27 0.17,0.55 0.17,0.83 0,0.61 -0.22,1.12 -0.65,1.56 -0.43,0.44 -0.95,0.65 -1.56,0.65 -0.61,0 -1.12,-0.22 -1.55,-0.65 C 11.21,22.41 11,21.89 11,21.28 c 0,-0.29 0.05,-0.57 0.16,-0.83 H 9.97 c 0.12,0.29 0.18,0.57 0.18,0.83 0,0.61 -0.22,1.12 -0.65,1.56 -0.43,0.44 -0.95,0.65 -1.56,0.65 -0.61,0 -1.12,-0.22 -1.56,-0.65 C 5.94,22.41 5.73,21.89 5.73,21.28 5.73,20.99 5.79,20.71 5.9,20.44 5.66,20.4 5.45,20.29 5.29,20.1 5.13,19.91 5.05,19.69 5.05,19.44 V 18.58 H 5.03 V 13.03 H 4.6 C 4.5,13.03 4.42,13 4.35,12.93 4.28,12.86 4.25,12.78 4.25,12.68 Z m 2.05,3.94 c 0,0.21 0.07,0.39 0.22,0.54 0.15,0.15 0.33,0.22 0.54,0.22 H 8.5 c 0.21,0 0.39,-0.07 0.53,-0.22 0.14,-0.15 0.22,-0.33 0.22,-0.54 v -2.3 C 9.25,14.11 9.18,13.94 9.03,13.79 8.88,13.64 8.71,13.57 8.5,13.57 H 7.07 c -0.21,0 -0.39,0.07 -0.54,0.23 -0.15,0.15 -0.22,0.32 -0.22,0.52 v 2.3 z"
   id="line" />
</svg>
