<?xml version="1.0" encoding="UTF-8" standalone="no"?>
<!-- Generator: Adobe Illustrator 22.0.1, SVG Export Plug-In . SVG Version: 6.00 Build 0)  -->

<svg
   version="1.1"
   id="Layer_1"
   x="0px"
   y="0px"
   viewBox="0 0 30 30"
   style="enable-background:new 0 0 30 30;"
   xml:space="preserve"
   sodipodi:docname="wi-thunderstorm.svg"
   inkscape:version="1.4.3 (0d15f75, 2025-12-25)"
   xmlns:inkscape="http://www.inkscape.org/namespaces/inkscape"
   xmlns:sodipodi="http://sodipodi.sourceforge.net/DTD/sodipodi-0.dtd"
   xmlns="http://www.w3.org/2000/svg"
   xmlns:svg="http://www.w3.org/2000/svg"><defs
   id="defs1" /><sodipodi:namedview
   id="namedview1"
   pagecolor="#ffffff"
   bordercolor="#000000"
   borderopacity="0.25"
   inkscape:showpageshadow="2"
   inkscape:pageopacity="0.0"
   inkscape:pagecheckerboard="0"
   inkscape:deskcolor="#d1d1d1"
   inkscape:zoom="23.133333"
   inkscape:cx="15"
   inkscape:cy="15"
   inkscape:window-width="2560"
   inkscape:window-height="1387"
   inkscape:window-x="1352"
   inkscape:window-y="25"
   inkscape:window-maximized="0"
   inkscape:current-layer="Layer_1" />
<path
   id="rain"
   d="m 12.77,26.62 c 0,0.39 0.19,0.65 0.58,0.77 0.01,0 0.05,0 0.11,0.01 0.06,0.01 0.11,0.01 0.14,0.01 0.17,0 0.33,-0.05 0.49,-0.15 0.16,-0.1 0.27,-0.26 0.32,-0.48 l 2.25,-8.69 c 0.06,-0.24 0.04,-0.45 -0.07,-0.65 -0.11,-0.19 -0.27,-0.32 -0.5,-0.39 -0.17,-0.02 -0.26,-0.03 -0.26,-0.03 -0.16,0 -0.32,0.05 -0.47,0.15 -0.15,0.1 -0.26,0.25 -0.31,0.45 l -2.26,8.72 c -0.01,0.1 -0.02,0.19 -0.02,0.28 z m 4.16,-3.06 c 0,0.13 0.03,0.26 0.1,0.38 0.14,0.22 0.31,0.37 0.51,0.44 0.11,0.03 0.21,0.05 0.3,0.05 0.09,0 0.2,-0.02 0.32,-0.08 0.21,-0.09 0.35,-0.28 0.42,-0.57 l 1.44,-5.67 c 0.03,-0.14 0.05,-0.23 0.05,-0.27 0,-0.15 -0.05,-0.3 -0.16,-0.45 -0.11,-0.15 -0.26,-0.26 -0.46,-0.32 -0.17,-0.02 -0.26,-0.03 -0.26,-0.03 -0.17,0 -0.33,0.05 -0.47,0.15 -0.14,0.1 -0.24,0.25 -0.3,0.45 l -1.46,5.7 c 0,0.02 0,0.05 -0.01,0.11 -0.02,0.05 -0.02,0.08 -0.02,0.11 z"
   inkscape:label="rain" /><path
   d="m 8.2,21.67 -0.66,1.68 c -0.03,0.14 0.02,0.22 0.14,0.22 h 2.13 l -0.98,4.3 h 0.28 l 3.92,-5.75 c 0.04,-0.04 0.04,-0.09 0.01,-0.14 -0.03,-0.05 -0.08,-0.07 -0.15,-0.07 h -2.18 l 2.48,-4.64 c 0.07,-0.14 0.02,-0.22 -0.14,-0.22 h -2.94 c -0.09,0 -0.17,0.05 -0.23,0.15 l -1.07,2.87 z"
   id="lightning"
   inkscape:label="lightning"
   sodipodi:nodetypes="ccsccccssccssccc"
   style="display:inline" />
<path
   d="m 4.63,16.91 c 0,1.11 0.33,2.1 0.99,2.97 0.66,0.87 1.52,1.47 2.58,1.79 l 0.61,-1.6 C 8.1,19.89 7.51,19.5 7.04,18.91 6.57,18.32 6.34,17.65 6.34,16.9 c 0,-0.83 0.28,-1.55 0.85,-2.17 0.57,-0.61 1.27,-0.97 2.1,-1.07 l 0.53,-0.07 c 0.13,0 0.2,-0.06 0.2,-0.18 l 0.07,-0.51 c 0.11,-1.08 0.56,-1.99 1.37,-2.72 0.81,-0.73 1.76,-1.1 2.85,-1.1 1.09,0 2.04,0.37 2.85,1.1 0.82,0.73 1.28,1.64 1.4,2.72 l 0.07,0.58 c 0,0.11 0.06,0.17 0.18,0.17 h 1.6 c 0.91,0 1.68,0.32 2.32,0.95 0.64,0.63 0.97,1.4 0.97,2.28 0,0.85 -0.3,1.59 -0.89,2.21 -0.59,0.62 -1.33,0.97 -2.2,1.04 -0.13,0 -0.2,0.06 -0.2,0.18 v 1.37 c 0,0.11 0.07,0.17 0.2,0.17 1.33,-0.04 2.46,-0.55 3.39,-1.51 0.93,-0.96 1.39,-2.11 1.39,-3.45 0,-0.9 -0.22,-1.73 -0.67,-2.49 -0.44,-0.76 -1.05,-1.36 -1.81,-1.8 -0.77,-0.44 -1.6,-0.66 -2.5,-0.66 H 20.1 C 19.77,10.61 19.06,9.52 17.99,8.68 16.92,7.84 15.69,7.41 14.31,7.41 c -1.41,0 -2.67,0.44 -3.76,1.31 -1.09,0.87 -1.79,1.99 -2.1,3.36 -1.11,0.26 -2.02,0.83 -2.74,1.73 -0.72,0.9 -1.08,1.95 -1.08,3.1 z"
   id="cloud"
   inkscape:label="cloud"
   style="display:inline"
   sodipodi:nodetypes="ssccsscccccsscccssssscsscssccscssscss" /></svg>
