<?xml version="1.0" encoding="UTF-8" standalone="no"?>
<!-- Generator: Adobe Illustrator 22.0.1, SVG Export Plug-In . SVG Version: 6.00 Build 0)  -->

<svg
   version="1.1"
   id="Layer_1"
   x="0px"
   y="0px"
   viewBox="0 0 30 30"
   style="enable-background:new 0 0 30 30;"
   xml:space="preserve"
   sodipodi:docname="wi-tsunami.svg"
   inkscape:version="1.4.3 (0d15f75, 2025-12-25)"
   xmlns:inkscape="http://www.inkscape.org/namespaces/inkscape"
   xmlns:sodipodi="http://sodipodi.sourceforge.net/DTD/sodipodi-0.dtd"
   xmlns="http://www.w3.org/2000/svg"
   xmlns:svg="http://www.w3.org/2000/svg"><defs
   id="defs1" /><sodipodi:namedview
   id="namedview1"
   pagecolor="#ffffff"
   bordercolor="#000000"
   borderopacity="0.25"
   inkscape:showpageshadow="2"
   inkscape:pageopacity="0.0"
   inkscape:pagecheckerboard="0"
   inkscape:deskcolor="#d1d1d1"
   inkscape:zoom="23.133333"
   inkscape:cx="2.8097983"
   inkscape:cy="18.631124"
   inkscape:window-width="2560"
   inkscape:window-height="1387"
   inkscape:window-x="1352"
   inkscape:window-y="25"
   inkscape:window-maximized="0"
   inkscape:current-layer="Layer_1" />
<path
   d="m 11.57,20.65 h 5.26 l 6.38,-0.02 h 0.96 c 0.16,0 0.29,0.06 0.4,0.18 0.11,0.12 0.16,0.26 0.16,0.42 0.01,0.17 -0.05,0.31 -0.16,0.43 -0.11,0.12 -0.25,0.18 -0.4,0.18 H 5.65 c -0.16,0 -0.3,-0.06 -0.41,-0.17 -0.11,-0.11 -0.17,-0.25 -0.17,-0.43 0,-0.16 0.06,-0.3 0.17,-0.42 0.12,-0.12 0.25,-0.18 0.41,-0.18 h 0.4 z m 6.48,-0.01 h 3.88 z"
   id="horizon"
   inkscape:label="hor"
   style="display:inline"
   sodipodi:nodetypes="cccsscssssscsccccc" />
<path
   d="m 16.83,20.65 v -2.78 l -0.38,0.23 c -0.14,0.09 -0.29,0.11 -0.45,0.07 -0.17,-0.04 -0.29,-0.13 -0.37,-0.28 -0.09,-0.14 -0.11,-0.29 -0.08,-0.45 0.03,-0.16 0.12,-0.29 0.27,-0.38 l 3.82,-2.38 0.02,-0.02 c 0.01,0 0.01,0 0.01,-0.01 h 0.02 c 0.01,0 0.02,0 0.03,-0.01 0.07,-0.02 0.14,-0.05 0.23,-0.07 h 0.06 c 0.01,0.01 0.02,0.02 0.03,0.02 h 0.07 c 0,0.01 0.01,0.01 0.02,0.01 h 0.03 l 0.02,0.01 h 0.02 c 0.01,0.01 0.02,0.02 0.02,0.03 h 0.02 c 0.01,0 0.01,0 0.01,0.01 0.02,0 0.03,0 0.03,0.01 0.01,0 0.02,0 0.03,0.01 l 0.02,0.01 3.82,2.35 c 0.14,0.09 0.23,0.22 0.27,0.38 0.03,0.17 0.01,0.32 -0.08,0.46 -0.08,0.14 -0.2,0.23 -0.37,0.26 -0.17,0.03 -0.32,0.01 -0.45,-0.08 l -0.31,-0.19 v 2.77 z m 1.22,-0.01 h 3.88 v -3.52 l -1.98,-1.21 -1.9,1.19 z"
   id="line"
   inkscape:label="house"
   style="display:inline"
   sodipodi:nodetypes="cccccsccccscccscsccccscccccccscccccccccc" /><path
   d="M 6.05,20.64 C 5.84,19.98 5.66,19.29 5.52,18.57 5.31,17.47 5.2,16.47 5.2,15.58 5.2,13.87 5.5,12.26 6.11,10.77 6.73,9.31 7.59,8.06 8.7,7.01 9.82,5.95 11.12,5.14 12.6,4.59 c 1.51,-0.57 3.14,-0.86 4.91,-0.86 1.06,0 2.06,0.09 3,0.28 0.94,0.22 1.85,0.56 2.73,1.03 l 1.7,0.91 -1.88,0.39 c -0.58,0.13 -0.98,0.39 -1.2,0.78 -0.16,0.32 -0.15,0.69 0.03,1.11 L 22.3,9.18 21.28,9.23 C 20.85,9.26 20.45,9.35 20.1,9.5 19.77,9.66 19.58,9.82 19.52,10 c -0.11,0.23 0.01,0.56 0.36,1 l 0.81,0.96 -1.26,0.18 c -1.55,0.23 -2.82,0.55 -3.81,0.96 -0.99,0.41 -1.77,0.94 -2.35,1.59 -0.56,0.62 -0.98,1.42 -1.25,2.37 -0.27,0.96 -0.42,2.15 -0.45,3.59 z m 0.57,-5.06 c 0,0.71 0.1,1.62 0.3,2.73 0.15,0.81 0.33,1.52 0.54,2.12 h 2.69 c 0.05,-1.45 0.2,-2.65 0.45,-3.59 0.35,-1.27 0.88,-2.31 1.6,-3.09 0.73,-0.82 1.69,-1.47 2.89,-1.96 0.82,-0.34 1.86,-0.63 3.11,-0.87 L 18.12,10.67 C 18.02,10.21 18.05,9.8 18.21,9.44 18.43,8.93 18.86,8.52 19.49,8.23 19.56,8.2 19.62,8.17 19.68,8.16 18.82,7.96 17.95,7.91 17.08,8.02 16.09,8.14 15.16,8.43 14.3,8.87 c -1.11,0.58 -2.11,1.41 -3.01,2.48 -0.1,0.12 -0.23,0.18 -0.38,0.18 -0.12,0 -0.22,-0.03 -0.31,-0.1 -0.1,-0.09 -0.16,-0.2 -0.17,-0.34 -0.01,-0.14 0.02,-0.26 0.11,-0.37 1,-1.19 2.11,-2.1 3.34,-2.73 0.98,-0.49 2.03,-0.81 3.14,-0.95 0.57,-0.07 1.12,-0.08 1.67,-0.02 0.54,0.06 0.92,0.12 1.14,0.17 0.22,0.05 0.37,0.09 0.45,0.12 l 0.08,0.03 C 20.41,7.03 20.49,6.75 20.6,6.5 20.76,6.21 20.97,5.94 21.24,5.7 20.94,5.61 20.59,5.51 20.2,5.42 19.4,5.24 18.5,5.16 17.51,5.16 c -1.58,0 -3.05,0.26 -4.42,0.77 -1.34,0.51 -2.48,1.22 -3.42,2.14 -0.98,0.91 -1.73,2 -2.23,3.26 -0.55,1.32 -0.82,2.74 -0.82,4.25 z"
   id="water"
   inkscape:label="water"
   sodipodi:nodetypes="ccscccscccccccccccccsccccsccccccccccccccscsccccssccccscccs"
   style="display:inline" /></svg>
