<?xml version="1.0" encoding="UTF-8" standalone="no"?>
<!-- Generator: Adobe Illustrator 22.0.1, SVG Export Plug-In . SVG Version: 6.00 Build 0)  -->

<svg
   version="1.1"
   id="Layer_1"
   x="0px"
   y="0px"
   viewBox="0 0 30 30"
   style="enable-background:new 0 0 30 30;"
   xml:space="preserve"
   sodipodi:docname="wi-volcano.svg"
   inkscape:version="1.4.3 (0d15f75, 2025-12-25)"
   xmlns:inkscape="http://www.inkscape.org/namespaces/inkscape"
   xmlns:sodipodi="http://sodipodi.sourceforge.net/DTD/sodipodi-0.dtd"
   xmlns="http://www.w3.org/2000/svg"
   xmlns:svg="http://www.w3.org/2000/svg"><defs
   id="defs1" /><sodipodi:namedview
   id="namedview1"
   pagecolor="#ffffff"
   bordercolor="#000000"
   borderopacity="0.25"
   inkscape:showpageshadow="2"
   inkscape:pageopacity="0.0"
   inkscape:pagecheckerboard="0"
   inkscape:deskcolor="#d1d1d1"
   inkscape:zoom="23.133333"
   inkscape:cx="15.021614"
   inkscape:cy="15"
   inkscape:window-width="1024"
   inkscape:window-height="821"
   inkscape:window-x="1943"
   inkscape:window-y="308"
   inkscape:window-maximized="0"
   inkscape:current-layer="Layer_1" />
<path
   d="m 10.14,7.74 c 0,-0.46 0.15,-0.88 0.45,-1.24 0.3,-0.37 0.69,-0.6 1.16,-0.72 0.11,-0.56 0.4,-1.02 0.85,-1.38 0.45,-0.36 0.98,-0.54 1.56,-0.54 0.56,0 1.06,0.17 1.5,0.52 0.44,0.35 0.73,0.8 0.86,1.35 h 0.14 c 0.57,0 1.07,0.18 1.5,0.54 0.42,0.36 0.64,0.79 0.64,1.3 0,0.56 -0.22,1.03 -0.65,1.43 0,0.27 -0.12,0.59 -0.36,0.93 -0.24,0.35 -0.5,0.55 -0.78,0.61 -0.06,0.31 -0.21,0.57 -0.43,0.78 -0.23,0.22 -0.5,0.36 -0.82,0.43 0.15,0.16 0.22,0.34 0.22,0.54 0,0.25 -0.09,0.46 -0.26,0.63 -0.18,0.17 -0.39,0.25 -0.64,0.25 -0.24,0 -0.45,-0.09 -0.63,-0.26 -0.18,-0.17 -0.26,-0.38 -0.26,-0.62 0,-0.03 0.01,-0.08 0.02,-0.14 0.01,-0.06 0.02,-0.11 0.02,-0.13 H 14.2 c -0.29,0 -0.54,-0.11 -0.75,-0.32 -0.21,-0.21 -0.32,-0.46 -0.32,-0.75 0,-0.12 0.06,-0.3 0.18,-0.53 C 13.07,10.3 12.88,10.09 12.74,9.79 H 12.11 C 11.57,9.74 11.1,9.52 10.72,9.14 10.34,8.76 10.14,8.29 10.14,7.74 Z"
   id="fire" /><path
   id="horizon"
   d="M 7.39,22.61 C 7.27,22.34 7.3,22.07 7.48,21.8 l 1.4,-2.67 c 0.01,-0.04 0.05,-0.09 0.11,-0.15 0.04,-0.04 0.17,-0.14 0.38,-0.29 0.02,-0.01 0.25,-0.18 0.68,-0.5 0.48,-0.32 1.03,-0.72 1.68,-1.19 l 1.8,-2.98 c 0.17,-0.27 0.41,-0.41 0.72,-0.41 h 0.7 c -0.16,0.19 -0.31,0.39 -0.45,0.6 -0.14,0.21 -0.27,0.5 -0.38,0.85 -0.12,0.36 -0.18,0.71 -0.18,1.07 0,0.36 0.09,0.77 0.28,1.25 0.19,0.47 0.48,0.94 0.88,1.39 0.27,0.31 0.44,0.62 0.5,0.93 0.06,0.31 0.02,0.58 -0.1,0.83 -0.12,0.25 -0.32,0.5 -0.59,0.74 -0.27,0.24 -0.56,0.45 -0.88,0.63 -0.32,0.18 -0.68,0.35 -1.07,0.52 -0.39,0.17 -0.75,0.3 -1.05,0.41 -0.31,0.1 -0.62,0.2 -0.93,0.29 H 8.16 C 8,23.12 7.84,23.07 7.7,22.98 7.55,22.89 7.45,22.77 7.39,22.61 Z m 7.37,-7.13 c 0,-0.16 0.02,-0.34 0.07,-0.54 0.05,-0.2 0.11,-0.35 0.16,-0.47 0.05,-0.12 0.12,-0.27 0.21,-0.45 0.09,-0.18 0.15,-0.31 0.19,-0.41 h 0.38 c 0.28,0 0.49,0.11 0.66,0.32 l 0.07,0.1 1.31,2.48 4.65,5.23 0.04,0.03 c 0.21,0.27 0.24,0.56 0.08,0.88 -0.15,0.31 -0.4,0.46 -0.75,0.46 H 16.2 c 0.17,-0.16 0.32,-0.29 0.44,-0.39 0.12,-0.11 0.27,-0.27 0.45,-0.49 0.18,-0.22 0.33,-0.43 0.42,-0.61 0.09,-0.18 0.17,-0.42 0.23,-0.69 0.06,-0.27 0.07,-0.53 0.01,-0.79 -0.06,-0.25 -0.18,-0.53 -0.38,-0.84 -0.19,-0.31 -0.46,-0.61 -0.81,-0.91 -0.34,-0.3 -0.64,-0.59 -0.88,-0.88 -0.24,-0.28 -0.43,-0.54 -0.56,-0.76 -0.13,-0.22 -0.23,-0.45 -0.29,-0.68 -0.04,-0.23 -0.07,-0.43 -0.07,-0.59 z" />
</svg>
