<?xml version="1.0" encoding="UTF-8" standalone="no"?>
<!-- Generator: Adobe Illustrator 22.0.1, SVG Export Plug-In . SVG Version: 6.00 Build 0)  -->

<svg
   version="1.1"
   id="Layer_1"
   x="0px"
   y="0px"
   viewBox="0 0 30 30"
   style="enable-background:new 0 0 30 30;"
   xml:space="preserve"
   sodipodi:docname="wi-wind-beaufort-10.svg"
   inkscape:version="1.4.3 (0d15f75, 2025-12-25)"
   xmlns:inkscape="http://www.inkscape.org/namespaces/inkscape"
   xmlns:sodipodi="http://sodipodi.sourceforge.net/DTD/sodipodi-0.dtd"
   xmlns="http://www.w3.org/2000/svg"
   xmlns:svg="http://www.w3.org/2000/svg"><defs
   id="defs1" /><sodipodi:namedview
   id="namedview1"
   pagecolor="#ffffff"
   bordercolor="#000000"
   borderopacity="0.25"
   inkscape:showpageshadow="2"
   inkscape:pageopacity="0.0"
   inkscape:pagecheckerboard="0"
   inkscape:deskcolor="#d1d1d1"
   inkscape:zoom="23.133333"
   inkscape:cx="14.978386"
   inkscape:cy="15"
   inkscape:window-width="2560"
   inkscape:window-height="1387"
   inkscape:window-x="1352"
   inkscape:window-y="25"
   inkscape:window-maximized="0"
   inkscape:current-layer="Layer_1" />
<path
   id="text"
   d="m 15.97,21.8 h 2.46 l 1.64,-7.94 h -2.45 z m 4.19,-2.92 c 0,0.52 0.08,0.98 0.24,1.38 0.16,0.4 0.38,0.72 0.66,0.95 0.27,0.23 0.58,0.4 0.9,0.52 0.32,0.12 0.68,0.17 1.05,0.17 0.61,0 1.16,-0.12 1.64,-0.38 0.48,-0.25 0.86,-0.56 1.13,-0.93 0.27,-0.37 0.5,-0.79 0.68,-1.25 0.18,-0.47 0.3,-0.89 0.37,-1.27 0.06,-0.38 0.09,-0.73 0.09,-1.05 0,-0.97 -0.27,-1.72 -0.8,-2.25 -0.53,-0.53 -1.24,-0.8 -2.13,-0.8 -1.03,0 -1.93,0.46 -2.7,1.37 -0.75,0.92 -1.13,2.1 -1.13,3.54 z m 2.05,0.1 c 0,-0.16 0.01,-0.35 0.04,-0.59 0.03,-0.23 0.08,-0.51 0.16,-0.84 0.08,-0.32 0.18,-0.62 0.3,-0.9 0.12,-0.27 0.29,-0.5 0.52,-0.69 0.22,-0.19 0.47,-0.29 0.75,-0.29 0.27,0 0.48,0.09 0.65,0.27 0.16,0.18 0.24,0.44 0.24,0.79 0,0.96 -0.17,1.78 -0.5,2.45 -0.33,0.67 -0.75,1.01 -1.23,1.01 -0.62,0 -0.93,-0.4 -0.93,-1.21 z" /><path
   id="wind"
   d="m 3.15,13.5 c 0,0.18 0.06,0.31 0.17,0.4 0.12,0.11 0.26,0.17 0.42,0.17 h 10.4 c 0.18,0 0.33,0.06 0.46,0.19 0.13,0.12 0.2,0.28 0.2,0.46 0,0.18 -0.07,0.34 -0.2,0.47 -0.13,0.13 -0.28,0.2 -0.46,0.2 -0.18,0 -0.34,-0.07 -0.47,-0.21 -0.12,-0.11 -0.26,-0.16 -0.4,-0.16 -0.16,0 -0.3,0.05 -0.41,0.16 -0.11,0.11 -0.16,0.24 -0.16,0.39 0,0.16 0.06,0.3 0.17,0.41 0.36,0.36 0.78,0.53 1.27,0.53 0.49,0 0.91,-0.17 1.26,-0.52 0.35,-0.35 0.52,-0.77 0.52,-1.27 0,-0.49 -0.17,-0.92 -0.52,-1.27 -0.35,-0.35 -0.77,-0.53 -1.26,-0.53 H 3.75 c -0.16,0 -0.3,0.06 -0.42,0.17 -0.12,0.12 -0.18,0.25 -0.18,0.41 z m 0,-2.02 c 0,0.17 0.06,0.3 0.17,0.39 0.12,0.11 0.26,0.16 0.42,0.16 h 13.81 c 0.49,0 0.92,-0.18 1.27,-0.52 0.35,-0.35 0.52,-0.77 0.52,-1.27 0,-0.49 -0.17,-0.91 -0.52,-1.26 -0.35,-0.35 -0.77,-0.52 -1.27,-0.52 -0.49,0 -0.91,0.17 -1.27,0.51 -0.11,0.12 -0.16,0.27 -0.16,0.42 0,0.16 0.05,0.3 0.16,0.4 0.11,0.1 0.24,0.15 0.4,0.15 0.15,0 0.29,-0.05 0.41,-0.16 0.12,-0.12 0.27,-0.18 0.45,-0.18 0.17,0 0.33,0.06 0.46,0.18 0.13,0.12 0.2,0.27 0.2,0.45 0,0.18 -0.07,0.34 -0.2,0.47 -0.13,0.13 -0.28,0.2 -0.46,0.2 H 3.75 c -0.16,0 -0.3,0.06 -0.42,0.17 -0.12,0.11 -0.18,0.25 -0.18,0.41 z" />
</svg>
