<?xml version="1.0" encoding="UTF-8" standalone="no"?>
<!-- Generator: Adobe Illustrator 22.0.1, SVG Export Plug-In . SVG Version: 6.00 Build 0)  -->

<svg
   version="1.1"
   id="Layer_1"
   x="0px"
   y="0px"
   viewBox="0 0 30 30"
   style="enable-background:new 0 0 30 30;"
   xml:space="preserve"
   sodipodi:docname="wi-wind-beaufort-7.svg"
   inkscape:version="1.4.3 (0d15f75, 2025-12-25)"
   xmlns:inkscape="http://www.inkscape.org/namespaces/inkscape"
   xmlns:sodipodi="http://sodipodi.sourceforge.net/DTD/sodipodi-0.dtd"
   xmlns="http://www.w3.org/2000/svg"
   xmlns:svg="http://www.w3.org/2000/svg"><defs
   id="defs1" /><sodipodi:namedview
   id="namedview1"
   pagecolor="#ffffff"
   bordercolor="#000000"
   borderopacity="0.25"
   inkscape:showpageshadow="2"
   inkscape:pageopacity="0.0"
   inkscape:pagecheckerboard="0"
   inkscape:deskcolor="#d1d1d1"
   inkscape:zoom="23.133333"
   inkscape:cx="14.978386"
   inkscape:cy="15"
   inkscape:window-width="2560"
   inkscape:window-height="1387"
   inkscape:window-x="1352"
   inkscape:window-y="25"
   inkscape:window-maximized="0"
   inkscape:current-layer="Layer_1" />
<path
   d="m 18.85,21.9 h 2.47 c 0.26,-1.29 0.73,-2.45 1.39,-3.47 0.67,-1.02 1.39,-1.84 2.16,-2.44 l 0.38,-1.87 h -5.96 l -0.41,1.89 h 3.49 C 20.39,18 19.22,19.96 18.85,21.9 Z"
   id="text" /><path
   id="wind"
   d="m 4.83,13.5 c 0,0.18 0.06,0.31 0.17,0.4 0.12,0.11 0.26,0.17 0.42,0.17 h 10.4 c 0.17,0 0.33,0.06 0.46,0.19 0.13,0.12 0.2,0.28 0.2,0.46 0,0.18 -0.07,0.34 -0.2,0.47 -0.13,0.13 -0.28,0.2 -0.46,0.2 -0.18,0 -0.34,-0.07 -0.47,-0.21 -0.12,-0.11 -0.26,-0.16 -0.4,-0.16 -0.16,0 -0.3,0.05 -0.41,0.16 -0.11,0.11 -0.16,0.24 -0.16,0.39 0,0.16 0.06,0.3 0.17,0.41 0.36,0.36 0.78,0.53 1.27,0.53 0.49,0 0.91,-0.17 1.26,-0.52 0.35,-0.35 0.52,-0.77 0.52,-1.27 0,-0.49 -0.17,-0.92 -0.52,-1.27 -0.35,-0.35 -0.77,-0.53 -1.26,-0.53 H 5.42 c -0.16,0 -0.3,0.06 -0.42,0.17 -0.11,0.12 -0.17,0.25 -0.17,0.41 z m 0,-2.02 c 0,0.17 0.06,0.3 0.17,0.39 0.12,0.11 0.26,0.16 0.42,0.16 h 13.81 c 0.49,0 0.92,-0.18 1.27,-0.52 0.35,-0.35 0.52,-0.77 0.52,-1.27 0,-0.49 -0.17,-0.91 -0.52,-1.26 -0.35,-0.35 -0.77,-0.52 -1.27,-0.52 -0.49,0 -0.91,0.17 -1.27,0.51 -0.11,0.12 -0.16,0.27 -0.16,0.42 0,0.16 0.05,0.3 0.16,0.4 0.11,0.1 0.24,0.15 0.4,0.15 0.15,0 0.29,-0.05 0.41,-0.16 0.12,-0.12 0.27,-0.18 0.45,-0.18 0.17,0 0.33,0.06 0.46,0.18 0.13,0.12 0.2,0.27 0.2,0.45 0,0.18 -0.07,0.34 -0.2,0.47 -0.13,0.13 -0.28,0.2 -0.46,0.2 H 5.42 c -0.16,0 -0.3,0.06 -0.42,0.17 -0.11,0.11 -0.17,0.25 -0.17,0.41 z" />
</svg>
