<?xml version="1.0" encoding="UTF-8" standalone="no"?>
<!-- Generator: Adobe Illustrator 22.0.1, SVG Export Plug-In . SVG Version: 6.00 Build 0)  -->

<svg
   version="1.1"
   id="Layer_1"
   x="0px"
   y="0px"
   viewBox="0 0 30 30"
   style="enable-background:new 0 0 30 30;"
   xml:space="preserve"
   sodipodi:docname="wi-wind-beaufort-2.svg"
   inkscape:version="1.4.3 (0d15f75, 2025-12-25)"
   xmlns:inkscape="http://www.inkscape.org/namespaces/inkscape"
   xmlns:sodipodi="http://sodipodi.sourceforge.net/DTD/sodipodi-0.dtd"
   xmlns="http://www.w3.org/2000/svg"
   xmlns:svg="http://www.w3.org/2000/svg"><defs
   id="defs1" /><sodipodi:namedview
   id="namedview1"
   pagecolor="#ffffff"
   bordercolor="#000000"
   borderopacity="0.25"
   inkscape:showpageshadow="2"
   inkscape:pageopacity="0.0"
   inkscape:pagecheckerboard="0"
   inkscape:deskcolor="#d1d1d1"
   inkscape:zoom="23.133333"
   inkscape:cx="14.978386"
   inkscape:cy="15"
   inkscape:window-width="2560"
   inkscape:window-height="1387"
   inkscape:window-x="1352"
   inkscape:window-y="25"
   inkscape:window-maximized="0"
   inkscape:current-layer="Layer_1" />
<path
   d="m 17.66,21.85 h 6.62 l 0.4,-1.89 H 21 v -0.03 c 0.2,-0.09 0.49,-0.22 0.86,-0.37 0.38,-0.15 0.69,-0.28 0.95,-0.38 0.26,-0.1 0.55,-0.25 0.87,-0.44 0.32,-0.19 0.57,-0.38 0.77,-0.57 0.19,-0.19 0.36,-0.44 0.5,-0.75 0.14,-0.31 0.21,-0.64 0.21,-1 0,-0.56 -0.14,-1.02 -0.43,-1.4 -0.29,-0.38 -0.65,-0.65 -1.08,-0.81 -0.43,-0.16 -0.92,-0.24 -1.45,-0.24 -0.97,0 -1.76,0.26 -2.38,0.78 -0.62,0.52 -0.98,1.29 -1.1,2.31 h 2.09 c 0,-0.37 0.11,-0.68 0.32,-0.94 0.22,-0.26 0.52,-0.38 0.91,-0.38 0.3,0 0.52,0.08 0.67,0.24 0.15,0.16 0.23,0.34 0.23,0.54 0,0.12 -0.01,0.23 -0.03,0.32 -0.02,0.09 -0.07,0.19 -0.15,0.28 -0.08,0.09 -0.15,0.16 -0.21,0.22 -0.06,0.06 -0.17,0.13 -0.34,0.23 -0.17,0.09 -0.3,0.17 -0.4,0.22 -0.1,0.05 -0.27,0.13 -0.53,0.25 -0.88,0.43 -1.43,0.71 -1.64,0.83 -0.8,0.48 -1.35,1.07 -1.66,1.78 -0.16,0.36 -0.27,0.76 -0.32,1.2 z"
   id="text" /><path
   id="wind"
   d="m 4.94,13.5 c 0,0.18 0.06,0.31 0.17,0.4 0.12,0.11 0.26,0.17 0.42,0.17 h 10.4 c 0.17,0 0.33,0.06 0.46,0.19 0.13,0.12 0.2,0.28 0.2,0.46 0,0.18 -0.07,0.34 -0.2,0.47 -0.13,0.13 -0.28,0.2 -0.46,0.2 -0.18,0 -0.34,-0.07 -0.47,-0.21 -0.12,-0.11 -0.26,-0.16 -0.4,-0.16 -0.16,0 -0.3,0.05 -0.41,0.16 -0.11,0.11 -0.16,0.24 -0.16,0.39 0,0.16 0.06,0.3 0.17,0.41 0.36,0.36 0.78,0.53 1.27,0.53 0.49,0 0.91,-0.17 1.26,-0.52 0.35,-0.35 0.52,-0.77 0.52,-1.27 0,-0.49 -0.17,-0.92 -0.52,-1.27 -0.35,-0.35 -0.77,-0.53 -1.26,-0.53 H 5.53 c -0.16,0 -0.3,0.06 -0.42,0.17 -0.12,0.12 -0.17,0.25 -0.17,0.41 z m 0,-2.02 c 0,0.17 0.06,0.3 0.17,0.39 0.12,0.11 0.26,0.16 0.42,0.16 h 13.81 c 0.49,0 0.92,-0.18 1.27,-0.52 0.35,-0.35 0.52,-0.77 0.52,-1.27 0,-0.49 -0.17,-0.91 -0.52,-1.26 -0.35,-0.35 -0.77,-0.52 -1.27,-0.52 -0.49,0 -0.91,0.17 -1.27,0.51 -0.11,0.12 -0.16,0.27 -0.16,0.42 0,0.16 0.05,0.3 0.16,0.4 0.11,0.1 0.24,0.15 0.4,0.15 0.15,0 0.29,-0.05 0.41,-0.16 C 19,9.66 19.15,9.6 19.34,9.6 c 0.17,0 0.33,0.06 0.46,0.18 0.13,0.12 0.2,0.27 0.2,0.45 0,0.18 -0.07,0.34 -0.2,0.47 -0.13,0.13 -0.28,0.2 -0.46,0.2 H 5.53 c -0.16,0 -0.3,0.06 -0.42,0.17 -0.12,0.11 -0.17,0.25 -0.17,0.41 z" />
</svg>
