<?xml version="1.0" encoding="UTF-8" standalone="no"?>
<!-- Generator: Adobe Illustrator 22.0.1, SVG Export Plug-In . SVG Version: 6.00 Build 0)  -->

<svg
   version="1.1"
   id="Layer_1"
   x="0px"
   y="0px"
   viewBox="0 0 30 30"
   style="enable-background:new 0 0 30 30;"
   xml:space="preserve"
   sodipodi:docname="wi-wind-beaufort-12.svg"
   inkscape:version="1.4.3 (0d15f75, 2025-12-25)"
   xmlns:inkscape="http://www.inkscape.org/namespaces/inkscape"
   xmlns:sodipodi="http://sodipodi.sourceforge.net/DTD/sodipodi-0.dtd"
   xmlns="http://www.w3.org/2000/svg"
   xmlns:svg="http://www.w3.org/2000/svg"><defs
   id="defs1" /><sodipodi:namedview
   id="namedview1"
   pagecolor="#ffffff"
   bordercolor="#000000"
   borderopacity="0.25"
   inkscape:showpageshadow="2"
   inkscape:pageopacity="0.0"
   inkscape:pagecheckerboard="0"
   inkscape:deskcolor="#d1d1d1"
   inkscape:zoom="23.133333"
   inkscape:cx="14.978386"
   inkscape:cy="15"
   inkscape:window-width="2560"
   inkscape:window-height="1387"
   inkscape:window-x="1352"
   inkscape:window-y="25"
   inkscape:window-maximized="0"
   inkscape:current-layer="Layer_1" />
<path
   id="text"
   d="m 15.96,21.9 h 2.47 l 1.65,-7.99 h -2.47 z m 3.55,0 h 6.62 l 0.4,-1.9 h -3.67 v -0.02 c 0.2,-0.09 0.49,-0.22 0.86,-0.37 0.38,-0.15 0.69,-0.28 0.95,-0.38 0.26,-0.1 0.54,-0.25 0.86,-0.44 0.32,-0.19 0.58,-0.38 0.77,-0.58 0.19,-0.2 0.36,-0.45 0.5,-0.75 0.14,-0.3 0.21,-0.64 0.21,-1 0,-0.56 -0.14,-1.02 -0.43,-1.4 -0.29,-0.38 -0.65,-0.64 -1.08,-0.8 -0.43,-0.16 -0.92,-0.23 -1.45,-0.23 -0.97,0 -1.76,0.26 -2.37,0.78 -0.61,0.52 -0.98,1.29 -1.1,2.31 h 2.07 c 0,-0.38 0.11,-0.69 0.33,-0.95 0.22,-0.26 0.53,-0.38 0.93,-0.38 0.3,0 0.52,0.08 0.67,0.24 0.15,0.16 0.22,0.34 0.22,0.55 0,0.32 -0.11,0.58 -0.33,0.76 -0.22,0.18 -0.63,0.42 -1.25,0.72 -0.04,0.01 -0.07,0.02 -0.08,0.04 -0.89,0.43 -1.44,0.7 -1.65,0.83 -0.79,0.47 -1.34,1.06 -1.65,1.74 -0.16,0.36 -0.27,0.77 -0.33,1.23 z" /><path
   id="wind"
   d="m 3.07,13.5 c 0,0.18 0.06,0.31 0.17,0.4 0.12,0.11 0.26,0.17 0.42,0.17 h 10.4 c 0.17,0 0.33,0.06 0.46,0.19 0.13,0.12 0.2,0.28 0.2,0.46 0,0.18 -0.07,0.34 -0.2,0.47 -0.13,0.13 -0.28,0.2 -0.46,0.2 -0.18,0 -0.34,-0.07 -0.47,-0.21 -0.13,-0.11 -0.26,-0.16 -0.4,-0.16 -0.16,0 -0.3,0.05 -0.41,0.16 -0.11,0.11 -0.16,0.24 -0.16,0.39 0,0.16 0.06,0.3 0.17,0.41 0.36,0.36 0.78,0.53 1.28,0.53 0.5,0 0.91,-0.17 1.26,-0.52 0.35,-0.35 0.52,-0.77 0.52,-1.27 0,-0.49 -0.17,-0.92 -0.52,-1.27 -0.35,-0.35 -0.77,-0.53 -1.26,-0.53 H 3.66 c -0.16,0 -0.3,0.06 -0.42,0.17 -0.11,0.12 -0.17,0.25 -0.17,0.41 z m 0,-2.02 c 0,0.17 0.06,0.3 0.17,0.39 0.12,0.11 0.26,0.16 0.42,0.16 h 13.81 c 0.49,0 0.92,-0.18 1.27,-0.52 0.35,-0.35 0.52,-0.77 0.52,-1.27 0,-0.49 -0.17,-0.91 -0.52,-1.26 -0.35,-0.35 -0.77,-0.52 -1.27,-0.52 -0.49,0 -0.91,0.17 -1.27,0.51 -0.11,0.12 -0.16,0.27 -0.16,0.42 0,0.16 0.05,0.3 0.16,0.4 0.11,0.1 0.24,0.15 0.4,0.15 0.15,0 0.29,-0.05 0.41,-0.16 0.12,-0.12 0.27,-0.18 0.45,-0.18 0.17,0 0.33,0.06 0.46,0.18 0.13,0.12 0.2,0.27 0.2,0.45 0,0.18 -0.07,0.34 -0.2,0.47 -0.13,0.13 -0.28,0.2 -0.46,0.2 H 3.66 c -0.16,0 -0.3,0.06 -0.42,0.17 -0.11,0.11 -0.17,0.25 -0.17,0.41 z" />
</svg>
