<?xml version="1.0" encoding="UTF-8" standalone="no"?>
<!-- Generator: Adobe Illustrator 22.0.1, SVG Export Plug-In . SVG Version: 6.00 Build 0)  -->

<svg
   version="1.1"
   id="Layer_1"
   x="0px"
   y="0px"
   viewBox="0 0 30 30"
   style="enable-background:new 0 0 30 30;"
   xml:space="preserve"
   sodipodi:docname="wi-wind-beaufort-0.svg"
   inkscape:version="1.4.3 (0d15f75, 2025-12-25)"
   xmlns:inkscape="http://www.inkscape.org/namespaces/inkscape"
   xmlns:sodipodi="http://sodipodi.sourceforge.net/DTD/sodipodi-0.dtd"
   xmlns="http://www.w3.org/2000/svg"
   xmlns:svg="http://www.w3.org/2000/svg"><defs
   id="defs1" /><sodipodi:namedview
   id="namedview1"
   pagecolor="#ffffff"
   bordercolor="#000000"
   borderopacity="0.25"
   inkscape:showpageshadow="2"
   inkscape:pageopacity="0.0"
   inkscape:pagecheckerboard="0"
   inkscape:deskcolor="#d1d1d1"
   inkscape:zoom="23.133333"
   inkscape:cx="14.978386"
   inkscape:cy="15"
   inkscape:window-width="2560"
   inkscape:window-height="1387"
   inkscape:window-x="1352"
   inkscape:window-y="25"
   inkscape:window-maximized="0"
   inkscape:current-layer="Layer_1" />
<path
   d="m 18.27,18.9 c 0,0.52 0.08,0.98 0.24,1.37 0.16,0.39 0.38,0.71 0.66,0.94 0.28,0.23 0.58,0.4 0.91,0.52 0.33,0.11 0.68,0.17 1.05,0.17 0.51,0 0.98,-0.09 1.41,-0.26 0.43,-0.17 0.77,-0.4 1.05,-0.69 0.27,-0.29 0.51,-0.61 0.71,-0.95 0.2,-0.34 0.35,-0.7 0.45,-1.08 0.1,-0.38 0.18,-0.72 0.23,-1.03 0.05,-0.31 0.07,-0.6 0.07,-0.86 0,-0.97 -0.27,-1.72 -0.8,-2.25 -0.53,-0.53 -1.24,-0.8 -2.12,-0.8 -0.49,0 -0.97,0.12 -1.43,0.35 -0.46,0.23 -0.87,0.56 -1.23,0.98 -0.36,0.42 -0.65,0.94 -0.86,1.56 -0.23,0.62 -0.34,1.3 -0.34,2.03 z m 2.05,0.06 c 0,-0.15 0.01,-0.34 0.04,-0.58 0.03,-0.23 0.08,-0.51 0.16,-0.83 0.08,-0.32 0.18,-0.62 0.3,-0.89 0.12,-0.27 0.29,-0.5 0.52,-0.69 0.22,-0.19 0.47,-0.29 0.75,-0.29 0.27,0 0.49,0.09 0.65,0.26 0.16,0.17 0.23,0.44 0.23,0.79 0,0.96 -0.17,1.78 -0.5,2.45 -0.33,0.67 -0.74,1.01 -1.23,1.01 -0.61,0 -0.92,-0.41 -0.92,-1.23 z"
   id="text" /><path
   id="wind"
   d="m 5.01,13.5 c 0,0.18 0.06,0.31 0.17,0.4 0.12,0.11 0.26,0.17 0.42,0.17 H 16 c 0.17,0 0.33,0.06 0.46,0.19 0.13,0.12 0.2,0.28 0.2,0.46 0,0.18 -0.07,0.34 -0.2,0.47 -0.13,0.13 -0.28,0.2 -0.46,0.2 -0.18,0 -0.34,-0.07 -0.47,-0.21 -0.13,-0.11 -0.26,-0.16 -0.4,-0.16 -0.16,0 -0.3,0.05 -0.41,0.16 -0.11,0.11 -0.16,0.24 -0.16,0.39 0,0.16 0.06,0.3 0.17,0.41 0.36,0.36 0.78,0.53 1.28,0.53 0.5,0 0.91,-0.17 1.26,-0.52 0.35,-0.35 0.52,-0.77 0.52,-1.27 0,-0.49 -0.17,-0.92 -0.52,-1.27 C 16.92,13.1 16.5,12.92 16.01,12.92 H 5.6 c -0.16,0 -0.3,0.06 -0.42,0.17 -0.11,0.12 -0.17,0.25 -0.17,0.41 z m 0,-2.02 c 0,0.17 0.06,0.3 0.17,0.39 0.12,0.11 0.26,0.16 0.42,0.16 h 13.81 c 0.49,0 0.92,-0.18 1.27,-0.52 0.35,-0.35 0.52,-0.77 0.52,-1.27 0,-0.49 -0.17,-0.91 -0.52,-1.26 -0.35,-0.35 -0.77,-0.52 -1.27,-0.52 -0.49,0 -0.91,0.17 -1.27,0.51 -0.11,0.12 -0.16,0.27 -0.16,0.42 0,0.16 0.05,0.3 0.16,0.4 0.11,0.1 0.24,0.15 0.4,0.15 0.15,0 0.29,-0.05 0.41,-0.16 0.12,-0.12 0.27,-0.18 0.45,-0.18 0.17,0 0.33,0.06 0.46,0.18 0.13,0.12 0.2,0.27 0.2,0.45 0,0.18 -0.07,0.34 -0.2,0.47 -0.13,0.13 -0.28,0.2 -0.46,0.2 H 5.6 c -0.16,0 -0.3,0.06 -0.42,0.17 -0.11,0.11 -0.17,0.25 -0.17,0.41 z" />
</svg>
