<?xml version="1.0" encoding="UTF-8" standalone="no"?>
<!-- Generator: Adobe Illustrator 22.0.1, SVG Export Plug-In . SVG Version: 6.00 Build 0)  -->

<svg
   version="1.1"
   id="Layer_1"
   x="0px"
   y="0px"
   viewBox="0 0 30 30"
   style="enable-background:new 0 0 30 30;"
   xml:space="preserve"
   sodipodi:docname="wi-wind-deg.svg"
   inkscape:version="1.4.3 (0d15f75, 2025-12-25)"
   xmlns:inkscape="http://www.inkscape.org/namespaces/inkscape"
   xmlns:sodipodi="http://sodipodi.sourceforge.net/DTD/sodipodi-0.dtd"
   xmlns="http://www.w3.org/2000/svg"
   xmlns:svg="http://www.w3.org/2000/svg"><defs
   id="defs1" /><sodipodi:namedview
   id="namedview1"
   pagecolor="#ffffff"
   bordercolor="#000000"
   borderopacity="0.25"
   inkscape:showpageshadow="2"
   inkscape:pageopacity="0.0"
   inkscape:pagecheckerboard="0"
   inkscape:deskcolor="#d1d1d1"
   inkscape:zoom="23.133333"
   inkscape:cx="15.021614"
   inkscape:cy="15"
   inkscape:window-width="1024"
   inkscape:window-height="821"
   inkscape:window-x="1831"
   inkscape:window-y="330"
   inkscape:window-maximized="0"
   inkscape:current-layer="Layer_1" />
<path
   d="m 3.74,14.5 c 0,-2.04 0.51,-3.93 1.52,-5.66 1.01,-1.73 2.38,-3.1 4.11,-4.11 1.73,-1.01 3.61,-1.51 5.64,-1.51 1.52,0 2.98,0.3 4.37,0.89 1.39,0.59 2.58,1.4 3.59,2.4 1.01,1 1.81,2.2 2.4,3.6 0.59,1.4 0.89,2.85 0.89,4.39 0,1.52 -0.3,2.98 -0.89,4.37 -0.59,1.39 -1.4,2.59 -2.4,3.59 -1,1 -2.2,1.8 -3.59,2.39 -1.39,0.59 -2.84,0.89 -4.37,0.89 -1.53,0 -3,-0.3 -4.39,-0.89 -1.39,-0.59 -2.59,-1.4 -3.6,-2.4 -1.01,-1 -1.8,-2.2 -2.4,-3.58 C 4.02,17.49 3.74,16.03 3.74,14.5 Z m 2.48,0 c 0,2.37 0.86,4.43 2.59,6.18 1.73,1.73 3.79,2.59 6.2,2.59 1.58,0 3.05,-0.39 4.39,-1.18 1.34,-0.79 2.42,-1.85 3.21,-3.2 0.79,-1.35 1.19,-2.81 1.19,-4.39 0,-1.58 -0.4,-3.05 -1.19,-4.4 C 21.82,8.75 20.75,7.68 19.4,6.89 18.05,6.1 16.59,5.71 15.01,5.71 13.43,5.71 11.96,6.1 10.62,6.89 9.28,7.68 8.2,8.75 7.4,10.1 6.6,11.45 6.22,12.92 6.22,14.5 Z"
   id="line" /><path
   d="M 11.11,20.35 14.86,7.24 c 0.01,-0.1 0.06,-0.15 0.15,-0.15 0.09,0 0.14,0.05 0.15,0.15 l 3.74,13.11 c 0.04,0.11 0.03,0.19 -0.02,0.25 -0.05,0.06 -0.13,0.06 -0.24,0 l -3.47,-1.3 c -0.1,-0.04 -0.2,-0.04 -0.29,0 l -3.5,1.3 c -0.1,0.06 -0.17,0.06 -0.21,0 -0.04,-0.06 -0.08,-0.15 -0.06,-0.25 z"
   id="indicator" />
</svg>
