<?xml version="1.0" encoding="UTF-8" standalone="no"?>
<!-- Generator: Adobe Illustrator 22.0.1, SVG Export Plug-In . SVG Version: 6.00 Build 0)  -->

<svg
   version="1.1"
   id="Layer_1"
   x="0px"
   y="0px"
   viewBox="0 0 30 30"
   style="enable-background:new 0 0 30 30;"
   xml:space="preserve"
   sodipodi:docname="wi-windy.svg"
   inkscape:version="1.4.3 (0d15f75, 2025-12-25)"
   xmlns:inkscape="http://www.inkscape.org/namespaces/inkscape"
   xmlns:sodipodi="http://sodipodi.sourceforge.net/DTD/sodipodi-0.dtd"
   xmlns="http://www.w3.org/2000/svg"
   xmlns:svg="http://www.w3.org/2000/svg"><defs
   id="defs1" /><sodipodi:namedview
   id="namedview1"
   pagecolor="#ffffff"
   bordercolor="#000000"
   borderopacity="0.25"
   inkscape:showpageshadow="2"
   inkscape:pageopacity="0.0"
   inkscape:pagecheckerboard="0"
   inkscape:deskcolor="#d1d1d1"
   inkscape:zoom="23.133333"
   inkscape:cx="14.978386"
   inkscape:cy="15"
   inkscape:window-width="2560"
   inkscape:window-height="1387"
   inkscape:window-x="1352"
   inkscape:window-y="25"
   inkscape:window-maximized="0"
   inkscape:current-layer="Layer_1" />
<path
   d="M4.65,15.5c0-0.22,0.08-0.41,0.23-0.56c0.16-0.15,0.35-0.22,0.57-0.22h12.08c0.22,0,0.4,0.07,0.54,0.22  c0.14,0.15,0.22,0.34,0.22,0.57c0,0.22-0.07,0.4-0.22,0.54c-0.14,0.14-0.32,0.22-0.54,0.22H5.45c-0.22,0-0.42-0.07-0.57-0.22  C4.72,15.9,4.65,15.72,4.65,15.5z M7.06,12.6c0-0.22,0.08-0.4,0.23-0.55c0.15-0.15,0.34-0.23,0.56-0.23h12.09  c0.21,0,0.39,0.08,0.54,0.23c0.15,0.15,0.22,0.33,0.22,0.55c0,0.22-0.07,0.4-0.22,0.56c-0.15,0.15-0.33,0.23-0.54,0.23H7.86  c-0.22,0-0.41-0.08-0.56-0.23S7.06,12.82,7.06,12.6z M8.68,18.34c0-0.21,0.08-0.39,0.24-0.54c0.14-0.14,0.32-0.22,0.54-0.22h12.1  c0.22,0,0.41,0.07,0.56,0.22c0.15,0.14,0.22,0.32,0.22,0.54s-0.08,0.41-0.23,0.56s-0.34,0.23-0.56,0.23H9.46  c-0.22,0-0.4-0.08-0.56-0.23S8.68,18.56,8.68,18.34z M19.26,15.5c0-0.23,0.07-0.42,0.22-0.57c0.15-0.15,0.34-0.22,0.57-0.22h4.52  c0.23,0,0.42,0.07,0.57,0.22c0.15,0.15,0.22,0.34,0.22,0.56c0,0.22-0.07,0.4-0.22,0.54c-0.15,0.14-0.34,0.22-0.56,0.22h-4.52  c-0.23,0-0.42-0.07-0.57-0.22C19.33,15.9,19.26,15.72,19.26,15.5z"
   id="wind" />
</svg>
