<?xml version="1.0" encoding="UTF-8" standalone="no"?>
<!-- Generator: Adobe Illustrator 22.0.1, SVG Export Plug-In . SVG Version: 6.00 Build 0)  -->

<svg
   version="1.1"
   id="Layer_1"
   x="0px"
   y="0px"
   viewBox="0 0 30 30"
   style="enable-background:new 0 0 30 30;"
   xml:space="preserve"
   sodipodi:docname="wi-wind-beaufort-3.svg"
   inkscape:version="1.4.3 (0d15f75, 2025-12-25)"
   xmlns:inkscape="http://www.inkscape.org/namespaces/inkscape"
   xmlns:sodipodi="http://sodipodi.sourceforge.net/DTD/sodipodi-0.dtd"
   xmlns="http://www.w3.org/2000/svg"
   xmlns:svg="http://www.w3.org/2000/svg"><defs
   id="defs1" /><sodipodi:namedview
   id="namedview1"
   pagecolor="#ffffff"
   bordercolor="#000000"
   borderopacity="0.25"
   inkscape:showpageshadow="2"
   inkscape:pageopacity="0.0"
   inkscape:pagecheckerboard="0"
   inkscape:deskcolor="#d1d1d1"
   inkscape:zoom="23.133333"
   inkscape:cx="15"
   inkscape:cy="15"
   inkscape:window-width="1939"
   inkscape:window-height="1387"
   inkscape:window-x="1352"
   inkscape:window-y="25"
   inkscape:window-maximized="0"
   inkscape:current-layer="Layer_1" />
<path
   d="m 18.12,19.52 c 0,0.27 0.05,0.53 0.16,0.79 0.11,0.26 0.27,0.5 0.5,0.75 0.23,0.24 0.55,0.43 0.96,0.58 0.41,0.15 0.9,0.22 1.46,0.22 1.21,0 2.08,-0.24 2.63,-0.72 0.55,-0.48 0.82,-1.13 0.82,-1.95 0,-0.36 -0.1,-0.69 -0.3,-0.99 -0.2,-0.3 -0.47,-0.47 -0.79,-0.51 v -0.02 c 0.43,-0.08 0.79,-0.27 1.07,-0.58 0.28,-0.31 0.43,-0.69 0.43,-1.12 0,-0.31 -0.06,-0.58 -0.17,-0.82 -0.11,-0.24 -0.26,-0.43 -0.44,-0.58 -0.18,-0.15 -0.39,-0.27 -0.64,-0.37 -0.25,-0.1 -0.5,-0.16 -0.75,-0.2 -0.25,-0.04 -0.52,-0.06 -0.8,-0.06 -0.92,0 -1.68,0.22 -2.28,0.67 -0.59,0.45 -0.96,1.12 -1.1,2.01 h 2.03 c 0.04,-0.31 0.17,-0.55 0.38,-0.72 0.21,-0.17 0.47,-0.26 0.78,-0.26 0.29,0 0.51,0.06 0.68,0.18 0.17,0.12 0.25,0.29 0.25,0.5 0,0.47 -0.42,0.7 -1.27,0.7 h -0.47 l -0.29,1.4 h 0.44 c 0.68,0 1.02,0.23 1.02,0.7 0,0.31 -0.11,0.55 -0.34,0.72 -0.23,0.17 -0.5,0.25 -0.83,0.25 -0.38,0 -0.66,-0.11 -0.83,-0.34 -0.17,-0.21 -0.24,-0.51 -0.21,-0.89 h -2.07 c -0.02,0.2 -0.03,0.41 -0.03,0.66 z"
   id="text" /><path
   id="wind"
   d="m 5.03,13.5 c 0,0.18 0.06,0.31 0.17,0.4 0.12,0.11 0.26,0.17 0.42,0.17 h 10.4 c 0.17,0 0.33,0.06 0.46,0.19 0.13,0.12 0.2,0.28 0.2,0.46 0,0.18 -0.07,0.34 -0.2,0.47 -0.13,0.13 -0.28,0.2 -0.46,0.2 -0.18,0 -0.34,-0.07 -0.47,-0.21 -0.12,-0.11 -0.26,-0.16 -0.4,-0.16 -0.16,0 -0.3,0.05 -0.41,0.16 -0.11,0.11 -0.16,0.24 -0.16,0.39 0,0.16 0.06,0.3 0.17,0.41 0.36,0.36 0.78,0.53 1.27,0.53 0.49,0 0.91,-0.17 1.26,-0.52 0.35,-0.35 0.52,-0.77 0.52,-1.27 0,-0.49 -0.17,-0.92 -0.52,-1.27 -0.35,-0.35 -0.77,-0.53 -1.26,-0.53 H 5.62 c -0.16,0 -0.3,0.06 -0.42,0.17 -0.11,0.12 -0.17,0.25 -0.17,0.41 z m 0,-2.02 c 0,0.17 0.06,0.3 0.17,0.39 0.12,0.11 0.26,0.16 0.42,0.16 h 13.81 c 0.49,0 0.92,-0.18 1.27,-0.52 0.35,-0.35 0.52,-0.77 0.52,-1.27 C 21.22,9.75 21.05,9.33 20.7,8.98 20.35,8.63 19.93,8.46 19.43,8.46 18.94,8.46 18.52,8.63 18.16,8.97 18.06,9.09 18,9.23 18,9.38 c 0,0.16 0.05,0.3 0.16,0.4 0.11,0.1 0.24,0.15 0.4,0.15 0.15,0 0.29,-0.05 0.41,-0.16 0.12,-0.12 0.27,-0.18 0.45,-0.18 0.17,0 0.33,0.06 0.46,0.18 0.13,0.12 0.2,0.27 0.2,0.45 0,0.18 -0.07,0.34 -0.2,0.47 -0.13,0.13 -0.28,0.2 -0.46,0.2 H 5.62 c -0.16,0 -0.3,0.06 -0.42,0.17 -0.11,0.12 -0.17,0.26 -0.17,0.42 z" />
</svg>
